%TF.GenerationSoftware,KiCad,Pcbnew,(5.1.10)-1*%
%TF.CreationDate,2022-04-21T22:26:52+02:00*%
%TF.ProjectId,Lin-bus card,4c696e2d-6275-4732-9063-6172642e6b69,rev?*%
%TF.SameCoordinates,Original*%
%TF.FileFunction,Legend,Top*%
%TF.FilePolarity,Positive*%
%FSLAX46Y46*%
G04 Gerber Fmt 4.6, Leading zero omitted, Abs format (unit mm)*
G04 Created by KiCad (PCBNEW (5.1.10)-1) date 2022-04-21 22:26:52*
%MOMM*%
%LPD*%
G01*
G04 APERTURE LIST*
%ADD10C,0.150000*%
%ADD11C,0.120000*%
%ADD12C,0.254000*%
%ADD13R,2.150000X5.700000*%
%ADD14R,1.100000X1.100000*%
%ADD15R,2.500000X1.800000*%
%ADD16R,0.600000X0.450000*%
%ADD17O,1.700000X1.700000*%
%ADD18R,1.700000X1.700000*%
%ADD19R,1.600000X1.600000*%
%ADD20C,1.600000*%
%ADD21C,4.000000*%
%ADD22R,1.600000X1.900000*%
%ADD23R,1.100000X4.600000*%
%ADD24R,10.800000X9.400000*%
%ADD25O,1.600000X1.600000*%
%ADD26C,3.200000*%
%ADD27C,3.000000*%
G04 APERTURE END LIST*
D10*
X170323095Y-99766428D02*
X171085000Y-99766428D01*
X170704047Y-100147380D02*
X170704047Y-99385476D01*
X172085000Y-100147380D02*
X171513571Y-100147380D01*
X171799285Y-100147380D02*
X171799285Y-99147380D01*
X171704047Y-99290238D01*
X171608809Y-99385476D01*
X171513571Y-99433095D01*
X172465952Y-99242619D02*
X172513571Y-99195000D01*
X172608809Y-99147380D01*
X172846904Y-99147380D01*
X172942142Y-99195000D01*
X172989761Y-99242619D01*
X173037380Y-99337857D01*
X173037380Y-99433095D01*
X172989761Y-99575952D01*
X172418333Y-100147380D01*
X173037380Y-100147380D01*
X173323095Y-99147380D02*
X173656428Y-100147380D01*
X173989761Y-99147380D01*
X171323095Y-92210000D02*
X171227857Y-92162380D01*
X171085000Y-92162380D01*
X170942142Y-92210000D01*
X170846904Y-92305238D01*
X170799285Y-92400476D01*
X170751666Y-92590952D01*
X170751666Y-92733809D01*
X170799285Y-92924285D01*
X170846904Y-93019523D01*
X170942142Y-93114761D01*
X171085000Y-93162380D01*
X171180238Y-93162380D01*
X171323095Y-93114761D01*
X171370714Y-93067142D01*
X171370714Y-92733809D01*
X171180238Y-92733809D01*
X171799285Y-93162380D02*
X171799285Y-92162380D01*
X172370714Y-93162380D01*
X172370714Y-92162380D01*
X172846904Y-93162380D02*
X172846904Y-92162380D01*
X173085000Y-92162380D01*
X173227857Y-92210000D01*
X173323095Y-92305238D01*
X173370714Y-92400476D01*
X173418333Y-92590952D01*
X173418333Y-92733809D01*
X173370714Y-92924285D01*
X173323095Y-93019523D01*
X173227857Y-93114761D01*
X173085000Y-93162380D01*
X172846904Y-93162380D01*
X138691428Y-85766190D02*
X138643809Y-85909047D01*
X138596190Y-85956666D01*
X138500952Y-86004285D01*
X138358095Y-86004285D01*
X138262857Y-85956666D01*
X138215238Y-85909047D01*
X138167619Y-85813809D01*
X138167619Y-85432857D01*
X139167619Y-85432857D01*
X139167619Y-85766190D01*
X139120000Y-85861428D01*
X139072380Y-85909047D01*
X138977142Y-85956666D01*
X138881904Y-85956666D01*
X138786666Y-85909047D01*
X138739047Y-85861428D01*
X138691428Y-85766190D01*
X138691428Y-85432857D01*
X138215238Y-86813809D02*
X138167619Y-86718571D01*
X138167619Y-86528095D01*
X138215238Y-86432857D01*
X138310476Y-86385238D01*
X138691428Y-86385238D01*
X138786666Y-86432857D01*
X138834285Y-86528095D01*
X138834285Y-86718571D01*
X138786666Y-86813809D01*
X138691428Y-86861428D01*
X138596190Y-86861428D01*
X138500952Y-86385238D01*
X138167619Y-87718571D02*
X138691428Y-87718571D01*
X138786666Y-87670952D01*
X138834285Y-87575714D01*
X138834285Y-87385238D01*
X138786666Y-87290000D01*
X138215238Y-87718571D02*
X138167619Y-87623333D01*
X138167619Y-87385238D01*
X138215238Y-87290000D01*
X138310476Y-87242380D01*
X138405714Y-87242380D01*
X138500952Y-87290000D01*
X138548571Y-87385238D01*
X138548571Y-87623333D01*
X138596190Y-87718571D01*
X138167619Y-88194761D02*
X138834285Y-88194761D01*
X138739047Y-88194761D02*
X138786666Y-88242380D01*
X138834285Y-88337619D01*
X138834285Y-88480476D01*
X138786666Y-88575714D01*
X138691428Y-88623333D01*
X138167619Y-88623333D01*
X138691428Y-88623333D02*
X138786666Y-88670952D01*
X138834285Y-88766190D01*
X138834285Y-88909047D01*
X138786666Y-89004285D01*
X138691428Y-89051904D01*
X138167619Y-89051904D01*
X138834285Y-89432857D02*
X138167619Y-89670952D01*
X138834285Y-89909047D02*
X138167619Y-89670952D01*
X137929523Y-89575714D01*
X137881904Y-89528095D01*
X137834285Y-89432857D01*
X138167619Y-91528095D02*
X138167619Y-91051904D01*
X139167619Y-91051904D01*
X138167619Y-92290000D02*
X138691428Y-92290000D01*
X138786666Y-92242380D01*
X138834285Y-92147142D01*
X138834285Y-91956666D01*
X138786666Y-91861428D01*
X138215238Y-92290000D02*
X138167619Y-92194761D01*
X138167619Y-91956666D01*
X138215238Y-91861428D01*
X138310476Y-91813809D01*
X138405714Y-91813809D01*
X138500952Y-91861428D01*
X138548571Y-91956666D01*
X138548571Y-92194761D01*
X138596190Y-92290000D01*
X138167619Y-92766190D02*
X139167619Y-92766190D01*
X138786666Y-92766190D02*
X138834285Y-92861428D01*
X138834285Y-93051904D01*
X138786666Y-93147142D01*
X138739047Y-93194761D01*
X138643809Y-93242380D01*
X138358095Y-93242380D01*
X138262857Y-93194761D01*
X138215238Y-93147142D01*
X138167619Y-93051904D01*
X138167619Y-92861428D01*
X138215238Y-92766190D01*
X138215238Y-93623333D02*
X138167619Y-93718571D01*
X138167619Y-93909047D01*
X138215238Y-94004285D01*
X138310476Y-94051904D01*
X138358095Y-94051904D01*
X138453333Y-94004285D01*
X138500952Y-93909047D01*
X138500952Y-93766190D01*
X138548571Y-93670952D01*
X138643809Y-93623333D01*
X138691428Y-93623333D01*
X138786666Y-93670952D01*
X138834285Y-93766190D01*
X138834285Y-93909047D01*
X138786666Y-94004285D01*
X138167619Y-95718571D02*
X138167619Y-95242380D01*
X139167619Y-95242380D01*
X138167619Y-96051904D02*
X138834285Y-96051904D01*
X139167619Y-96051904D02*
X139120000Y-96004285D01*
X139072380Y-96051904D01*
X139120000Y-96099523D01*
X139167619Y-96051904D01*
X139072380Y-96051904D01*
X138834285Y-96528095D02*
X138167619Y-96528095D01*
X138739047Y-96528095D02*
X138786666Y-96575714D01*
X138834285Y-96670952D01*
X138834285Y-96813809D01*
X138786666Y-96909047D01*
X138691428Y-96956666D01*
X138167619Y-96956666D01*
X139167619Y-98051904D02*
X139167619Y-98623333D01*
X138167619Y-98337619D02*
X139167619Y-98337619D01*
X138167619Y-98956666D02*
X138834285Y-98956666D01*
X138643809Y-98956666D02*
X138739047Y-99004285D01*
X138786666Y-99051904D01*
X138834285Y-99147142D01*
X138834285Y-99242380D01*
X138167619Y-100004285D02*
X138691428Y-100004285D01*
X138786666Y-99956666D01*
X138834285Y-99861428D01*
X138834285Y-99670952D01*
X138786666Y-99575714D01*
X138215238Y-100004285D02*
X138167619Y-99909047D01*
X138167619Y-99670952D01*
X138215238Y-99575714D01*
X138310476Y-99528095D01*
X138405714Y-99528095D01*
X138500952Y-99575714D01*
X138548571Y-99670952D01*
X138548571Y-99909047D01*
X138596190Y-100004285D01*
X138834285Y-100480476D02*
X138167619Y-100480476D01*
X138739047Y-100480476D02*
X138786666Y-100528095D01*
X138834285Y-100623333D01*
X138834285Y-100766190D01*
X138786666Y-100861428D01*
X138691428Y-100909047D01*
X138167619Y-100909047D01*
X138215238Y-101337619D02*
X138167619Y-101432857D01*
X138167619Y-101623333D01*
X138215238Y-101718571D01*
X138310476Y-101766190D01*
X138358095Y-101766190D01*
X138453333Y-101718571D01*
X138500952Y-101623333D01*
X138500952Y-101480476D01*
X138548571Y-101385238D01*
X138643809Y-101337619D01*
X138691428Y-101337619D01*
X138786666Y-101385238D01*
X138834285Y-101480476D01*
X138834285Y-101623333D01*
X138786666Y-101718571D01*
X138215238Y-102623333D02*
X138167619Y-102528095D01*
X138167619Y-102337619D01*
X138215238Y-102242380D01*
X138262857Y-102194761D01*
X138358095Y-102147142D01*
X138643809Y-102147142D01*
X138739047Y-102194761D01*
X138786666Y-102242380D01*
X138834285Y-102337619D01*
X138834285Y-102528095D01*
X138786666Y-102623333D01*
X138215238Y-103432857D02*
X138167619Y-103337619D01*
X138167619Y-103147142D01*
X138215238Y-103051904D01*
X138310476Y-103004285D01*
X138691428Y-103004285D01*
X138786666Y-103051904D01*
X138834285Y-103147142D01*
X138834285Y-103337619D01*
X138786666Y-103432857D01*
X138691428Y-103480476D01*
X138596190Y-103480476D01*
X138500952Y-103004285D01*
X138167619Y-103909047D02*
X138834285Y-103909047D01*
X139167619Y-103909047D02*
X139120000Y-103861428D01*
X139072380Y-103909047D01*
X139120000Y-103956666D01*
X139167619Y-103909047D01*
X139072380Y-103909047D01*
X138834285Y-104290000D02*
X138167619Y-104528095D01*
X138834285Y-104766190D01*
X138215238Y-105528095D02*
X138167619Y-105432857D01*
X138167619Y-105242380D01*
X138215238Y-105147142D01*
X138310476Y-105099523D01*
X138691428Y-105099523D01*
X138786666Y-105147142D01*
X138834285Y-105242380D01*
X138834285Y-105432857D01*
X138786666Y-105528095D01*
X138691428Y-105575714D01*
X138596190Y-105575714D01*
X138500952Y-105099523D01*
X138167619Y-106004285D02*
X138834285Y-106004285D01*
X138643809Y-106004285D02*
X138739047Y-106051904D01*
X138786666Y-106099523D01*
X138834285Y-106194761D01*
X138834285Y-106290000D01*
X139167619Y-107242380D02*
X138167619Y-107575714D01*
X139167619Y-107909047D01*
X139167619Y-108432857D02*
X139167619Y-108528095D01*
X139120000Y-108623333D01*
X139072380Y-108670952D01*
X138977142Y-108718571D01*
X138786666Y-108766190D01*
X138548571Y-108766190D01*
X138358095Y-108718571D01*
X138262857Y-108670952D01*
X138215238Y-108623333D01*
X138167619Y-108528095D01*
X138167619Y-108432857D01*
X138215238Y-108337619D01*
X138262857Y-108290000D01*
X138358095Y-108242380D01*
X138548571Y-108194761D01*
X138786666Y-108194761D01*
X138977142Y-108242380D01*
X139072380Y-108290000D01*
X139120000Y-108337619D01*
X139167619Y-108432857D01*
X138262857Y-109194761D02*
X138215238Y-109242380D01*
X138167619Y-109194761D01*
X138215238Y-109147142D01*
X138262857Y-109194761D01*
X138167619Y-109194761D01*
X138167619Y-110194761D02*
X138167619Y-109623333D01*
X138167619Y-109909047D02*
X139167619Y-109909047D01*
X139024761Y-109813809D01*
X138929523Y-109718571D01*
X138881904Y-109623333D01*
X137422380Y-92932857D02*
X137470000Y-92980476D01*
X137517619Y-93075714D01*
X137517619Y-93313809D01*
X137470000Y-93409047D01*
X137422380Y-93456666D01*
X137327142Y-93504285D01*
X137231904Y-93504285D01*
X137089047Y-93456666D01*
X136517619Y-92885238D01*
X136517619Y-93504285D01*
X137517619Y-94123333D02*
X137517619Y-94218571D01*
X137470000Y-94313809D01*
X137422380Y-94361428D01*
X137327142Y-94409047D01*
X137136666Y-94456666D01*
X136898571Y-94456666D01*
X136708095Y-94409047D01*
X136612857Y-94361428D01*
X136565238Y-94313809D01*
X136517619Y-94218571D01*
X136517619Y-94123333D01*
X136565238Y-94028095D01*
X136612857Y-93980476D01*
X136708095Y-93932857D01*
X136898571Y-93885238D01*
X137136666Y-93885238D01*
X137327142Y-93932857D01*
X137422380Y-93980476D01*
X137470000Y-94028095D01*
X137517619Y-94123333D01*
X137422380Y-94837619D02*
X137470000Y-94885238D01*
X137517619Y-94980476D01*
X137517619Y-95218571D01*
X137470000Y-95313809D01*
X137422380Y-95361428D01*
X137327142Y-95409047D01*
X137231904Y-95409047D01*
X137089047Y-95361428D01*
X136517619Y-94790000D01*
X136517619Y-95409047D01*
X137422380Y-95790000D02*
X137470000Y-95837619D01*
X137517619Y-95932857D01*
X137517619Y-96170952D01*
X137470000Y-96266190D01*
X137422380Y-96313809D01*
X137327142Y-96361428D01*
X137231904Y-96361428D01*
X137089047Y-96313809D01*
X136517619Y-95742380D01*
X136517619Y-96361428D01*
X136898571Y-96790000D02*
X136898571Y-97551904D01*
X137517619Y-98218571D02*
X137517619Y-98313809D01*
X137470000Y-98409047D01*
X137422380Y-98456666D01*
X137327142Y-98504285D01*
X137136666Y-98551904D01*
X136898571Y-98551904D01*
X136708095Y-98504285D01*
X136612857Y-98456666D01*
X136565238Y-98409047D01*
X136517619Y-98313809D01*
X136517619Y-98218571D01*
X136565238Y-98123333D01*
X136612857Y-98075714D01*
X136708095Y-98028095D01*
X136898571Y-97980476D01*
X137136666Y-97980476D01*
X137327142Y-98028095D01*
X137422380Y-98075714D01*
X137470000Y-98123333D01*
X137517619Y-98218571D01*
X137184285Y-99409047D02*
X136517619Y-99409047D01*
X137565238Y-99170952D02*
X136850952Y-98932857D01*
X136850952Y-99551904D01*
X136898571Y-99932857D02*
X136898571Y-100694761D01*
X136517619Y-101694761D02*
X136517619Y-101123333D01*
X136517619Y-101409047D02*
X137517619Y-101409047D01*
X137374761Y-101313809D01*
X137279523Y-101218571D01*
X137231904Y-101123333D01*
X136517619Y-102170952D02*
X136517619Y-102361428D01*
X136565238Y-102456666D01*
X136612857Y-102504285D01*
X136755714Y-102599523D01*
X136946190Y-102647142D01*
X137327142Y-102647142D01*
X137422380Y-102599523D01*
X137470000Y-102551904D01*
X137517619Y-102456666D01*
X137517619Y-102266190D01*
X137470000Y-102170952D01*
X137422380Y-102123333D01*
X137327142Y-102075714D01*
X137089047Y-102075714D01*
X136993809Y-102123333D01*
X136946190Y-102170952D01*
X136898571Y-102266190D01*
X136898571Y-102456666D01*
X136946190Y-102551904D01*
X136993809Y-102599523D01*
X137089047Y-102647142D01*
D11*
X160020000Y-127488000D02*
X165100000Y-127488000D01*
X159995000Y-117950000D02*
X160020000Y-127488000D01*
X163195000Y-114788000D02*
X159995000Y-117950000D01*
X165100000Y-114788000D02*
X163195000Y-114788000D01*
X169545000Y-114788000D02*
X167640000Y-114788000D01*
X172720000Y-117963000D02*
X169545000Y-114788000D01*
X172720000Y-127488000D02*
X172720000Y-117963000D01*
X167640000Y-127488000D02*
X172720000Y-127488000D01*
X149733580Y-98300000D02*
X149452420Y-98300000D01*
X149733580Y-97280000D02*
X149452420Y-97280000D01*
X149452420Y-100078000D02*
X149733580Y-100078000D01*
X149452420Y-99058000D02*
X149733580Y-99058000D01*
X143211250Y-120924250D02*
X142423750Y-120924250D01*
X142817500Y-120530500D02*
X142817500Y-121318000D01*
X138624437Y-121558000D02*
X137560000Y-122622437D01*
X143315563Y-121558000D02*
X144380000Y-122622437D01*
X143315563Y-121558000D02*
X142030000Y-121558000D01*
X138624437Y-121558000D02*
X139910000Y-121558000D01*
X137560000Y-122622437D02*
X137560000Y-128378000D01*
X144380000Y-122622437D02*
X144380000Y-128378000D01*
X144380000Y-128378000D02*
X142030000Y-128378000D01*
X137560000Y-128378000D02*
X139910000Y-128378000D01*
X157950000Y-88916000D02*
X161800000Y-88916000D01*
X157950000Y-90916000D02*
X161800000Y-90916000D01*
X157950000Y-88916000D02*
X157950000Y-90916000D01*
X156906000Y-96394000D02*
X156906000Y-99694000D01*
X156906000Y-99694000D02*
X162306000Y-99694000D01*
X156906000Y-96394000D02*
X162306000Y-96394000D01*
X156906000Y-92330000D02*
X162306000Y-92330000D01*
X156906000Y-95630000D02*
X162306000Y-95630000D01*
X156906000Y-92330000D02*
X156906000Y-95630000D01*
X161774000Y-85432000D02*
X159224000Y-85432000D01*
X161774000Y-83732000D02*
X159224000Y-83732000D01*
X161774000Y-85432000D02*
X161774000Y-83732000D01*
X163706000Y-104266000D02*
X158306000Y-104266000D01*
X163706000Y-100966000D02*
X158306000Y-100966000D01*
X163706000Y-104266000D02*
X163706000Y-100966000D01*
X161774000Y-87718000D02*
X161774000Y-86018000D01*
X161774000Y-86018000D02*
X159224000Y-86018000D01*
X161774000Y-87718000D02*
X159224000Y-87718000D01*
X160595000Y-74203325D02*
X160845000Y-74636338D01*
X160345000Y-74636338D02*
X160595000Y-74203325D01*
X160845000Y-74636338D02*
X160345000Y-74636338D01*
X139570000Y-73742000D02*
X139570000Y-61402000D01*
X170540000Y-73742000D02*
X139570000Y-73742000D01*
X170540000Y-61402000D02*
X170540000Y-73742000D01*
X143670000Y-118148000D02*
X142170000Y-118148000D01*
X143670000Y-112448000D02*
X143670000Y-118148000D01*
X142170000Y-112448000D02*
X143670000Y-112448000D01*
X138270000Y-118148000D02*
X139770000Y-118148000D01*
X138270000Y-112448000D02*
X138270000Y-118148000D01*
X139770000Y-112448000D02*
X138270000Y-112448000D01*
X149305742Y-95489500D02*
X149780258Y-95489500D01*
X149305742Y-96534500D02*
X149780258Y-96534500D01*
X149780258Y-102601500D02*
X149305742Y-102601500D01*
X149780258Y-103646500D02*
X149305742Y-103646500D01*
X149780258Y-100823500D02*
X149305742Y-100823500D01*
X149780258Y-101868500D02*
X149305742Y-101868500D01*
X148150000Y-118643000D02*
X148150000Y-117543000D01*
X147200000Y-118643000D02*
X148150000Y-118643000D01*
X147200000Y-120143000D02*
X147200000Y-118643000D01*
X156650000Y-118643000D02*
X156650000Y-113518000D01*
X157600000Y-118643000D02*
X156650000Y-118643000D01*
X157600000Y-120143000D02*
X157600000Y-118643000D01*
X151368000Y-94040000D02*
X153018000Y-94040000D01*
X153018000Y-94040000D02*
X153018000Y-83760000D01*
X153018000Y-83760000D02*
X147718000Y-83760000D01*
X147718000Y-83760000D02*
X147718000Y-94040000D01*
X147718000Y-94040000D02*
X149368000Y-94040000D01*
X155508000Y-94100000D02*
X155508000Y-83700000D01*
X155508000Y-83700000D02*
X145228000Y-83700000D01*
X145228000Y-83700000D02*
X145228000Y-94100000D01*
X145228000Y-94100000D02*
X155508000Y-94100000D01*
X149368000Y-94040000D02*
G75*
G02*
X151368000Y-94040000I1000000J0D01*
G01*
X148689748Y-106066000D02*
X150112252Y-106066000D01*
X148689748Y-104246000D02*
X150112252Y-104246000D01*
X146498000Y-107890000D02*
X146498000Y-110550000D01*
X149098000Y-107890000D02*
X146498000Y-107890000D01*
X149098000Y-110550000D02*
X146498000Y-110550000D01*
X149098000Y-107890000D02*
X149098000Y-110550000D01*
X150368000Y-107890000D02*
X151698000Y-107890000D01*
X151698000Y-107890000D02*
X151698000Y-109220000D01*
X173835000Y-97155000D02*
G75*
G03*
X173835000Y-97155000I-1750000J0D01*
G01*
X173835000Y-90170000D02*
G75*
G03*
X173835000Y-90170000I-1750000J0D01*
G01*
D12*
X174443571Y-121496666D02*
X174504047Y-121557142D01*
X174564523Y-121738571D01*
X174564523Y-121859523D01*
X174504047Y-122040952D01*
X174383095Y-122161904D01*
X174262142Y-122222380D01*
X174020238Y-122282857D01*
X173838809Y-122282857D01*
X173596904Y-122222380D01*
X173475952Y-122161904D01*
X173355000Y-122040952D01*
X173294523Y-121859523D01*
X173294523Y-121738571D01*
X173355000Y-121557142D01*
X173415476Y-121496666D01*
X173717857Y-120408095D02*
X174564523Y-120408095D01*
X173234047Y-120710476D02*
X174141190Y-121012857D01*
X174141190Y-120226666D01*
D10*
X146645333Y-98401142D02*
X146597714Y-98448761D01*
X146454857Y-98496380D01*
X146359619Y-98496380D01*
X146216761Y-98448761D01*
X146121523Y-98353523D01*
X146073904Y-98258285D01*
X146026285Y-98067809D01*
X146026285Y-97924952D01*
X146073904Y-97734476D01*
X146121523Y-97639238D01*
X146216761Y-97544000D01*
X146359619Y-97496380D01*
X146454857Y-97496380D01*
X146597714Y-97544000D01*
X146645333Y-97591619D01*
X147597714Y-98496380D02*
X147026285Y-98496380D01*
X147312000Y-98496380D02*
X147312000Y-97496380D01*
X147216761Y-97639238D01*
X147121523Y-97734476D01*
X147026285Y-97782095D01*
X146899333Y-100179142D02*
X146851714Y-100226761D01*
X146708857Y-100274380D01*
X146613619Y-100274380D01*
X146470761Y-100226761D01*
X146375523Y-100131523D01*
X146327904Y-100036285D01*
X146280285Y-99845809D01*
X146280285Y-99702952D01*
X146327904Y-99512476D01*
X146375523Y-99417238D01*
X146470761Y-99322000D01*
X146613619Y-99274380D01*
X146708857Y-99274380D01*
X146851714Y-99322000D01*
X146899333Y-99369619D01*
X147280285Y-99369619D02*
X147327904Y-99322000D01*
X147423142Y-99274380D01*
X147661238Y-99274380D01*
X147756476Y-99322000D01*
X147804095Y-99369619D01*
X147851714Y-99464857D01*
X147851714Y-99560095D01*
X147804095Y-99702952D01*
X147232666Y-100274380D01*
X147851714Y-100274380D01*
X145677142Y-125134666D02*
X145724761Y-125182285D01*
X145772380Y-125325142D01*
X145772380Y-125420380D01*
X145724761Y-125563238D01*
X145629523Y-125658476D01*
X145534285Y-125706095D01*
X145343809Y-125753714D01*
X145200952Y-125753714D01*
X145010476Y-125706095D01*
X144915238Y-125658476D01*
X144820000Y-125563238D01*
X144772380Y-125420380D01*
X144772380Y-125325142D01*
X144820000Y-125182285D01*
X144867619Y-125134666D01*
X144772380Y-124229904D02*
X144772380Y-124706095D01*
X145248571Y-124753714D01*
X145200952Y-124706095D01*
X145153333Y-124610857D01*
X145153333Y-124372761D01*
X145200952Y-124277523D01*
X145248571Y-124229904D01*
X145343809Y-124182285D01*
X145581904Y-124182285D01*
X145677142Y-124229904D01*
X145724761Y-124277523D01*
X145772380Y-124372761D01*
X145772380Y-124610857D01*
X145724761Y-124706095D01*
X145677142Y-124753714D01*
X163097904Y-90368380D02*
X163097904Y-89368380D01*
X163336000Y-89368380D01*
X163478857Y-89416000D01*
X163574095Y-89511238D01*
X163621714Y-89606476D01*
X163669333Y-89796952D01*
X163669333Y-89939809D01*
X163621714Y-90130285D01*
X163574095Y-90225523D01*
X163478857Y-90320761D01*
X163336000Y-90368380D01*
X163097904Y-90368380D01*
X164621714Y-90368380D02*
X164050285Y-90368380D01*
X164336000Y-90368380D02*
X164336000Y-89368380D01*
X164240761Y-89511238D01*
X164145523Y-89606476D01*
X164050285Y-89654095D01*
X164107904Y-98750380D02*
X164107904Y-97750380D01*
X164346000Y-97750380D01*
X164488857Y-97798000D01*
X164584095Y-97893238D01*
X164631714Y-97988476D01*
X164679333Y-98178952D01*
X164679333Y-98321809D01*
X164631714Y-98512285D01*
X164584095Y-98607523D01*
X164488857Y-98702761D01*
X164346000Y-98750380D01*
X164107904Y-98750380D01*
X165060285Y-97845619D02*
X165107904Y-97798000D01*
X165203142Y-97750380D01*
X165441238Y-97750380D01*
X165536476Y-97798000D01*
X165584095Y-97845619D01*
X165631714Y-97940857D01*
X165631714Y-98036095D01*
X165584095Y-98178952D01*
X165012666Y-98750380D01*
X165631714Y-98750380D01*
X164107904Y-94686380D02*
X164107904Y-93686380D01*
X164346000Y-93686380D01*
X164488857Y-93734000D01*
X164584095Y-93829238D01*
X164631714Y-93924476D01*
X164679333Y-94114952D01*
X164679333Y-94257809D01*
X164631714Y-94448285D01*
X164584095Y-94543523D01*
X164488857Y-94638761D01*
X164346000Y-94686380D01*
X164107904Y-94686380D01*
X165012666Y-93686380D02*
X165631714Y-93686380D01*
X165298380Y-94067333D01*
X165441238Y-94067333D01*
X165536476Y-94114952D01*
X165584095Y-94162571D01*
X165631714Y-94257809D01*
X165631714Y-94495904D01*
X165584095Y-94591142D01*
X165536476Y-94638761D01*
X165441238Y-94686380D01*
X165155523Y-94686380D01*
X165060285Y-94638761D01*
X165012666Y-94591142D01*
X162329904Y-85034380D02*
X162329904Y-84034380D01*
X162568000Y-84034380D01*
X162710857Y-84082000D01*
X162806095Y-84177238D01*
X162853714Y-84272476D01*
X162901333Y-84462952D01*
X162901333Y-84605809D01*
X162853714Y-84796285D01*
X162806095Y-84891523D01*
X162710857Y-84986761D01*
X162568000Y-85034380D01*
X162329904Y-85034380D01*
X163758476Y-84367714D02*
X163758476Y-85034380D01*
X163520380Y-83986761D02*
X163282285Y-84701047D01*
X163901333Y-84701047D01*
X164361904Y-103322380D02*
X164361904Y-102322380D01*
X164600000Y-102322380D01*
X164742857Y-102370000D01*
X164838095Y-102465238D01*
X164885714Y-102560476D01*
X164933333Y-102750952D01*
X164933333Y-102893809D01*
X164885714Y-103084285D01*
X164838095Y-103179523D01*
X164742857Y-103274761D01*
X164600000Y-103322380D01*
X164361904Y-103322380D01*
X165838095Y-102322380D02*
X165361904Y-102322380D01*
X165314285Y-102798571D01*
X165361904Y-102750952D01*
X165457142Y-102703333D01*
X165695238Y-102703333D01*
X165790476Y-102750952D01*
X165838095Y-102798571D01*
X165885714Y-102893809D01*
X165885714Y-103131904D01*
X165838095Y-103227142D01*
X165790476Y-103274761D01*
X165695238Y-103322380D01*
X165457142Y-103322380D01*
X165361904Y-103274761D01*
X165314285Y-103227142D01*
X162329904Y-87320380D02*
X162329904Y-86320380D01*
X162568000Y-86320380D01*
X162710857Y-86368000D01*
X162806095Y-86463238D01*
X162853714Y-86558476D01*
X162901333Y-86748952D01*
X162901333Y-86891809D01*
X162853714Y-87082285D01*
X162806095Y-87177523D01*
X162710857Y-87272761D01*
X162568000Y-87320380D01*
X162329904Y-87320380D01*
X163758476Y-86320380D02*
X163568000Y-86320380D01*
X163472761Y-86368000D01*
X163425142Y-86415619D01*
X163329904Y-86558476D01*
X163282285Y-86748952D01*
X163282285Y-87129904D01*
X163329904Y-87225142D01*
X163377523Y-87272761D01*
X163472761Y-87320380D01*
X163663238Y-87320380D01*
X163758476Y-87272761D01*
X163806095Y-87225142D01*
X163853714Y-87129904D01*
X163853714Y-86891809D01*
X163806095Y-86796571D01*
X163758476Y-86748952D01*
X163663238Y-86701333D01*
X163472761Y-86701333D01*
X163377523Y-86748952D01*
X163329904Y-86796571D01*
X163282285Y-86891809D01*
X154721666Y-74134380D02*
X154721666Y-74848666D01*
X154674047Y-74991523D01*
X154578809Y-75086761D01*
X154435952Y-75134380D01*
X154340714Y-75134380D01*
X155674047Y-74134380D02*
X155197857Y-74134380D01*
X155150238Y-74610571D01*
X155197857Y-74562952D01*
X155293095Y-74515333D01*
X155531190Y-74515333D01*
X155626428Y-74562952D01*
X155674047Y-74610571D01*
X155721666Y-74705809D01*
X155721666Y-74943904D01*
X155674047Y-75039142D01*
X155626428Y-75086761D01*
X155531190Y-75134380D01*
X155293095Y-75134380D01*
X155197857Y-75086761D01*
X155150238Y-75039142D01*
X145022380Y-115464666D02*
X145022380Y-115940857D01*
X144022380Y-115940857D01*
X145022380Y-114607523D02*
X145022380Y-115178952D01*
X145022380Y-114893238D02*
X144022380Y-114893238D01*
X144165238Y-114988476D01*
X144260476Y-115083714D01*
X144308095Y-115178952D01*
X146899333Y-96718380D02*
X146566000Y-96242190D01*
X146327904Y-96718380D02*
X146327904Y-95718380D01*
X146708857Y-95718380D01*
X146804095Y-95766000D01*
X146851714Y-95813619D01*
X146899333Y-95908857D01*
X146899333Y-96051714D01*
X146851714Y-96146952D01*
X146804095Y-96194571D01*
X146708857Y-96242190D01*
X146327904Y-96242190D01*
X147851714Y-96718380D02*
X147280285Y-96718380D01*
X147566000Y-96718380D02*
X147566000Y-95718380D01*
X147470761Y-95861238D01*
X147375523Y-95956476D01*
X147280285Y-96004095D01*
X146645333Y-103576380D02*
X146312000Y-103100190D01*
X146073904Y-103576380D02*
X146073904Y-102576380D01*
X146454857Y-102576380D01*
X146550095Y-102624000D01*
X146597714Y-102671619D01*
X146645333Y-102766857D01*
X146645333Y-102909714D01*
X146597714Y-103004952D01*
X146550095Y-103052571D01*
X146454857Y-103100190D01*
X146073904Y-103100190D01*
X147026285Y-102671619D02*
X147073904Y-102624000D01*
X147169142Y-102576380D01*
X147407238Y-102576380D01*
X147502476Y-102624000D01*
X147550095Y-102671619D01*
X147597714Y-102766857D01*
X147597714Y-102862095D01*
X147550095Y-103004952D01*
X146978666Y-103576380D01*
X147597714Y-103576380D01*
X147153333Y-101798380D02*
X146820000Y-101322190D01*
X146581904Y-101798380D02*
X146581904Y-100798380D01*
X146962857Y-100798380D01*
X147058095Y-100846000D01*
X147105714Y-100893619D01*
X147153333Y-100988857D01*
X147153333Y-101131714D01*
X147105714Y-101226952D01*
X147058095Y-101274571D01*
X146962857Y-101322190D01*
X146581904Y-101322190D01*
X147486666Y-100798380D02*
X148105714Y-100798380D01*
X147772380Y-101179333D01*
X147915238Y-101179333D01*
X148010476Y-101226952D01*
X148058095Y-101274571D01*
X148105714Y-101369809D01*
X148105714Y-101607904D01*
X148058095Y-101703142D01*
X148010476Y-101750761D01*
X147915238Y-101798380D01*
X147629523Y-101798380D01*
X147534285Y-101750761D01*
X147486666Y-101703142D01*
X151003095Y-130897380D02*
X151003095Y-131706904D01*
X151050714Y-131802142D01*
X151098333Y-131849761D01*
X151193571Y-131897380D01*
X151384047Y-131897380D01*
X151479285Y-131849761D01*
X151526904Y-131802142D01*
X151574523Y-131706904D01*
X151574523Y-130897380D01*
X152003095Y-130992619D02*
X152050714Y-130945000D01*
X152145952Y-130897380D01*
X152384047Y-130897380D01*
X152479285Y-130945000D01*
X152526904Y-130992619D01*
X152574523Y-131087857D01*
X152574523Y-131183095D01*
X152526904Y-131325952D01*
X151955476Y-131897380D01*
X152574523Y-131897380D01*
X156464095Y-88606380D02*
X156464095Y-89415904D01*
X156511714Y-89511142D01*
X156559333Y-89558761D01*
X156654571Y-89606380D01*
X156845047Y-89606380D01*
X156940285Y-89558761D01*
X156987904Y-89511142D01*
X157035523Y-89415904D01*
X157035523Y-88606380D01*
X158035523Y-89606380D02*
X157464095Y-89606380D01*
X157749809Y-89606380D02*
X157749809Y-88606380D01*
X157654571Y-88749238D01*
X157559333Y-88844476D01*
X157464095Y-88892095D01*
X145883333Y-105767142D02*
X145835714Y-105814761D01*
X145692857Y-105862380D01*
X145597619Y-105862380D01*
X145454761Y-105814761D01*
X145359523Y-105719523D01*
X145311904Y-105624285D01*
X145264285Y-105433809D01*
X145264285Y-105290952D01*
X145311904Y-105100476D01*
X145359523Y-105005238D01*
X145454761Y-104910000D01*
X145597619Y-104862380D01*
X145692857Y-104862380D01*
X145835714Y-104910000D01*
X145883333Y-104957619D01*
X146216666Y-104862380D02*
X146835714Y-104862380D01*
X146502380Y-105243333D01*
X146645238Y-105243333D01*
X146740476Y-105290952D01*
X146788095Y-105338571D01*
X146835714Y-105433809D01*
X146835714Y-105671904D01*
X146788095Y-105767142D01*
X146740476Y-105814761D01*
X146645238Y-105862380D01*
X146359523Y-105862380D01*
X146264285Y-105814761D01*
X146216666Y-105767142D01*
X152150380Y-110053333D02*
X152864666Y-110053333D01*
X153007523Y-110100952D01*
X153102761Y-110196190D01*
X153150380Y-110339047D01*
X153150380Y-110434285D01*
X153150380Y-109577142D02*
X152150380Y-109577142D01*
X152150380Y-109196190D01*
X152198000Y-109100952D01*
X152245619Y-109053333D01*
X152340857Y-109005714D01*
X152483714Y-109005714D01*
X152578952Y-109053333D01*
X152626571Y-109100952D01*
X152674190Y-109196190D01*
X152674190Y-109577142D01*
X153150380Y-108053333D02*
X153150380Y-108624761D01*
X153150380Y-108339047D02*
X152150380Y-108339047D01*
X152293238Y-108434285D01*
X152388476Y-108529523D01*
X152436095Y-108624761D01*
X137668095Y-131897380D02*
X137668095Y-130897380D01*
X137668095Y-131373571D02*
X138239523Y-131373571D01*
X138239523Y-131897380D02*
X138239523Y-130897380D01*
X139239523Y-131897380D02*
X138668095Y-131897380D01*
X138953809Y-131897380D02*
X138953809Y-130897380D01*
X138858571Y-131040238D01*
X138763333Y-131135476D01*
X138668095Y-131183095D01*
X137668095Y-76017380D02*
X137668095Y-75017380D01*
X137668095Y-75493571D02*
X138239523Y-75493571D01*
X138239523Y-76017380D02*
X138239523Y-75017380D01*
X138668095Y-75112619D02*
X138715714Y-75065000D01*
X138810952Y-75017380D01*
X139049047Y-75017380D01*
X139144285Y-75065000D01*
X139191904Y-75112619D01*
X139239523Y-75207857D01*
X139239523Y-75303095D01*
X139191904Y-75445952D01*
X138620476Y-76017380D01*
X139239523Y-76017380D01*
X170688095Y-131897380D02*
X170688095Y-130897380D01*
X170688095Y-131373571D02*
X171259523Y-131373571D01*
X171259523Y-131897380D02*
X171259523Y-130897380D01*
X171640476Y-130897380D02*
X172259523Y-130897380D01*
X171926190Y-131278333D01*
X172069047Y-131278333D01*
X172164285Y-131325952D01*
X172211904Y-131373571D01*
X172259523Y-131468809D01*
X172259523Y-131706904D01*
X172211904Y-131802142D01*
X172164285Y-131849761D01*
X172069047Y-131897380D01*
X171783333Y-131897380D01*
X171688095Y-131849761D01*
X171640476Y-131802142D01*
X170688095Y-76017380D02*
X170688095Y-75017380D01*
X170688095Y-75493571D02*
X171259523Y-75493571D01*
X171259523Y-76017380D02*
X171259523Y-75017380D01*
X172164285Y-75350714D02*
X172164285Y-76017380D01*
X171926190Y-74969761D02*
X171688095Y-75684047D01*
X172307142Y-75684047D01*
X171751666Y-94209380D02*
X171751666Y-94923666D01*
X171704047Y-95066523D01*
X171608809Y-95161761D01*
X171465952Y-95209380D01*
X171370714Y-95209380D01*
X172132619Y-94209380D02*
X172751666Y-94209380D01*
X172418333Y-94590333D01*
X172561190Y-94590333D01*
X172656428Y-94637952D01*
X172704047Y-94685571D01*
X172751666Y-94780809D01*
X172751666Y-95018904D01*
X172704047Y-95114142D01*
X172656428Y-95161761D01*
X172561190Y-95209380D01*
X172275476Y-95209380D01*
X172180238Y-95161761D01*
X172132619Y-95114142D01*
X171751666Y-87224380D02*
X171751666Y-87938666D01*
X171704047Y-88081523D01*
X171608809Y-88176761D01*
X171465952Y-88224380D01*
X171370714Y-88224380D01*
X172656428Y-87557714D02*
X172656428Y-88224380D01*
X172418333Y-87176761D02*
X172180238Y-87891047D01*
X172799285Y-87891047D01*
%LPC*%
D13*
X166370000Y-126238000D03*
X166370000Y-116038000D03*
G36*
G01*
X149268000Y-97540000D02*
X149268000Y-98040000D01*
G75*
G02*
X149043000Y-98265000I-225000J0D01*
G01*
X148593000Y-98265000D01*
G75*
G02*
X148368000Y-98040000I0J225000D01*
G01*
X148368000Y-97540000D01*
G75*
G02*
X148593000Y-97315000I225000J0D01*
G01*
X149043000Y-97315000D01*
G75*
G02*
X149268000Y-97540000I0J-225000D01*
G01*
G37*
G36*
G01*
X150818000Y-97540000D02*
X150818000Y-98040000D01*
G75*
G02*
X150593000Y-98265000I-225000J0D01*
G01*
X150143000Y-98265000D01*
G75*
G02*
X149918000Y-98040000I0J225000D01*
G01*
X149918000Y-97540000D01*
G75*
G02*
X150143000Y-97315000I225000J0D01*
G01*
X150593000Y-97315000D01*
G75*
G02*
X150818000Y-97540000I0J-225000D01*
G01*
G37*
G36*
G01*
X148368000Y-99818000D02*
X148368000Y-99318000D01*
G75*
G02*
X148593000Y-99093000I225000J0D01*
G01*
X149043000Y-99093000D01*
G75*
G02*
X149268000Y-99318000I0J-225000D01*
G01*
X149268000Y-99818000D01*
G75*
G02*
X149043000Y-100043000I-225000J0D01*
G01*
X148593000Y-100043000D01*
G75*
G02*
X148368000Y-99818000I0J225000D01*
G01*
G37*
G36*
G01*
X149918000Y-99818000D02*
X149918000Y-99318000D01*
G75*
G02*
X150143000Y-99093000I225000J0D01*
G01*
X150593000Y-99093000D01*
G75*
G02*
X150818000Y-99318000I0J-225000D01*
G01*
X150818000Y-99818000D01*
G75*
G02*
X150593000Y-100043000I-225000J0D01*
G01*
X150143000Y-100043000D01*
G75*
G02*
X149918000Y-99818000I0J225000D01*
G01*
G37*
G36*
G01*
X140420000Y-120518000D02*
X141520000Y-120518000D01*
G75*
G02*
X141770000Y-120768000I0J-250000D01*
G01*
X141770000Y-123768000D01*
G75*
G02*
X141520000Y-124018000I-250000J0D01*
G01*
X140420000Y-124018000D01*
G75*
G02*
X140170000Y-123768000I0J250000D01*
G01*
X140170000Y-120768000D01*
G75*
G02*
X140420000Y-120518000I250000J0D01*
G01*
G37*
G36*
G01*
X140420000Y-125918000D02*
X141520000Y-125918000D01*
G75*
G02*
X141770000Y-126168000I0J-250000D01*
G01*
X141770000Y-129168000D01*
G75*
G02*
X141520000Y-129418000I-250000J0D01*
G01*
X140420000Y-129418000D01*
G75*
G02*
X140170000Y-129168000I0J250000D01*
G01*
X140170000Y-126168000D01*
G75*
G02*
X140420000Y-125918000I250000J0D01*
G01*
G37*
D14*
X158750000Y-89916000D03*
X161550000Y-89916000D03*
D15*
X162306000Y-98044000D03*
X158306000Y-98044000D03*
X158306000Y-93980000D03*
X162306000Y-93980000D03*
D16*
X161324000Y-84582000D03*
X159224000Y-84582000D03*
D15*
X162306000Y-102616000D03*
X158306000Y-102616000D03*
D16*
X159224000Y-86868000D03*
X161324000Y-86868000D03*
D17*
X167640000Y-85090000D03*
X167640000Y-87630000D03*
X167640000Y-90170000D03*
X167640000Y-92710000D03*
X167640000Y-95250000D03*
X167640000Y-97790000D03*
X167640000Y-100330000D03*
X167640000Y-102870000D03*
X167640000Y-105410000D03*
D18*
X167640000Y-107950000D03*
X142240000Y-107950000D03*
D17*
X142240000Y-105410000D03*
X142240000Y-102870000D03*
X142240000Y-100330000D03*
X142240000Y-97790000D03*
X142240000Y-95250000D03*
X142240000Y-92710000D03*
X142240000Y-90170000D03*
X142240000Y-87630000D03*
X142240000Y-85090000D03*
D19*
X160595000Y-71882000D03*
D20*
X157825000Y-71882000D03*
X155055000Y-71882000D03*
X152285000Y-71882000D03*
X149515000Y-71882000D03*
X159210000Y-69042000D03*
X156440000Y-69042000D03*
X153670000Y-69042000D03*
X150900000Y-69042000D03*
D21*
X167555000Y-70462000D03*
X142555000Y-70462000D03*
D22*
X140970000Y-113248000D03*
X140970000Y-117348000D03*
G36*
G01*
X149968000Y-96287000D02*
X149968000Y-95737000D01*
G75*
G02*
X150168000Y-95537000I200000J0D01*
G01*
X150568000Y-95537000D01*
G75*
G02*
X150768000Y-95737000I0J-200000D01*
G01*
X150768000Y-96287000D01*
G75*
G02*
X150568000Y-96487000I-200000J0D01*
G01*
X150168000Y-96487000D01*
G75*
G02*
X149968000Y-96287000I0J200000D01*
G01*
G37*
G36*
G01*
X148318000Y-96287000D02*
X148318000Y-95737000D01*
G75*
G02*
X148518000Y-95537000I200000J0D01*
G01*
X148918000Y-95537000D01*
G75*
G02*
X149118000Y-95737000I0J-200000D01*
G01*
X149118000Y-96287000D01*
G75*
G02*
X148918000Y-96487000I-200000J0D01*
G01*
X148518000Y-96487000D01*
G75*
G02*
X148318000Y-96287000I0J200000D01*
G01*
G37*
G36*
G01*
X150768000Y-102849000D02*
X150768000Y-103399000D01*
G75*
G02*
X150568000Y-103599000I-200000J0D01*
G01*
X150168000Y-103599000D01*
G75*
G02*
X149968000Y-103399000I0J200000D01*
G01*
X149968000Y-102849000D01*
G75*
G02*
X150168000Y-102649000I200000J0D01*
G01*
X150568000Y-102649000D01*
G75*
G02*
X150768000Y-102849000I0J-200000D01*
G01*
G37*
G36*
G01*
X149118000Y-102849000D02*
X149118000Y-103399000D01*
G75*
G02*
X148918000Y-103599000I-200000J0D01*
G01*
X148518000Y-103599000D01*
G75*
G02*
X148318000Y-103399000I0J200000D01*
G01*
X148318000Y-102849000D01*
G75*
G02*
X148518000Y-102649000I200000J0D01*
G01*
X148918000Y-102649000D01*
G75*
G02*
X149118000Y-102849000I0J-200000D01*
G01*
G37*
G36*
G01*
X150768000Y-101071000D02*
X150768000Y-101621000D01*
G75*
G02*
X150568000Y-101821000I-200000J0D01*
G01*
X150168000Y-101821000D01*
G75*
G02*
X149968000Y-101621000I0J200000D01*
G01*
X149968000Y-101071000D01*
G75*
G02*
X150168000Y-100871000I200000J0D01*
G01*
X150568000Y-100871000D01*
G75*
G02*
X150768000Y-101071000I0J-200000D01*
G01*
G37*
G36*
G01*
X149118000Y-101071000D02*
X149118000Y-101621000D01*
G75*
G02*
X148918000Y-101821000I-200000J0D01*
G01*
X148518000Y-101821000D01*
G75*
G02*
X148318000Y-101621000I0J200000D01*
G01*
X148318000Y-101071000D01*
G75*
G02*
X148518000Y-100871000I200000J0D01*
G01*
X148918000Y-100871000D01*
G75*
G02*
X149118000Y-101071000I0J-200000D01*
G01*
G37*
D23*
X155800000Y-115818000D03*
X154100000Y-115818000D03*
X152400000Y-115818000D03*
X150700000Y-115818000D03*
X149000000Y-115818000D03*
D24*
X152400000Y-124968000D03*
D19*
X154178000Y-92710000D03*
D25*
X146558000Y-85090000D03*
X154178000Y-90170000D03*
X146558000Y-87630000D03*
X154178000Y-87630000D03*
X146558000Y-90170000D03*
X154178000Y-85090000D03*
X146558000Y-92710000D03*
G36*
G01*
X147351000Y-105806001D02*
X147351000Y-104505999D01*
G75*
G02*
X147600999Y-104256000I249999J0D01*
G01*
X148251001Y-104256000D01*
G75*
G02*
X148501000Y-104505999I0J-249999D01*
G01*
X148501000Y-105806001D01*
G75*
G02*
X148251001Y-106056000I-249999J0D01*
G01*
X147600999Y-106056000D01*
G75*
G02*
X147351000Y-105806001I0J249999D01*
G01*
G37*
G36*
G01*
X150301000Y-105806001D02*
X150301000Y-104505999D01*
G75*
G02*
X150550999Y-104256000I249999J0D01*
G01*
X151201001Y-104256000D01*
G75*
G02*
X151451000Y-104505999I0J-249999D01*
G01*
X151451000Y-105806001D01*
G75*
G02*
X151201001Y-106056000I-249999J0D01*
G01*
X150550999Y-106056000D01*
G75*
G02*
X150301000Y-105806001I0J249999D01*
G01*
G37*
D18*
X150368000Y-109220000D03*
D17*
X147828000Y-109220000D03*
D26*
X138430000Y-134620000D03*
X138430000Y-78740000D03*
X171450000Y-134620000D03*
X171450000Y-78740000D03*
D27*
X172085000Y-97155000D03*
X172085000Y-90170000D03*
M02*
