%TF.GenerationSoftware,KiCad,Pcbnew,(5.1.10)-1*%
%TF.CreationDate,2022-04-21T22:26:52+02:00*%
%TF.ProjectId,Lin-bus card,4c696e2d-6275-4732-9063-6172642e6b69,rev?*%
%TF.SameCoordinates,Original*%
%TF.FileFunction,Paste,Top*%
%TF.FilePolarity,Positive*%
%FSLAX46Y46*%
G04 Gerber Fmt 4.6, Leading zero omitted, Abs format (unit mm)*
G04 Created by KiCad (PCBNEW (5.1.10)-1) date 2022-04-21 22:26:52*
%MOMM*%
%LPD*%
G01*
G04 APERTURE LIST*
%ADD10R,2.150000X5.700000*%
%ADD11R,1.100000X1.100000*%
%ADD12R,2.500000X1.800000*%
%ADD13R,0.600000X0.450000*%
%ADD14R,1.600000X1.900000*%
%ADD15R,1.100000X4.600000*%
%ADD16R,5.250000X4.550000*%
G04 APERTURE END LIST*
D10*
X166370000Y-126238000D03*
X166370000Y-116038000D03*
G36*
G01*
X149268000Y-97540000D02*
X149268000Y-98040000D01*
G75*
G02*
X149043000Y-98265000I-225000J0D01*
G01*
X148593000Y-98265000D01*
G75*
G02*
X148368000Y-98040000I0J225000D01*
G01*
X148368000Y-97540000D01*
G75*
G02*
X148593000Y-97315000I225000J0D01*
G01*
X149043000Y-97315000D01*
G75*
G02*
X149268000Y-97540000I0J-225000D01*
G01*
G37*
G36*
G01*
X150818000Y-97540000D02*
X150818000Y-98040000D01*
G75*
G02*
X150593000Y-98265000I-225000J0D01*
G01*
X150143000Y-98265000D01*
G75*
G02*
X149918000Y-98040000I0J225000D01*
G01*
X149918000Y-97540000D01*
G75*
G02*
X150143000Y-97315000I225000J0D01*
G01*
X150593000Y-97315000D01*
G75*
G02*
X150818000Y-97540000I0J-225000D01*
G01*
G37*
G36*
G01*
X148368000Y-99818000D02*
X148368000Y-99318000D01*
G75*
G02*
X148593000Y-99093000I225000J0D01*
G01*
X149043000Y-99093000D01*
G75*
G02*
X149268000Y-99318000I0J-225000D01*
G01*
X149268000Y-99818000D01*
G75*
G02*
X149043000Y-100043000I-225000J0D01*
G01*
X148593000Y-100043000D01*
G75*
G02*
X148368000Y-99818000I0J225000D01*
G01*
G37*
G36*
G01*
X149918000Y-99818000D02*
X149918000Y-99318000D01*
G75*
G02*
X150143000Y-99093000I225000J0D01*
G01*
X150593000Y-99093000D01*
G75*
G02*
X150818000Y-99318000I0J-225000D01*
G01*
X150818000Y-99818000D01*
G75*
G02*
X150593000Y-100043000I-225000J0D01*
G01*
X150143000Y-100043000D01*
G75*
G02*
X149918000Y-99818000I0J225000D01*
G01*
G37*
G36*
G01*
X140420000Y-120518000D02*
X141520000Y-120518000D01*
G75*
G02*
X141770000Y-120768000I0J-250000D01*
G01*
X141770000Y-123768000D01*
G75*
G02*
X141520000Y-124018000I-250000J0D01*
G01*
X140420000Y-124018000D01*
G75*
G02*
X140170000Y-123768000I0J250000D01*
G01*
X140170000Y-120768000D01*
G75*
G02*
X140420000Y-120518000I250000J0D01*
G01*
G37*
G36*
G01*
X140420000Y-125918000D02*
X141520000Y-125918000D01*
G75*
G02*
X141770000Y-126168000I0J-250000D01*
G01*
X141770000Y-129168000D01*
G75*
G02*
X141520000Y-129418000I-250000J0D01*
G01*
X140420000Y-129418000D01*
G75*
G02*
X140170000Y-129168000I0J250000D01*
G01*
X140170000Y-126168000D01*
G75*
G02*
X140420000Y-125918000I250000J0D01*
G01*
G37*
D11*
X158750000Y-89916000D03*
X161550000Y-89916000D03*
D12*
X162306000Y-98044000D03*
X158306000Y-98044000D03*
X158306000Y-93980000D03*
X162306000Y-93980000D03*
D13*
X161324000Y-84582000D03*
X159224000Y-84582000D03*
D12*
X162306000Y-102616000D03*
X158306000Y-102616000D03*
D13*
X159224000Y-86868000D03*
X161324000Y-86868000D03*
D14*
X140970000Y-113248000D03*
X140970000Y-117348000D03*
G36*
G01*
X149968000Y-96287000D02*
X149968000Y-95737000D01*
G75*
G02*
X150168000Y-95537000I200000J0D01*
G01*
X150568000Y-95537000D01*
G75*
G02*
X150768000Y-95737000I0J-200000D01*
G01*
X150768000Y-96287000D01*
G75*
G02*
X150568000Y-96487000I-200000J0D01*
G01*
X150168000Y-96487000D01*
G75*
G02*
X149968000Y-96287000I0J200000D01*
G01*
G37*
G36*
G01*
X148318000Y-96287000D02*
X148318000Y-95737000D01*
G75*
G02*
X148518000Y-95537000I200000J0D01*
G01*
X148918000Y-95537000D01*
G75*
G02*
X149118000Y-95737000I0J-200000D01*
G01*
X149118000Y-96287000D01*
G75*
G02*
X148918000Y-96487000I-200000J0D01*
G01*
X148518000Y-96487000D01*
G75*
G02*
X148318000Y-96287000I0J200000D01*
G01*
G37*
G36*
G01*
X150768000Y-102849000D02*
X150768000Y-103399000D01*
G75*
G02*
X150568000Y-103599000I-200000J0D01*
G01*
X150168000Y-103599000D01*
G75*
G02*
X149968000Y-103399000I0J200000D01*
G01*
X149968000Y-102849000D01*
G75*
G02*
X150168000Y-102649000I200000J0D01*
G01*
X150568000Y-102649000D01*
G75*
G02*
X150768000Y-102849000I0J-200000D01*
G01*
G37*
G36*
G01*
X149118000Y-102849000D02*
X149118000Y-103399000D01*
G75*
G02*
X148918000Y-103599000I-200000J0D01*
G01*
X148518000Y-103599000D01*
G75*
G02*
X148318000Y-103399000I0J200000D01*
G01*
X148318000Y-102849000D01*
G75*
G02*
X148518000Y-102649000I200000J0D01*
G01*
X148918000Y-102649000D01*
G75*
G02*
X149118000Y-102849000I0J-200000D01*
G01*
G37*
G36*
G01*
X150768000Y-101071000D02*
X150768000Y-101621000D01*
G75*
G02*
X150568000Y-101821000I-200000J0D01*
G01*
X150168000Y-101821000D01*
G75*
G02*
X149968000Y-101621000I0J200000D01*
G01*
X149968000Y-101071000D01*
G75*
G02*
X150168000Y-100871000I200000J0D01*
G01*
X150568000Y-100871000D01*
G75*
G02*
X150768000Y-101071000I0J-200000D01*
G01*
G37*
G36*
G01*
X149118000Y-101071000D02*
X149118000Y-101621000D01*
G75*
G02*
X148918000Y-101821000I-200000J0D01*
G01*
X148518000Y-101821000D01*
G75*
G02*
X148318000Y-101621000I0J200000D01*
G01*
X148318000Y-101071000D01*
G75*
G02*
X148518000Y-100871000I200000J0D01*
G01*
X148918000Y-100871000D01*
G75*
G02*
X149118000Y-101071000I0J-200000D01*
G01*
G37*
D15*
X155800000Y-115818000D03*
X154100000Y-115818000D03*
X152400000Y-115818000D03*
X150700000Y-115818000D03*
X149000000Y-115818000D03*
D16*
X149625000Y-127393000D03*
X155175000Y-122543000D03*
X155175000Y-127393000D03*
X149625000Y-122543000D03*
G36*
G01*
X147351000Y-105806001D02*
X147351000Y-104505999D01*
G75*
G02*
X147600999Y-104256000I249999J0D01*
G01*
X148251001Y-104256000D01*
G75*
G02*
X148501000Y-104505999I0J-249999D01*
G01*
X148501000Y-105806001D01*
G75*
G02*
X148251001Y-106056000I-249999J0D01*
G01*
X147600999Y-106056000D01*
G75*
G02*
X147351000Y-105806001I0J249999D01*
G01*
G37*
G36*
G01*
X150301000Y-105806001D02*
X150301000Y-104505999D01*
G75*
G02*
X150550999Y-104256000I249999J0D01*
G01*
X151201001Y-104256000D01*
G75*
G02*
X151451000Y-104505999I0J-249999D01*
G01*
X151451000Y-105806001D01*
G75*
G02*
X151201001Y-106056000I-249999J0D01*
G01*
X150550999Y-106056000D01*
G75*
G02*
X150301000Y-105806001I0J249999D01*
G01*
G37*
M02*
