M48
; DRILL file {KiCad (5.1.10)-1} date 04/21/22 22:27:43
; FORMAT={-:-/ absolute / metric / decimal}
; #@! TF.CreationDate,2022-04-21T22:27:43+02:00
; #@! TF.GenerationSoftware,Kicad,Pcbnew,(5.1.10)-1
; #@! TF.FileFunction,Plated,1,2,PTH
FMAT,2
METRIC
T1C0.400
T2C0.800
T3C1.000
T4C3.200
%
G90
G05
T1
X147.32Y-95.25
X147.828Y-106.68
X156.972Y-90.424
T2
X146.558Y-85.09
X146.558Y-87.63
X146.558Y-90.17
X146.558Y-92.71
X154.178Y-85.09
X154.178Y-87.63
X154.178Y-90.17
X154.178Y-92.71
T3
X142.24Y-85.09
X142.24Y-87.63
X142.24Y-90.17
X142.24Y-92.71
X142.24Y-95.25
X142.24Y-97.79
X142.24Y-100.33
X142.24Y-102.87
X142.24Y-105.41
X142.24Y-107.95
X147.828Y-109.22
X149.515Y-71.882
X150.368Y-109.22
X150.9Y-69.042
X152.285Y-71.882
X153.67Y-69.042
X155.055Y-71.882
X156.44Y-69.042
X157.825Y-71.882
X159.21Y-69.042
X160.595Y-71.882
X167.64Y-85.09
X167.64Y-87.63
X167.64Y-90.17
X167.64Y-92.71
X167.64Y-95.25
X167.64Y-97.79
X167.64Y-100.33
X167.64Y-102.87
X167.64Y-105.41
X167.64Y-107.95
T4
X142.555Y-70.462
X167.555Y-70.462
T0
M30
