%TF.GenerationSoftware,KiCad,Pcbnew,(5.1.10)-1*%
%TF.CreationDate,2022-04-21T22:26:52+02:00*%
%TF.ProjectId,Lin-bus card,4c696e2d-6275-4732-9063-6172642e6b69,rev?*%
%TF.SameCoordinates,Original*%
%TF.FileFunction,Soldermask,Bot*%
%TF.FilePolarity,Negative*%
%FSLAX46Y46*%
G04 Gerber Fmt 4.6, Leading zero omitted, Abs format (unit mm)*
G04 Created by KiCad (PCBNEW (5.1.10)-1) date 2022-04-21 22:26:52*
%MOMM*%
%LPD*%
G01*
G04 APERTURE LIST*
%ADD10O,1.700000X1.700000*%
%ADD11R,1.700000X1.700000*%
%ADD12R,1.600000X1.600000*%
%ADD13C,1.600000*%
%ADD14C,4.000000*%
%ADD15O,1.600000X1.600000*%
%ADD16C,3.200000*%
G04 APERTURE END LIST*
D10*
X167640000Y-85090000D03*
X167640000Y-87630000D03*
X167640000Y-90170000D03*
X167640000Y-92710000D03*
X167640000Y-95250000D03*
X167640000Y-97790000D03*
X167640000Y-100330000D03*
X167640000Y-102870000D03*
X167640000Y-105410000D03*
D11*
X167640000Y-107950000D03*
X142240000Y-107950000D03*
D10*
X142240000Y-105410000D03*
X142240000Y-102870000D03*
X142240000Y-100330000D03*
X142240000Y-97790000D03*
X142240000Y-95250000D03*
X142240000Y-92710000D03*
X142240000Y-90170000D03*
X142240000Y-87630000D03*
X142240000Y-85090000D03*
D12*
X160595000Y-71882000D03*
D13*
X157825000Y-71882000D03*
X155055000Y-71882000D03*
X152285000Y-71882000D03*
X149515000Y-71882000D03*
X159210000Y-69042000D03*
X156440000Y-69042000D03*
X153670000Y-69042000D03*
X150900000Y-69042000D03*
D14*
X167555000Y-70462000D03*
X142555000Y-70462000D03*
D12*
X154178000Y-92710000D03*
D15*
X146558000Y-85090000D03*
X154178000Y-90170000D03*
X146558000Y-87630000D03*
X154178000Y-87630000D03*
X146558000Y-90170000D03*
X154178000Y-85090000D03*
X146558000Y-92710000D03*
D11*
X150368000Y-109220000D03*
D10*
X147828000Y-109220000D03*
D16*
X138430000Y-134620000D03*
X138430000Y-78740000D03*
X171450000Y-134620000D03*
X171450000Y-78740000D03*
M02*
