%TF.GenerationSoftware,KiCad,Pcbnew,(5.1.10)-1*%
%TF.CreationDate,2022-04-21T22:26:52+02:00*%
%TF.ProjectId,Lin-bus card,4c696e2d-6275-4732-9063-6172642e6b69,rev?*%
%TF.SameCoordinates,Original*%
%TF.FileFunction,Legend,Bot*%
%TF.FilePolarity,Positive*%
%FSLAX46Y46*%
G04 Gerber Fmt 4.6, Leading zero omitted, Abs format (unit mm)*
G04 Created by KiCad (PCBNEW (5.1.10)-1) date 2022-04-21 22:26:52*
%MOMM*%
%LPD*%
G01*
G04 APERTURE LIST*
%ADD10C,0.120000*%
%ADD11C,0.150000*%
%ADD12O,1.700000X1.700000*%
%ADD13R,1.700000X1.700000*%
%ADD14R,1.600000X1.600000*%
%ADD15C,1.600000*%
%ADD16C,4.000000*%
%ADD17O,1.600000X1.600000*%
%ADD18C,3.200000*%
G04 APERTURE END LIST*
D10*
X166310000Y-83760000D02*
X168970000Y-83760000D01*
X166310000Y-106680000D02*
X166310000Y-83760000D01*
X168970000Y-106680000D02*
X168970000Y-83760000D01*
X166310000Y-106680000D02*
X168970000Y-106680000D01*
X166310000Y-107950000D02*
X166310000Y-109280000D01*
X166310000Y-109280000D02*
X167640000Y-109280000D01*
X140910000Y-109280000D02*
X142240000Y-109280000D01*
X140910000Y-107950000D02*
X140910000Y-109280000D01*
X140910000Y-106680000D02*
X143570000Y-106680000D01*
X143570000Y-106680000D02*
X143570000Y-83760000D01*
X140910000Y-106680000D02*
X140910000Y-83760000D01*
X140910000Y-83760000D02*
X143570000Y-83760000D01*
D11*
X167973333Y-109732380D02*
X167973333Y-110446666D01*
X168020952Y-110589523D01*
X168116190Y-110684761D01*
X168259047Y-110732380D01*
X168354285Y-110732380D01*
X166973333Y-110732380D02*
X167544761Y-110732380D01*
X167259047Y-110732380D02*
X167259047Y-109732380D01*
X167354285Y-109875238D01*
X167449523Y-109970476D01*
X167544761Y-110018095D01*
X142573333Y-109732380D02*
X142573333Y-110446666D01*
X142620952Y-110589523D01*
X142716190Y-110684761D01*
X142859047Y-110732380D01*
X142954285Y-110732380D01*
X142144761Y-109827619D02*
X142097142Y-109780000D01*
X142001904Y-109732380D01*
X141763809Y-109732380D01*
X141668571Y-109780000D01*
X141620952Y-109827619D01*
X141573333Y-109922857D01*
X141573333Y-110018095D01*
X141620952Y-110160952D01*
X142192380Y-110732380D01*
X141573333Y-110732380D01*
%LPC*%
D12*
X167640000Y-85090000D03*
X167640000Y-87630000D03*
X167640000Y-90170000D03*
X167640000Y-92710000D03*
X167640000Y-95250000D03*
X167640000Y-97790000D03*
X167640000Y-100330000D03*
X167640000Y-102870000D03*
X167640000Y-105410000D03*
D13*
X167640000Y-107950000D03*
X142240000Y-107950000D03*
D12*
X142240000Y-105410000D03*
X142240000Y-102870000D03*
X142240000Y-100330000D03*
X142240000Y-97790000D03*
X142240000Y-95250000D03*
X142240000Y-92710000D03*
X142240000Y-90170000D03*
X142240000Y-87630000D03*
X142240000Y-85090000D03*
D14*
X160595000Y-71882000D03*
D15*
X157825000Y-71882000D03*
X155055000Y-71882000D03*
X152285000Y-71882000D03*
X149515000Y-71882000D03*
X159210000Y-69042000D03*
X156440000Y-69042000D03*
X153670000Y-69042000D03*
X150900000Y-69042000D03*
D16*
X167555000Y-70462000D03*
X142555000Y-70462000D03*
D14*
X154178000Y-92710000D03*
D17*
X146558000Y-85090000D03*
X154178000Y-90170000D03*
X146558000Y-87630000D03*
X154178000Y-87630000D03*
X146558000Y-90170000D03*
X154178000Y-85090000D03*
X146558000Y-92710000D03*
D13*
X150368000Y-109220000D03*
D12*
X147828000Y-109220000D03*
D18*
X138430000Y-134620000D03*
X138430000Y-78740000D03*
X171450000Y-134620000D03*
X171450000Y-78740000D03*
M02*
