%TF.GenerationSoftware,KiCad,Pcbnew,(5.1.10)-1*%
%TF.CreationDate,2022-06-10T21:35:43+02:00*%
%TF.ProjectId,Lin-bus card,4c696e2d-6275-4732-9063-6172642e6b69,rev?*%
%TF.SameCoordinates,Original*%
%TF.FileFunction,Legend,Top*%
%TF.FilePolarity,Positive*%
%FSLAX46Y46*%
G04 Gerber Fmt 4.6, Leading zero omitted, Abs format (unit mm)*
G04 Created by KiCad (PCBNEW (5.1.10)-1) date 2022-06-10 21:35:43*
%MOMM*%
%LPD*%
G01*
G04 APERTURE LIST*
%ADD10C,0.150000*%
%ADD11C,0.120000*%
%ADD12C,0.200000*%
%ADD13C,0.254000*%
%ADD14R,1.800000X1.800000*%
%ADD15C,1.800000*%
%ADD16R,0.900000X0.800000*%
%ADD17R,2.150000X5.700000*%
%ADD18R,1.100000X1.100000*%
%ADD19R,2.500000X1.800000*%
%ADD20R,0.600000X0.450000*%
%ADD21O,1.700000X1.700000*%
%ADD22R,1.700000X1.700000*%
%ADD23R,1.600000X1.600000*%
%ADD24C,1.600000*%
%ADD25C,4.000000*%
%ADD26R,1.600000X1.900000*%
%ADD27R,1.100000X4.600000*%
%ADD28R,10.800000X9.400000*%
%ADD29O,1.600000X1.600000*%
%ADD30C,3.200000*%
%ADD31R,2.000000X2.000000*%
%ADD32C,2.000000*%
G04 APERTURE END LIST*
D10*
X162703095Y-66111428D02*
X163465000Y-66111428D01*
X163084047Y-66492380D02*
X163084047Y-65730476D01*
X164465000Y-66492380D02*
X163893571Y-66492380D01*
X164179285Y-66492380D02*
X164179285Y-65492380D01*
X164084047Y-65635238D01*
X163988809Y-65730476D01*
X163893571Y-65778095D01*
X164845952Y-65587619D02*
X164893571Y-65540000D01*
X164988809Y-65492380D01*
X165226904Y-65492380D01*
X165322142Y-65540000D01*
X165369761Y-65587619D01*
X165417380Y-65682857D01*
X165417380Y-65778095D01*
X165369761Y-65920952D01*
X164798333Y-66492380D01*
X165417380Y-66492380D01*
X165703095Y-65492380D02*
X166036428Y-66492380D01*
X166369761Y-65492380D01*
X173863095Y-65540000D02*
X173767857Y-65492380D01*
X173625000Y-65492380D01*
X173482142Y-65540000D01*
X173386904Y-65635238D01*
X173339285Y-65730476D01*
X173291666Y-65920952D01*
X173291666Y-66063809D01*
X173339285Y-66254285D01*
X173386904Y-66349523D01*
X173482142Y-66444761D01*
X173625000Y-66492380D01*
X173720238Y-66492380D01*
X173863095Y-66444761D01*
X173910714Y-66397142D01*
X173910714Y-66063809D01*
X173720238Y-66063809D01*
X174339285Y-66492380D02*
X174339285Y-65492380D01*
X174910714Y-66492380D01*
X174910714Y-65492380D01*
X175386904Y-66492380D02*
X175386904Y-65492380D01*
X175625000Y-65492380D01*
X175767857Y-65540000D01*
X175863095Y-65635238D01*
X175910714Y-65730476D01*
X175958333Y-65920952D01*
X175958333Y-66063809D01*
X175910714Y-66254285D01*
X175863095Y-66349523D01*
X175767857Y-66444761D01*
X175625000Y-66492380D01*
X175386904Y-66492380D01*
X131706428Y-85766190D02*
X131658809Y-85909047D01*
X131611190Y-85956666D01*
X131515952Y-86004285D01*
X131373095Y-86004285D01*
X131277857Y-85956666D01*
X131230238Y-85909047D01*
X131182619Y-85813809D01*
X131182619Y-85432857D01*
X132182619Y-85432857D01*
X132182619Y-85766190D01*
X132135000Y-85861428D01*
X132087380Y-85909047D01*
X131992142Y-85956666D01*
X131896904Y-85956666D01*
X131801666Y-85909047D01*
X131754047Y-85861428D01*
X131706428Y-85766190D01*
X131706428Y-85432857D01*
X131230238Y-86813809D02*
X131182619Y-86718571D01*
X131182619Y-86528095D01*
X131230238Y-86432857D01*
X131325476Y-86385238D01*
X131706428Y-86385238D01*
X131801666Y-86432857D01*
X131849285Y-86528095D01*
X131849285Y-86718571D01*
X131801666Y-86813809D01*
X131706428Y-86861428D01*
X131611190Y-86861428D01*
X131515952Y-86385238D01*
X131182619Y-87718571D02*
X131706428Y-87718571D01*
X131801666Y-87670952D01*
X131849285Y-87575714D01*
X131849285Y-87385238D01*
X131801666Y-87290000D01*
X131230238Y-87718571D02*
X131182619Y-87623333D01*
X131182619Y-87385238D01*
X131230238Y-87290000D01*
X131325476Y-87242380D01*
X131420714Y-87242380D01*
X131515952Y-87290000D01*
X131563571Y-87385238D01*
X131563571Y-87623333D01*
X131611190Y-87718571D01*
X131182619Y-88194761D02*
X131849285Y-88194761D01*
X131754047Y-88194761D02*
X131801666Y-88242380D01*
X131849285Y-88337619D01*
X131849285Y-88480476D01*
X131801666Y-88575714D01*
X131706428Y-88623333D01*
X131182619Y-88623333D01*
X131706428Y-88623333D02*
X131801666Y-88670952D01*
X131849285Y-88766190D01*
X131849285Y-88909047D01*
X131801666Y-89004285D01*
X131706428Y-89051904D01*
X131182619Y-89051904D01*
X131849285Y-89432857D02*
X131182619Y-89670952D01*
X131849285Y-89909047D02*
X131182619Y-89670952D01*
X130944523Y-89575714D01*
X130896904Y-89528095D01*
X130849285Y-89432857D01*
X131182619Y-91528095D02*
X131182619Y-91051904D01*
X132182619Y-91051904D01*
X131182619Y-92290000D02*
X131706428Y-92290000D01*
X131801666Y-92242380D01*
X131849285Y-92147142D01*
X131849285Y-91956666D01*
X131801666Y-91861428D01*
X131230238Y-92290000D02*
X131182619Y-92194761D01*
X131182619Y-91956666D01*
X131230238Y-91861428D01*
X131325476Y-91813809D01*
X131420714Y-91813809D01*
X131515952Y-91861428D01*
X131563571Y-91956666D01*
X131563571Y-92194761D01*
X131611190Y-92290000D01*
X131182619Y-92766190D02*
X132182619Y-92766190D01*
X131801666Y-92766190D02*
X131849285Y-92861428D01*
X131849285Y-93051904D01*
X131801666Y-93147142D01*
X131754047Y-93194761D01*
X131658809Y-93242380D01*
X131373095Y-93242380D01*
X131277857Y-93194761D01*
X131230238Y-93147142D01*
X131182619Y-93051904D01*
X131182619Y-92861428D01*
X131230238Y-92766190D01*
X131230238Y-93623333D02*
X131182619Y-93718571D01*
X131182619Y-93909047D01*
X131230238Y-94004285D01*
X131325476Y-94051904D01*
X131373095Y-94051904D01*
X131468333Y-94004285D01*
X131515952Y-93909047D01*
X131515952Y-93766190D01*
X131563571Y-93670952D01*
X131658809Y-93623333D01*
X131706428Y-93623333D01*
X131801666Y-93670952D01*
X131849285Y-93766190D01*
X131849285Y-93909047D01*
X131801666Y-94004285D01*
X131182619Y-95718571D02*
X131182619Y-95242380D01*
X132182619Y-95242380D01*
X131182619Y-96051904D02*
X131849285Y-96051904D01*
X132182619Y-96051904D02*
X132135000Y-96004285D01*
X132087380Y-96051904D01*
X132135000Y-96099523D01*
X132182619Y-96051904D01*
X132087380Y-96051904D01*
X131849285Y-96528095D02*
X131182619Y-96528095D01*
X131754047Y-96528095D02*
X131801666Y-96575714D01*
X131849285Y-96670952D01*
X131849285Y-96813809D01*
X131801666Y-96909047D01*
X131706428Y-96956666D01*
X131182619Y-96956666D01*
X132182619Y-98051904D02*
X132182619Y-98623333D01*
X131182619Y-98337619D02*
X132182619Y-98337619D01*
X131182619Y-98956666D02*
X131849285Y-98956666D01*
X131658809Y-98956666D02*
X131754047Y-99004285D01*
X131801666Y-99051904D01*
X131849285Y-99147142D01*
X131849285Y-99242380D01*
X131182619Y-100004285D02*
X131706428Y-100004285D01*
X131801666Y-99956666D01*
X131849285Y-99861428D01*
X131849285Y-99670952D01*
X131801666Y-99575714D01*
X131230238Y-100004285D02*
X131182619Y-99909047D01*
X131182619Y-99670952D01*
X131230238Y-99575714D01*
X131325476Y-99528095D01*
X131420714Y-99528095D01*
X131515952Y-99575714D01*
X131563571Y-99670952D01*
X131563571Y-99909047D01*
X131611190Y-100004285D01*
X131849285Y-100480476D02*
X131182619Y-100480476D01*
X131754047Y-100480476D02*
X131801666Y-100528095D01*
X131849285Y-100623333D01*
X131849285Y-100766190D01*
X131801666Y-100861428D01*
X131706428Y-100909047D01*
X131182619Y-100909047D01*
X131230238Y-101337619D02*
X131182619Y-101432857D01*
X131182619Y-101623333D01*
X131230238Y-101718571D01*
X131325476Y-101766190D01*
X131373095Y-101766190D01*
X131468333Y-101718571D01*
X131515952Y-101623333D01*
X131515952Y-101480476D01*
X131563571Y-101385238D01*
X131658809Y-101337619D01*
X131706428Y-101337619D01*
X131801666Y-101385238D01*
X131849285Y-101480476D01*
X131849285Y-101623333D01*
X131801666Y-101718571D01*
X131230238Y-102623333D02*
X131182619Y-102528095D01*
X131182619Y-102337619D01*
X131230238Y-102242380D01*
X131277857Y-102194761D01*
X131373095Y-102147142D01*
X131658809Y-102147142D01*
X131754047Y-102194761D01*
X131801666Y-102242380D01*
X131849285Y-102337619D01*
X131849285Y-102528095D01*
X131801666Y-102623333D01*
X131230238Y-103432857D02*
X131182619Y-103337619D01*
X131182619Y-103147142D01*
X131230238Y-103051904D01*
X131325476Y-103004285D01*
X131706428Y-103004285D01*
X131801666Y-103051904D01*
X131849285Y-103147142D01*
X131849285Y-103337619D01*
X131801666Y-103432857D01*
X131706428Y-103480476D01*
X131611190Y-103480476D01*
X131515952Y-103004285D01*
X131182619Y-103909047D02*
X131849285Y-103909047D01*
X132182619Y-103909047D02*
X132135000Y-103861428D01*
X132087380Y-103909047D01*
X132135000Y-103956666D01*
X132182619Y-103909047D01*
X132087380Y-103909047D01*
X131849285Y-104290000D02*
X131182619Y-104528095D01*
X131849285Y-104766190D01*
X131230238Y-105528095D02*
X131182619Y-105432857D01*
X131182619Y-105242380D01*
X131230238Y-105147142D01*
X131325476Y-105099523D01*
X131706428Y-105099523D01*
X131801666Y-105147142D01*
X131849285Y-105242380D01*
X131849285Y-105432857D01*
X131801666Y-105528095D01*
X131706428Y-105575714D01*
X131611190Y-105575714D01*
X131515952Y-105099523D01*
X131182619Y-106004285D02*
X131849285Y-106004285D01*
X131658809Y-106004285D02*
X131754047Y-106051904D01*
X131801666Y-106099523D01*
X131849285Y-106194761D01*
X131849285Y-106290000D01*
X132182619Y-107242380D02*
X131182619Y-107575714D01*
X132182619Y-107909047D01*
X132182619Y-108432857D02*
X132182619Y-108528095D01*
X132135000Y-108623333D01*
X132087380Y-108670952D01*
X131992142Y-108718571D01*
X131801666Y-108766190D01*
X131563571Y-108766190D01*
X131373095Y-108718571D01*
X131277857Y-108670952D01*
X131230238Y-108623333D01*
X131182619Y-108528095D01*
X131182619Y-108432857D01*
X131230238Y-108337619D01*
X131277857Y-108290000D01*
X131373095Y-108242380D01*
X131563571Y-108194761D01*
X131801666Y-108194761D01*
X131992142Y-108242380D01*
X132087380Y-108290000D01*
X132135000Y-108337619D01*
X132182619Y-108432857D01*
X131277857Y-109194761D02*
X131230238Y-109242380D01*
X131182619Y-109194761D01*
X131230238Y-109147142D01*
X131277857Y-109194761D01*
X131182619Y-109194761D01*
X132087380Y-109623333D02*
X132135000Y-109670952D01*
X132182619Y-109766190D01*
X132182619Y-110004285D01*
X132135000Y-110099523D01*
X132087380Y-110147142D01*
X131992142Y-110194761D01*
X131896904Y-110194761D01*
X131754047Y-110147142D01*
X131182619Y-109575714D01*
X131182619Y-110194761D01*
X130437380Y-92932857D02*
X130485000Y-92980476D01*
X130532619Y-93075714D01*
X130532619Y-93313809D01*
X130485000Y-93409047D01*
X130437380Y-93456666D01*
X130342142Y-93504285D01*
X130246904Y-93504285D01*
X130104047Y-93456666D01*
X129532619Y-92885238D01*
X129532619Y-93504285D01*
X130532619Y-94123333D02*
X130532619Y-94218571D01*
X130485000Y-94313809D01*
X130437380Y-94361428D01*
X130342142Y-94409047D01*
X130151666Y-94456666D01*
X129913571Y-94456666D01*
X129723095Y-94409047D01*
X129627857Y-94361428D01*
X129580238Y-94313809D01*
X129532619Y-94218571D01*
X129532619Y-94123333D01*
X129580238Y-94028095D01*
X129627857Y-93980476D01*
X129723095Y-93932857D01*
X129913571Y-93885238D01*
X130151666Y-93885238D01*
X130342142Y-93932857D01*
X130437380Y-93980476D01*
X130485000Y-94028095D01*
X130532619Y-94123333D01*
X130437380Y-94837619D02*
X130485000Y-94885238D01*
X130532619Y-94980476D01*
X130532619Y-95218571D01*
X130485000Y-95313809D01*
X130437380Y-95361428D01*
X130342142Y-95409047D01*
X130246904Y-95409047D01*
X130104047Y-95361428D01*
X129532619Y-94790000D01*
X129532619Y-95409047D01*
X130437380Y-95790000D02*
X130485000Y-95837619D01*
X130532619Y-95932857D01*
X130532619Y-96170952D01*
X130485000Y-96266190D01*
X130437380Y-96313809D01*
X130342142Y-96361428D01*
X130246904Y-96361428D01*
X130104047Y-96313809D01*
X129532619Y-95742380D01*
X129532619Y-96361428D01*
X129913571Y-96790000D02*
X129913571Y-97551904D01*
X130532619Y-98218571D02*
X130532619Y-98313809D01*
X130485000Y-98409047D01*
X130437380Y-98456666D01*
X130342142Y-98504285D01*
X130151666Y-98551904D01*
X129913571Y-98551904D01*
X129723095Y-98504285D01*
X129627857Y-98456666D01*
X129580238Y-98409047D01*
X129532619Y-98313809D01*
X129532619Y-98218571D01*
X129580238Y-98123333D01*
X129627857Y-98075714D01*
X129723095Y-98028095D01*
X129913571Y-97980476D01*
X130151666Y-97980476D01*
X130342142Y-98028095D01*
X130437380Y-98075714D01*
X130485000Y-98123333D01*
X130532619Y-98218571D01*
X130532619Y-99409047D02*
X130532619Y-99218571D01*
X130485000Y-99123333D01*
X130437380Y-99075714D01*
X130294523Y-98980476D01*
X130104047Y-98932857D01*
X129723095Y-98932857D01*
X129627857Y-98980476D01*
X129580238Y-99028095D01*
X129532619Y-99123333D01*
X129532619Y-99313809D01*
X129580238Y-99409047D01*
X129627857Y-99456666D01*
X129723095Y-99504285D01*
X129961190Y-99504285D01*
X130056428Y-99456666D01*
X130104047Y-99409047D01*
X130151666Y-99313809D01*
X130151666Y-99123333D01*
X130104047Y-99028095D01*
X130056428Y-98980476D01*
X129961190Y-98932857D01*
X129913571Y-99932857D02*
X129913571Y-100694761D01*
X130532619Y-101361428D02*
X130532619Y-101456666D01*
X130485000Y-101551904D01*
X130437380Y-101599523D01*
X130342142Y-101647142D01*
X130151666Y-101694761D01*
X129913571Y-101694761D01*
X129723095Y-101647142D01*
X129627857Y-101599523D01*
X129580238Y-101551904D01*
X129532619Y-101456666D01*
X129532619Y-101361428D01*
X129580238Y-101266190D01*
X129627857Y-101218571D01*
X129723095Y-101170952D01*
X129913571Y-101123333D01*
X130151666Y-101123333D01*
X130342142Y-101170952D01*
X130437380Y-101218571D01*
X130485000Y-101266190D01*
X130532619Y-101361428D01*
X130532619Y-102551904D02*
X130532619Y-102361428D01*
X130485000Y-102266190D01*
X130437380Y-102218571D01*
X130294523Y-102123333D01*
X130104047Y-102075714D01*
X129723095Y-102075714D01*
X129627857Y-102123333D01*
X129580238Y-102170952D01*
X129532619Y-102266190D01*
X129532619Y-102456666D01*
X129580238Y-102551904D01*
X129627857Y-102599523D01*
X129723095Y-102647142D01*
X129961190Y-102647142D01*
X130056428Y-102599523D01*
X130104047Y-102551904D01*
X130151666Y-102456666D01*
X130151666Y-102266190D01*
X130104047Y-102170952D01*
X130056428Y-102123333D01*
X129961190Y-102075714D01*
D11*
X144740000Y-62230000D02*
G75*
G03*
X144740000Y-62230000I-2500000J0D01*
G01*
X139680000Y-60685000D02*
X139680000Y-63775000D01*
X145230000Y-62230462D02*
G75*
G03*
X139680000Y-60685170I-2990000J462D01*
G01*
X145230000Y-62229538D02*
G75*
G02*
X139680000Y-63774830I-2990000J-462D01*
G01*
X150620000Y-110800000D02*
X149160000Y-110800000D01*
X150620000Y-107640000D02*
X148460000Y-107640000D01*
X150620000Y-107640000D02*
X150620000Y-108570000D01*
X150620000Y-110800000D02*
X150620000Y-109870000D01*
X167640000Y-127488000D02*
X172720000Y-127488000D01*
X172720000Y-127488000D02*
X172720000Y-117963000D01*
X172720000Y-117963000D02*
X169545000Y-114788000D01*
X169545000Y-114788000D02*
X167640000Y-114788000D01*
X165100000Y-114788000D02*
X163195000Y-114788000D01*
X163195000Y-114788000D02*
X159995000Y-117950000D01*
X159995000Y-117950000D02*
X160020000Y-127488000D01*
X160020000Y-127488000D02*
X165100000Y-127488000D01*
X149733580Y-97280000D02*
X149452420Y-97280000D01*
X149733580Y-98300000D02*
X149452420Y-98300000D01*
X149452420Y-99058000D02*
X149733580Y-99058000D01*
X149452420Y-100078000D02*
X149733580Y-100078000D01*
X137560000Y-128378000D02*
X139910000Y-128378000D01*
X144380000Y-128378000D02*
X142030000Y-128378000D01*
X144380000Y-122622437D02*
X144380000Y-128378000D01*
X137560000Y-122622437D02*
X137560000Y-128378000D01*
X138624437Y-121558000D02*
X139910000Y-121558000D01*
X143315563Y-121558000D02*
X142030000Y-121558000D01*
X143315563Y-121558000D02*
X144380000Y-122622437D01*
X138624437Y-121558000D02*
X137560000Y-122622437D01*
X142817500Y-120530500D02*
X142817500Y-121318000D01*
X143211250Y-120924250D02*
X142423750Y-120924250D01*
X157950000Y-88916000D02*
X157950000Y-90916000D01*
X157950000Y-90916000D02*
X161800000Y-90916000D01*
X157950000Y-88916000D02*
X161800000Y-88916000D01*
X156906000Y-96394000D02*
X162306000Y-96394000D01*
X156906000Y-99694000D02*
X162306000Y-99694000D01*
X156906000Y-96394000D02*
X156906000Y-99694000D01*
X156906000Y-92330000D02*
X156906000Y-95630000D01*
X156906000Y-95630000D02*
X162306000Y-95630000D01*
X156906000Y-92330000D02*
X162306000Y-92330000D01*
X161774000Y-85432000D02*
X161774000Y-83732000D01*
X161774000Y-83732000D02*
X159224000Y-83732000D01*
X161774000Y-85432000D02*
X159224000Y-85432000D01*
X163706000Y-104266000D02*
X163706000Y-100966000D01*
X163706000Y-100966000D02*
X158306000Y-100966000D01*
X163706000Y-104266000D02*
X158306000Y-104266000D01*
X161774000Y-87718000D02*
X159224000Y-87718000D01*
X161774000Y-86018000D02*
X159224000Y-86018000D01*
X161774000Y-87718000D02*
X161774000Y-86018000D01*
X161075000Y-43495000D02*
X161075000Y-55835000D01*
X161075000Y-55835000D02*
X130105000Y-55835000D01*
X130105000Y-55835000D02*
X130105000Y-43495000D01*
X151380000Y-56729338D02*
X150880000Y-56729338D01*
X150880000Y-56729338D02*
X151130000Y-56296325D01*
X151130000Y-56296325D02*
X151380000Y-56729338D01*
X139770000Y-112448000D02*
X138270000Y-112448000D01*
X138270000Y-112448000D02*
X138270000Y-118148000D01*
X138270000Y-118148000D02*
X139770000Y-118148000D01*
X142170000Y-112448000D02*
X143670000Y-112448000D01*
X143670000Y-112448000D02*
X143670000Y-118148000D01*
X143670000Y-118148000D02*
X142170000Y-118148000D01*
X149305742Y-96534500D02*
X149780258Y-96534500D01*
X149305742Y-95489500D02*
X149780258Y-95489500D01*
X149780258Y-103646500D02*
X149305742Y-103646500D01*
X149780258Y-102601500D02*
X149305742Y-102601500D01*
X149780258Y-101868500D02*
X149305742Y-101868500D01*
X149780258Y-100823500D02*
X149305742Y-100823500D01*
X157600000Y-120143000D02*
X157600000Y-118643000D01*
X157600000Y-118643000D02*
X156650000Y-118643000D01*
X156650000Y-118643000D02*
X156650000Y-113518000D01*
X147200000Y-120143000D02*
X147200000Y-118643000D01*
X147200000Y-118643000D02*
X148150000Y-118643000D01*
X148150000Y-118643000D02*
X148150000Y-117543000D01*
X145228000Y-94100000D02*
X155508000Y-94100000D01*
X145228000Y-83700000D02*
X145228000Y-94100000D01*
X155508000Y-83700000D02*
X145228000Y-83700000D01*
X155508000Y-94100000D02*
X155508000Y-83700000D01*
X147718000Y-94040000D02*
X149368000Y-94040000D01*
X147718000Y-83760000D02*
X147718000Y-94040000D01*
X153018000Y-83760000D02*
X147718000Y-83760000D01*
X153018000Y-94040000D02*
X153018000Y-83760000D01*
X151368000Y-94040000D02*
X153018000Y-94040000D01*
X149368000Y-94040000D02*
G75*
G02*
X151368000Y-94040000I1000000J0D01*
G01*
X148689748Y-104246000D02*
X150112252Y-104246000D01*
X148689748Y-106066000D02*
X150112252Y-106066000D01*
D12*
X172640000Y-43320000D02*
X172640000Y-64720000D01*
X162640000Y-43320000D02*
X172640000Y-43320000D01*
X162640000Y-64720000D02*
X162640000Y-43320000D01*
X172640000Y-64720000D02*
X162640000Y-64720000D01*
X182800000Y-64720000D02*
X172800000Y-64720000D01*
X172800000Y-64720000D02*
X172800000Y-43320000D01*
X172800000Y-43320000D02*
X182800000Y-43320000D01*
X182800000Y-43320000D02*
X182800000Y-64720000D01*
X151130000Y-71120000D02*
X151130000Y-81280000D01*
X151130000Y-81280000D02*
X140970000Y-81280000D01*
X141605000Y-71120000D02*
X140970000Y-71755000D01*
X140970000Y-81280000D02*
X140970000Y-71755000D01*
X151130000Y-71120000D02*
X141605000Y-71120000D01*
X148058046Y-76200000D02*
G75*
G03*
X148058046Y-76200000I-2008046J0D01*
G01*
D11*
X130790000Y-60685000D02*
X130790000Y-63775000D01*
X135850000Y-62230000D02*
G75*
G03*
X135850000Y-62230000I-2500000J0D01*
G01*
X136340000Y-62229538D02*
G75*
G02*
X130790000Y-63774830I-2990000J-462D01*
G01*
X136340000Y-62230462D02*
G75*
G03*
X130790000Y-60685170I-2990000J462D01*
G01*
X148382258Y-64657500D02*
X147907742Y-64657500D01*
X148382258Y-63612500D02*
X147907742Y-63612500D01*
X148382258Y-61707500D02*
X147907742Y-61707500D01*
X148382258Y-62752500D02*
X147907742Y-62752500D01*
D10*
X141501904Y-58722380D02*
X141501904Y-57722380D01*
X141740000Y-57722380D01*
X141882857Y-57770000D01*
X141978095Y-57865238D01*
X142025714Y-57960476D01*
X142073333Y-58150952D01*
X142073333Y-58293809D01*
X142025714Y-58484285D01*
X141978095Y-58579523D01*
X141882857Y-58674761D01*
X141740000Y-58722380D01*
X141501904Y-58722380D01*
X142644761Y-58150952D02*
X142549523Y-58103333D01*
X142501904Y-58055714D01*
X142454285Y-57960476D01*
X142454285Y-57912857D01*
X142501904Y-57817619D01*
X142549523Y-57770000D01*
X142644761Y-57722380D01*
X142835238Y-57722380D01*
X142930476Y-57770000D01*
X142978095Y-57817619D01*
X143025714Y-57912857D01*
X143025714Y-57960476D01*
X142978095Y-58055714D01*
X142930476Y-58103333D01*
X142835238Y-58150952D01*
X142644761Y-58150952D01*
X142549523Y-58198571D01*
X142501904Y-58246190D01*
X142454285Y-58341428D01*
X142454285Y-58531904D01*
X142501904Y-58627142D01*
X142549523Y-58674761D01*
X142644761Y-58722380D01*
X142835238Y-58722380D01*
X142930476Y-58674761D01*
X142978095Y-58627142D01*
X143025714Y-58531904D01*
X143025714Y-58341428D01*
X142978095Y-58246190D01*
X142930476Y-58198571D01*
X142835238Y-58150952D01*
X147224761Y-109767619D02*
X147129523Y-109720000D01*
X147034285Y-109624761D01*
X146891428Y-109481904D01*
X146796190Y-109434285D01*
X146700952Y-109434285D01*
X146748571Y-109672380D02*
X146653333Y-109624761D01*
X146558095Y-109529523D01*
X146510476Y-109339047D01*
X146510476Y-109005714D01*
X146558095Y-108815238D01*
X146653333Y-108720000D01*
X146748571Y-108672380D01*
X146939047Y-108672380D01*
X147034285Y-108720000D01*
X147129523Y-108815238D01*
X147177142Y-109005714D01*
X147177142Y-109339047D01*
X147129523Y-109529523D01*
X147034285Y-109624761D01*
X146939047Y-109672380D01*
X146748571Y-109672380D01*
X148129523Y-109672380D02*
X147558095Y-109672380D01*
X147843809Y-109672380D02*
X147843809Y-108672380D01*
X147748571Y-108815238D01*
X147653333Y-108910476D01*
X147558095Y-108958095D01*
D13*
X174443571Y-121496666D02*
X174504047Y-121557142D01*
X174564523Y-121738571D01*
X174564523Y-121859523D01*
X174504047Y-122040952D01*
X174383095Y-122161904D01*
X174262142Y-122222380D01*
X174020238Y-122282857D01*
X173838809Y-122282857D01*
X173596904Y-122222380D01*
X173475952Y-122161904D01*
X173355000Y-122040952D01*
X173294523Y-121859523D01*
X173294523Y-121738571D01*
X173355000Y-121557142D01*
X173415476Y-121496666D01*
X173717857Y-120408095D02*
X174564523Y-120408095D01*
X173234047Y-120710476D02*
X174141190Y-121012857D01*
X174141190Y-120226666D01*
D10*
X146645333Y-98401142D02*
X146597714Y-98448761D01*
X146454857Y-98496380D01*
X146359619Y-98496380D01*
X146216761Y-98448761D01*
X146121523Y-98353523D01*
X146073904Y-98258285D01*
X146026285Y-98067809D01*
X146026285Y-97924952D01*
X146073904Y-97734476D01*
X146121523Y-97639238D01*
X146216761Y-97544000D01*
X146359619Y-97496380D01*
X146454857Y-97496380D01*
X146597714Y-97544000D01*
X146645333Y-97591619D01*
X147597714Y-98496380D02*
X147026285Y-98496380D01*
X147312000Y-98496380D02*
X147312000Y-97496380D01*
X147216761Y-97639238D01*
X147121523Y-97734476D01*
X147026285Y-97782095D01*
X146899333Y-100179142D02*
X146851714Y-100226761D01*
X146708857Y-100274380D01*
X146613619Y-100274380D01*
X146470761Y-100226761D01*
X146375523Y-100131523D01*
X146327904Y-100036285D01*
X146280285Y-99845809D01*
X146280285Y-99702952D01*
X146327904Y-99512476D01*
X146375523Y-99417238D01*
X146470761Y-99322000D01*
X146613619Y-99274380D01*
X146708857Y-99274380D01*
X146851714Y-99322000D01*
X146899333Y-99369619D01*
X147280285Y-99369619D02*
X147327904Y-99322000D01*
X147423142Y-99274380D01*
X147661238Y-99274380D01*
X147756476Y-99322000D01*
X147804095Y-99369619D01*
X147851714Y-99464857D01*
X147851714Y-99560095D01*
X147804095Y-99702952D01*
X147232666Y-100274380D01*
X147851714Y-100274380D01*
X145677142Y-125134666D02*
X145724761Y-125182285D01*
X145772380Y-125325142D01*
X145772380Y-125420380D01*
X145724761Y-125563238D01*
X145629523Y-125658476D01*
X145534285Y-125706095D01*
X145343809Y-125753714D01*
X145200952Y-125753714D01*
X145010476Y-125706095D01*
X144915238Y-125658476D01*
X144820000Y-125563238D01*
X144772380Y-125420380D01*
X144772380Y-125325142D01*
X144820000Y-125182285D01*
X144867619Y-125134666D01*
X144772380Y-124229904D02*
X144772380Y-124706095D01*
X145248571Y-124753714D01*
X145200952Y-124706095D01*
X145153333Y-124610857D01*
X145153333Y-124372761D01*
X145200952Y-124277523D01*
X145248571Y-124229904D01*
X145343809Y-124182285D01*
X145581904Y-124182285D01*
X145677142Y-124229904D01*
X145724761Y-124277523D01*
X145772380Y-124372761D01*
X145772380Y-124610857D01*
X145724761Y-124706095D01*
X145677142Y-124753714D01*
X163097904Y-90368380D02*
X163097904Y-89368380D01*
X163336000Y-89368380D01*
X163478857Y-89416000D01*
X163574095Y-89511238D01*
X163621714Y-89606476D01*
X163669333Y-89796952D01*
X163669333Y-89939809D01*
X163621714Y-90130285D01*
X163574095Y-90225523D01*
X163478857Y-90320761D01*
X163336000Y-90368380D01*
X163097904Y-90368380D01*
X164621714Y-90368380D02*
X164050285Y-90368380D01*
X164336000Y-90368380D02*
X164336000Y-89368380D01*
X164240761Y-89511238D01*
X164145523Y-89606476D01*
X164050285Y-89654095D01*
X164107904Y-98750380D02*
X164107904Y-97750380D01*
X164346000Y-97750380D01*
X164488857Y-97798000D01*
X164584095Y-97893238D01*
X164631714Y-97988476D01*
X164679333Y-98178952D01*
X164679333Y-98321809D01*
X164631714Y-98512285D01*
X164584095Y-98607523D01*
X164488857Y-98702761D01*
X164346000Y-98750380D01*
X164107904Y-98750380D01*
X165060285Y-97845619D02*
X165107904Y-97798000D01*
X165203142Y-97750380D01*
X165441238Y-97750380D01*
X165536476Y-97798000D01*
X165584095Y-97845619D01*
X165631714Y-97940857D01*
X165631714Y-98036095D01*
X165584095Y-98178952D01*
X165012666Y-98750380D01*
X165631714Y-98750380D01*
X164107904Y-94686380D02*
X164107904Y-93686380D01*
X164346000Y-93686380D01*
X164488857Y-93734000D01*
X164584095Y-93829238D01*
X164631714Y-93924476D01*
X164679333Y-94114952D01*
X164679333Y-94257809D01*
X164631714Y-94448285D01*
X164584095Y-94543523D01*
X164488857Y-94638761D01*
X164346000Y-94686380D01*
X164107904Y-94686380D01*
X165012666Y-93686380D02*
X165631714Y-93686380D01*
X165298380Y-94067333D01*
X165441238Y-94067333D01*
X165536476Y-94114952D01*
X165584095Y-94162571D01*
X165631714Y-94257809D01*
X165631714Y-94495904D01*
X165584095Y-94591142D01*
X165536476Y-94638761D01*
X165441238Y-94686380D01*
X165155523Y-94686380D01*
X165060285Y-94638761D01*
X165012666Y-94591142D01*
X162329904Y-85034380D02*
X162329904Y-84034380D01*
X162568000Y-84034380D01*
X162710857Y-84082000D01*
X162806095Y-84177238D01*
X162853714Y-84272476D01*
X162901333Y-84462952D01*
X162901333Y-84605809D01*
X162853714Y-84796285D01*
X162806095Y-84891523D01*
X162710857Y-84986761D01*
X162568000Y-85034380D01*
X162329904Y-85034380D01*
X163758476Y-84367714D02*
X163758476Y-85034380D01*
X163520380Y-83986761D02*
X163282285Y-84701047D01*
X163901333Y-84701047D01*
X164361904Y-103322380D02*
X164361904Y-102322380D01*
X164600000Y-102322380D01*
X164742857Y-102370000D01*
X164838095Y-102465238D01*
X164885714Y-102560476D01*
X164933333Y-102750952D01*
X164933333Y-102893809D01*
X164885714Y-103084285D01*
X164838095Y-103179523D01*
X164742857Y-103274761D01*
X164600000Y-103322380D01*
X164361904Y-103322380D01*
X165838095Y-102322380D02*
X165361904Y-102322380D01*
X165314285Y-102798571D01*
X165361904Y-102750952D01*
X165457142Y-102703333D01*
X165695238Y-102703333D01*
X165790476Y-102750952D01*
X165838095Y-102798571D01*
X165885714Y-102893809D01*
X165885714Y-103131904D01*
X165838095Y-103227142D01*
X165790476Y-103274761D01*
X165695238Y-103322380D01*
X165457142Y-103322380D01*
X165361904Y-103274761D01*
X165314285Y-103227142D01*
X162329904Y-87320380D02*
X162329904Y-86320380D01*
X162568000Y-86320380D01*
X162710857Y-86368000D01*
X162806095Y-86463238D01*
X162853714Y-86558476D01*
X162901333Y-86748952D01*
X162901333Y-86891809D01*
X162853714Y-87082285D01*
X162806095Y-87177523D01*
X162710857Y-87272761D01*
X162568000Y-87320380D01*
X162329904Y-87320380D01*
X163758476Y-86320380D02*
X163568000Y-86320380D01*
X163472761Y-86368000D01*
X163425142Y-86415619D01*
X163329904Y-86558476D01*
X163282285Y-86748952D01*
X163282285Y-87129904D01*
X163329904Y-87225142D01*
X163377523Y-87272761D01*
X163472761Y-87320380D01*
X163663238Y-87320380D01*
X163758476Y-87272761D01*
X163806095Y-87225142D01*
X163853714Y-87129904D01*
X163853714Y-86891809D01*
X163806095Y-86796571D01*
X163758476Y-86748952D01*
X163663238Y-86701333D01*
X163472761Y-86701333D01*
X163377523Y-86748952D01*
X163329904Y-86796571D01*
X163282285Y-86891809D01*
X145256666Y-56227380D02*
X145256666Y-56941666D01*
X145209047Y-57084523D01*
X145113809Y-57179761D01*
X144970952Y-57227380D01*
X144875714Y-57227380D01*
X146209047Y-56227380D02*
X145732857Y-56227380D01*
X145685238Y-56703571D01*
X145732857Y-56655952D01*
X145828095Y-56608333D01*
X146066190Y-56608333D01*
X146161428Y-56655952D01*
X146209047Y-56703571D01*
X146256666Y-56798809D01*
X146256666Y-57036904D01*
X146209047Y-57132142D01*
X146161428Y-57179761D01*
X146066190Y-57227380D01*
X145828095Y-57227380D01*
X145732857Y-57179761D01*
X145685238Y-57132142D01*
X145022380Y-115464666D02*
X145022380Y-115940857D01*
X144022380Y-115940857D01*
X145022380Y-114607523D02*
X145022380Y-115178952D01*
X145022380Y-114893238D02*
X144022380Y-114893238D01*
X144165238Y-114988476D01*
X144260476Y-115083714D01*
X144308095Y-115178952D01*
X146899333Y-96718380D02*
X146566000Y-96242190D01*
X146327904Y-96718380D02*
X146327904Y-95718380D01*
X146708857Y-95718380D01*
X146804095Y-95766000D01*
X146851714Y-95813619D01*
X146899333Y-95908857D01*
X146899333Y-96051714D01*
X146851714Y-96146952D01*
X146804095Y-96194571D01*
X146708857Y-96242190D01*
X146327904Y-96242190D01*
X147851714Y-96718380D02*
X147280285Y-96718380D01*
X147566000Y-96718380D02*
X147566000Y-95718380D01*
X147470761Y-95861238D01*
X147375523Y-95956476D01*
X147280285Y-96004095D01*
X146645333Y-103576380D02*
X146312000Y-103100190D01*
X146073904Y-103576380D02*
X146073904Y-102576380D01*
X146454857Y-102576380D01*
X146550095Y-102624000D01*
X146597714Y-102671619D01*
X146645333Y-102766857D01*
X146645333Y-102909714D01*
X146597714Y-103004952D01*
X146550095Y-103052571D01*
X146454857Y-103100190D01*
X146073904Y-103100190D01*
X147026285Y-102671619D02*
X147073904Y-102624000D01*
X147169142Y-102576380D01*
X147407238Y-102576380D01*
X147502476Y-102624000D01*
X147550095Y-102671619D01*
X147597714Y-102766857D01*
X147597714Y-102862095D01*
X147550095Y-103004952D01*
X146978666Y-103576380D01*
X147597714Y-103576380D01*
X147153333Y-101798380D02*
X146820000Y-101322190D01*
X146581904Y-101798380D02*
X146581904Y-100798380D01*
X146962857Y-100798380D01*
X147058095Y-100846000D01*
X147105714Y-100893619D01*
X147153333Y-100988857D01*
X147153333Y-101131714D01*
X147105714Y-101226952D01*
X147058095Y-101274571D01*
X146962857Y-101322190D01*
X146581904Y-101322190D01*
X147486666Y-100798380D02*
X148105714Y-100798380D01*
X147772380Y-101179333D01*
X147915238Y-101179333D01*
X148010476Y-101226952D01*
X148058095Y-101274571D01*
X148105714Y-101369809D01*
X148105714Y-101607904D01*
X148058095Y-101703142D01*
X148010476Y-101750761D01*
X147915238Y-101798380D01*
X147629523Y-101798380D01*
X147534285Y-101750761D01*
X147486666Y-101703142D01*
X151003095Y-130897380D02*
X151003095Y-131706904D01*
X151050714Y-131802142D01*
X151098333Y-131849761D01*
X151193571Y-131897380D01*
X151384047Y-131897380D01*
X151479285Y-131849761D01*
X151526904Y-131802142D01*
X151574523Y-131706904D01*
X151574523Y-130897380D01*
X152003095Y-130992619D02*
X152050714Y-130945000D01*
X152145952Y-130897380D01*
X152384047Y-130897380D01*
X152479285Y-130945000D01*
X152526904Y-130992619D01*
X152574523Y-131087857D01*
X152574523Y-131183095D01*
X152526904Y-131325952D01*
X151955476Y-131897380D01*
X152574523Y-131897380D01*
X156464095Y-88606380D02*
X156464095Y-89415904D01*
X156511714Y-89511142D01*
X156559333Y-89558761D01*
X156654571Y-89606380D01*
X156845047Y-89606380D01*
X156940285Y-89558761D01*
X156987904Y-89511142D01*
X157035523Y-89415904D01*
X157035523Y-88606380D01*
X158035523Y-89606380D02*
X157464095Y-89606380D01*
X157749809Y-89606380D02*
X157749809Y-88606380D01*
X157654571Y-88749238D01*
X157559333Y-88844476D01*
X157464095Y-88892095D01*
X145883333Y-105767142D02*
X145835714Y-105814761D01*
X145692857Y-105862380D01*
X145597619Y-105862380D01*
X145454761Y-105814761D01*
X145359523Y-105719523D01*
X145311904Y-105624285D01*
X145264285Y-105433809D01*
X145264285Y-105290952D01*
X145311904Y-105100476D01*
X145359523Y-105005238D01*
X145454761Y-104910000D01*
X145597619Y-104862380D01*
X145692857Y-104862380D01*
X145835714Y-104910000D01*
X145883333Y-104957619D01*
X146216666Y-104862380D02*
X146835714Y-104862380D01*
X146502380Y-105243333D01*
X146645238Y-105243333D01*
X146740476Y-105290952D01*
X146788095Y-105338571D01*
X146835714Y-105433809D01*
X146835714Y-105671904D01*
X146788095Y-105767142D01*
X146740476Y-105814761D01*
X146645238Y-105862380D01*
X146359523Y-105862380D01*
X146264285Y-105814761D01*
X146216666Y-105767142D01*
X132588095Y-125547380D02*
X132588095Y-124547380D01*
X132588095Y-125023571D02*
X133159523Y-125023571D01*
X133159523Y-125547380D02*
X133159523Y-124547380D01*
X134159523Y-125547380D02*
X133588095Y-125547380D01*
X133873809Y-125547380D02*
X133873809Y-124547380D01*
X133778571Y-124690238D01*
X133683333Y-124785476D01*
X133588095Y-124833095D01*
X132588095Y-70937380D02*
X132588095Y-69937380D01*
X132588095Y-70413571D02*
X133159523Y-70413571D01*
X133159523Y-70937380D02*
X133159523Y-69937380D01*
X133588095Y-70032619D02*
X133635714Y-69985000D01*
X133730952Y-69937380D01*
X133969047Y-69937380D01*
X134064285Y-69985000D01*
X134111904Y-70032619D01*
X134159523Y-70127857D01*
X134159523Y-70223095D01*
X134111904Y-70365952D01*
X133540476Y-70937380D01*
X134159523Y-70937380D01*
X178308095Y-124277380D02*
X178308095Y-123277380D01*
X178308095Y-123753571D02*
X178879523Y-123753571D01*
X178879523Y-124277380D02*
X178879523Y-123277380D01*
X179260476Y-123277380D02*
X179879523Y-123277380D01*
X179546190Y-123658333D01*
X179689047Y-123658333D01*
X179784285Y-123705952D01*
X179831904Y-123753571D01*
X179879523Y-123848809D01*
X179879523Y-124086904D01*
X179831904Y-124182142D01*
X179784285Y-124229761D01*
X179689047Y-124277380D01*
X179403333Y-124277380D01*
X179308095Y-124229761D01*
X179260476Y-124182142D01*
X178308095Y-70937380D02*
X178308095Y-69937380D01*
X178308095Y-70413571D02*
X178879523Y-70413571D01*
X178879523Y-70937380D02*
X178879523Y-69937380D01*
X179784285Y-70270714D02*
X179784285Y-70937380D01*
X179546190Y-69889761D02*
X179308095Y-70604047D01*
X179927142Y-70604047D01*
X160742380Y-60918333D02*
X161456666Y-60918333D01*
X161599523Y-60965952D01*
X161694761Y-61061190D01*
X161742380Y-61204047D01*
X161742380Y-61299285D01*
X160742380Y-60537380D02*
X160742380Y-59918333D01*
X161123333Y-60251666D01*
X161123333Y-60108809D01*
X161170952Y-60013571D01*
X161218571Y-59965952D01*
X161313809Y-59918333D01*
X161551904Y-59918333D01*
X161647142Y-59965952D01*
X161694761Y-60013571D01*
X161742380Y-60108809D01*
X161742380Y-60394523D01*
X161694761Y-60489761D01*
X161647142Y-60537380D01*
X181276666Y-65492380D02*
X181276666Y-66206666D01*
X181229047Y-66349523D01*
X181133809Y-66444761D01*
X180990952Y-66492380D01*
X180895714Y-66492380D01*
X182181428Y-65825714D02*
X182181428Y-66492380D01*
X181943333Y-65444761D02*
X181705238Y-66159047D01*
X182324285Y-66159047D01*
X145986666Y-82954761D02*
X146129523Y-83002380D01*
X146367619Y-83002380D01*
X146462857Y-82954761D01*
X146510476Y-82907142D01*
X146558095Y-82811904D01*
X146558095Y-82716666D01*
X146510476Y-82621428D01*
X146462857Y-82573809D01*
X146367619Y-82526190D01*
X146177142Y-82478571D01*
X146081904Y-82430952D01*
X146034285Y-82383333D01*
X145986666Y-82288095D01*
X145986666Y-82192857D01*
X146034285Y-82097619D01*
X146081904Y-82050000D01*
X146177142Y-82002380D01*
X146415238Y-82002380D01*
X146558095Y-82050000D01*
X146891428Y-82002380D02*
X147129523Y-83002380D01*
X147320000Y-82288095D01*
X147510476Y-83002380D01*
X147748571Y-82002380D01*
X148653333Y-83002380D02*
X148081904Y-83002380D01*
X148367619Y-83002380D02*
X148367619Y-82002380D01*
X148272380Y-82145238D01*
X148177142Y-82240476D01*
X148081904Y-82288095D01*
X132611904Y-58722380D02*
X132611904Y-57722380D01*
X132850000Y-57722380D01*
X132992857Y-57770000D01*
X133088095Y-57865238D01*
X133135714Y-57960476D01*
X133183333Y-58150952D01*
X133183333Y-58293809D01*
X133135714Y-58484285D01*
X133088095Y-58579523D01*
X132992857Y-58674761D01*
X132850000Y-58722380D01*
X132611904Y-58722380D01*
X133516666Y-57722380D02*
X134183333Y-57722380D01*
X133754761Y-58722380D01*
X150328333Y-64587380D02*
X149995000Y-64111190D01*
X149756904Y-64587380D02*
X149756904Y-63587380D01*
X150137857Y-63587380D01*
X150233095Y-63635000D01*
X150280714Y-63682619D01*
X150328333Y-63777857D01*
X150328333Y-63920714D01*
X150280714Y-64015952D01*
X150233095Y-64063571D01*
X150137857Y-64111190D01*
X149756904Y-64111190D01*
X151185476Y-63920714D02*
X151185476Y-64587380D01*
X150947380Y-63539761D02*
X150709285Y-64254047D01*
X151328333Y-64254047D01*
X150328333Y-62682380D02*
X149995000Y-62206190D01*
X149756904Y-62682380D02*
X149756904Y-61682380D01*
X150137857Y-61682380D01*
X150233095Y-61730000D01*
X150280714Y-61777619D01*
X150328333Y-61872857D01*
X150328333Y-62015714D01*
X150280714Y-62110952D01*
X150233095Y-62158571D01*
X150137857Y-62206190D01*
X149756904Y-62206190D01*
X151233095Y-61682380D02*
X150756904Y-61682380D01*
X150709285Y-62158571D01*
X150756904Y-62110952D01*
X150852142Y-62063333D01*
X151090238Y-62063333D01*
X151185476Y-62110952D01*
X151233095Y-62158571D01*
X151280714Y-62253809D01*
X151280714Y-62491904D01*
X151233095Y-62587142D01*
X151185476Y-62634761D01*
X151090238Y-62682380D01*
X150852142Y-62682380D01*
X150756904Y-62634761D01*
X150709285Y-62587142D01*
%LPC*%
D14*
X140970000Y-62230000D03*
D15*
X143510000Y-62230000D03*
D16*
X150860000Y-109220000D03*
X148860000Y-110170000D03*
X148860000Y-108270000D03*
D17*
X166370000Y-126238000D03*
X166370000Y-116038000D03*
G36*
G01*
X149268000Y-97540000D02*
X149268000Y-98040000D01*
G75*
G02*
X149043000Y-98265000I-225000J0D01*
G01*
X148593000Y-98265000D01*
G75*
G02*
X148368000Y-98040000I0J225000D01*
G01*
X148368000Y-97540000D01*
G75*
G02*
X148593000Y-97315000I225000J0D01*
G01*
X149043000Y-97315000D01*
G75*
G02*
X149268000Y-97540000I0J-225000D01*
G01*
G37*
G36*
G01*
X150818000Y-97540000D02*
X150818000Y-98040000D01*
G75*
G02*
X150593000Y-98265000I-225000J0D01*
G01*
X150143000Y-98265000D01*
G75*
G02*
X149918000Y-98040000I0J225000D01*
G01*
X149918000Y-97540000D01*
G75*
G02*
X150143000Y-97315000I225000J0D01*
G01*
X150593000Y-97315000D01*
G75*
G02*
X150818000Y-97540000I0J-225000D01*
G01*
G37*
G36*
G01*
X148368000Y-99818000D02*
X148368000Y-99318000D01*
G75*
G02*
X148593000Y-99093000I225000J0D01*
G01*
X149043000Y-99093000D01*
G75*
G02*
X149268000Y-99318000I0J-225000D01*
G01*
X149268000Y-99818000D01*
G75*
G02*
X149043000Y-100043000I-225000J0D01*
G01*
X148593000Y-100043000D01*
G75*
G02*
X148368000Y-99818000I0J225000D01*
G01*
G37*
G36*
G01*
X149918000Y-99818000D02*
X149918000Y-99318000D01*
G75*
G02*
X150143000Y-99093000I225000J0D01*
G01*
X150593000Y-99093000D01*
G75*
G02*
X150818000Y-99318000I0J-225000D01*
G01*
X150818000Y-99818000D01*
G75*
G02*
X150593000Y-100043000I-225000J0D01*
G01*
X150143000Y-100043000D01*
G75*
G02*
X149918000Y-99818000I0J225000D01*
G01*
G37*
G36*
G01*
X140420000Y-120518000D02*
X141520000Y-120518000D01*
G75*
G02*
X141770000Y-120768000I0J-250000D01*
G01*
X141770000Y-123768000D01*
G75*
G02*
X141520000Y-124018000I-250000J0D01*
G01*
X140420000Y-124018000D01*
G75*
G02*
X140170000Y-123768000I0J250000D01*
G01*
X140170000Y-120768000D01*
G75*
G02*
X140420000Y-120518000I250000J0D01*
G01*
G37*
G36*
G01*
X140420000Y-125918000D02*
X141520000Y-125918000D01*
G75*
G02*
X141770000Y-126168000I0J-250000D01*
G01*
X141770000Y-129168000D01*
G75*
G02*
X141520000Y-129418000I-250000J0D01*
G01*
X140420000Y-129418000D01*
G75*
G02*
X140170000Y-129168000I0J250000D01*
G01*
X140170000Y-126168000D01*
G75*
G02*
X140420000Y-125918000I250000J0D01*
G01*
G37*
D18*
X158750000Y-89916000D03*
X161550000Y-89916000D03*
D19*
X162306000Y-98044000D03*
X158306000Y-98044000D03*
X158306000Y-93980000D03*
X162306000Y-93980000D03*
D20*
X161324000Y-84582000D03*
X159224000Y-84582000D03*
D19*
X162306000Y-102616000D03*
X158306000Y-102616000D03*
D20*
X159224000Y-86868000D03*
X161324000Y-86868000D03*
D21*
X167640000Y-85090000D03*
X167640000Y-87630000D03*
X167640000Y-90170000D03*
X167640000Y-92710000D03*
X167640000Y-95250000D03*
X167640000Y-97790000D03*
X167640000Y-100330000D03*
X167640000Y-102870000D03*
X167640000Y-105410000D03*
D22*
X167640000Y-107950000D03*
X142240000Y-107950000D03*
D21*
X142240000Y-105410000D03*
X142240000Y-102870000D03*
X142240000Y-100330000D03*
X142240000Y-97790000D03*
X142240000Y-95250000D03*
X142240000Y-92710000D03*
X142240000Y-90170000D03*
X142240000Y-87630000D03*
X142240000Y-85090000D03*
D23*
X151130000Y-53975000D03*
D24*
X148360000Y-53975000D03*
X145590000Y-53975000D03*
X142820000Y-53975000D03*
X140050000Y-53975000D03*
X149745000Y-51135000D03*
X146975000Y-51135000D03*
X144205000Y-51135000D03*
X141435000Y-51135000D03*
D25*
X158090000Y-52555000D03*
X133090000Y-52555000D03*
D26*
X140970000Y-113248000D03*
X140970000Y-117348000D03*
G36*
G01*
X149968000Y-96287000D02*
X149968000Y-95737000D01*
G75*
G02*
X150168000Y-95537000I200000J0D01*
G01*
X150568000Y-95537000D01*
G75*
G02*
X150768000Y-95737000I0J-200000D01*
G01*
X150768000Y-96287000D01*
G75*
G02*
X150568000Y-96487000I-200000J0D01*
G01*
X150168000Y-96487000D01*
G75*
G02*
X149968000Y-96287000I0J200000D01*
G01*
G37*
G36*
G01*
X148318000Y-96287000D02*
X148318000Y-95737000D01*
G75*
G02*
X148518000Y-95537000I200000J0D01*
G01*
X148918000Y-95537000D01*
G75*
G02*
X149118000Y-95737000I0J-200000D01*
G01*
X149118000Y-96287000D01*
G75*
G02*
X148918000Y-96487000I-200000J0D01*
G01*
X148518000Y-96487000D01*
G75*
G02*
X148318000Y-96287000I0J200000D01*
G01*
G37*
G36*
G01*
X150768000Y-102849000D02*
X150768000Y-103399000D01*
G75*
G02*
X150568000Y-103599000I-200000J0D01*
G01*
X150168000Y-103599000D01*
G75*
G02*
X149968000Y-103399000I0J200000D01*
G01*
X149968000Y-102849000D01*
G75*
G02*
X150168000Y-102649000I200000J0D01*
G01*
X150568000Y-102649000D01*
G75*
G02*
X150768000Y-102849000I0J-200000D01*
G01*
G37*
G36*
G01*
X149118000Y-102849000D02*
X149118000Y-103399000D01*
G75*
G02*
X148918000Y-103599000I-200000J0D01*
G01*
X148518000Y-103599000D01*
G75*
G02*
X148318000Y-103399000I0J200000D01*
G01*
X148318000Y-102849000D01*
G75*
G02*
X148518000Y-102649000I200000J0D01*
G01*
X148918000Y-102649000D01*
G75*
G02*
X149118000Y-102849000I0J-200000D01*
G01*
G37*
G36*
G01*
X150768000Y-101071000D02*
X150768000Y-101621000D01*
G75*
G02*
X150568000Y-101821000I-200000J0D01*
G01*
X150168000Y-101821000D01*
G75*
G02*
X149968000Y-101621000I0J200000D01*
G01*
X149968000Y-101071000D01*
G75*
G02*
X150168000Y-100871000I200000J0D01*
G01*
X150568000Y-100871000D01*
G75*
G02*
X150768000Y-101071000I0J-200000D01*
G01*
G37*
G36*
G01*
X149118000Y-101071000D02*
X149118000Y-101621000D01*
G75*
G02*
X148918000Y-101821000I-200000J0D01*
G01*
X148518000Y-101821000D01*
G75*
G02*
X148318000Y-101621000I0J200000D01*
G01*
X148318000Y-101071000D01*
G75*
G02*
X148518000Y-100871000I200000J0D01*
G01*
X148918000Y-100871000D01*
G75*
G02*
X149118000Y-101071000I0J-200000D01*
G01*
G37*
D27*
X155800000Y-115818000D03*
X154100000Y-115818000D03*
X152400000Y-115818000D03*
X150700000Y-115818000D03*
X149000000Y-115818000D03*
D28*
X152400000Y-124968000D03*
D23*
X154178000Y-92710000D03*
D29*
X146558000Y-85090000D03*
X154178000Y-90170000D03*
X146558000Y-87630000D03*
X154178000Y-87630000D03*
X146558000Y-90170000D03*
X154178000Y-85090000D03*
X146558000Y-92710000D03*
G36*
G01*
X147351000Y-105806001D02*
X147351000Y-104505999D01*
G75*
G02*
X147600999Y-104256000I249999J0D01*
G01*
X148251001Y-104256000D01*
G75*
G02*
X148501000Y-104505999I0J-249999D01*
G01*
X148501000Y-105806001D01*
G75*
G02*
X148251001Y-106056000I-249999J0D01*
G01*
X147600999Y-106056000D01*
G75*
G02*
X147351000Y-105806001I0J249999D01*
G01*
G37*
G36*
G01*
X150301000Y-105806001D02*
X150301000Y-104505999D01*
G75*
G02*
X150550999Y-104256000I249999J0D01*
G01*
X151201001Y-104256000D01*
G75*
G02*
X151451000Y-104505999I0J-249999D01*
G01*
X151451000Y-105806001D01*
G75*
G02*
X151201001Y-106056000I-249999J0D01*
G01*
X150550999Y-106056000D01*
G75*
G02*
X150301000Y-105806001I0J249999D01*
G01*
G37*
D30*
X133350000Y-128270000D03*
X133350000Y-73660000D03*
X179070000Y-127000000D03*
X179070000Y-73660000D03*
D25*
X167640000Y-61220000D03*
X167640000Y-45720000D03*
X177800000Y-45720000D03*
X177800000Y-61220000D03*
D31*
X149860000Y-77470000D03*
D32*
X142240000Y-80010000D03*
X142240000Y-77470000D03*
X142240000Y-74930000D03*
X142240000Y-72390000D03*
D15*
X134620000Y-62230000D03*
D14*
X132080000Y-62230000D03*
G36*
G01*
X149370000Y-63860000D02*
X149370000Y-64410000D01*
G75*
G02*
X149170000Y-64610000I-200000J0D01*
G01*
X148770000Y-64610000D01*
G75*
G02*
X148570000Y-64410000I0J200000D01*
G01*
X148570000Y-63860000D01*
G75*
G02*
X148770000Y-63660000I200000J0D01*
G01*
X149170000Y-63660000D01*
G75*
G02*
X149370000Y-63860000I0J-200000D01*
G01*
G37*
G36*
G01*
X147720000Y-63860000D02*
X147720000Y-64410000D01*
G75*
G02*
X147520000Y-64610000I-200000J0D01*
G01*
X147120000Y-64610000D01*
G75*
G02*
X146920000Y-64410000I0J200000D01*
G01*
X146920000Y-63860000D01*
G75*
G02*
X147120000Y-63660000I200000J0D01*
G01*
X147520000Y-63660000D01*
G75*
G02*
X147720000Y-63860000I0J-200000D01*
G01*
G37*
G36*
G01*
X147720000Y-61955000D02*
X147720000Y-62505000D01*
G75*
G02*
X147520000Y-62705000I-200000J0D01*
G01*
X147120000Y-62705000D01*
G75*
G02*
X146920000Y-62505000I0J200000D01*
G01*
X146920000Y-61955000D01*
G75*
G02*
X147120000Y-61755000I200000J0D01*
G01*
X147520000Y-61755000D01*
G75*
G02*
X147720000Y-61955000I0J-200000D01*
G01*
G37*
G36*
G01*
X149370000Y-61955000D02*
X149370000Y-62505000D01*
G75*
G02*
X149170000Y-62705000I-200000J0D01*
G01*
X148770000Y-62705000D01*
G75*
G02*
X148570000Y-62505000I0J200000D01*
G01*
X148570000Y-61955000D01*
G75*
G02*
X148770000Y-61755000I200000J0D01*
G01*
X149170000Y-61755000D01*
G75*
G02*
X149370000Y-61955000I0J-200000D01*
G01*
G37*
M02*
