M48
; DRILL file {KiCad (5.1.10)-1} date 06/10/22 21:37:19
; FORMAT={-:-/ absolute / metric / decimal}
; #@! TF.CreationDate,2022-06-10T21:37:19+02:00
; #@! TF.GenerationSoftware,Kicad,Pcbnew,(5.1.10)-1
; #@! TF.FileFunction,Plated,1,2,PTH
FMAT,2
METRIC
T1C0.400
T2C0.800
T3C0.900
T4C1.000
T5C2.000
T6C3.200
%
G90
G05
T1
X136.525Y-104.14
X147.828Y-106.68
X156.972Y-90.424
T2
X146.558Y-85.09
X146.558Y-87.63
X146.558Y-90.17
X146.558Y-92.71
X154.178Y-85.09
X154.178Y-87.63
X154.178Y-90.17
X154.178Y-92.71
T3
X132.08Y-62.23
X134.62Y-62.23
X140.97Y-62.23
X143.51Y-62.23
T4
X140.05Y-53.975
X141.435Y-51.135
X142.24Y-72.39
X142.24Y-74.93
X142.24Y-77.47
X142.24Y-80.01
X142.24Y-85.09
X142.24Y-87.63
X142.24Y-90.17
X142.24Y-92.71
X142.24Y-95.25
X142.24Y-97.79
X142.24Y-100.33
X142.24Y-102.87
X142.24Y-105.41
X142.24Y-107.95
X142.82Y-53.975
X144.205Y-51.135
X145.59Y-53.975
X146.975Y-51.135
X148.36Y-53.975
X149.745Y-51.135
X149.86Y-77.47
X151.13Y-53.975
X167.64Y-85.09
X167.64Y-87.63
X167.64Y-90.17
X167.64Y-92.71
X167.64Y-95.25
X167.64Y-97.79
X167.64Y-100.33
X167.64Y-102.87
X167.64Y-105.41
X167.64Y-107.95
T5
X167.64Y-45.72
X167.64Y-61.22
X177.8Y-45.72
X177.8Y-61.22
T6
X133.09Y-52.555
X158.09Y-52.555
T0
M30
