%FSLAX45Y45*%
G04 Gerber Fmt 4.5, Leading zero omitted, Abs format (unit mm)*
G04 Created by KiCad (PCBNEW (5.1.10)-1) date 2022-06-10 21:37:41*
%MOMM*%
%LPD*%
G01*
G04 APERTURE LIST*
%TA.AperFunction,Profile*%
%ADD10C,0.050000*%
%TD*%
%ADD11C,0.200000*%
%ADD12C,0.300000*%
G04 APERTURE END LIST*
D10*
X18415000Y-13335000D02*
X12827000Y-13335000D01*
X18415000Y-4302000D02*
X18415000Y-13335000D01*
X12827000Y-4302000D02*
X12827000Y-13335000D01*
X18415000Y-4302000D02*
X12827000Y-4302000D01*
D11*
X13632500Y-10394000D02*
X13672500Y-10434000D01*
X13672500Y-10394000D02*
X13632500Y-10434000D01*
X14762800Y-10648000D02*
X14802800Y-10688000D01*
X14802800Y-10648000D02*
X14762800Y-10688000D01*
X15677200Y-9022400D02*
X15717200Y-9062400D01*
X15717200Y-9022400D02*
X15677200Y-9062400D01*
X14695800Y-8509000D02*
G75*
G03*
X14695800Y-8509000I-40000J0D01*
G01*
X14695800Y-8763000D02*
G75*
G03*
X14695800Y-8763000I-40000J0D01*
G01*
X14695800Y-9017000D02*
G75*
G03*
X14695800Y-9017000I-40000J0D01*
G01*
X14695800Y-9271000D02*
G75*
G03*
X14695800Y-9271000I-40000J0D01*
G01*
X15457800Y-8509000D02*
G75*
G03*
X15457800Y-8509000I-40000J0D01*
G01*
X15457800Y-8763000D02*
G75*
G03*
X15457800Y-8763000I-40000J0D01*
G01*
X15457800Y-9017000D02*
G75*
G03*
X15457800Y-9017000I-40000J0D01*
G01*
X15457800Y-9271000D02*
G75*
G03*
X15457800Y-9271000I-40000J0D01*
G01*
X13208000Y-6178000D02*
X13208000Y-6268000D01*
X13163000Y-6223000D02*
X13253000Y-6223000D01*
X13462000Y-6178000D02*
X13462000Y-6268000D01*
X13417000Y-6223000D02*
X13507000Y-6223000D01*
X14097000Y-6178000D02*
X14097000Y-6268000D01*
X14052000Y-6223000D02*
X14142000Y-6223000D01*
X14351000Y-6178000D02*
X14351000Y-6268000D01*
X14306000Y-6223000D02*
X14396000Y-6223000D01*
X14040356Y-5432856D02*
X14040356Y-5362144D01*
X13969644Y-5362144D01*
X13969644Y-5432856D01*
X14040356Y-5432856D01*
X14178856Y-5148856D02*
X14178856Y-5078144D01*
X14108144Y-5078144D01*
X14108144Y-5148856D01*
X14178856Y-5148856D01*
X14259356Y-7274356D02*
X14259356Y-7203644D01*
X14188644Y-7203644D01*
X14188644Y-7274356D01*
X14259356Y-7274356D01*
X14259356Y-7528356D02*
X14259356Y-7457644D01*
X14188644Y-7457644D01*
X14188644Y-7528356D01*
X14259356Y-7528356D01*
X14259356Y-7782356D02*
X14259356Y-7711644D01*
X14188644Y-7711644D01*
X14188644Y-7782356D01*
X14259356Y-7782356D01*
X14259356Y-8036356D02*
X14259356Y-7965644D01*
X14188644Y-7965644D01*
X14188644Y-8036356D01*
X14259356Y-8036356D01*
X14259356Y-8544356D02*
X14259356Y-8473644D01*
X14188644Y-8473644D01*
X14188644Y-8544356D01*
X14259356Y-8544356D01*
X14259356Y-8798356D02*
X14259356Y-8727644D01*
X14188644Y-8727644D01*
X14188644Y-8798356D01*
X14259356Y-8798356D01*
X14259356Y-9052356D02*
X14259356Y-8981644D01*
X14188644Y-8981644D01*
X14188644Y-9052356D01*
X14259356Y-9052356D01*
X14259356Y-9306356D02*
X14259356Y-9235644D01*
X14188644Y-9235644D01*
X14188644Y-9306356D01*
X14259356Y-9306356D01*
X14259356Y-9560356D02*
X14259356Y-9489644D01*
X14188644Y-9489644D01*
X14188644Y-9560356D01*
X14259356Y-9560356D01*
X14259356Y-9814356D02*
X14259356Y-9743644D01*
X14188644Y-9743644D01*
X14188644Y-9814356D01*
X14259356Y-9814356D01*
X14259356Y-10068356D02*
X14259356Y-9997644D01*
X14188644Y-9997644D01*
X14188644Y-10068356D01*
X14259356Y-10068356D01*
X14259356Y-10322356D02*
X14259356Y-10251644D01*
X14188644Y-10251644D01*
X14188644Y-10322356D01*
X14259356Y-10322356D01*
X14259356Y-10576356D02*
X14259356Y-10505644D01*
X14188644Y-10505644D01*
X14188644Y-10576356D01*
X14259356Y-10576356D01*
X14259356Y-10830356D02*
X14259356Y-10759644D01*
X14188644Y-10759644D01*
X14188644Y-10830356D01*
X14259356Y-10830356D01*
X14317356Y-5432856D02*
X14317356Y-5362144D01*
X14246644Y-5362144D01*
X14246644Y-5432856D01*
X14317356Y-5432856D01*
X14455856Y-5148856D02*
X14455856Y-5078144D01*
X14385144Y-5078144D01*
X14385144Y-5148856D01*
X14455856Y-5148856D01*
X14594356Y-5432856D02*
X14594356Y-5362144D01*
X14523644Y-5362144D01*
X14523644Y-5432856D01*
X14594356Y-5432856D01*
X14732856Y-5148856D02*
X14732856Y-5078144D01*
X14662144Y-5078144D01*
X14662144Y-5148856D01*
X14732856Y-5148856D01*
X14871356Y-5432856D02*
X14871356Y-5362144D01*
X14800644Y-5362144D01*
X14800644Y-5432856D01*
X14871356Y-5432856D01*
X15009856Y-5148856D02*
X15009856Y-5078144D01*
X14939144Y-5078144D01*
X14939144Y-5148856D01*
X15009856Y-5148856D01*
X15021356Y-7782356D02*
X15021356Y-7711644D01*
X14950644Y-7711644D01*
X14950644Y-7782356D01*
X15021356Y-7782356D01*
X15148356Y-5432856D02*
X15148356Y-5362144D01*
X15077644Y-5362144D01*
X15077644Y-5432856D01*
X15148356Y-5432856D01*
X16799356Y-8544356D02*
X16799356Y-8473644D01*
X16728644Y-8473644D01*
X16728644Y-8544356D01*
X16799356Y-8544356D01*
X16799356Y-8798356D02*
X16799356Y-8727644D01*
X16728644Y-8727644D01*
X16728644Y-8798356D01*
X16799356Y-8798356D01*
X16799356Y-9052356D02*
X16799356Y-8981644D01*
X16728644Y-8981644D01*
X16728644Y-9052356D01*
X16799356Y-9052356D01*
X16799356Y-9306356D02*
X16799356Y-9235644D01*
X16728644Y-9235644D01*
X16728644Y-9306356D01*
X16799356Y-9306356D01*
X16799356Y-9560356D02*
X16799356Y-9489644D01*
X16728644Y-9489644D01*
X16728644Y-9560356D01*
X16799356Y-9560356D01*
X16799356Y-9814356D02*
X16799356Y-9743644D01*
X16728644Y-9743644D01*
X16728644Y-9814356D01*
X16799356Y-9814356D01*
X16799356Y-10068356D02*
X16799356Y-9997644D01*
X16728644Y-9997644D01*
X16728644Y-10068356D01*
X16799356Y-10068356D01*
X16799356Y-10322356D02*
X16799356Y-10251644D01*
X16728644Y-10251644D01*
X16728644Y-10322356D01*
X16799356Y-10322356D01*
X16799356Y-10576356D02*
X16799356Y-10505644D01*
X16728644Y-10505644D01*
X16728644Y-10576356D01*
X16799356Y-10576356D01*
X16799356Y-10830356D02*
X16799356Y-10759644D01*
X16728644Y-10759644D01*
X16728644Y-10830356D01*
X16799356Y-10830356D01*
X16764000Y-4672000D02*
X16864000Y-4572000D01*
X16764000Y-4472000D01*
X16664000Y-4572000D01*
X16764000Y-4672000D01*
X16764000Y-6222000D02*
X16864000Y-6122000D01*
X16764000Y-6022000D01*
X16664000Y-6122000D01*
X16764000Y-6222000D01*
X17780000Y-4672000D02*
X17880000Y-4572000D01*
X17780000Y-4472000D01*
X17680000Y-4572000D01*
X17780000Y-4672000D01*
X17780000Y-6222000D02*
X17880000Y-6122000D01*
X17780000Y-6022000D01*
X17680000Y-6122000D01*
X17780000Y-6222000D01*
X13149000Y-5095500D02*
X13469000Y-5415500D01*
X13469000Y-5095500D02*
X13149000Y-5415500D01*
X13469000Y-5255500D02*
G75*
G03*
X13469000Y-5255500I-160000J0D01*
G01*
X15649000Y-5095500D02*
X15969000Y-5415500D01*
X15969000Y-5095500D02*
X15649000Y-5415500D01*
X15969000Y-5255500D02*
G75*
G03*
X15969000Y-5255500I-160000J0D01*
G01*
D12*
X13110928Y-13803214D02*
X13110928Y-13503214D01*
X13182357Y-13503214D01*
X13225214Y-13517500D01*
X13253786Y-13546071D01*
X13268071Y-13574643D01*
X13282357Y-13631786D01*
X13282357Y-13674643D01*
X13268071Y-13731786D01*
X13253786Y-13760357D01*
X13225214Y-13788929D01*
X13182357Y-13803214D01*
X13110928Y-13803214D01*
X13410928Y-13803214D02*
X13410928Y-13603214D01*
X13410928Y-13660357D02*
X13425214Y-13631786D01*
X13439500Y-13617500D01*
X13468071Y-13603214D01*
X13496643Y-13603214D01*
X13596643Y-13803214D02*
X13596643Y-13603214D01*
X13596643Y-13503214D02*
X13582357Y-13517500D01*
X13596643Y-13531786D01*
X13610928Y-13517500D01*
X13596643Y-13503214D01*
X13596643Y-13531786D01*
X13782357Y-13803214D02*
X13753786Y-13788929D01*
X13739500Y-13760357D01*
X13739500Y-13503214D01*
X13939500Y-13803214D02*
X13910928Y-13788929D01*
X13896643Y-13760357D01*
X13896643Y-13503214D01*
X14282357Y-13803214D02*
X14282357Y-13503214D01*
X14382357Y-13717500D01*
X14482357Y-13503214D01*
X14482357Y-13803214D01*
X14753786Y-13803214D02*
X14753786Y-13646071D01*
X14739500Y-13617500D01*
X14710928Y-13603214D01*
X14653786Y-13603214D01*
X14625214Y-13617500D01*
X14753786Y-13788929D02*
X14725214Y-13803214D01*
X14653786Y-13803214D01*
X14625214Y-13788929D01*
X14610928Y-13760357D01*
X14610928Y-13731786D01*
X14625214Y-13703214D01*
X14653786Y-13688929D01*
X14725214Y-13688929D01*
X14753786Y-13674643D01*
X14896643Y-13603214D02*
X14896643Y-13903214D01*
X14896643Y-13617500D02*
X14925214Y-13603214D01*
X14982357Y-13603214D01*
X15010928Y-13617500D01*
X15025214Y-13631786D01*
X15039500Y-13660357D01*
X15039500Y-13746071D01*
X15025214Y-13774643D01*
X15010928Y-13788929D01*
X14982357Y-13803214D01*
X14925214Y-13803214D01*
X14896643Y-13788929D01*
X15168071Y-13774643D02*
X15182357Y-13788929D01*
X15168071Y-13803214D01*
X15153786Y-13788929D01*
X15168071Y-13774643D01*
X15168071Y-13803214D01*
X15168071Y-13617500D02*
X15182357Y-13631786D01*
X15168071Y-13646071D01*
X15153786Y-13631786D01*
X15168071Y-13617500D01*
X15168071Y-13646071D01*
X12784500Y-14277500D02*
X12824500Y-14317500D01*
X12824500Y-14277500D02*
X12784500Y-14317500D01*
X13168071Y-14133214D02*
X13196643Y-14133214D01*
X13225214Y-14147500D01*
X13239500Y-14161786D01*
X13253786Y-14190357D01*
X13268071Y-14247500D01*
X13268071Y-14318929D01*
X13253786Y-14376071D01*
X13239500Y-14404643D01*
X13225214Y-14418929D01*
X13196643Y-14433214D01*
X13168071Y-14433214D01*
X13139500Y-14418929D01*
X13125214Y-14404643D01*
X13110928Y-14376071D01*
X13096643Y-14318929D01*
X13096643Y-14247500D01*
X13110928Y-14190357D01*
X13125214Y-14161786D01*
X13139500Y-14147500D01*
X13168071Y-14133214D01*
X13396643Y-14404643D02*
X13410928Y-14418929D01*
X13396643Y-14433214D01*
X13382357Y-14418929D01*
X13396643Y-14404643D01*
X13396643Y-14433214D01*
X13668071Y-14233214D02*
X13668071Y-14433214D01*
X13596643Y-14118929D02*
X13525214Y-14333214D01*
X13710928Y-14333214D01*
X13882357Y-14133214D02*
X13910928Y-14133214D01*
X13939500Y-14147500D01*
X13953786Y-14161786D01*
X13968071Y-14190357D01*
X13982357Y-14247500D01*
X13982357Y-14318929D01*
X13968071Y-14376071D01*
X13953786Y-14404643D01*
X13939500Y-14418929D01*
X13910928Y-14433214D01*
X13882357Y-14433214D01*
X13853786Y-14418929D01*
X13839500Y-14404643D01*
X13825214Y-14376071D01*
X13810928Y-14318929D01*
X13810928Y-14247500D01*
X13825214Y-14190357D01*
X13839500Y-14161786D01*
X13853786Y-14147500D01*
X13882357Y-14133214D01*
X14168071Y-14133214D02*
X14196643Y-14133214D01*
X14225214Y-14147500D01*
X14239500Y-14161786D01*
X14253786Y-14190357D01*
X14268071Y-14247500D01*
X14268071Y-14318929D01*
X14253786Y-14376071D01*
X14239500Y-14404643D01*
X14225214Y-14418929D01*
X14196643Y-14433214D01*
X14168071Y-14433214D01*
X14139500Y-14418929D01*
X14125214Y-14404643D01*
X14110928Y-14376071D01*
X14096643Y-14318929D01*
X14096643Y-14247500D01*
X14110928Y-14190357D01*
X14125214Y-14161786D01*
X14139500Y-14147500D01*
X14168071Y-14133214D01*
X14396643Y-14433214D02*
X14396643Y-14233214D01*
X14396643Y-14261786D02*
X14410928Y-14247500D01*
X14439500Y-14233214D01*
X14482357Y-14233214D01*
X14510928Y-14247500D01*
X14525214Y-14276071D01*
X14525214Y-14433214D01*
X14525214Y-14276071D02*
X14539500Y-14247500D01*
X14568071Y-14233214D01*
X14610928Y-14233214D01*
X14639500Y-14247500D01*
X14653786Y-14276071D01*
X14653786Y-14433214D01*
X14796643Y-14433214D02*
X14796643Y-14233214D01*
X14796643Y-14261786D02*
X14810928Y-14247500D01*
X14839500Y-14233214D01*
X14882357Y-14233214D01*
X14910928Y-14247500D01*
X14925214Y-14276071D01*
X14925214Y-14433214D01*
X14925214Y-14276071D02*
X14939500Y-14247500D01*
X14968071Y-14233214D01*
X15010928Y-14233214D01*
X15039500Y-14247500D01*
X15053786Y-14276071D01*
X15053786Y-14433214D01*
X15639500Y-14118929D02*
X15382357Y-14504643D01*
X16025214Y-14133214D02*
X16053786Y-14133214D01*
X16082357Y-14147500D01*
X16096643Y-14161786D01*
X16110928Y-14190357D01*
X16125214Y-14247500D01*
X16125214Y-14318929D01*
X16110928Y-14376071D01*
X16096643Y-14404643D01*
X16082357Y-14418929D01*
X16053786Y-14433214D01*
X16025214Y-14433214D01*
X15996643Y-14418929D01*
X15982357Y-14404643D01*
X15968071Y-14376071D01*
X15953786Y-14318929D01*
X15953786Y-14247500D01*
X15968071Y-14190357D01*
X15982357Y-14161786D01*
X15996643Y-14147500D01*
X16025214Y-14133214D01*
X16253786Y-14404643D02*
X16268071Y-14418929D01*
X16253786Y-14433214D01*
X16239500Y-14418929D01*
X16253786Y-14404643D01*
X16253786Y-14433214D01*
X16453786Y-14133214D02*
X16482357Y-14133214D01*
X16510928Y-14147500D01*
X16525214Y-14161786D01*
X16539500Y-14190357D01*
X16553786Y-14247500D01*
X16553786Y-14318929D01*
X16539500Y-14376071D01*
X16525214Y-14404643D01*
X16510928Y-14418929D01*
X16482357Y-14433214D01*
X16453786Y-14433214D01*
X16425214Y-14418929D01*
X16410928Y-14404643D01*
X16396643Y-14376071D01*
X16382357Y-14318929D01*
X16382357Y-14247500D01*
X16396643Y-14190357D01*
X16410928Y-14161786D01*
X16425214Y-14147500D01*
X16453786Y-14133214D01*
X16839500Y-14433214D02*
X16668071Y-14433214D01*
X16753786Y-14433214D02*
X16753786Y-14133214D01*
X16725214Y-14176071D01*
X16696643Y-14204643D01*
X16668071Y-14218929D01*
X17110928Y-14133214D02*
X16968071Y-14133214D01*
X16953786Y-14276071D01*
X16968071Y-14261786D01*
X16996643Y-14247500D01*
X17068071Y-14247500D01*
X17096643Y-14261786D01*
X17110928Y-14276071D01*
X17125214Y-14304643D01*
X17125214Y-14376071D01*
X17110928Y-14404643D01*
X17096643Y-14418929D01*
X17068071Y-14433214D01*
X16996643Y-14433214D01*
X16968071Y-14418929D01*
X16953786Y-14404643D01*
X17225214Y-14133214D02*
X17425214Y-14133214D01*
X17296643Y-14433214D01*
X17525214Y-14133214D02*
X17525214Y-14190357D01*
X17639500Y-14133214D02*
X17639500Y-14190357D01*
X18082357Y-14547500D02*
X18068071Y-14533214D01*
X18039500Y-14490357D01*
X18025214Y-14461786D01*
X18010928Y-14418929D01*
X17996643Y-14347500D01*
X17996643Y-14290357D01*
X18010928Y-14218929D01*
X18025214Y-14176071D01*
X18039500Y-14147500D01*
X18068071Y-14104643D01*
X18082357Y-14090357D01*
X18168071Y-14133214D02*
X18353786Y-14133214D01*
X18253786Y-14247500D01*
X18296643Y-14247500D01*
X18325214Y-14261786D01*
X18339500Y-14276071D01*
X18353786Y-14304643D01*
X18353786Y-14376071D01*
X18339500Y-14404643D01*
X18325214Y-14418929D01*
X18296643Y-14433214D01*
X18210928Y-14433214D01*
X18182357Y-14418929D01*
X18168071Y-14404643D01*
X18710928Y-14433214D02*
X18710928Y-14133214D01*
X18839500Y-14433214D02*
X18839500Y-14276071D01*
X18825214Y-14247500D01*
X18796643Y-14233214D01*
X18753786Y-14233214D01*
X18725214Y-14247500D01*
X18710928Y-14261786D01*
X19025214Y-14433214D02*
X18996643Y-14418929D01*
X18982357Y-14404643D01*
X18968071Y-14376071D01*
X18968071Y-14290357D01*
X18982357Y-14261786D01*
X18996643Y-14247500D01*
X19025214Y-14233214D01*
X19068071Y-14233214D01*
X19096643Y-14247500D01*
X19110928Y-14261786D01*
X19125214Y-14290357D01*
X19125214Y-14376071D01*
X19110928Y-14404643D01*
X19096643Y-14418929D01*
X19068071Y-14433214D01*
X19025214Y-14433214D01*
X19296643Y-14433214D02*
X19268071Y-14418929D01*
X19253786Y-14390357D01*
X19253786Y-14133214D01*
X19525214Y-14418929D02*
X19496643Y-14433214D01*
X19439500Y-14433214D01*
X19410928Y-14418929D01*
X19396643Y-14390357D01*
X19396643Y-14276071D01*
X19410928Y-14247500D01*
X19439500Y-14233214D01*
X19496643Y-14233214D01*
X19525214Y-14247500D01*
X19539500Y-14276071D01*
X19539500Y-14304643D01*
X19396643Y-14333214D01*
X19653786Y-14418929D02*
X19682357Y-14433214D01*
X19739500Y-14433214D01*
X19768071Y-14418929D01*
X19782357Y-14390357D01*
X19782357Y-14376071D01*
X19768071Y-14347500D01*
X19739500Y-14333214D01*
X19696643Y-14333214D01*
X19668071Y-14318929D01*
X19653786Y-14290357D01*
X19653786Y-14276071D01*
X19668071Y-14247500D01*
X19696643Y-14233214D01*
X19739500Y-14233214D01*
X19768071Y-14247500D01*
X19882357Y-14547500D02*
X19896643Y-14533214D01*
X19925214Y-14490357D01*
X19939500Y-14461786D01*
X19953786Y-14418929D01*
X19968071Y-14347500D01*
X19968071Y-14290357D01*
X19953786Y-14218929D01*
X19939500Y-14176071D01*
X19925214Y-14147500D01*
X19896643Y-14104643D01*
X19882357Y-14090357D01*
X12824500Y-14693500D02*
G75*
G03*
X12824500Y-14693500I-40000J0D01*
G01*
X13168071Y-14529214D02*
X13196643Y-14529214D01*
X13225214Y-14543500D01*
X13239500Y-14557786D01*
X13253786Y-14586357D01*
X13268071Y-14643500D01*
X13268071Y-14714929D01*
X13253786Y-14772071D01*
X13239500Y-14800643D01*
X13225214Y-14814929D01*
X13196643Y-14829214D01*
X13168071Y-14829214D01*
X13139500Y-14814929D01*
X13125214Y-14800643D01*
X13110928Y-14772071D01*
X13096643Y-14714929D01*
X13096643Y-14643500D01*
X13110928Y-14586357D01*
X13125214Y-14557786D01*
X13139500Y-14543500D01*
X13168071Y-14529214D01*
X13396643Y-14800643D02*
X13410928Y-14814929D01*
X13396643Y-14829214D01*
X13382357Y-14814929D01*
X13396643Y-14800643D01*
X13396643Y-14829214D01*
X13582357Y-14657786D02*
X13553786Y-14643500D01*
X13539500Y-14629214D01*
X13525214Y-14600643D01*
X13525214Y-14586357D01*
X13539500Y-14557786D01*
X13553786Y-14543500D01*
X13582357Y-14529214D01*
X13639500Y-14529214D01*
X13668071Y-14543500D01*
X13682357Y-14557786D01*
X13696643Y-14586357D01*
X13696643Y-14600643D01*
X13682357Y-14629214D01*
X13668071Y-14643500D01*
X13639500Y-14657786D01*
X13582357Y-14657786D01*
X13553786Y-14672071D01*
X13539500Y-14686357D01*
X13525214Y-14714929D01*
X13525214Y-14772071D01*
X13539500Y-14800643D01*
X13553786Y-14814929D01*
X13582357Y-14829214D01*
X13639500Y-14829214D01*
X13668071Y-14814929D01*
X13682357Y-14800643D01*
X13696643Y-14772071D01*
X13696643Y-14714929D01*
X13682357Y-14686357D01*
X13668071Y-14672071D01*
X13639500Y-14657786D01*
X13882357Y-14529214D02*
X13910928Y-14529214D01*
X13939500Y-14543500D01*
X13953786Y-14557786D01*
X13968071Y-14586357D01*
X13982357Y-14643500D01*
X13982357Y-14714929D01*
X13968071Y-14772071D01*
X13953786Y-14800643D01*
X13939500Y-14814929D01*
X13910928Y-14829214D01*
X13882357Y-14829214D01*
X13853786Y-14814929D01*
X13839500Y-14800643D01*
X13825214Y-14772071D01*
X13810928Y-14714929D01*
X13810928Y-14643500D01*
X13825214Y-14586357D01*
X13839500Y-14557786D01*
X13853786Y-14543500D01*
X13882357Y-14529214D01*
X14168071Y-14529214D02*
X14196643Y-14529214D01*
X14225214Y-14543500D01*
X14239500Y-14557786D01*
X14253786Y-14586357D01*
X14268071Y-14643500D01*
X14268071Y-14714929D01*
X14253786Y-14772071D01*
X14239500Y-14800643D01*
X14225214Y-14814929D01*
X14196643Y-14829214D01*
X14168071Y-14829214D01*
X14139500Y-14814929D01*
X14125214Y-14800643D01*
X14110928Y-14772071D01*
X14096643Y-14714929D01*
X14096643Y-14643500D01*
X14110928Y-14586357D01*
X14125214Y-14557786D01*
X14139500Y-14543500D01*
X14168071Y-14529214D01*
X14396643Y-14829214D02*
X14396643Y-14629214D01*
X14396643Y-14657786D02*
X14410928Y-14643500D01*
X14439500Y-14629214D01*
X14482357Y-14629214D01*
X14510928Y-14643500D01*
X14525214Y-14672071D01*
X14525214Y-14829214D01*
X14525214Y-14672071D02*
X14539500Y-14643500D01*
X14568071Y-14629214D01*
X14610928Y-14629214D01*
X14639500Y-14643500D01*
X14653786Y-14672071D01*
X14653786Y-14829214D01*
X14796643Y-14829214D02*
X14796643Y-14629214D01*
X14796643Y-14657786D02*
X14810928Y-14643500D01*
X14839500Y-14629214D01*
X14882357Y-14629214D01*
X14910928Y-14643500D01*
X14925214Y-14672071D01*
X14925214Y-14829214D01*
X14925214Y-14672071D02*
X14939500Y-14643500D01*
X14968071Y-14629214D01*
X15010928Y-14629214D01*
X15039500Y-14643500D01*
X15053786Y-14672071D01*
X15053786Y-14829214D01*
X15639500Y-14514929D02*
X15382357Y-14900643D01*
X16025214Y-14529214D02*
X16053786Y-14529214D01*
X16082357Y-14543500D01*
X16096643Y-14557786D01*
X16110928Y-14586357D01*
X16125214Y-14643500D01*
X16125214Y-14714929D01*
X16110928Y-14772071D01*
X16096643Y-14800643D01*
X16082357Y-14814929D01*
X16053786Y-14829214D01*
X16025214Y-14829214D01*
X15996643Y-14814929D01*
X15982357Y-14800643D01*
X15968071Y-14772071D01*
X15953786Y-14714929D01*
X15953786Y-14643500D01*
X15968071Y-14586357D01*
X15982357Y-14557786D01*
X15996643Y-14543500D01*
X16025214Y-14529214D01*
X16253786Y-14800643D02*
X16268071Y-14814929D01*
X16253786Y-14829214D01*
X16239500Y-14814929D01*
X16253786Y-14800643D01*
X16253786Y-14829214D01*
X16453786Y-14529214D02*
X16482357Y-14529214D01*
X16510928Y-14543500D01*
X16525214Y-14557786D01*
X16539500Y-14586357D01*
X16553786Y-14643500D01*
X16553786Y-14714929D01*
X16539500Y-14772071D01*
X16525214Y-14800643D01*
X16510928Y-14814929D01*
X16482357Y-14829214D01*
X16453786Y-14829214D01*
X16425214Y-14814929D01*
X16410928Y-14800643D01*
X16396643Y-14772071D01*
X16382357Y-14714929D01*
X16382357Y-14643500D01*
X16396643Y-14586357D01*
X16410928Y-14557786D01*
X16425214Y-14543500D01*
X16453786Y-14529214D01*
X16653786Y-14529214D02*
X16839500Y-14529214D01*
X16739500Y-14643500D01*
X16782357Y-14643500D01*
X16810928Y-14657786D01*
X16825214Y-14672071D01*
X16839500Y-14700643D01*
X16839500Y-14772071D01*
X16825214Y-14800643D01*
X16810928Y-14814929D01*
X16782357Y-14829214D01*
X16696643Y-14829214D01*
X16668071Y-14814929D01*
X16653786Y-14800643D01*
X17125214Y-14829214D02*
X16953786Y-14829214D01*
X17039500Y-14829214D02*
X17039500Y-14529214D01*
X17010928Y-14572071D01*
X16982357Y-14600643D01*
X16953786Y-14614929D01*
X17396643Y-14529214D02*
X17253786Y-14529214D01*
X17239500Y-14672071D01*
X17253786Y-14657786D01*
X17282357Y-14643500D01*
X17353786Y-14643500D01*
X17382357Y-14657786D01*
X17396643Y-14672071D01*
X17410928Y-14700643D01*
X17410928Y-14772071D01*
X17396643Y-14800643D01*
X17382357Y-14814929D01*
X17353786Y-14829214D01*
X17282357Y-14829214D01*
X17253786Y-14814929D01*
X17239500Y-14800643D01*
X17525214Y-14529214D02*
X17525214Y-14586357D01*
X17639500Y-14529214D02*
X17639500Y-14586357D01*
X18082357Y-14943500D02*
X18068071Y-14929214D01*
X18039500Y-14886357D01*
X18025214Y-14857786D01*
X18010928Y-14814929D01*
X17996643Y-14743500D01*
X17996643Y-14686357D01*
X18010928Y-14614929D01*
X18025214Y-14572071D01*
X18039500Y-14543500D01*
X18068071Y-14500643D01*
X18082357Y-14486357D01*
X18239500Y-14657786D02*
X18210928Y-14643500D01*
X18196643Y-14629214D01*
X18182357Y-14600643D01*
X18182357Y-14586357D01*
X18196643Y-14557786D01*
X18210928Y-14543500D01*
X18239500Y-14529214D01*
X18296643Y-14529214D01*
X18325214Y-14543500D01*
X18339500Y-14557786D01*
X18353786Y-14586357D01*
X18353786Y-14600643D01*
X18339500Y-14629214D01*
X18325214Y-14643500D01*
X18296643Y-14657786D01*
X18239500Y-14657786D01*
X18210928Y-14672071D01*
X18196643Y-14686357D01*
X18182357Y-14714929D01*
X18182357Y-14772071D01*
X18196643Y-14800643D01*
X18210928Y-14814929D01*
X18239500Y-14829214D01*
X18296643Y-14829214D01*
X18325214Y-14814929D01*
X18339500Y-14800643D01*
X18353786Y-14772071D01*
X18353786Y-14714929D01*
X18339500Y-14686357D01*
X18325214Y-14672071D01*
X18296643Y-14657786D01*
X18710928Y-14829214D02*
X18710928Y-14529214D01*
X18839500Y-14829214D02*
X18839500Y-14672071D01*
X18825214Y-14643500D01*
X18796643Y-14629214D01*
X18753786Y-14629214D01*
X18725214Y-14643500D01*
X18710928Y-14657786D01*
X19025214Y-14829214D02*
X18996643Y-14814929D01*
X18982357Y-14800643D01*
X18968071Y-14772071D01*
X18968071Y-14686357D01*
X18982357Y-14657786D01*
X18996643Y-14643500D01*
X19025214Y-14629214D01*
X19068071Y-14629214D01*
X19096643Y-14643500D01*
X19110928Y-14657786D01*
X19125214Y-14686357D01*
X19125214Y-14772071D01*
X19110928Y-14800643D01*
X19096643Y-14814929D01*
X19068071Y-14829214D01*
X19025214Y-14829214D01*
X19296643Y-14829214D02*
X19268071Y-14814929D01*
X19253786Y-14786357D01*
X19253786Y-14529214D01*
X19525214Y-14814929D02*
X19496643Y-14829214D01*
X19439500Y-14829214D01*
X19410928Y-14814929D01*
X19396643Y-14786357D01*
X19396643Y-14672071D01*
X19410928Y-14643500D01*
X19439500Y-14629214D01*
X19496643Y-14629214D01*
X19525214Y-14643500D01*
X19539500Y-14672071D01*
X19539500Y-14700643D01*
X19396643Y-14729214D01*
X19653786Y-14814929D02*
X19682357Y-14829214D01*
X19739500Y-14829214D01*
X19768071Y-14814929D01*
X19782357Y-14786357D01*
X19782357Y-14772071D01*
X19768071Y-14743500D01*
X19739500Y-14729214D01*
X19696643Y-14729214D01*
X19668071Y-14714929D01*
X19653786Y-14686357D01*
X19653786Y-14672071D01*
X19668071Y-14643500D01*
X19696643Y-14629214D01*
X19739500Y-14629214D01*
X19768071Y-14643500D01*
X19882357Y-14943500D02*
X19896643Y-14929214D01*
X19925214Y-14886357D01*
X19939500Y-14857786D01*
X19953786Y-14814929D01*
X19968071Y-14743500D01*
X19968071Y-14686357D01*
X19953786Y-14614929D01*
X19939500Y-14572071D01*
X19925214Y-14543500D01*
X19896643Y-14500643D01*
X19882357Y-14486357D01*
X12779500Y-15044500D02*
X12779500Y-15134500D01*
X12734500Y-15089500D02*
X12824500Y-15089500D01*
X13168071Y-14925214D02*
X13196643Y-14925214D01*
X13225214Y-14939500D01*
X13239500Y-14953786D01*
X13253786Y-14982357D01*
X13268071Y-15039500D01*
X13268071Y-15110929D01*
X13253786Y-15168071D01*
X13239500Y-15196643D01*
X13225214Y-15210929D01*
X13196643Y-15225214D01*
X13168071Y-15225214D01*
X13139500Y-15210929D01*
X13125214Y-15196643D01*
X13110928Y-15168071D01*
X13096643Y-15110929D01*
X13096643Y-15039500D01*
X13110928Y-14982357D01*
X13125214Y-14953786D01*
X13139500Y-14939500D01*
X13168071Y-14925214D01*
X13396643Y-15196643D02*
X13410928Y-15210929D01*
X13396643Y-15225214D01*
X13382357Y-15210929D01*
X13396643Y-15196643D01*
X13396643Y-15225214D01*
X13553786Y-15225214D02*
X13610928Y-15225214D01*
X13639500Y-15210929D01*
X13653786Y-15196643D01*
X13682357Y-15153786D01*
X13696643Y-15096643D01*
X13696643Y-14982357D01*
X13682357Y-14953786D01*
X13668071Y-14939500D01*
X13639500Y-14925214D01*
X13582357Y-14925214D01*
X13553786Y-14939500D01*
X13539500Y-14953786D01*
X13525214Y-14982357D01*
X13525214Y-15053786D01*
X13539500Y-15082357D01*
X13553786Y-15096643D01*
X13582357Y-15110929D01*
X13639500Y-15110929D01*
X13668071Y-15096643D01*
X13682357Y-15082357D01*
X13696643Y-15053786D01*
X13882357Y-14925214D02*
X13910928Y-14925214D01*
X13939500Y-14939500D01*
X13953786Y-14953786D01*
X13968071Y-14982357D01*
X13982357Y-15039500D01*
X13982357Y-15110929D01*
X13968071Y-15168071D01*
X13953786Y-15196643D01*
X13939500Y-15210929D01*
X13910928Y-15225214D01*
X13882357Y-15225214D01*
X13853786Y-15210929D01*
X13839500Y-15196643D01*
X13825214Y-15168071D01*
X13810928Y-15110929D01*
X13810928Y-15039500D01*
X13825214Y-14982357D01*
X13839500Y-14953786D01*
X13853786Y-14939500D01*
X13882357Y-14925214D01*
X14168071Y-14925214D02*
X14196643Y-14925214D01*
X14225214Y-14939500D01*
X14239500Y-14953786D01*
X14253786Y-14982357D01*
X14268071Y-15039500D01*
X14268071Y-15110929D01*
X14253786Y-15168071D01*
X14239500Y-15196643D01*
X14225214Y-15210929D01*
X14196643Y-15225214D01*
X14168071Y-15225214D01*
X14139500Y-15210929D01*
X14125214Y-15196643D01*
X14110928Y-15168071D01*
X14096643Y-15110929D01*
X14096643Y-15039500D01*
X14110928Y-14982357D01*
X14125214Y-14953786D01*
X14139500Y-14939500D01*
X14168071Y-14925214D01*
X14396643Y-15225214D02*
X14396643Y-15025214D01*
X14396643Y-15053786D02*
X14410928Y-15039500D01*
X14439500Y-15025214D01*
X14482357Y-15025214D01*
X14510928Y-15039500D01*
X14525214Y-15068071D01*
X14525214Y-15225214D01*
X14525214Y-15068071D02*
X14539500Y-15039500D01*
X14568071Y-15025214D01*
X14610928Y-15025214D01*
X14639500Y-15039500D01*
X14653786Y-15068071D01*
X14653786Y-15225214D01*
X14796643Y-15225214D02*
X14796643Y-15025214D01*
X14796643Y-15053786D02*
X14810928Y-15039500D01*
X14839500Y-15025214D01*
X14882357Y-15025214D01*
X14910928Y-15039500D01*
X14925214Y-15068071D01*
X14925214Y-15225214D01*
X14925214Y-15068071D02*
X14939500Y-15039500D01*
X14968071Y-15025214D01*
X15010928Y-15025214D01*
X15039500Y-15039500D01*
X15053786Y-15068071D01*
X15053786Y-15225214D01*
X15639500Y-14910929D02*
X15382357Y-15296643D01*
X16025214Y-14925214D02*
X16053786Y-14925214D01*
X16082357Y-14939500D01*
X16096643Y-14953786D01*
X16110928Y-14982357D01*
X16125214Y-15039500D01*
X16125214Y-15110929D01*
X16110928Y-15168071D01*
X16096643Y-15196643D01*
X16082357Y-15210929D01*
X16053786Y-15225214D01*
X16025214Y-15225214D01*
X15996643Y-15210929D01*
X15982357Y-15196643D01*
X15968071Y-15168071D01*
X15953786Y-15110929D01*
X15953786Y-15039500D01*
X15968071Y-14982357D01*
X15982357Y-14953786D01*
X15996643Y-14939500D01*
X16025214Y-14925214D01*
X16253786Y-15196643D02*
X16268071Y-15210929D01*
X16253786Y-15225214D01*
X16239500Y-15210929D01*
X16253786Y-15196643D01*
X16253786Y-15225214D01*
X16453786Y-14925214D02*
X16482357Y-14925214D01*
X16510928Y-14939500D01*
X16525214Y-14953786D01*
X16539500Y-14982357D01*
X16553786Y-15039500D01*
X16553786Y-15110929D01*
X16539500Y-15168071D01*
X16525214Y-15196643D01*
X16510928Y-15210929D01*
X16482357Y-15225214D01*
X16453786Y-15225214D01*
X16425214Y-15210929D01*
X16410928Y-15196643D01*
X16396643Y-15168071D01*
X16382357Y-15110929D01*
X16382357Y-15039500D01*
X16396643Y-14982357D01*
X16410928Y-14953786D01*
X16425214Y-14939500D01*
X16453786Y-14925214D01*
X16653786Y-14925214D02*
X16839500Y-14925214D01*
X16739500Y-15039500D01*
X16782357Y-15039500D01*
X16810928Y-15053786D01*
X16825214Y-15068071D01*
X16839500Y-15096643D01*
X16839500Y-15168071D01*
X16825214Y-15196643D01*
X16810928Y-15210929D01*
X16782357Y-15225214D01*
X16696643Y-15225214D01*
X16668071Y-15210929D01*
X16653786Y-15196643D01*
X17110928Y-14925214D02*
X16968071Y-14925214D01*
X16953786Y-15068071D01*
X16968071Y-15053786D01*
X16996643Y-15039500D01*
X17068071Y-15039500D01*
X17096643Y-15053786D01*
X17110928Y-15068071D01*
X17125214Y-15096643D01*
X17125214Y-15168071D01*
X17110928Y-15196643D01*
X17096643Y-15210929D01*
X17068071Y-15225214D01*
X16996643Y-15225214D01*
X16968071Y-15210929D01*
X16953786Y-15196643D01*
X17382357Y-15025214D02*
X17382357Y-15225214D01*
X17310928Y-14910929D02*
X17239500Y-15125214D01*
X17425214Y-15125214D01*
X17525214Y-14925214D02*
X17525214Y-14982357D01*
X17639500Y-14925214D02*
X17639500Y-14982357D01*
X18082357Y-15339500D02*
X18068071Y-15325214D01*
X18039500Y-15282357D01*
X18025214Y-15253786D01*
X18010928Y-15210929D01*
X17996643Y-15139500D01*
X17996643Y-15082357D01*
X18010928Y-15010929D01*
X18025214Y-14968071D01*
X18039500Y-14939500D01*
X18068071Y-14896643D01*
X18082357Y-14882357D01*
X18325214Y-15025214D02*
X18325214Y-15225214D01*
X18253786Y-14910929D02*
X18182357Y-15125214D01*
X18368071Y-15125214D01*
X18710928Y-15225214D02*
X18710928Y-14925214D01*
X18839500Y-15225214D02*
X18839500Y-15068071D01*
X18825214Y-15039500D01*
X18796643Y-15025214D01*
X18753786Y-15025214D01*
X18725214Y-15039500D01*
X18710928Y-15053786D01*
X19025214Y-15225214D02*
X18996643Y-15210929D01*
X18982357Y-15196643D01*
X18968071Y-15168071D01*
X18968071Y-15082357D01*
X18982357Y-15053786D01*
X18996643Y-15039500D01*
X19025214Y-15025214D01*
X19068071Y-15025214D01*
X19096643Y-15039500D01*
X19110928Y-15053786D01*
X19125214Y-15082357D01*
X19125214Y-15168071D01*
X19110928Y-15196643D01*
X19096643Y-15210929D01*
X19068071Y-15225214D01*
X19025214Y-15225214D01*
X19296643Y-15225214D02*
X19268071Y-15210929D01*
X19253786Y-15182357D01*
X19253786Y-14925214D01*
X19525214Y-15210929D02*
X19496643Y-15225214D01*
X19439500Y-15225214D01*
X19410928Y-15210929D01*
X19396643Y-15182357D01*
X19396643Y-15068071D01*
X19410928Y-15039500D01*
X19439500Y-15025214D01*
X19496643Y-15025214D01*
X19525214Y-15039500D01*
X19539500Y-15068071D01*
X19539500Y-15096643D01*
X19396643Y-15125214D01*
X19653786Y-15210929D02*
X19682357Y-15225214D01*
X19739500Y-15225214D01*
X19768071Y-15210929D01*
X19782357Y-15182357D01*
X19782357Y-15168071D01*
X19768071Y-15139500D01*
X19739500Y-15125214D01*
X19696643Y-15125214D01*
X19668071Y-15110929D01*
X19653786Y-15082357D01*
X19653786Y-15068071D01*
X19668071Y-15039500D01*
X19696643Y-15025214D01*
X19739500Y-15025214D01*
X19768071Y-15039500D01*
X19882357Y-15339500D02*
X19896643Y-15325214D01*
X19925214Y-15282357D01*
X19939500Y-15253786D01*
X19953786Y-15210929D01*
X19968071Y-15139500D01*
X19968071Y-15082357D01*
X19953786Y-15010929D01*
X19939500Y-14968071D01*
X19925214Y-14939500D01*
X19896643Y-14896643D01*
X19882357Y-14882357D01*
X12809856Y-15520856D02*
X12809856Y-15450144D01*
X12739144Y-15450144D01*
X12739144Y-15520856D01*
X12809856Y-15520856D01*
X13268071Y-15621214D02*
X13096643Y-15621214D01*
X13182357Y-15621214D02*
X13182357Y-15321214D01*
X13153786Y-15364071D01*
X13125214Y-15392643D01*
X13096643Y-15406929D01*
X13396643Y-15592643D02*
X13410928Y-15606929D01*
X13396643Y-15621214D01*
X13382357Y-15606929D01*
X13396643Y-15592643D01*
X13396643Y-15621214D01*
X13596643Y-15321214D02*
X13625214Y-15321214D01*
X13653786Y-15335500D01*
X13668071Y-15349786D01*
X13682357Y-15378357D01*
X13696643Y-15435500D01*
X13696643Y-15506929D01*
X13682357Y-15564071D01*
X13668071Y-15592643D01*
X13653786Y-15606929D01*
X13625214Y-15621214D01*
X13596643Y-15621214D01*
X13568071Y-15606929D01*
X13553786Y-15592643D01*
X13539500Y-15564071D01*
X13525214Y-15506929D01*
X13525214Y-15435500D01*
X13539500Y-15378357D01*
X13553786Y-15349786D01*
X13568071Y-15335500D01*
X13596643Y-15321214D01*
X13882357Y-15321214D02*
X13910928Y-15321214D01*
X13939500Y-15335500D01*
X13953786Y-15349786D01*
X13968071Y-15378357D01*
X13982357Y-15435500D01*
X13982357Y-15506929D01*
X13968071Y-15564071D01*
X13953786Y-15592643D01*
X13939500Y-15606929D01*
X13910928Y-15621214D01*
X13882357Y-15621214D01*
X13853786Y-15606929D01*
X13839500Y-15592643D01*
X13825214Y-15564071D01*
X13810928Y-15506929D01*
X13810928Y-15435500D01*
X13825214Y-15378357D01*
X13839500Y-15349786D01*
X13853786Y-15335500D01*
X13882357Y-15321214D01*
X14168071Y-15321214D02*
X14196643Y-15321214D01*
X14225214Y-15335500D01*
X14239500Y-15349786D01*
X14253786Y-15378357D01*
X14268071Y-15435500D01*
X14268071Y-15506929D01*
X14253786Y-15564071D01*
X14239500Y-15592643D01*
X14225214Y-15606929D01*
X14196643Y-15621214D01*
X14168071Y-15621214D01*
X14139500Y-15606929D01*
X14125214Y-15592643D01*
X14110928Y-15564071D01*
X14096643Y-15506929D01*
X14096643Y-15435500D01*
X14110928Y-15378357D01*
X14125214Y-15349786D01*
X14139500Y-15335500D01*
X14168071Y-15321214D01*
X14396643Y-15621214D02*
X14396643Y-15421214D01*
X14396643Y-15449786D02*
X14410928Y-15435500D01*
X14439500Y-15421214D01*
X14482357Y-15421214D01*
X14510928Y-15435500D01*
X14525214Y-15464071D01*
X14525214Y-15621214D01*
X14525214Y-15464071D02*
X14539500Y-15435500D01*
X14568071Y-15421214D01*
X14610928Y-15421214D01*
X14639500Y-15435500D01*
X14653786Y-15464071D01*
X14653786Y-15621214D01*
X14796643Y-15621214D02*
X14796643Y-15421214D01*
X14796643Y-15449786D02*
X14810928Y-15435500D01*
X14839500Y-15421214D01*
X14882357Y-15421214D01*
X14910928Y-15435500D01*
X14925214Y-15464071D01*
X14925214Y-15621214D01*
X14925214Y-15464071D02*
X14939500Y-15435500D01*
X14968071Y-15421214D01*
X15010928Y-15421214D01*
X15039500Y-15435500D01*
X15053786Y-15464071D01*
X15053786Y-15621214D01*
X15639500Y-15306929D02*
X15382357Y-15692643D01*
X16025214Y-15321214D02*
X16053786Y-15321214D01*
X16082357Y-15335500D01*
X16096643Y-15349786D01*
X16110928Y-15378357D01*
X16125214Y-15435500D01*
X16125214Y-15506929D01*
X16110928Y-15564071D01*
X16096643Y-15592643D01*
X16082357Y-15606929D01*
X16053786Y-15621214D01*
X16025214Y-15621214D01*
X15996643Y-15606929D01*
X15982357Y-15592643D01*
X15968071Y-15564071D01*
X15953786Y-15506929D01*
X15953786Y-15435500D01*
X15968071Y-15378357D01*
X15982357Y-15349786D01*
X15996643Y-15335500D01*
X16025214Y-15321214D01*
X16253786Y-15592643D02*
X16268071Y-15606929D01*
X16253786Y-15621214D01*
X16239500Y-15606929D01*
X16253786Y-15592643D01*
X16253786Y-15621214D01*
X16453786Y-15321214D02*
X16482357Y-15321214D01*
X16510928Y-15335500D01*
X16525214Y-15349786D01*
X16539500Y-15378357D01*
X16553786Y-15435500D01*
X16553786Y-15506929D01*
X16539500Y-15564071D01*
X16525214Y-15592643D01*
X16510928Y-15606929D01*
X16482357Y-15621214D01*
X16453786Y-15621214D01*
X16425214Y-15606929D01*
X16410928Y-15592643D01*
X16396643Y-15564071D01*
X16382357Y-15506929D01*
X16382357Y-15435500D01*
X16396643Y-15378357D01*
X16410928Y-15349786D01*
X16425214Y-15335500D01*
X16453786Y-15321214D01*
X16653786Y-15321214D02*
X16839500Y-15321214D01*
X16739500Y-15435500D01*
X16782357Y-15435500D01*
X16810928Y-15449786D01*
X16825214Y-15464071D01*
X16839500Y-15492643D01*
X16839500Y-15564071D01*
X16825214Y-15592643D01*
X16810928Y-15606929D01*
X16782357Y-15621214D01*
X16696643Y-15621214D01*
X16668071Y-15606929D01*
X16653786Y-15592643D01*
X16982357Y-15621214D02*
X17039500Y-15621214D01*
X17068071Y-15606929D01*
X17082357Y-15592643D01*
X17110928Y-15549786D01*
X17125214Y-15492643D01*
X17125214Y-15378357D01*
X17110928Y-15349786D01*
X17096643Y-15335500D01*
X17068071Y-15321214D01*
X17010928Y-15321214D01*
X16982357Y-15335500D01*
X16968071Y-15349786D01*
X16953786Y-15378357D01*
X16953786Y-15449786D01*
X16968071Y-15478357D01*
X16982357Y-15492643D01*
X17010928Y-15506929D01*
X17068071Y-15506929D01*
X17096643Y-15492643D01*
X17110928Y-15478357D01*
X17125214Y-15449786D01*
X17382357Y-15421214D02*
X17382357Y-15621214D01*
X17310928Y-15306929D02*
X17239500Y-15521214D01*
X17425214Y-15521214D01*
X17525214Y-15321214D02*
X17525214Y-15378357D01*
X17639500Y-15321214D02*
X17639500Y-15378357D01*
X18082357Y-15735500D02*
X18068071Y-15721214D01*
X18039500Y-15678357D01*
X18025214Y-15649786D01*
X18010928Y-15606929D01*
X17996643Y-15535500D01*
X17996643Y-15478357D01*
X18010928Y-15406929D01*
X18025214Y-15364071D01*
X18039500Y-15335500D01*
X18068071Y-15292643D01*
X18082357Y-15278357D01*
X18168071Y-15321214D02*
X18353786Y-15321214D01*
X18253786Y-15435500D01*
X18296643Y-15435500D01*
X18325214Y-15449786D01*
X18339500Y-15464071D01*
X18353786Y-15492643D01*
X18353786Y-15564071D01*
X18339500Y-15592643D01*
X18325214Y-15606929D01*
X18296643Y-15621214D01*
X18210928Y-15621214D01*
X18182357Y-15606929D01*
X18168071Y-15592643D01*
X18610928Y-15421214D02*
X18610928Y-15621214D01*
X18539500Y-15306929D02*
X18468071Y-15521214D01*
X18653786Y-15521214D01*
X18996643Y-15621214D02*
X18996643Y-15321214D01*
X19125214Y-15621214D02*
X19125214Y-15464071D01*
X19110928Y-15435500D01*
X19082357Y-15421214D01*
X19039500Y-15421214D01*
X19010928Y-15435500D01*
X18996643Y-15449786D01*
X19310928Y-15621214D02*
X19282357Y-15606929D01*
X19268071Y-15592643D01*
X19253786Y-15564071D01*
X19253786Y-15478357D01*
X19268071Y-15449786D01*
X19282357Y-15435500D01*
X19310928Y-15421214D01*
X19353786Y-15421214D01*
X19382357Y-15435500D01*
X19396643Y-15449786D01*
X19410928Y-15478357D01*
X19410928Y-15564071D01*
X19396643Y-15592643D01*
X19382357Y-15606929D01*
X19353786Y-15621214D01*
X19310928Y-15621214D01*
X19582357Y-15621214D02*
X19553786Y-15606929D01*
X19539500Y-15578357D01*
X19539500Y-15321214D01*
X19810928Y-15606929D02*
X19782357Y-15621214D01*
X19725214Y-15621214D01*
X19696643Y-15606929D01*
X19682357Y-15578357D01*
X19682357Y-15464071D01*
X19696643Y-15435500D01*
X19725214Y-15421214D01*
X19782357Y-15421214D01*
X19810928Y-15435500D01*
X19825214Y-15464071D01*
X19825214Y-15492643D01*
X19682357Y-15521214D01*
X19939500Y-15606929D02*
X19968071Y-15621214D01*
X20025214Y-15621214D01*
X20053786Y-15606929D01*
X20068071Y-15578357D01*
X20068071Y-15564071D01*
X20053786Y-15535500D01*
X20025214Y-15521214D01*
X19982357Y-15521214D01*
X19953786Y-15506929D01*
X19939500Y-15478357D01*
X19939500Y-15464071D01*
X19953786Y-15435500D01*
X19982357Y-15421214D01*
X20025214Y-15421214D01*
X20053786Y-15435500D01*
X20168071Y-15735500D02*
X20182357Y-15721214D01*
X20210928Y-15678357D01*
X20225214Y-15649786D01*
X20239500Y-15606929D01*
X20253786Y-15535500D01*
X20253786Y-15478357D01*
X20239500Y-15406929D01*
X20225214Y-15364071D01*
X20210928Y-15335500D01*
X20182357Y-15292643D01*
X20168071Y-15278357D01*
X12724500Y-15981500D02*
X12824500Y-15881500D01*
X12724500Y-15781500D01*
X12624500Y-15881500D01*
X12724500Y-15981500D01*
X13096643Y-15745786D02*
X13110928Y-15731500D01*
X13139500Y-15717214D01*
X13210928Y-15717214D01*
X13239500Y-15731500D01*
X13253786Y-15745786D01*
X13268071Y-15774357D01*
X13268071Y-15802929D01*
X13253786Y-15845786D01*
X13082357Y-16017214D01*
X13268071Y-16017214D01*
X13396643Y-15988643D02*
X13410928Y-16002929D01*
X13396643Y-16017214D01*
X13382357Y-16002929D01*
X13396643Y-15988643D01*
X13396643Y-16017214D01*
X13596643Y-15717214D02*
X13625214Y-15717214D01*
X13653786Y-15731500D01*
X13668071Y-15745786D01*
X13682357Y-15774357D01*
X13696643Y-15831500D01*
X13696643Y-15902929D01*
X13682357Y-15960071D01*
X13668071Y-15988643D01*
X13653786Y-16002929D01*
X13625214Y-16017214D01*
X13596643Y-16017214D01*
X13568071Y-16002929D01*
X13553786Y-15988643D01*
X13539500Y-15960071D01*
X13525214Y-15902929D01*
X13525214Y-15831500D01*
X13539500Y-15774357D01*
X13553786Y-15745786D01*
X13568071Y-15731500D01*
X13596643Y-15717214D01*
X13882357Y-15717214D02*
X13910928Y-15717214D01*
X13939500Y-15731500D01*
X13953786Y-15745786D01*
X13968071Y-15774357D01*
X13982357Y-15831500D01*
X13982357Y-15902929D01*
X13968071Y-15960071D01*
X13953786Y-15988643D01*
X13939500Y-16002929D01*
X13910928Y-16017214D01*
X13882357Y-16017214D01*
X13853786Y-16002929D01*
X13839500Y-15988643D01*
X13825214Y-15960071D01*
X13810928Y-15902929D01*
X13810928Y-15831500D01*
X13825214Y-15774357D01*
X13839500Y-15745786D01*
X13853786Y-15731500D01*
X13882357Y-15717214D01*
X14168071Y-15717214D02*
X14196643Y-15717214D01*
X14225214Y-15731500D01*
X14239500Y-15745786D01*
X14253786Y-15774357D01*
X14268071Y-15831500D01*
X14268071Y-15902929D01*
X14253786Y-15960071D01*
X14239500Y-15988643D01*
X14225214Y-16002929D01*
X14196643Y-16017214D01*
X14168071Y-16017214D01*
X14139500Y-16002929D01*
X14125214Y-15988643D01*
X14110928Y-15960071D01*
X14096643Y-15902929D01*
X14096643Y-15831500D01*
X14110928Y-15774357D01*
X14125214Y-15745786D01*
X14139500Y-15731500D01*
X14168071Y-15717214D01*
X14396643Y-16017214D02*
X14396643Y-15817214D01*
X14396643Y-15845786D02*
X14410928Y-15831500D01*
X14439500Y-15817214D01*
X14482357Y-15817214D01*
X14510928Y-15831500D01*
X14525214Y-15860071D01*
X14525214Y-16017214D01*
X14525214Y-15860071D02*
X14539500Y-15831500D01*
X14568071Y-15817214D01*
X14610928Y-15817214D01*
X14639500Y-15831500D01*
X14653786Y-15860071D01*
X14653786Y-16017214D01*
X14796643Y-16017214D02*
X14796643Y-15817214D01*
X14796643Y-15845786D02*
X14810928Y-15831500D01*
X14839500Y-15817214D01*
X14882357Y-15817214D01*
X14910928Y-15831500D01*
X14925214Y-15860071D01*
X14925214Y-16017214D01*
X14925214Y-15860071D02*
X14939500Y-15831500D01*
X14968071Y-15817214D01*
X15010928Y-15817214D01*
X15039500Y-15831500D01*
X15053786Y-15860071D01*
X15053786Y-16017214D01*
X15639500Y-15702929D02*
X15382357Y-16088643D01*
X16025214Y-15717214D02*
X16053786Y-15717214D01*
X16082357Y-15731500D01*
X16096643Y-15745786D01*
X16110928Y-15774357D01*
X16125214Y-15831500D01*
X16125214Y-15902929D01*
X16110928Y-15960071D01*
X16096643Y-15988643D01*
X16082357Y-16002929D01*
X16053786Y-16017214D01*
X16025214Y-16017214D01*
X15996643Y-16002929D01*
X15982357Y-15988643D01*
X15968071Y-15960071D01*
X15953786Y-15902929D01*
X15953786Y-15831500D01*
X15968071Y-15774357D01*
X15982357Y-15745786D01*
X15996643Y-15731500D01*
X16025214Y-15717214D01*
X16253786Y-15988643D02*
X16268071Y-16002929D01*
X16253786Y-16017214D01*
X16239500Y-16002929D01*
X16253786Y-15988643D01*
X16253786Y-16017214D01*
X16453786Y-15717214D02*
X16482357Y-15717214D01*
X16510928Y-15731500D01*
X16525214Y-15745786D01*
X16539500Y-15774357D01*
X16553786Y-15831500D01*
X16553786Y-15902929D01*
X16539500Y-15960071D01*
X16525214Y-15988643D01*
X16510928Y-16002929D01*
X16482357Y-16017214D01*
X16453786Y-16017214D01*
X16425214Y-16002929D01*
X16410928Y-15988643D01*
X16396643Y-15960071D01*
X16382357Y-15902929D01*
X16382357Y-15831500D01*
X16396643Y-15774357D01*
X16410928Y-15745786D01*
X16425214Y-15731500D01*
X16453786Y-15717214D01*
X16653786Y-15717214D02*
X16853786Y-15717214D01*
X16725214Y-16017214D01*
X17010928Y-15845786D02*
X16982357Y-15831500D01*
X16968071Y-15817214D01*
X16953786Y-15788643D01*
X16953786Y-15774357D01*
X16968071Y-15745786D01*
X16982357Y-15731500D01*
X17010928Y-15717214D01*
X17068071Y-15717214D01*
X17096643Y-15731500D01*
X17110928Y-15745786D01*
X17125214Y-15774357D01*
X17125214Y-15788643D01*
X17110928Y-15817214D01*
X17096643Y-15831500D01*
X17068071Y-15845786D01*
X17010928Y-15845786D01*
X16982357Y-15860071D01*
X16968071Y-15874357D01*
X16953786Y-15902929D01*
X16953786Y-15960071D01*
X16968071Y-15988643D01*
X16982357Y-16002929D01*
X17010928Y-16017214D01*
X17068071Y-16017214D01*
X17096643Y-16002929D01*
X17110928Y-15988643D01*
X17125214Y-15960071D01*
X17125214Y-15902929D01*
X17110928Y-15874357D01*
X17096643Y-15860071D01*
X17068071Y-15845786D01*
X17225214Y-15717214D02*
X17425214Y-15717214D01*
X17296643Y-16017214D01*
X17525214Y-15717214D02*
X17525214Y-15774357D01*
X17639500Y-15717214D02*
X17639500Y-15774357D01*
X18082357Y-16131500D02*
X18068071Y-16117214D01*
X18039500Y-16074357D01*
X18025214Y-16045786D01*
X18010928Y-16002929D01*
X17996643Y-15931500D01*
X17996643Y-15874357D01*
X18010928Y-15802929D01*
X18025214Y-15760071D01*
X18039500Y-15731500D01*
X18068071Y-15688643D01*
X18082357Y-15674357D01*
X18325214Y-15817214D02*
X18325214Y-16017214D01*
X18253786Y-15702929D02*
X18182357Y-15917214D01*
X18368071Y-15917214D01*
X18710928Y-16017214D02*
X18710928Y-15717214D01*
X18839500Y-16017214D02*
X18839500Y-15860071D01*
X18825214Y-15831500D01*
X18796643Y-15817214D01*
X18753786Y-15817214D01*
X18725214Y-15831500D01*
X18710928Y-15845786D01*
X19025214Y-16017214D02*
X18996643Y-16002929D01*
X18982357Y-15988643D01*
X18968071Y-15960071D01*
X18968071Y-15874357D01*
X18982357Y-15845786D01*
X18996643Y-15831500D01*
X19025214Y-15817214D01*
X19068071Y-15817214D01*
X19096643Y-15831500D01*
X19110928Y-15845786D01*
X19125214Y-15874357D01*
X19125214Y-15960071D01*
X19110928Y-15988643D01*
X19096643Y-16002929D01*
X19068071Y-16017214D01*
X19025214Y-16017214D01*
X19296643Y-16017214D02*
X19268071Y-16002929D01*
X19253786Y-15974357D01*
X19253786Y-15717214D01*
X19525214Y-16002929D02*
X19496643Y-16017214D01*
X19439500Y-16017214D01*
X19410928Y-16002929D01*
X19396643Y-15974357D01*
X19396643Y-15860071D01*
X19410928Y-15831500D01*
X19439500Y-15817214D01*
X19496643Y-15817214D01*
X19525214Y-15831500D01*
X19539500Y-15860071D01*
X19539500Y-15888643D01*
X19396643Y-15917214D01*
X19653786Y-16002929D02*
X19682357Y-16017214D01*
X19739500Y-16017214D01*
X19768071Y-16002929D01*
X19782357Y-15974357D01*
X19782357Y-15960071D01*
X19768071Y-15931500D01*
X19739500Y-15917214D01*
X19696643Y-15917214D01*
X19668071Y-15902929D01*
X19653786Y-15874357D01*
X19653786Y-15860071D01*
X19668071Y-15831500D01*
X19696643Y-15817214D01*
X19739500Y-15817214D01*
X19768071Y-15831500D01*
X19882357Y-16131500D02*
X19896643Y-16117214D01*
X19925214Y-16074357D01*
X19939500Y-16045786D01*
X19953786Y-16002929D01*
X19968071Y-15931500D01*
X19968071Y-15874357D01*
X19953786Y-15802929D01*
X19939500Y-15760071D01*
X19925214Y-15731500D01*
X19896643Y-15688643D01*
X19882357Y-15674357D01*
X12504500Y-16117500D02*
X12824500Y-16437500D01*
X12824500Y-16117500D02*
X12504500Y-16437500D01*
X12824500Y-16277500D02*
G75*
G03*
X12824500Y-16277500I-160000J0D01*
G01*
X13082357Y-16113214D02*
X13268071Y-16113214D01*
X13168071Y-16227500D01*
X13210928Y-16227500D01*
X13239500Y-16241786D01*
X13253786Y-16256071D01*
X13268071Y-16284643D01*
X13268071Y-16356071D01*
X13253786Y-16384643D01*
X13239500Y-16398929D01*
X13210928Y-16413214D01*
X13125214Y-16413214D01*
X13096643Y-16398929D01*
X13082357Y-16384643D01*
X13396643Y-16384643D02*
X13410928Y-16398929D01*
X13396643Y-16413214D01*
X13382357Y-16398929D01*
X13396643Y-16384643D01*
X13396643Y-16413214D01*
X13525214Y-16141786D02*
X13539500Y-16127500D01*
X13568071Y-16113214D01*
X13639500Y-16113214D01*
X13668071Y-16127500D01*
X13682357Y-16141786D01*
X13696643Y-16170357D01*
X13696643Y-16198929D01*
X13682357Y-16241786D01*
X13510928Y-16413214D01*
X13696643Y-16413214D01*
X13882357Y-16113214D02*
X13910928Y-16113214D01*
X13939500Y-16127500D01*
X13953786Y-16141786D01*
X13968071Y-16170357D01*
X13982357Y-16227500D01*
X13982357Y-16298929D01*
X13968071Y-16356071D01*
X13953786Y-16384643D01*
X13939500Y-16398929D01*
X13910928Y-16413214D01*
X13882357Y-16413214D01*
X13853786Y-16398929D01*
X13839500Y-16384643D01*
X13825214Y-16356071D01*
X13810928Y-16298929D01*
X13810928Y-16227500D01*
X13825214Y-16170357D01*
X13839500Y-16141786D01*
X13853786Y-16127500D01*
X13882357Y-16113214D01*
X14168071Y-16113214D02*
X14196643Y-16113214D01*
X14225214Y-16127500D01*
X14239500Y-16141786D01*
X14253786Y-16170357D01*
X14268071Y-16227500D01*
X14268071Y-16298929D01*
X14253786Y-16356071D01*
X14239500Y-16384643D01*
X14225214Y-16398929D01*
X14196643Y-16413214D01*
X14168071Y-16413214D01*
X14139500Y-16398929D01*
X14125214Y-16384643D01*
X14110928Y-16356071D01*
X14096643Y-16298929D01*
X14096643Y-16227500D01*
X14110928Y-16170357D01*
X14125214Y-16141786D01*
X14139500Y-16127500D01*
X14168071Y-16113214D01*
X14396643Y-16413214D02*
X14396643Y-16213214D01*
X14396643Y-16241786D02*
X14410928Y-16227500D01*
X14439500Y-16213214D01*
X14482357Y-16213214D01*
X14510928Y-16227500D01*
X14525214Y-16256071D01*
X14525214Y-16413214D01*
X14525214Y-16256071D02*
X14539500Y-16227500D01*
X14568071Y-16213214D01*
X14610928Y-16213214D01*
X14639500Y-16227500D01*
X14653786Y-16256071D01*
X14653786Y-16413214D01*
X14796643Y-16413214D02*
X14796643Y-16213214D01*
X14796643Y-16241786D02*
X14810928Y-16227500D01*
X14839500Y-16213214D01*
X14882357Y-16213214D01*
X14910928Y-16227500D01*
X14925214Y-16256071D01*
X14925214Y-16413214D01*
X14925214Y-16256071D02*
X14939500Y-16227500D01*
X14968071Y-16213214D01*
X15010928Y-16213214D01*
X15039500Y-16227500D01*
X15053786Y-16256071D01*
X15053786Y-16413214D01*
X15639500Y-16098929D02*
X15382357Y-16484643D01*
X16025214Y-16113214D02*
X16053786Y-16113214D01*
X16082357Y-16127500D01*
X16096643Y-16141786D01*
X16110928Y-16170357D01*
X16125214Y-16227500D01*
X16125214Y-16298929D01*
X16110928Y-16356071D01*
X16096643Y-16384643D01*
X16082357Y-16398929D01*
X16053786Y-16413214D01*
X16025214Y-16413214D01*
X15996643Y-16398929D01*
X15982357Y-16384643D01*
X15968071Y-16356071D01*
X15953786Y-16298929D01*
X15953786Y-16227500D01*
X15968071Y-16170357D01*
X15982357Y-16141786D01*
X15996643Y-16127500D01*
X16025214Y-16113214D01*
X16253786Y-16384643D02*
X16268071Y-16398929D01*
X16253786Y-16413214D01*
X16239500Y-16398929D01*
X16253786Y-16384643D01*
X16253786Y-16413214D01*
X16553786Y-16413214D02*
X16382357Y-16413214D01*
X16468071Y-16413214D02*
X16468071Y-16113214D01*
X16439500Y-16156071D01*
X16410928Y-16184643D01*
X16382357Y-16198929D01*
X16668071Y-16141786D02*
X16682357Y-16127500D01*
X16710928Y-16113214D01*
X16782357Y-16113214D01*
X16810928Y-16127500D01*
X16825214Y-16141786D01*
X16839500Y-16170357D01*
X16839500Y-16198929D01*
X16825214Y-16241786D01*
X16653786Y-16413214D01*
X16839500Y-16413214D01*
X17096643Y-16113214D02*
X17039500Y-16113214D01*
X17010928Y-16127500D01*
X16996643Y-16141786D01*
X16968071Y-16184643D01*
X16953786Y-16241786D01*
X16953786Y-16356071D01*
X16968071Y-16384643D01*
X16982357Y-16398929D01*
X17010928Y-16413214D01*
X17068071Y-16413214D01*
X17096643Y-16398929D01*
X17110928Y-16384643D01*
X17125214Y-16356071D01*
X17125214Y-16284643D01*
X17110928Y-16256071D01*
X17096643Y-16241786D01*
X17068071Y-16227500D01*
X17010928Y-16227500D01*
X16982357Y-16241786D01*
X16968071Y-16256071D01*
X16953786Y-16284643D01*
X17310928Y-16113214D02*
X17339500Y-16113214D01*
X17368071Y-16127500D01*
X17382357Y-16141786D01*
X17396643Y-16170357D01*
X17410928Y-16227500D01*
X17410928Y-16298929D01*
X17396643Y-16356071D01*
X17382357Y-16384643D01*
X17368071Y-16398929D01*
X17339500Y-16413214D01*
X17310928Y-16413214D01*
X17282357Y-16398929D01*
X17268071Y-16384643D01*
X17253786Y-16356071D01*
X17239500Y-16298929D01*
X17239500Y-16227500D01*
X17253786Y-16170357D01*
X17268071Y-16141786D01*
X17282357Y-16127500D01*
X17310928Y-16113214D01*
X17525214Y-16113214D02*
X17525214Y-16170357D01*
X17639500Y-16113214D02*
X17639500Y-16170357D01*
X18082357Y-16527500D02*
X18068071Y-16513214D01*
X18039500Y-16470357D01*
X18025214Y-16441786D01*
X18010928Y-16398929D01*
X17996643Y-16327500D01*
X17996643Y-16270357D01*
X18010928Y-16198929D01*
X18025214Y-16156071D01*
X18039500Y-16127500D01*
X18068071Y-16084643D01*
X18082357Y-16070357D01*
X18182357Y-16141786D02*
X18196643Y-16127500D01*
X18225214Y-16113214D01*
X18296643Y-16113214D01*
X18325214Y-16127500D01*
X18339500Y-16141786D01*
X18353786Y-16170357D01*
X18353786Y-16198929D01*
X18339500Y-16241786D01*
X18168071Y-16413214D01*
X18353786Y-16413214D01*
X18710928Y-16413214D02*
X18710928Y-16113214D01*
X18839500Y-16413214D02*
X18839500Y-16256071D01*
X18825214Y-16227500D01*
X18796643Y-16213214D01*
X18753786Y-16213214D01*
X18725214Y-16227500D01*
X18710928Y-16241786D01*
X19025214Y-16413214D02*
X18996643Y-16398929D01*
X18982357Y-16384643D01*
X18968071Y-16356071D01*
X18968071Y-16270357D01*
X18982357Y-16241786D01*
X18996643Y-16227500D01*
X19025214Y-16213214D01*
X19068071Y-16213214D01*
X19096643Y-16227500D01*
X19110928Y-16241786D01*
X19125214Y-16270357D01*
X19125214Y-16356071D01*
X19110928Y-16384643D01*
X19096643Y-16398929D01*
X19068071Y-16413214D01*
X19025214Y-16413214D01*
X19296643Y-16413214D02*
X19268071Y-16398929D01*
X19253786Y-16370357D01*
X19253786Y-16113214D01*
X19525214Y-16398929D02*
X19496643Y-16413214D01*
X19439500Y-16413214D01*
X19410928Y-16398929D01*
X19396643Y-16370357D01*
X19396643Y-16256071D01*
X19410928Y-16227500D01*
X19439500Y-16213214D01*
X19496643Y-16213214D01*
X19525214Y-16227500D01*
X19539500Y-16256071D01*
X19539500Y-16284643D01*
X19396643Y-16313214D01*
X19653786Y-16398929D02*
X19682357Y-16413214D01*
X19739500Y-16413214D01*
X19768071Y-16398929D01*
X19782357Y-16370357D01*
X19782357Y-16356071D01*
X19768071Y-16327500D01*
X19739500Y-16313214D01*
X19696643Y-16313214D01*
X19668071Y-16298929D01*
X19653786Y-16270357D01*
X19653786Y-16256071D01*
X19668071Y-16227500D01*
X19696643Y-16213214D01*
X19739500Y-16213214D01*
X19768071Y-16227500D01*
X19882357Y-16527500D02*
X19896643Y-16513214D01*
X19925214Y-16470357D01*
X19939500Y-16441786D01*
X19953786Y-16398929D01*
X19968071Y-16327500D01*
X19968071Y-16270357D01*
X19953786Y-16198929D01*
X19939500Y-16156071D01*
X19925214Y-16127500D01*
X19896643Y-16084643D01*
X19882357Y-16070357D01*
M02*
