%FSLAX45Y45*%
G04 Gerber Fmt 4.5, Leading zero omitted, Abs format (unit mm)*
G04 Created by KiCad (PCBNEW (5.1.10)-1) date 2022-06-10 21:37:41*
%MOMM*%
%LPD*%
G01*
G04 APERTURE LIST*
%TA.AperFunction,Profile*%
%ADD10C,0.050000*%
%TD*%
%ADD11C,0.200000*%
%ADD12C,0.300000*%
G04 APERTURE END LIST*
D10*
X18415000Y-13335000D02*
X12827000Y-13335000D01*
X18415000Y-4302000D02*
X18415000Y-13335000D01*
X12827000Y-4302000D02*
X12827000Y-13335000D01*
X18415000Y-4302000D02*
X12827000Y-4302000D01*
D11*
X13175000Y-7206000D02*
X13495000Y-7526000D01*
X13495000Y-7206000D02*
X13175000Y-7526000D01*
X13175000Y-12667000D02*
X13495000Y-12987000D01*
X13495000Y-12667000D02*
X13175000Y-12987000D01*
X17747000Y-7206000D02*
X18067000Y-7526000D01*
X18067000Y-7206000D02*
X17747000Y-7526000D01*
X17747000Y-12540000D02*
X18067000Y-12860000D01*
X18067000Y-12540000D02*
X17747000Y-12860000D01*
D12*
X13110928Y-13803214D02*
X13110928Y-13503214D01*
X13182357Y-13503214D01*
X13225214Y-13517500D01*
X13253786Y-13546071D01*
X13268071Y-13574643D01*
X13282357Y-13631786D01*
X13282357Y-13674643D01*
X13268071Y-13731786D01*
X13253786Y-13760357D01*
X13225214Y-13788929D01*
X13182357Y-13803214D01*
X13110928Y-13803214D01*
X13410928Y-13803214D02*
X13410928Y-13603214D01*
X13410928Y-13660357D02*
X13425214Y-13631786D01*
X13439500Y-13617500D01*
X13468071Y-13603214D01*
X13496643Y-13603214D01*
X13596643Y-13803214D02*
X13596643Y-13603214D01*
X13596643Y-13503214D02*
X13582357Y-13517500D01*
X13596643Y-13531786D01*
X13610928Y-13517500D01*
X13596643Y-13503214D01*
X13596643Y-13531786D01*
X13782357Y-13803214D02*
X13753786Y-13788929D01*
X13739500Y-13760357D01*
X13739500Y-13503214D01*
X13939500Y-13803214D02*
X13910928Y-13788929D01*
X13896643Y-13760357D01*
X13896643Y-13503214D01*
X14282357Y-13803214D02*
X14282357Y-13503214D01*
X14382357Y-13717500D01*
X14482357Y-13503214D01*
X14482357Y-13803214D01*
X14753786Y-13803214D02*
X14753786Y-13646071D01*
X14739500Y-13617500D01*
X14710928Y-13603214D01*
X14653786Y-13603214D01*
X14625214Y-13617500D01*
X14753786Y-13788929D02*
X14725214Y-13803214D01*
X14653786Y-13803214D01*
X14625214Y-13788929D01*
X14610928Y-13760357D01*
X14610928Y-13731786D01*
X14625214Y-13703214D01*
X14653786Y-13688929D01*
X14725214Y-13688929D01*
X14753786Y-13674643D01*
X14896643Y-13603214D02*
X14896643Y-13903214D01*
X14896643Y-13617500D02*
X14925214Y-13603214D01*
X14982357Y-13603214D01*
X15010928Y-13617500D01*
X15025214Y-13631786D01*
X15039500Y-13660357D01*
X15039500Y-13746071D01*
X15025214Y-13774643D01*
X15010928Y-13788929D01*
X14982357Y-13803214D01*
X14925214Y-13803214D01*
X14896643Y-13788929D01*
X15168071Y-13774643D02*
X15182357Y-13788929D01*
X15168071Y-13803214D01*
X15153786Y-13788929D01*
X15168071Y-13774643D01*
X15168071Y-13803214D01*
X15168071Y-13617500D02*
X15182357Y-13631786D01*
X15168071Y-13646071D01*
X15153786Y-13631786D01*
X15168071Y-13617500D01*
X15168071Y-13646071D01*
X12504500Y-14137500D02*
X12824500Y-14457500D01*
X12824500Y-14137500D02*
X12504500Y-14457500D01*
X13082357Y-14133214D02*
X13268071Y-14133214D01*
X13168071Y-14247500D01*
X13210928Y-14247500D01*
X13239500Y-14261786D01*
X13253786Y-14276071D01*
X13268071Y-14304643D01*
X13268071Y-14376071D01*
X13253786Y-14404643D01*
X13239500Y-14418929D01*
X13210928Y-14433214D01*
X13125214Y-14433214D01*
X13096643Y-14418929D01*
X13082357Y-14404643D01*
X13396643Y-14404643D02*
X13410928Y-14418929D01*
X13396643Y-14433214D01*
X13382357Y-14418929D01*
X13396643Y-14404643D01*
X13396643Y-14433214D01*
X13525214Y-14161786D02*
X13539500Y-14147500D01*
X13568071Y-14133214D01*
X13639500Y-14133214D01*
X13668071Y-14147500D01*
X13682357Y-14161786D01*
X13696643Y-14190357D01*
X13696643Y-14218929D01*
X13682357Y-14261786D01*
X13510928Y-14433214D01*
X13696643Y-14433214D01*
X13882357Y-14133214D02*
X13910928Y-14133214D01*
X13939500Y-14147500D01*
X13953786Y-14161786D01*
X13968071Y-14190357D01*
X13982357Y-14247500D01*
X13982357Y-14318929D01*
X13968071Y-14376071D01*
X13953786Y-14404643D01*
X13939500Y-14418929D01*
X13910928Y-14433214D01*
X13882357Y-14433214D01*
X13853786Y-14418929D01*
X13839500Y-14404643D01*
X13825214Y-14376071D01*
X13810928Y-14318929D01*
X13810928Y-14247500D01*
X13825214Y-14190357D01*
X13839500Y-14161786D01*
X13853786Y-14147500D01*
X13882357Y-14133214D01*
X14168071Y-14133214D02*
X14196643Y-14133214D01*
X14225214Y-14147500D01*
X14239500Y-14161786D01*
X14253786Y-14190357D01*
X14268071Y-14247500D01*
X14268071Y-14318929D01*
X14253786Y-14376071D01*
X14239500Y-14404643D01*
X14225214Y-14418929D01*
X14196643Y-14433214D01*
X14168071Y-14433214D01*
X14139500Y-14418929D01*
X14125214Y-14404643D01*
X14110928Y-14376071D01*
X14096643Y-14318929D01*
X14096643Y-14247500D01*
X14110928Y-14190357D01*
X14125214Y-14161786D01*
X14139500Y-14147500D01*
X14168071Y-14133214D01*
X14396643Y-14433214D02*
X14396643Y-14233214D01*
X14396643Y-14261786D02*
X14410928Y-14247500D01*
X14439500Y-14233214D01*
X14482357Y-14233214D01*
X14510928Y-14247500D01*
X14525214Y-14276071D01*
X14525214Y-14433214D01*
X14525214Y-14276071D02*
X14539500Y-14247500D01*
X14568071Y-14233214D01*
X14610928Y-14233214D01*
X14639500Y-14247500D01*
X14653786Y-14276071D01*
X14653786Y-14433214D01*
X14796643Y-14433214D02*
X14796643Y-14233214D01*
X14796643Y-14261786D02*
X14810928Y-14247500D01*
X14839500Y-14233214D01*
X14882357Y-14233214D01*
X14910928Y-14247500D01*
X14925214Y-14276071D01*
X14925214Y-14433214D01*
X14925214Y-14276071D02*
X14939500Y-14247500D01*
X14968071Y-14233214D01*
X15010928Y-14233214D01*
X15039500Y-14247500D01*
X15053786Y-14276071D01*
X15053786Y-14433214D01*
X15639500Y-14118929D02*
X15382357Y-14504643D01*
X16025214Y-14133214D02*
X16053786Y-14133214D01*
X16082357Y-14147500D01*
X16096643Y-14161786D01*
X16110928Y-14190357D01*
X16125214Y-14247500D01*
X16125214Y-14318929D01*
X16110928Y-14376071D01*
X16096643Y-14404643D01*
X16082357Y-14418929D01*
X16053786Y-14433214D01*
X16025214Y-14433214D01*
X15996643Y-14418929D01*
X15982357Y-14404643D01*
X15968071Y-14376071D01*
X15953786Y-14318929D01*
X15953786Y-14247500D01*
X15968071Y-14190357D01*
X15982357Y-14161786D01*
X15996643Y-14147500D01*
X16025214Y-14133214D01*
X16253786Y-14404643D02*
X16268071Y-14418929D01*
X16253786Y-14433214D01*
X16239500Y-14418929D01*
X16253786Y-14404643D01*
X16253786Y-14433214D01*
X16553786Y-14433214D02*
X16382357Y-14433214D01*
X16468071Y-14433214D02*
X16468071Y-14133214D01*
X16439500Y-14176071D01*
X16410928Y-14204643D01*
X16382357Y-14218929D01*
X16668071Y-14161786D02*
X16682357Y-14147500D01*
X16710928Y-14133214D01*
X16782357Y-14133214D01*
X16810928Y-14147500D01*
X16825214Y-14161786D01*
X16839500Y-14190357D01*
X16839500Y-14218929D01*
X16825214Y-14261786D01*
X16653786Y-14433214D01*
X16839500Y-14433214D01*
X17096643Y-14133214D02*
X17039500Y-14133214D01*
X17010928Y-14147500D01*
X16996643Y-14161786D01*
X16968071Y-14204643D01*
X16953786Y-14261786D01*
X16953786Y-14376071D01*
X16968071Y-14404643D01*
X16982357Y-14418929D01*
X17010928Y-14433214D01*
X17068071Y-14433214D01*
X17096643Y-14418929D01*
X17110928Y-14404643D01*
X17125214Y-14376071D01*
X17125214Y-14304643D01*
X17110928Y-14276071D01*
X17096643Y-14261786D01*
X17068071Y-14247500D01*
X17010928Y-14247500D01*
X16982357Y-14261786D01*
X16968071Y-14276071D01*
X16953786Y-14304643D01*
X17310928Y-14133214D02*
X17339500Y-14133214D01*
X17368071Y-14147500D01*
X17382357Y-14161786D01*
X17396643Y-14190357D01*
X17410928Y-14247500D01*
X17410928Y-14318929D01*
X17396643Y-14376071D01*
X17382357Y-14404643D01*
X17368071Y-14418929D01*
X17339500Y-14433214D01*
X17310928Y-14433214D01*
X17282357Y-14418929D01*
X17268071Y-14404643D01*
X17253786Y-14376071D01*
X17239500Y-14318929D01*
X17239500Y-14247500D01*
X17253786Y-14190357D01*
X17268071Y-14161786D01*
X17282357Y-14147500D01*
X17310928Y-14133214D01*
X17525214Y-14133214D02*
X17525214Y-14190357D01*
X17639500Y-14133214D02*
X17639500Y-14190357D01*
X18082357Y-14547500D02*
X18068071Y-14533214D01*
X18039500Y-14490357D01*
X18025214Y-14461786D01*
X18010928Y-14418929D01*
X17996643Y-14347500D01*
X17996643Y-14290357D01*
X18010928Y-14218929D01*
X18025214Y-14176071D01*
X18039500Y-14147500D01*
X18068071Y-14104643D01*
X18082357Y-14090357D01*
X18325214Y-14233214D02*
X18325214Y-14433214D01*
X18253786Y-14118929D02*
X18182357Y-14333214D01*
X18368071Y-14333214D01*
X18710928Y-14433214D02*
X18710928Y-14133214D01*
X18839500Y-14433214D02*
X18839500Y-14276071D01*
X18825214Y-14247500D01*
X18796643Y-14233214D01*
X18753786Y-14233214D01*
X18725214Y-14247500D01*
X18710928Y-14261786D01*
X19025214Y-14433214D02*
X18996643Y-14418929D01*
X18982357Y-14404643D01*
X18968071Y-14376071D01*
X18968071Y-14290357D01*
X18982357Y-14261786D01*
X18996643Y-14247500D01*
X19025214Y-14233214D01*
X19068071Y-14233214D01*
X19096643Y-14247500D01*
X19110928Y-14261786D01*
X19125214Y-14290357D01*
X19125214Y-14376071D01*
X19110928Y-14404643D01*
X19096643Y-14418929D01*
X19068071Y-14433214D01*
X19025214Y-14433214D01*
X19296643Y-14433214D02*
X19268071Y-14418929D01*
X19253786Y-14390357D01*
X19253786Y-14133214D01*
X19525214Y-14418929D02*
X19496643Y-14433214D01*
X19439500Y-14433214D01*
X19410928Y-14418929D01*
X19396643Y-14390357D01*
X19396643Y-14276071D01*
X19410928Y-14247500D01*
X19439500Y-14233214D01*
X19496643Y-14233214D01*
X19525214Y-14247500D01*
X19539500Y-14276071D01*
X19539500Y-14304643D01*
X19396643Y-14333214D01*
X19653786Y-14418929D02*
X19682357Y-14433214D01*
X19739500Y-14433214D01*
X19768071Y-14418929D01*
X19782357Y-14390357D01*
X19782357Y-14376071D01*
X19768071Y-14347500D01*
X19739500Y-14333214D01*
X19696643Y-14333214D01*
X19668071Y-14318929D01*
X19653786Y-14290357D01*
X19653786Y-14276071D01*
X19668071Y-14247500D01*
X19696643Y-14233214D01*
X19739500Y-14233214D01*
X19768071Y-14247500D01*
X19882357Y-14547500D02*
X19896643Y-14533214D01*
X19925214Y-14490357D01*
X19939500Y-14461786D01*
X19953786Y-14418929D01*
X19968071Y-14347500D01*
X19968071Y-14290357D01*
X19953786Y-14218929D01*
X19939500Y-14176071D01*
X19925214Y-14147500D01*
X19896643Y-14104643D01*
X19882357Y-14090357D01*
X20425214Y-14547500D02*
X20410928Y-14533214D01*
X20382357Y-14490357D01*
X20368071Y-14461786D01*
X20353786Y-14418929D01*
X20339500Y-14347500D01*
X20339500Y-14290357D01*
X20353786Y-14218929D01*
X20368071Y-14176071D01*
X20382357Y-14147500D01*
X20410928Y-14104643D01*
X20425214Y-14090357D01*
X20539500Y-14233214D02*
X20539500Y-14433214D01*
X20539500Y-14261786D02*
X20553786Y-14247500D01*
X20582357Y-14233214D01*
X20625214Y-14233214D01*
X20653786Y-14247500D01*
X20668071Y-14276071D01*
X20668071Y-14433214D01*
X20853786Y-14433214D02*
X20825214Y-14418929D01*
X20810928Y-14404643D01*
X20796643Y-14376071D01*
X20796643Y-14290357D01*
X20810928Y-14261786D01*
X20825214Y-14247500D01*
X20853786Y-14233214D01*
X20896643Y-14233214D01*
X20925214Y-14247500D01*
X20939500Y-14261786D01*
X20953786Y-14290357D01*
X20953786Y-14376071D01*
X20939500Y-14404643D01*
X20925214Y-14418929D01*
X20896643Y-14433214D01*
X20853786Y-14433214D01*
X21039500Y-14233214D02*
X21153786Y-14233214D01*
X21082357Y-14133214D02*
X21082357Y-14390357D01*
X21096643Y-14418929D01*
X21125214Y-14433214D01*
X21153786Y-14433214D01*
X21482357Y-14233214D02*
X21482357Y-14533214D01*
X21482357Y-14247500D02*
X21510928Y-14233214D01*
X21568071Y-14233214D01*
X21596643Y-14247500D01*
X21610928Y-14261786D01*
X21625214Y-14290357D01*
X21625214Y-14376071D01*
X21610928Y-14404643D01*
X21596643Y-14418929D01*
X21568071Y-14433214D01*
X21510928Y-14433214D01*
X21482357Y-14418929D01*
X21796643Y-14433214D02*
X21768071Y-14418929D01*
X21753786Y-14390357D01*
X21753786Y-14133214D01*
X22039500Y-14433214D02*
X22039500Y-14276071D01*
X22025214Y-14247500D01*
X21996643Y-14233214D01*
X21939500Y-14233214D01*
X21910928Y-14247500D01*
X22039500Y-14418929D02*
X22010928Y-14433214D01*
X21939500Y-14433214D01*
X21910928Y-14418929D01*
X21896643Y-14390357D01*
X21896643Y-14361786D01*
X21910928Y-14333214D01*
X21939500Y-14318929D01*
X22010928Y-14318929D01*
X22039500Y-14304643D01*
X22139500Y-14233214D02*
X22253786Y-14233214D01*
X22182357Y-14133214D02*
X22182357Y-14390357D01*
X22196643Y-14418929D01*
X22225214Y-14433214D01*
X22253786Y-14433214D01*
X22468071Y-14418929D02*
X22439500Y-14433214D01*
X22382357Y-14433214D01*
X22353786Y-14418929D01*
X22339500Y-14390357D01*
X22339500Y-14276071D01*
X22353786Y-14247500D01*
X22382357Y-14233214D01*
X22439500Y-14233214D01*
X22468071Y-14247500D01*
X22482357Y-14276071D01*
X22482357Y-14304643D01*
X22339500Y-14333214D01*
X22739500Y-14433214D02*
X22739500Y-14133214D01*
X22739500Y-14418929D02*
X22710928Y-14433214D01*
X22653786Y-14433214D01*
X22625214Y-14418929D01*
X22610928Y-14404643D01*
X22596643Y-14376071D01*
X22596643Y-14290357D01*
X22610928Y-14261786D01*
X22625214Y-14247500D01*
X22653786Y-14233214D01*
X22710928Y-14233214D01*
X22739500Y-14247500D01*
X22853786Y-14547500D02*
X22868071Y-14533214D01*
X22896643Y-14490357D01*
X22910928Y-14461786D01*
X22925214Y-14418929D01*
X22939500Y-14347500D01*
X22939500Y-14290357D01*
X22925214Y-14218929D01*
X22910928Y-14176071D01*
X22896643Y-14147500D01*
X22868071Y-14104643D01*
X22853786Y-14090357D01*
M02*
