%TF.GenerationSoftware,KiCad,Pcbnew,(5.1.10)-1*%
%TF.CreationDate,2022-06-10T21:35:43+02:00*%
%TF.ProjectId,Lin-bus card,4c696e2d-6275-4732-9063-6172642e6b69,rev?*%
%TF.SameCoordinates,Original*%
%TF.FileFunction,Soldermask,Bot*%
%TF.FilePolarity,Negative*%
%FSLAX46Y46*%
G04 Gerber Fmt 4.6, Leading zero omitted, Abs format (unit mm)*
G04 Created by KiCad (PCBNEW (5.1.10)-1) date 2022-06-10 21:35:43*
%MOMM*%
%LPD*%
G01*
G04 APERTURE LIST*
%ADD10R,1.800000X1.800000*%
%ADD11C,1.800000*%
%ADD12O,1.700000X1.700000*%
%ADD13R,1.700000X1.700000*%
%ADD14R,1.600000X1.600000*%
%ADD15C,1.600000*%
%ADD16C,4.000000*%
%ADD17O,1.600000X1.600000*%
%ADD18C,3.200000*%
%ADD19R,2.000000X2.000000*%
%ADD20C,2.000000*%
G04 APERTURE END LIST*
D10*
X140970000Y-62230000D03*
D11*
X143510000Y-62230000D03*
D12*
X167640000Y-85090000D03*
X167640000Y-87630000D03*
X167640000Y-90170000D03*
X167640000Y-92710000D03*
X167640000Y-95250000D03*
X167640000Y-97790000D03*
X167640000Y-100330000D03*
X167640000Y-102870000D03*
X167640000Y-105410000D03*
D13*
X167640000Y-107950000D03*
X142240000Y-107950000D03*
D12*
X142240000Y-105410000D03*
X142240000Y-102870000D03*
X142240000Y-100330000D03*
X142240000Y-97790000D03*
X142240000Y-95250000D03*
X142240000Y-92710000D03*
X142240000Y-90170000D03*
X142240000Y-87630000D03*
X142240000Y-85090000D03*
D14*
X151130000Y-53975000D03*
D15*
X148360000Y-53975000D03*
X145590000Y-53975000D03*
X142820000Y-53975000D03*
X140050000Y-53975000D03*
X149745000Y-51135000D03*
X146975000Y-51135000D03*
X144205000Y-51135000D03*
X141435000Y-51135000D03*
D16*
X158090000Y-52555000D03*
X133090000Y-52555000D03*
D14*
X154178000Y-92710000D03*
D17*
X146558000Y-85090000D03*
X154178000Y-90170000D03*
X146558000Y-87630000D03*
X154178000Y-87630000D03*
X146558000Y-90170000D03*
X154178000Y-85090000D03*
X146558000Y-92710000D03*
D18*
X133350000Y-128270000D03*
X133350000Y-73660000D03*
X179070000Y-127000000D03*
X179070000Y-73660000D03*
D16*
X167640000Y-61220000D03*
X167640000Y-45720000D03*
X177800000Y-45720000D03*
X177800000Y-61220000D03*
D19*
X149860000Y-77470000D03*
D20*
X142240000Y-80010000D03*
X142240000Y-77470000D03*
X142240000Y-74930000D03*
X142240000Y-72390000D03*
D11*
X134620000Y-62230000D03*
D10*
X132080000Y-62230000D03*
M02*
