%TF.GenerationSoftware,KiCad,Pcbnew,(5.1.10)-1*%
%TF.CreationDate,2022-06-10T21:35:43+02:00*%
%TF.ProjectId,Lin-bus card,4c696e2d-6275-4732-9063-6172642e6b69,rev?*%
%TF.SameCoordinates,Original*%
%TF.FileFunction,Copper,L1,Top*%
%TF.FilePolarity,Positive*%
%FSLAX46Y46*%
G04 Gerber Fmt 4.6, Leading zero omitted, Abs format (unit mm)*
G04 Created by KiCad (PCBNEW (5.1.10)-1) date 2022-06-10 21:35:43*
%MOMM*%
%LPD*%
G01*
G04 APERTURE LIST*
%TA.AperFunction,ComponentPad*%
%ADD10R,1.800000X1.800000*%
%TD*%
%TA.AperFunction,ComponentPad*%
%ADD11C,1.800000*%
%TD*%
%TA.AperFunction,SMDPad,CuDef*%
%ADD12R,0.900000X0.800000*%
%TD*%
%TA.AperFunction,SMDPad,CuDef*%
%ADD13R,2.150000X5.700000*%
%TD*%
%TA.AperFunction,SMDPad,CuDef*%
%ADD14R,1.100000X1.100000*%
%TD*%
%TA.AperFunction,SMDPad,CuDef*%
%ADD15R,2.500000X1.800000*%
%TD*%
%TA.AperFunction,SMDPad,CuDef*%
%ADD16R,0.600000X0.450000*%
%TD*%
%TA.AperFunction,ComponentPad*%
%ADD17O,1.700000X1.700000*%
%TD*%
%TA.AperFunction,ComponentPad*%
%ADD18R,1.700000X1.700000*%
%TD*%
%TA.AperFunction,ComponentPad*%
%ADD19R,1.600000X1.600000*%
%TD*%
%TA.AperFunction,ComponentPad*%
%ADD20C,1.600000*%
%TD*%
%TA.AperFunction,ComponentPad*%
%ADD21C,4.000000*%
%TD*%
%TA.AperFunction,SMDPad,CuDef*%
%ADD22R,1.600000X1.900000*%
%TD*%
%TA.AperFunction,SMDPad,CuDef*%
%ADD23R,1.100000X4.600000*%
%TD*%
%TA.AperFunction,SMDPad,CuDef*%
%ADD24R,10.800000X9.400000*%
%TD*%
%TA.AperFunction,ComponentPad*%
%ADD25O,1.600000X1.600000*%
%TD*%
%TA.AperFunction,ComponentPad*%
%ADD26R,2.000000X2.000000*%
%TD*%
%TA.AperFunction,ComponentPad*%
%ADD27C,2.000000*%
%TD*%
%TA.AperFunction,ViaPad*%
%ADD28C,0.800000*%
%TD*%
%TA.AperFunction,Conductor*%
%ADD29C,0.250000*%
%TD*%
%TA.AperFunction,Conductor*%
%ADD30C,1.000000*%
%TD*%
%TA.AperFunction,Conductor*%
%ADD31C,0.254000*%
%TD*%
%TA.AperFunction,Conductor*%
%ADD32C,0.100000*%
%TD*%
G04 APERTURE END LIST*
D10*
X140970000Y-62230000D03*
D11*
X143510000Y-62230000D03*
D12*
X150860000Y-109220000D03*
X148860000Y-110170000D03*
X148860000Y-108270000D03*
D13*
X166370000Y-126238000D03*
X166370000Y-116038000D03*
%TA.AperFunction,SMDPad,CuDef*%
G36*
G01*
X149268000Y-97540000D02*
X149268000Y-98040000D01*
G75*
G02*
X149043000Y-98265000I-225000J0D01*
G01*
X148593000Y-98265000D01*
G75*
G02*
X148368000Y-98040000I0J225000D01*
G01*
X148368000Y-97540000D01*
G75*
G02*
X148593000Y-97315000I225000J0D01*
G01*
X149043000Y-97315000D01*
G75*
G02*
X149268000Y-97540000I0J-225000D01*
G01*
G37*
%TD.AperFunction*%
%TA.AperFunction,SMDPad,CuDef*%
G36*
G01*
X150818000Y-97540000D02*
X150818000Y-98040000D01*
G75*
G02*
X150593000Y-98265000I-225000J0D01*
G01*
X150143000Y-98265000D01*
G75*
G02*
X149918000Y-98040000I0J225000D01*
G01*
X149918000Y-97540000D01*
G75*
G02*
X150143000Y-97315000I225000J0D01*
G01*
X150593000Y-97315000D01*
G75*
G02*
X150818000Y-97540000I0J-225000D01*
G01*
G37*
%TD.AperFunction*%
%TA.AperFunction,SMDPad,CuDef*%
G36*
G01*
X148368000Y-99818000D02*
X148368000Y-99318000D01*
G75*
G02*
X148593000Y-99093000I225000J0D01*
G01*
X149043000Y-99093000D01*
G75*
G02*
X149268000Y-99318000I0J-225000D01*
G01*
X149268000Y-99818000D01*
G75*
G02*
X149043000Y-100043000I-225000J0D01*
G01*
X148593000Y-100043000D01*
G75*
G02*
X148368000Y-99818000I0J225000D01*
G01*
G37*
%TD.AperFunction*%
%TA.AperFunction,SMDPad,CuDef*%
G36*
G01*
X149918000Y-99818000D02*
X149918000Y-99318000D01*
G75*
G02*
X150143000Y-99093000I225000J0D01*
G01*
X150593000Y-99093000D01*
G75*
G02*
X150818000Y-99318000I0J-225000D01*
G01*
X150818000Y-99818000D01*
G75*
G02*
X150593000Y-100043000I-225000J0D01*
G01*
X150143000Y-100043000D01*
G75*
G02*
X149918000Y-99818000I0J225000D01*
G01*
G37*
%TD.AperFunction*%
%TA.AperFunction,SMDPad,CuDef*%
G36*
G01*
X140420000Y-120518000D02*
X141520000Y-120518000D01*
G75*
G02*
X141770000Y-120768000I0J-250000D01*
G01*
X141770000Y-123768000D01*
G75*
G02*
X141520000Y-124018000I-250000J0D01*
G01*
X140420000Y-124018000D01*
G75*
G02*
X140170000Y-123768000I0J250000D01*
G01*
X140170000Y-120768000D01*
G75*
G02*
X140420000Y-120518000I250000J0D01*
G01*
G37*
%TD.AperFunction*%
%TA.AperFunction,SMDPad,CuDef*%
G36*
G01*
X140420000Y-125918000D02*
X141520000Y-125918000D01*
G75*
G02*
X141770000Y-126168000I0J-250000D01*
G01*
X141770000Y-129168000D01*
G75*
G02*
X141520000Y-129418000I-250000J0D01*
G01*
X140420000Y-129418000D01*
G75*
G02*
X140170000Y-129168000I0J250000D01*
G01*
X140170000Y-126168000D01*
G75*
G02*
X140420000Y-125918000I250000J0D01*
G01*
G37*
%TD.AperFunction*%
D14*
X158750000Y-89916000D03*
X161550000Y-89916000D03*
D15*
X162306000Y-98044000D03*
X158306000Y-98044000D03*
X158306000Y-93980000D03*
X162306000Y-93980000D03*
D16*
X161324000Y-84582000D03*
X159224000Y-84582000D03*
D15*
X162306000Y-102616000D03*
X158306000Y-102616000D03*
D16*
X159224000Y-86868000D03*
X161324000Y-86868000D03*
D17*
X167640000Y-85090000D03*
X167640000Y-87630000D03*
X167640000Y-90170000D03*
X167640000Y-92710000D03*
X167640000Y-95250000D03*
X167640000Y-97790000D03*
X167640000Y-100330000D03*
X167640000Y-102870000D03*
X167640000Y-105410000D03*
D18*
X167640000Y-107950000D03*
X142240000Y-107950000D03*
D17*
X142240000Y-105410000D03*
X142240000Y-102870000D03*
X142240000Y-100330000D03*
X142240000Y-97790000D03*
X142240000Y-95250000D03*
X142240000Y-92710000D03*
X142240000Y-90170000D03*
X142240000Y-87630000D03*
X142240000Y-85090000D03*
D19*
X151130000Y-53975000D03*
D20*
X148360000Y-53975000D03*
X145590000Y-53975000D03*
X142820000Y-53975000D03*
X140050000Y-53975000D03*
X149745000Y-51135000D03*
X146975000Y-51135000D03*
X144205000Y-51135000D03*
X141435000Y-51135000D03*
D21*
X158090000Y-52555000D03*
X133090000Y-52555000D03*
D22*
X140970000Y-113248000D03*
X140970000Y-117348000D03*
%TA.AperFunction,SMDPad,CuDef*%
G36*
G01*
X149968000Y-96287000D02*
X149968000Y-95737000D01*
G75*
G02*
X150168000Y-95537000I200000J0D01*
G01*
X150568000Y-95537000D01*
G75*
G02*
X150768000Y-95737000I0J-200000D01*
G01*
X150768000Y-96287000D01*
G75*
G02*
X150568000Y-96487000I-200000J0D01*
G01*
X150168000Y-96487000D01*
G75*
G02*
X149968000Y-96287000I0J200000D01*
G01*
G37*
%TD.AperFunction*%
%TA.AperFunction,SMDPad,CuDef*%
G36*
G01*
X148318000Y-96287000D02*
X148318000Y-95737000D01*
G75*
G02*
X148518000Y-95537000I200000J0D01*
G01*
X148918000Y-95537000D01*
G75*
G02*
X149118000Y-95737000I0J-200000D01*
G01*
X149118000Y-96287000D01*
G75*
G02*
X148918000Y-96487000I-200000J0D01*
G01*
X148518000Y-96487000D01*
G75*
G02*
X148318000Y-96287000I0J200000D01*
G01*
G37*
%TD.AperFunction*%
%TA.AperFunction,SMDPad,CuDef*%
G36*
G01*
X150768000Y-102849000D02*
X150768000Y-103399000D01*
G75*
G02*
X150568000Y-103599000I-200000J0D01*
G01*
X150168000Y-103599000D01*
G75*
G02*
X149968000Y-103399000I0J200000D01*
G01*
X149968000Y-102849000D01*
G75*
G02*
X150168000Y-102649000I200000J0D01*
G01*
X150568000Y-102649000D01*
G75*
G02*
X150768000Y-102849000I0J-200000D01*
G01*
G37*
%TD.AperFunction*%
%TA.AperFunction,SMDPad,CuDef*%
G36*
G01*
X149118000Y-102849000D02*
X149118000Y-103399000D01*
G75*
G02*
X148918000Y-103599000I-200000J0D01*
G01*
X148518000Y-103599000D01*
G75*
G02*
X148318000Y-103399000I0J200000D01*
G01*
X148318000Y-102849000D01*
G75*
G02*
X148518000Y-102649000I200000J0D01*
G01*
X148918000Y-102649000D01*
G75*
G02*
X149118000Y-102849000I0J-200000D01*
G01*
G37*
%TD.AperFunction*%
%TA.AperFunction,SMDPad,CuDef*%
G36*
G01*
X150768000Y-101071000D02*
X150768000Y-101621000D01*
G75*
G02*
X150568000Y-101821000I-200000J0D01*
G01*
X150168000Y-101821000D01*
G75*
G02*
X149968000Y-101621000I0J200000D01*
G01*
X149968000Y-101071000D01*
G75*
G02*
X150168000Y-100871000I200000J0D01*
G01*
X150568000Y-100871000D01*
G75*
G02*
X150768000Y-101071000I0J-200000D01*
G01*
G37*
%TD.AperFunction*%
%TA.AperFunction,SMDPad,CuDef*%
G36*
G01*
X149118000Y-101071000D02*
X149118000Y-101621000D01*
G75*
G02*
X148918000Y-101821000I-200000J0D01*
G01*
X148518000Y-101821000D01*
G75*
G02*
X148318000Y-101621000I0J200000D01*
G01*
X148318000Y-101071000D01*
G75*
G02*
X148518000Y-100871000I200000J0D01*
G01*
X148918000Y-100871000D01*
G75*
G02*
X149118000Y-101071000I0J-200000D01*
G01*
G37*
%TD.AperFunction*%
D23*
X155800000Y-115818000D03*
X154100000Y-115818000D03*
X152400000Y-115818000D03*
X150700000Y-115818000D03*
X149000000Y-115818000D03*
D24*
X152400000Y-124968000D03*
D19*
X154178000Y-92710000D03*
D25*
X146558000Y-85090000D03*
X154178000Y-90170000D03*
X146558000Y-87630000D03*
X154178000Y-87630000D03*
X146558000Y-90170000D03*
X154178000Y-85090000D03*
X146558000Y-92710000D03*
%TA.AperFunction,SMDPad,CuDef*%
G36*
G01*
X147351000Y-105806001D02*
X147351000Y-104505999D01*
G75*
G02*
X147600999Y-104256000I249999J0D01*
G01*
X148251001Y-104256000D01*
G75*
G02*
X148501000Y-104505999I0J-249999D01*
G01*
X148501000Y-105806001D01*
G75*
G02*
X148251001Y-106056000I-249999J0D01*
G01*
X147600999Y-106056000D01*
G75*
G02*
X147351000Y-105806001I0J249999D01*
G01*
G37*
%TD.AperFunction*%
%TA.AperFunction,SMDPad,CuDef*%
G36*
G01*
X150301000Y-105806001D02*
X150301000Y-104505999D01*
G75*
G02*
X150550999Y-104256000I249999J0D01*
G01*
X151201001Y-104256000D01*
G75*
G02*
X151451000Y-104505999I0J-249999D01*
G01*
X151451000Y-105806001D01*
G75*
G02*
X151201001Y-106056000I-249999J0D01*
G01*
X150550999Y-106056000D01*
G75*
G02*
X150301000Y-105806001I0J249999D01*
G01*
G37*
%TD.AperFunction*%
D21*
X167640000Y-61220000D03*
X167640000Y-45720000D03*
X177800000Y-45720000D03*
X177800000Y-61220000D03*
D26*
X149860000Y-77470000D03*
D27*
X142240000Y-80010000D03*
X142240000Y-77470000D03*
X142240000Y-74930000D03*
X142240000Y-72390000D03*
D11*
X134620000Y-62230000D03*
D10*
X132080000Y-62230000D03*
%TA.AperFunction,SMDPad,CuDef*%
G36*
G01*
X149370000Y-63860000D02*
X149370000Y-64410000D01*
G75*
G02*
X149170000Y-64610000I-200000J0D01*
G01*
X148770000Y-64610000D01*
G75*
G02*
X148570000Y-64410000I0J200000D01*
G01*
X148570000Y-63860000D01*
G75*
G02*
X148770000Y-63660000I200000J0D01*
G01*
X149170000Y-63660000D01*
G75*
G02*
X149370000Y-63860000I0J-200000D01*
G01*
G37*
%TD.AperFunction*%
%TA.AperFunction,SMDPad,CuDef*%
G36*
G01*
X147720000Y-63860000D02*
X147720000Y-64410000D01*
G75*
G02*
X147520000Y-64610000I-200000J0D01*
G01*
X147120000Y-64610000D01*
G75*
G02*
X146920000Y-64410000I0J200000D01*
G01*
X146920000Y-63860000D01*
G75*
G02*
X147120000Y-63660000I200000J0D01*
G01*
X147520000Y-63660000D01*
G75*
G02*
X147720000Y-63860000I0J-200000D01*
G01*
G37*
%TD.AperFunction*%
%TA.AperFunction,SMDPad,CuDef*%
G36*
G01*
X147720000Y-61955000D02*
X147720000Y-62505000D01*
G75*
G02*
X147520000Y-62705000I-200000J0D01*
G01*
X147120000Y-62705000D01*
G75*
G02*
X146920000Y-62505000I0J200000D01*
G01*
X146920000Y-61955000D01*
G75*
G02*
X147120000Y-61755000I200000J0D01*
G01*
X147520000Y-61755000D01*
G75*
G02*
X147720000Y-61955000I0J-200000D01*
G01*
G37*
%TD.AperFunction*%
%TA.AperFunction,SMDPad,CuDef*%
G36*
G01*
X149370000Y-61955000D02*
X149370000Y-62505000D01*
G75*
G02*
X149170000Y-62705000I-200000J0D01*
G01*
X148770000Y-62705000D01*
G75*
G02*
X148570000Y-62505000I0J200000D01*
G01*
X148570000Y-61955000D01*
G75*
G02*
X148770000Y-61755000I200000J0D01*
G01*
X149170000Y-61755000D01*
G75*
G02*
X149370000Y-61955000I0J-200000D01*
G01*
G37*
%TD.AperFunction*%
D28*
X136525000Y-104140000D03*
X147828000Y-106680000D03*
X156972000Y-90424000D03*
D29*
X149000000Y-121568000D02*
X152400000Y-124968000D01*
X149700000Y-127668000D02*
X152400000Y-124968000D01*
X153670000Y-126238000D02*
X152400000Y-124968000D01*
X148818000Y-98018000D02*
X150368000Y-99568000D01*
X148818000Y-97790000D02*
X148818000Y-98018000D01*
X150368000Y-99568000D02*
X150622000Y-99568000D01*
X148718000Y-96140000D02*
X150368000Y-97790000D01*
X148718000Y-96012000D02*
X148718000Y-96140000D01*
X148718000Y-95630000D02*
X154178000Y-90170000D01*
X148718000Y-96012000D02*
X148718000Y-95630000D01*
X148590000Y-64135000D02*
X148970000Y-64135000D01*
X139264962Y-73460038D02*
X148590000Y-64135000D01*
X139264962Y-102434962D02*
X139264962Y-73460038D01*
X142240000Y-105410000D02*
X139264962Y-102434962D01*
X145432999Y-88755001D02*
X146558000Y-87630000D01*
X145432999Y-96182999D02*
X145432999Y-88755001D01*
X148818000Y-99568000D02*
X145432999Y-96182999D01*
X147025990Y-101360010D02*
X148818000Y-99568000D01*
X147025990Y-108335990D02*
X147025990Y-101360010D01*
X148860000Y-110170000D02*
X147025990Y-108335990D01*
X147234999Y-51394999D02*
X146975000Y-51135000D01*
X157590999Y-86215001D02*
X159224000Y-84582000D01*
X147972999Y-86215001D02*
X157590999Y-86215001D01*
X146558000Y-87630000D02*
X147972999Y-86215001D01*
X156020000Y-116038000D02*
X155800000Y-115818000D01*
D30*
X166150000Y-115818000D02*
X166370000Y-116038000D01*
X155800000Y-115818000D02*
X166150000Y-115818000D01*
X162306000Y-93980000D02*
X162306000Y-98044000D01*
X164256001Y-113924001D02*
X166370000Y-116038000D01*
X164256001Y-99994001D02*
X164256001Y-113924001D01*
X162306000Y-98044000D02*
X164256001Y-99994001D01*
D29*
X162306000Y-93980000D02*
X163830000Y-92456000D01*
X163830000Y-92456000D02*
X163830000Y-85977998D01*
X155322002Y-77470000D02*
X149860000Y-77470000D01*
X163830000Y-85977998D02*
X155322002Y-77470000D01*
X150700000Y-115818000D02*
X150700000Y-113268000D01*
D30*
X140970000Y-117348000D02*
X140970000Y-122268000D01*
X145500001Y-112817999D02*
X140970000Y-117348000D01*
X150110001Y-112817999D02*
X145500001Y-112817999D01*
X150700000Y-113407998D02*
X150110001Y-112817999D01*
X150700000Y-115818000D02*
X150700000Y-113407998D01*
X139469999Y-115847999D02*
X140970000Y-117348000D01*
X139469999Y-110720001D02*
X139469999Y-115847999D01*
X142240000Y-107950000D02*
X139469999Y-110720001D01*
D29*
X155448000Y-98044000D02*
X150368000Y-103124000D01*
X158306000Y-98044000D02*
X155448000Y-98044000D01*
X150940000Y-101346000D02*
X158306000Y-93980000D01*
X150368000Y-101346000D02*
X150940000Y-101346000D01*
X161324000Y-86868000D02*
X161324000Y-84582000D01*
X141475010Y-112742990D02*
X140970000Y-113248000D01*
X154100000Y-110822000D02*
X154100000Y-115818000D01*
X162306000Y-102616000D02*
X154100000Y-110822000D01*
X154100000Y-113268000D02*
X154100000Y-115818000D01*
X152824989Y-111992989D02*
X154100000Y-113268000D01*
X141025011Y-111992989D02*
X152824989Y-111992989D01*
X140970000Y-112048000D02*
X141025011Y-111992989D01*
X140970000Y-113248000D02*
X140970000Y-112048000D01*
X150876000Y-96012000D02*
X154178000Y-92710000D01*
X150368000Y-96012000D02*
X150876000Y-96012000D01*
X157878999Y-89044999D02*
X158750000Y-89916000D01*
X147683001Y-89044999D02*
X157878999Y-89044999D01*
X146558000Y-90170000D02*
X147683001Y-89044999D01*
X148844000Y-103150000D02*
X148818000Y-103124000D01*
X148718000Y-104364000D02*
X147926000Y-105156000D01*
X148718000Y-103124000D02*
X148718000Y-104364000D01*
X147926000Y-106582000D02*
X147828000Y-106680000D01*
X147926000Y-105156000D02*
X147926000Y-106582000D01*
X158242000Y-90424000D02*
X158750000Y-89916000D01*
X156972000Y-90424000D02*
X158242000Y-90424000D01*
X141064999Y-81185001D02*
X142240000Y-80010000D01*
X141064999Y-88994999D02*
X141064999Y-81185001D01*
X142240000Y-90170000D02*
X141064999Y-88994999D01*
X140614990Y-79095010D02*
X142240000Y-77470000D01*
X140614990Y-91084990D02*
X140614990Y-79095010D01*
X142240000Y-92710000D02*
X140614990Y-91084990D01*
X140164980Y-77005020D02*
X142240000Y-74930000D01*
X140164980Y-93174980D02*
X140164980Y-77005020D01*
X142240000Y-95250000D02*
X140164980Y-93174980D01*
X139714971Y-74915029D02*
X142240000Y-72390000D01*
X139714971Y-95264971D02*
X139714971Y-74915029D01*
X142240000Y-97790000D02*
X139714971Y-95264971D01*
X143415001Y-86265001D02*
X142240000Y-85090000D01*
X143415001Y-106160003D02*
X143415001Y-86265001D01*
X148149999Y-110895001D02*
X143415001Y-106160003D01*
X149454999Y-110895001D02*
X148149999Y-110895001D01*
X149635001Y-110714999D02*
X149454999Y-110895001D01*
X149635001Y-109045001D02*
X149635001Y-110714999D01*
X148860000Y-108270000D02*
X149635001Y-109045001D01*
X149642990Y-108002990D02*
X150860000Y-109220000D01*
X149642990Y-101870990D02*
X149642990Y-108002990D01*
X149118000Y-101346000D02*
X149642990Y-101870990D01*
X148718000Y-101346000D02*
X149118000Y-101346000D01*
X136525000Y-64135000D02*
X147320000Y-64135000D01*
X134620000Y-62230000D02*
X136525000Y-64135000D01*
X143510000Y-62230000D02*
X147320000Y-62230000D01*
X167640000Y-80900000D02*
X148970000Y-62230000D01*
X167640000Y-85090000D02*
X167640000Y-80900000D01*
D31*
X165593262Y-44040285D02*
X165304893Y-44471859D01*
X165106261Y-44951399D01*
X165005000Y-45460475D01*
X165005000Y-45979525D01*
X165106261Y-46488601D01*
X165304893Y-46968141D01*
X165593262Y-47399715D01*
X165960285Y-47766738D01*
X166391859Y-48055107D01*
X166871399Y-48253739D01*
X167380475Y-48355000D01*
X167899525Y-48355000D01*
X168408601Y-48253739D01*
X168888141Y-48055107D01*
X169319715Y-47766738D01*
X169518954Y-47567499D01*
X176132106Y-47567499D01*
X176348228Y-47934258D01*
X176808105Y-48174938D01*
X177306098Y-48321275D01*
X177823071Y-48367648D01*
X178339159Y-48312273D01*
X178834526Y-48157279D01*
X179251772Y-47934258D01*
X179467894Y-47567499D01*
X177800000Y-45899605D01*
X176132106Y-47567499D01*
X169518954Y-47567499D01*
X169686738Y-47399715D01*
X169975107Y-46968141D01*
X170173739Y-46488601D01*
X170275000Y-45979525D01*
X170275000Y-45743071D01*
X175152352Y-45743071D01*
X175207727Y-46259159D01*
X175362721Y-46754526D01*
X175585742Y-47171772D01*
X175952501Y-47387894D01*
X177620395Y-45720000D01*
X177979605Y-45720000D01*
X179647499Y-47387894D01*
X180014258Y-47171772D01*
X180254938Y-46711895D01*
X180401275Y-46213902D01*
X180447648Y-45696929D01*
X180392273Y-45180841D01*
X180237279Y-44685474D01*
X180014258Y-44268228D01*
X179647499Y-44052106D01*
X177979605Y-45720000D01*
X177620395Y-45720000D01*
X175952501Y-44052106D01*
X175585742Y-44268228D01*
X175345062Y-44728105D01*
X175198725Y-45226098D01*
X175152352Y-45743071D01*
X170275000Y-45743071D01*
X170275000Y-45460475D01*
X170173739Y-44951399D01*
X169975107Y-44471859D01*
X169686738Y-44040285D01*
X169326453Y-43680000D01*
X176245542Y-43680000D01*
X176132106Y-43872501D01*
X177800000Y-45540395D01*
X179467894Y-43872501D01*
X179354458Y-43680000D01*
X183490000Y-43680000D01*
X183490001Y-132690000D01*
X128930000Y-132690000D01*
X128930000Y-128049872D01*
X131115000Y-128049872D01*
X131115000Y-128490128D01*
X131200890Y-128921925D01*
X131369369Y-129328669D01*
X131613962Y-129694729D01*
X131925271Y-130006038D01*
X132291331Y-130250631D01*
X132698075Y-130419110D01*
X133129872Y-130505000D01*
X133570128Y-130505000D01*
X134001925Y-130419110D01*
X134408669Y-130250631D01*
X134774729Y-130006038D01*
X135086038Y-129694729D01*
X135270942Y-129418000D01*
X139531928Y-129418000D01*
X139544188Y-129542482D01*
X139580498Y-129662180D01*
X139639463Y-129772494D01*
X139718815Y-129869185D01*
X139815506Y-129948537D01*
X139925820Y-130007502D01*
X140045518Y-130043812D01*
X140170000Y-130056072D01*
X140684250Y-130053000D01*
X140843000Y-129894250D01*
X140843000Y-127795000D01*
X141097000Y-127795000D01*
X141097000Y-129894250D01*
X141255750Y-130053000D01*
X141770000Y-130056072D01*
X141894482Y-130043812D01*
X142014180Y-130007502D01*
X142124494Y-129948537D01*
X142221185Y-129869185D01*
X142300537Y-129772494D01*
X142356391Y-129668000D01*
X146361928Y-129668000D01*
X146374188Y-129792482D01*
X146410498Y-129912180D01*
X146469463Y-130022494D01*
X146548815Y-130119185D01*
X146645506Y-130198537D01*
X146755820Y-130257502D01*
X146875518Y-130293812D01*
X147000000Y-130306072D01*
X152114250Y-130303000D01*
X152273000Y-130144250D01*
X152273000Y-125095000D01*
X152527000Y-125095000D01*
X152527000Y-130144250D01*
X152685750Y-130303000D01*
X157800000Y-130306072D01*
X157924482Y-130293812D01*
X158044180Y-130257502D01*
X158154494Y-130198537D01*
X158251185Y-130119185D01*
X158330537Y-130022494D01*
X158389502Y-129912180D01*
X158425812Y-129792482D01*
X158438072Y-129668000D01*
X158437669Y-129088000D01*
X164656928Y-129088000D01*
X164669188Y-129212482D01*
X164705498Y-129332180D01*
X164764463Y-129442494D01*
X164843815Y-129539185D01*
X164940506Y-129618537D01*
X165050820Y-129677502D01*
X165170518Y-129713812D01*
X165295000Y-129726072D01*
X166084250Y-129723000D01*
X166243000Y-129564250D01*
X166243000Y-126365000D01*
X166497000Y-126365000D01*
X166497000Y-129564250D01*
X166655750Y-129723000D01*
X167445000Y-129726072D01*
X167569482Y-129713812D01*
X167689180Y-129677502D01*
X167799494Y-129618537D01*
X167896185Y-129539185D01*
X167975537Y-129442494D01*
X168034502Y-129332180D01*
X168070812Y-129212482D01*
X168083072Y-129088000D01*
X168080307Y-126779872D01*
X176835000Y-126779872D01*
X176835000Y-127220128D01*
X176920890Y-127651925D01*
X177089369Y-128058669D01*
X177333962Y-128424729D01*
X177645271Y-128736038D01*
X178011331Y-128980631D01*
X178418075Y-129149110D01*
X178849872Y-129235000D01*
X179290128Y-129235000D01*
X179721925Y-129149110D01*
X180128669Y-128980631D01*
X180494729Y-128736038D01*
X180806038Y-128424729D01*
X181050631Y-128058669D01*
X181219110Y-127651925D01*
X181305000Y-127220128D01*
X181305000Y-126779872D01*
X181219110Y-126348075D01*
X181050631Y-125941331D01*
X180806038Y-125575271D01*
X180494729Y-125263962D01*
X180128669Y-125019369D01*
X179721925Y-124850890D01*
X179290128Y-124765000D01*
X178849872Y-124765000D01*
X178418075Y-124850890D01*
X178011331Y-125019369D01*
X177645271Y-125263962D01*
X177333962Y-125575271D01*
X177089369Y-125941331D01*
X176920890Y-126348075D01*
X176835000Y-126779872D01*
X168080307Y-126779872D01*
X168080000Y-126523750D01*
X167921250Y-126365000D01*
X166497000Y-126365000D01*
X166243000Y-126365000D01*
X164818750Y-126365000D01*
X164660000Y-126523750D01*
X164656928Y-129088000D01*
X158437669Y-129088000D01*
X158435000Y-125253750D01*
X158276250Y-125095000D01*
X152527000Y-125095000D01*
X152273000Y-125095000D01*
X146523750Y-125095000D01*
X146365000Y-125253750D01*
X146361928Y-129668000D01*
X142356391Y-129668000D01*
X142359502Y-129662180D01*
X142395812Y-129542482D01*
X142408072Y-129418000D01*
X142405000Y-127953750D01*
X142246250Y-127795000D01*
X141097000Y-127795000D01*
X140843000Y-127795000D01*
X139693750Y-127795000D01*
X139535000Y-127953750D01*
X139531928Y-129418000D01*
X135270942Y-129418000D01*
X135330631Y-129328669D01*
X135499110Y-128921925D01*
X135585000Y-128490128D01*
X135585000Y-128049872D01*
X135499110Y-127618075D01*
X135330631Y-127211331D01*
X135086038Y-126845271D01*
X134774729Y-126533962D01*
X134408669Y-126289369D01*
X134001925Y-126120890D01*
X133570128Y-126035000D01*
X133129872Y-126035000D01*
X132698075Y-126120890D01*
X132291331Y-126289369D01*
X131925271Y-126533962D01*
X131613962Y-126845271D01*
X131369369Y-127211331D01*
X131200890Y-127618075D01*
X131115000Y-128049872D01*
X128930000Y-128049872D01*
X128930000Y-125918000D01*
X139531928Y-125918000D01*
X139535000Y-127382250D01*
X139693750Y-127541000D01*
X140843000Y-127541000D01*
X140843000Y-125441750D01*
X141097000Y-125441750D01*
X141097000Y-127541000D01*
X142246250Y-127541000D01*
X142405000Y-127382250D01*
X142408072Y-125918000D01*
X142395812Y-125793518D01*
X142359502Y-125673820D01*
X142300537Y-125563506D01*
X142221185Y-125466815D01*
X142124494Y-125387463D01*
X142014180Y-125328498D01*
X141894482Y-125292188D01*
X141770000Y-125279928D01*
X141255750Y-125283000D01*
X141097000Y-125441750D01*
X140843000Y-125441750D01*
X140684250Y-125283000D01*
X140170000Y-125279928D01*
X140045518Y-125292188D01*
X139925820Y-125328498D01*
X139815506Y-125387463D01*
X139718815Y-125466815D01*
X139639463Y-125563506D01*
X139580498Y-125673820D01*
X139544188Y-125793518D01*
X139531928Y-125918000D01*
X128930000Y-125918000D01*
X128930000Y-73439872D01*
X131115000Y-73439872D01*
X131115000Y-73880128D01*
X131200890Y-74311925D01*
X131369369Y-74718669D01*
X131613962Y-75084729D01*
X131925271Y-75396038D01*
X132291331Y-75640631D01*
X132698075Y-75809110D01*
X133129872Y-75895000D01*
X133570128Y-75895000D01*
X134001925Y-75809110D01*
X134408669Y-75640631D01*
X134774729Y-75396038D01*
X135086038Y-75084729D01*
X135330631Y-74718669D01*
X135499110Y-74311925D01*
X135585000Y-73880128D01*
X135585000Y-73439872D01*
X135499110Y-73008075D01*
X135330631Y-72601331D01*
X135086038Y-72235271D01*
X134774729Y-71923962D01*
X134408669Y-71679369D01*
X134001925Y-71510890D01*
X133570128Y-71425000D01*
X133129872Y-71425000D01*
X132698075Y-71510890D01*
X132291331Y-71679369D01*
X131925271Y-71923962D01*
X131613962Y-72235271D01*
X131369369Y-72601331D01*
X131200890Y-73008075D01*
X131115000Y-73439872D01*
X128930000Y-73439872D01*
X128930000Y-63130000D01*
X130541928Y-63130000D01*
X130554188Y-63254482D01*
X130590498Y-63374180D01*
X130649463Y-63484494D01*
X130728815Y-63581185D01*
X130825506Y-63660537D01*
X130935820Y-63719502D01*
X131055518Y-63755812D01*
X131180000Y-63768072D01*
X131794250Y-63765000D01*
X131953000Y-63606250D01*
X131953000Y-62357000D01*
X130703750Y-62357000D01*
X130545000Y-62515750D01*
X130541928Y-63130000D01*
X128930000Y-63130000D01*
X128930000Y-61330000D01*
X130541928Y-61330000D01*
X130545000Y-61944250D01*
X130703750Y-62103000D01*
X131953000Y-62103000D01*
X131953000Y-60853750D01*
X132207000Y-60853750D01*
X132207000Y-62103000D01*
X132227000Y-62103000D01*
X132227000Y-62357000D01*
X132207000Y-62357000D01*
X132207000Y-63606250D01*
X132365750Y-63765000D01*
X132980000Y-63768072D01*
X133104482Y-63755812D01*
X133224180Y-63719502D01*
X133334494Y-63660537D01*
X133431185Y-63581185D01*
X133510537Y-63484494D01*
X133569502Y-63374180D01*
X133575056Y-63355873D01*
X133641495Y-63422312D01*
X133892905Y-63590299D01*
X134172257Y-63706011D01*
X134468816Y-63765000D01*
X134771184Y-63765000D01*
X135028930Y-63713731D01*
X135961201Y-64646003D01*
X135984999Y-64675001D01*
X136100724Y-64769974D01*
X136232753Y-64840546D01*
X136376014Y-64884003D01*
X136487667Y-64895000D01*
X136487677Y-64895000D01*
X136525000Y-64898676D01*
X136562323Y-64895000D01*
X146439084Y-64895000D01*
X146527394Y-65002606D01*
X146593412Y-65056786D01*
X138753960Y-72896239D01*
X138724962Y-72920037D01*
X138701164Y-72949035D01*
X138701163Y-72949036D01*
X138629988Y-73035762D01*
X138559416Y-73167792D01*
X138515960Y-73311053D01*
X138501286Y-73460038D01*
X138504963Y-73497371D01*
X138504962Y-102397640D01*
X138501286Y-102434962D01*
X138504962Y-102472284D01*
X138504962Y-102472294D01*
X138515959Y-102583947D01*
X138551079Y-102699724D01*
X138559416Y-102727208D01*
X138629988Y-102859238D01*
X138664877Y-102901750D01*
X138724961Y-102974963D01*
X138753965Y-102998766D01*
X140798790Y-105043592D01*
X140755000Y-105263740D01*
X140755000Y-105556260D01*
X140812068Y-105843158D01*
X140924010Y-106113411D01*
X141086525Y-106356632D01*
X141218380Y-106488487D01*
X141145820Y-106510498D01*
X141035506Y-106569463D01*
X140938815Y-106648815D01*
X140859463Y-106745506D01*
X140800498Y-106855820D01*
X140764188Y-106975518D01*
X140751928Y-107100000D01*
X140751928Y-107832940D01*
X138706864Y-109878005D01*
X138663550Y-109913552D01*
X138521715Y-110086378D01*
X138455905Y-110209502D01*
X138416323Y-110283555D01*
X138351422Y-110497503D01*
X138329508Y-110720001D01*
X138334999Y-110775753D01*
X138335000Y-115792238D01*
X138329508Y-115847999D01*
X138351422Y-116070497D01*
X138416323Y-116284445D01*
X138440804Y-116330246D01*
X138521716Y-116481622D01*
X138663551Y-116654448D01*
X138706859Y-116689990D01*
X139531928Y-117515060D01*
X139531928Y-118298000D01*
X139544188Y-118422482D01*
X139580498Y-118542180D01*
X139639463Y-118652494D01*
X139718815Y-118749185D01*
X139815506Y-118828537D01*
X139835000Y-118838957D01*
X139835001Y-120104780D01*
X139792038Y-120140038D01*
X139681595Y-120274614D01*
X139599528Y-120428150D01*
X139548992Y-120594746D01*
X139531928Y-120768000D01*
X139531928Y-123768000D01*
X139548992Y-123941254D01*
X139599528Y-124107850D01*
X139681595Y-124261386D01*
X139792038Y-124395962D01*
X139926614Y-124506405D01*
X140080150Y-124588472D01*
X140246746Y-124639008D01*
X140420000Y-124656072D01*
X141520000Y-124656072D01*
X141693254Y-124639008D01*
X141859850Y-124588472D01*
X142013386Y-124506405D01*
X142147962Y-124395962D01*
X142258405Y-124261386D01*
X142340472Y-124107850D01*
X142391008Y-123941254D01*
X142408072Y-123768000D01*
X142408072Y-120768000D01*
X142391008Y-120594746D01*
X142340472Y-120428150D01*
X142258405Y-120274614D01*
X142252978Y-120268000D01*
X146361928Y-120268000D01*
X146365000Y-124682250D01*
X146523750Y-124841000D01*
X152273000Y-124841000D01*
X152273000Y-119791750D01*
X152527000Y-119791750D01*
X152527000Y-124841000D01*
X158276250Y-124841000D01*
X158435000Y-124682250D01*
X158435900Y-123388000D01*
X164656928Y-123388000D01*
X164660000Y-125952250D01*
X164818750Y-126111000D01*
X166243000Y-126111000D01*
X166243000Y-122911750D01*
X166497000Y-122911750D01*
X166497000Y-126111000D01*
X167921250Y-126111000D01*
X168080000Y-125952250D01*
X168083072Y-123388000D01*
X168070812Y-123263518D01*
X168034502Y-123143820D01*
X167975537Y-123033506D01*
X167896185Y-122936815D01*
X167799494Y-122857463D01*
X167689180Y-122798498D01*
X167569482Y-122762188D01*
X167445000Y-122749928D01*
X166655750Y-122753000D01*
X166497000Y-122911750D01*
X166243000Y-122911750D01*
X166084250Y-122753000D01*
X165295000Y-122749928D01*
X165170518Y-122762188D01*
X165050820Y-122798498D01*
X164940506Y-122857463D01*
X164843815Y-122936815D01*
X164764463Y-123033506D01*
X164705498Y-123143820D01*
X164669188Y-123263518D01*
X164656928Y-123388000D01*
X158435900Y-123388000D01*
X158438072Y-120268000D01*
X158425812Y-120143518D01*
X158389502Y-120023820D01*
X158330537Y-119913506D01*
X158251185Y-119816815D01*
X158154494Y-119737463D01*
X158044180Y-119678498D01*
X157924482Y-119642188D01*
X157800000Y-119629928D01*
X152685750Y-119633000D01*
X152527000Y-119791750D01*
X152273000Y-119791750D01*
X152114250Y-119633000D01*
X147000000Y-119629928D01*
X146875518Y-119642188D01*
X146755820Y-119678498D01*
X146645506Y-119737463D01*
X146548815Y-119816815D01*
X146469463Y-119913506D01*
X146410498Y-120023820D01*
X146374188Y-120143518D01*
X146361928Y-120268000D01*
X142252978Y-120268000D01*
X142147962Y-120140038D01*
X142105000Y-120104780D01*
X142105000Y-118838957D01*
X142124494Y-118828537D01*
X142221185Y-118749185D01*
X142300537Y-118652494D01*
X142359502Y-118542180D01*
X142395812Y-118422482D01*
X142408072Y-118298000D01*
X142408072Y-118118000D01*
X147811928Y-118118000D01*
X147824188Y-118242482D01*
X147860498Y-118362180D01*
X147919463Y-118472494D01*
X147998815Y-118569185D01*
X148095506Y-118648537D01*
X148205820Y-118707502D01*
X148325518Y-118743812D01*
X148450000Y-118756072D01*
X148714250Y-118753000D01*
X148873000Y-118594250D01*
X148873000Y-115945000D01*
X147973750Y-115945000D01*
X147815000Y-116103750D01*
X147811928Y-118118000D01*
X142408072Y-118118000D01*
X142408072Y-117515059D01*
X145970133Y-113952999D01*
X147812591Y-113952999D01*
X147815000Y-115532250D01*
X147973750Y-115691000D01*
X148873000Y-115691000D01*
X148873000Y-115671000D01*
X149127000Y-115671000D01*
X149127000Y-115691000D01*
X149147000Y-115691000D01*
X149147000Y-115945000D01*
X149127000Y-115945000D01*
X149127000Y-118594250D01*
X149285750Y-118753000D01*
X149550000Y-118756072D01*
X149674482Y-118743812D01*
X149794180Y-118707502D01*
X149850000Y-118677665D01*
X149905820Y-118707502D01*
X150025518Y-118743812D01*
X150150000Y-118756072D01*
X151250000Y-118756072D01*
X151374482Y-118743812D01*
X151494180Y-118707502D01*
X151550000Y-118677665D01*
X151605820Y-118707502D01*
X151725518Y-118743812D01*
X151850000Y-118756072D01*
X152114250Y-118753000D01*
X152273000Y-118594250D01*
X152273000Y-115945000D01*
X152253000Y-115945000D01*
X152253000Y-115691000D01*
X152273000Y-115691000D01*
X152273000Y-113041750D01*
X152114250Y-112883000D01*
X151850000Y-112879928D01*
X151725518Y-112892188D01*
X151713246Y-112895911D01*
X151711256Y-112892188D01*
X151648284Y-112774375D01*
X151630733Y-112752989D01*
X152510188Y-112752989D01*
X152662974Y-112905776D01*
X152527000Y-113041750D01*
X152527000Y-115691000D01*
X152547000Y-115691000D01*
X152547000Y-115945000D01*
X152527000Y-115945000D01*
X152527000Y-118594250D01*
X152685750Y-118753000D01*
X152950000Y-118756072D01*
X153074482Y-118743812D01*
X153194180Y-118707502D01*
X153250000Y-118677665D01*
X153305820Y-118707502D01*
X153425518Y-118743812D01*
X153550000Y-118756072D01*
X154650000Y-118756072D01*
X154774482Y-118743812D01*
X154894180Y-118707502D01*
X154950000Y-118677665D01*
X155005820Y-118707502D01*
X155125518Y-118743812D01*
X155250000Y-118756072D01*
X156350000Y-118756072D01*
X156474482Y-118743812D01*
X156594180Y-118707502D01*
X156704494Y-118648537D01*
X156801185Y-118569185D01*
X156880537Y-118472494D01*
X156939502Y-118362180D01*
X156975812Y-118242482D01*
X156988072Y-118118000D01*
X156988072Y-116953000D01*
X164656928Y-116953000D01*
X164656928Y-118888000D01*
X164669188Y-119012482D01*
X164705498Y-119132180D01*
X164764463Y-119242494D01*
X164843815Y-119339185D01*
X164940506Y-119418537D01*
X165050820Y-119477502D01*
X165170518Y-119513812D01*
X165295000Y-119526072D01*
X167445000Y-119526072D01*
X167569482Y-119513812D01*
X167689180Y-119477502D01*
X167799494Y-119418537D01*
X167896185Y-119339185D01*
X167975537Y-119242494D01*
X168034502Y-119132180D01*
X168070812Y-119012482D01*
X168083072Y-118888000D01*
X168083072Y-113188000D01*
X168070812Y-113063518D01*
X168034502Y-112943820D01*
X167975537Y-112833506D01*
X167896185Y-112736815D01*
X167799494Y-112657463D01*
X167689180Y-112598498D01*
X167569482Y-112562188D01*
X167445000Y-112549928D01*
X165391001Y-112549928D01*
X165391001Y-100049753D01*
X165396492Y-99994001D01*
X165374578Y-99771502D01*
X165309677Y-99557554D01*
X165204285Y-99360378D01*
X165153498Y-99298494D01*
X165062450Y-99187552D01*
X165019142Y-99152010D01*
X164194072Y-98326940D01*
X164194072Y-97144000D01*
X164181812Y-97019518D01*
X164145502Y-96899820D01*
X164086537Y-96789506D01*
X164007185Y-96692815D01*
X163910494Y-96613463D01*
X163800180Y-96554498D01*
X163680482Y-96518188D01*
X163556000Y-96505928D01*
X163441000Y-96505928D01*
X163441000Y-95518072D01*
X163556000Y-95518072D01*
X163680482Y-95505812D01*
X163800180Y-95469502D01*
X163910494Y-95410537D01*
X164007185Y-95331185D01*
X164086537Y-95234494D01*
X164145502Y-95124180D01*
X164181812Y-95004482D01*
X164194072Y-94880000D01*
X164194072Y-93166731D01*
X164341009Y-93019794D01*
X164370001Y-92996001D01*
X164393795Y-92967008D01*
X164393799Y-92967004D01*
X164464973Y-92880277D01*
X164464974Y-92880276D01*
X164535546Y-92748247D01*
X164579003Y-92604986D01*
X164590000Y-92493333D01*
X164590000Y-92493324D01*
X164593676Y-92456001D01*
X164590000Y-92418678D01*
X164590000Y-86015320D01*
X164593676Y-85977997D01*
X164590000Y-85940674D01*
X164590000Y-85940665D01*
X164579003Y-85829012D01*
X164535546Y-85685751D01*
X164464974Y-85553722D01*
X164370001Y-85437997D01*
X164341003Y-85414199D01*
X155885806Y-76959003D01*
X155862003Y-76929999D01*
X155746278Y-76835026D01*
X155614249Y-76764454D01*
X155470988Y-76720997D01*
X155359335Y-76710000D01*
X155359324Y-76710000D01*
X155322002Y-76706324D01*
X155284680Y-76710000D01*
X151498072Y-76710000D01*
X151498072Y-76470000D01*
X151485812Y-76345518D01*
X151449502Y-76225820D01*
X151390537Y-76115506D01*
X151311185Y-76018815D01*
X151214494Y-75939463D01*
X151104180Y-75880498D01*
X150984482Y-75844188D01*
X150860000Y-75831928D01*
X148860000Y-75831928D01*
X148735518Y-75844188D01*
X148615820Y-75880498D01*
X148505506Y-75939463D01*
X148408815Y-76018815D01*
X148329463Y-76115506D01*
X148270498Y-76225820D01*
X148234188Y-76345518D01*
X148221928Y-76470000D01*
X148221928Y-78470000D01*
X148234188Y-78594482D01*
X148270498Y-78714180D01*
X148329463Y-78824494D01*
X148408815Y-78921185D01*
X148505506Y-79000537D01*
X148615820Y-79059502D01*
X148735518Y-79095812D01*
X148860000Y-79108072D01*
X150860000Y-79108072D01*
X150984482Y-79095812D01*
X151104180Y-79059502D01*
X151214494Y-79000537D01*
X151311185Y-78921185D01*
X151390537Y-78824494D01*
X151449502Y-78714180D01*
X151485812Y-78594482D01*
X151498072Y-78470000D01*
X151498072Y-78230000D01*
X155007201Y-78230000D01*
X160633342Y-83856142D01*
X160572815Y-83905815D01*
X160493463Y-84002506D01*
X160434498Y-84112820D01*
X160398188Y-84232518D01*
X160385928Y-84357000D01*
X160385928Y-84807000D01*
X160398188Y-84931482D01*
X160434498Y-85051180D01*
X160493463Y-85161494D01*
X160564001Y-85247445D01*
X160564000Y-86202556D01*
X160493463Y-86288506D01*
X160434498Y-86398820D01*
X160398188Y-86518518D01*
X160385928Y-86643000D01*
X160385928Y-87093000D01*
X160398188Y-87217482D01*
X160434498Y-87337180D01*
X160493463Y-87447494D01*
X160572815Y-87544185D01*
X160669506Y-87623537D01*
X160779820Y-87682502D01*
X160899518Y-87718812D01*
X161024000Y-87731072D01*
X161624000Y-87731072D01*
X161748482Y-87718812D01*
X161868180Y-87682502D01*
X161978494Y-87623537D01*
X162075185Y-87544185D01*
X162154537Y-87447494D01*
X162213502Y-87337180D01*
X162249812Y-87217482D01*
X162262072Y-87093000D01*
X162262072Y-86643000D01*
X162249812Y-86518518D01*
X162213502Y-86398820D01*
X162154537Y-86288506D01*
X162084000Y-86202556D01*
X162084000Y-85306800D01*
X163070001Y-86292801D01*
X163070000Y-92141197D01*
X162769270Y-92441928D01*
X161056000Y-92441928D01*
X160931518Y-92454188D01*
X160811820Y-92490498D01*
X160701506Y-92549463D01*
X160604815Y-92628815D01*
X160525463Y-92725506D01*
X160466498Y-92835820D01*
X160430188Y-92955518D01*
X160417928Y-93080000D01*
X160417928Y-94880000D01*
X160430188Y-95004482D01*
X160466498Y-95124180D01*
X160525463Y-95234494D01*
X160604815Y-95331185D01*
X160701506Y-95410537D01*
X160811820Y-95469502D01*
X160931518Y-95505812D01*
X161056000Y-95518072D01*
X161171000Y-95518072D01*
X161171001Y-96505928D01*
X161056000Y-96505928D01*
X160931518Y-96518188D01*
X160811820Y-96554498D01*
X160701506Y-96613463D01*
X160604815Y-96692815D01*
X160525463Y-96789506D01*
X160466498Y-96899820D01*
X160430188Y-97019518D01*
X160417928Y-97144000D01*
X160417928Y-98944000D01*
X160430188Y-99068482D01*
X160466498Y-99188180D01*
X160525463Y-99298494D01*
X160604815Y-99395185D01*
X160701506Y-99474537D01*
X160811820Y-99533502D01*
X160931518Y-99569812D01*
X161056000Y-99582072D01*
X162238941Y-99582072D01*
X163121001Y-100464133D01*
X163121001Y-101077928D01*
X161056000Y-101077928D01*
X160931518Y-101090188D01*
X160811820Y-101126498D01*
X160701506Y-101185463D01*
X160604815Y-101264815D01*
X160525463Y-101361506D01*
X160466498Y-101471820D01*
X160430188Y-101591518D01*
X160417928Y-101716000D01*
X160417928Y-103429269D01*
X160170968Y-103676229D01*
X160181812Y-103640482D01*
X160194072Y-103516000D01*
X160191000Y-102901750D01*
X160032250Y-102743000D01*
X158433000Y-102743000D01*
X158433000Y-103992250D01*
X158591750Y-104151000D01*
X159556000Y-104154072D01*
X159680482Y-104141812D01*
X159716229Y-104130968D01*
X153589003Y-110258196D01*
X153559999Y-110281999D01*
X153529645Y-110318986D01*
X153465026Y-110397724D01*
X153426006Y-110470725D01*
X153394454Y-110529754D01*
X153350997Y-110673015D01*
X153340000Y-110784668D01*
X153340000Y-110784678D01*
X153336324Y-110822000D01*
X153340000Y-110859323D01*
X153340000Y-111432479D01*
X153249265Y-111358015D01*
X153117236Y-111287443D01*
X152973975Y-111243986D01*
X152862322Y-111232989D01*
X152862311Y-111232989D01*
X152824989Y-111229313D01*
X152787667Y-111232989D01*
X150193066Y-111232989D01*
X150269975Y-111139275D01*
X150340547Y-111007246D01*
X150384004Y-110863985D01*
X150395001Y-110752332D01*
X150395001Y-110752323D01*
X150398677Y-110715000D01*
X150395001Y-110677677D01*
X150395001Y-110256595D01*
X150410000Y-110258072D01*
X151310000Y-110258072D01*
X151434482Y-110245812D01*
X151554180Y-110209502D01*
X151664494Y-110150537D01*
X151761185Y-110071185D01*
X151840537Y-109974494D01*
X151899502Y-109864180D01*
X151935812Y-109744482D01*
X151948072Y-109620000D01*
X151948072Y-108820000D01*
X151935812Y-108695518D01*
X151899502Y-108575820D01*
X151840537Y-108465506D01*
X151761185Y-108368815D01*
X151664494Y-108289463D01*
X151554180Y-108230498D01*
X151434482Y-108194188D01*
X151310000Y-108181928D01*
X150896730Y-108181928D01*
X150402990Y-107688189D01*
X150402990Y-106692989D01*
X150590250Y-106691000D01*
X150749000Y-106532250D01*
X150749000Y-105283000D01*
X151003000Y-105283000D01*
X151003000Y-106532250D01*
X151161750Y-106691000D01*
X151451000Y-106694072D01*
X151575482Y-106681812D01*
X151695180Y-106645502D01*
X151805494Y-106586537D01*
X151902185Y-106507185D01*
X151981537Y-106410494D01*
X152040502Y-106300180D01*
X152076812Y-106180482D01*
X152089072Y-106056000D01*
X152086000Y-105441750D01*
X151927250Y-105283000D01*
X151003000Y-105283000D01*
X150749000Y-105283000D01*
X150729000Y-105283000D01*
X150729000Y-105029000D01*
X150749000Y-105029000D01*
X150749000Y-105009000D01*
X151003000Y-105009000D01*
X151003000Y-105029000D01*
X151927250Y-105029000D01*
X152086000Y-104870250D01*
X152089072Y-104256000D01*
X152076812Y-104131518D01*
X152040502Y-104011820D01*
X151981537Y-103901506D01*
X151902185Y-103804815D01*
X151805494Y-103725463D01*
X151695180Y-103666498D01*
X151575482Y-103630188D01*
X151451000Y-103617928D01*
X151372903Y-103618757D01*
X151389969Y-103562500D01*
X151394548Y-103516000D01*
X156417928Y-103516000D01*
X156430188Y-103640482D01*
X156466498Y-103760180D01*
X156525463Y-103870494D01*
X156604815Y-103967185D01*
X156701506Y-104046537D01*
X156811820Y-104105502D01*
X156931518Y-104141812D01*
X157056000Y-104154072D01*
X158020250Y-104151000D01*
X158179000Y-103992250D01*
X158179000Y-102743000D01*
X156579750Y-102743000D01*
X156421000Y-102901750D01*
X156417928Y-103516000D01*
X151394548Y-103516000D01*
X151406072Y-103399000D01*
X151406072Y-103160729D01*
X152850801Y-101716000D01*
X156417928Y-101716000D01*
X156421000Y-102330250D01*
X156579750Y-102489000D01*
X158179000Y-102489000D01*
X158179000Y-101239750D01*
X158433000Y-101239750D01*
X158433000Y-102489000D01*
X160032250Y-102489000D01*
X160191000Y-102330250D01*
X160194072Y-101716000D01*
X160181812Y-101591518D01*
X160145502Y-101471820D01*
X160086537Y-101361506D01*
X160007185Y-101264815D01*
X159910494Y-101185463D01*
X159800180Y-101126498D01*
X159680482Y-101090188D01*
X159556000Y-101077928D01*
X158591750Y-101081000D01*
X158433000Y-101239750D01*
X158179000Y-101239750D01*
X158020250Y-101081000D01*
X157056000Y-101077928D01*
X156931518Y-101090188D01*
X156811820Y-101126498D01*
X156701506Y-101185463D01*
X156604815Y-101264815D01*
X156525463Y-101361506D01*
X156466498Y-101471820D01*
X156430188Y-101591518D01*
X156417928Y-101716000D01*
X152850801Y-101716000D01*
X155762802Y-98804000D01*
X156417928Y-98804000D01*
X156417928Y-98944000D01*
X156430188Y-99068482D01*
X156466498Y-99188180D01*
X156525463Y-99298494D01*
X156604815Y-99395185D01*
X156701506Y-99474537D01*
X156811820Y-99533502D01*
X156931518Y-99569812D01*
X157056000Y-99582072D01*
X159556000Y-99582072D01*
X159680482Y-99569812D01*
X159800180Y-99533502D01*
X159910494Y-99474537D01*
X160007185Y-99395185D01*
X160086537Y-99298494D01*
X160145502Y-99188180D01*
X160181812Y-99068482D01*
X160194072Y-98944000D01*
X160194072Y-97144000D01*
X160181812Y-97019518D01*
X160145502Y-96899820D01*
X160086537Y-96789506D01*
X160007185Y-96692815D01*
X159910494Y-96613463D01*
X159800180Y-96554498D01*
X159680482Y-96518188D01*
X159556000Y-96505928D01*
X157056000Y-96505928D01*
X156931518Y-96518188D01*
X156811820Y-96554498D01*
X156799969Y-96560832D01*
X157842730Y-95518072D01*
X159556000Y-95518072D01*
X159680482Y-95505812D01*
X159800180Y-95469502D01*
X159910494Y-95410537D01*
X160007185Y-95331185D01*
X160086537Y-95234494D01*
X160145502Y-95124180D01*
X160181812Y-95004482D01*
X160194072Y-94880000D01*
X160194072Y-93080000D01*
X160181812Y-92955518D01*
X160145502Y-92835820D01*
X160086537Y-92725506D01*
X160007185Y-92628815D01*
X159910494Y-92549463D01*
X159800180Y-92490498D01*
X159680482Y-92454188D01*
X159556000Y-92441928D01*
X157056000Y-92441928D01*
X156931518Y-92454188D01*
X156811820Y-92490498D01*
X156701506Y-92549463D01*
X156604815Y-92628815D01*
X156525463Y-92725506D01*
X156466498Y-92835820D01*
X156430188Y-92955518D01*
X156417928Y-93080000D01*
X156417928Y-94793270D01*
X151405224Y-99805974D01*
X151294250Y-99695000D01*
X150495000Y-99695000D01*
X150495000Y-99715000D01*
X150241000Y-99715000D01*
X150241000Y-99695000D01*
X150221000Y-99695000D01*
X150221000Y-99441000D01*
X150241000Y-99441000D01*
X150241000Y-99421000D01*
X150495000Y-99421000D01*
X150495000Y-99441000D01*
X151294250Y-99441000D01*
X151453000Y-99282250D01*
X151456072Y-99093000D01*
X151443812Y-98968518D01*
X151407502Y-98848820D01*
X151348537Y-98738506D01*
X151269185Y-98641815D01*
X151233959Y-98612906D01*
X151310618Y-98519497D01*
X151390375Y-98370283D01*
X151439488Y-98208377D01*
X151456072Y-98040000D01*
X151456072Y-97540000D01*
X151439488Y-97371623D01*
X151390375Y-97209717D01*
X151310618Y-97060503D01*
X151203284Y-96929716D01*
X151151415Y-96887149D01*
X151160606Y-96879606D01*
X151264831Y-96752608D01*
X151337719Y-96616245D01*
X151416001Y-96552001D01*
X151439804Y-96522997D01*
X153814730Y-94148072D01*
X154978000Y-94148072D01*
X155102482Y-94135812D01*
X155222180Y-94099502D01*
X155332494Y-94040537D01*
X155429185Y-93961185D01*
X155508537Y-93864494D01*
X155567502Y-93754180D01*
X155603812Y-93634482D01*
X155616072Y-93510000D01*
X155616072Y-91910000D01*
X155603812Y-91785518D01*
X155567502Y-91665820D01*
X155508537Y-91555506D01*
X155429185Y-91458815D01*
X155332494Y-91379463D01*
X155222180Y-91320498D01*
X155102482Y-91284188D01*
X155094039Y-91283357D01*
X155292637Y-91084759D01*
X155449680Y-90849727D01*
X155557853Y-90588574D01*
X155613000Y-90311335D01*
X155613000Y-90028665D01*
X155568509Y-89804999D01*
X156140819Y-89804999D01*
X156054795Y-89933744D01*
X155976774Y-90122102D01*
X155937000Y-90322061D01*
X155937000Y-90525939D01*
X155976774Y-90725898D01*
X156054795Y-90914256D01*
X156168063Y-91083774D01*
X156312226Y-91227937D01*
X156481744Y-91341205D01*
X156670102Y-91419226D01*
X156870061Y-91459000D01*
X157073939Y-91459000D01*
X157273898Y-91419226D01*
X157462256Y-91341205D01*
X157631774Y-91227937D01*
X157675711Y-91184000D01*
X158204678Y-91184000D01*
X158242000Y-91187676D01*
X158279322Y-91184000D01*
X158279333Y-91184000D01*
X158390986Y-91173003D01*
X158534247Y-91129546D01*
X158581905Y-91104072D01*
X159300000Y-91104072D01*
X159424482Y-91091812D01*
X159544180Y-91055502D01*
X159654494Y-90996537D01*
X159751185Y-90917185D01*
X159830537Y-90820494D01*
X159889502Y-90710180D01*
X159925812Y-90590482D01*
X159938072Y-90466000D01*
X160361928Y-90466000D01*
X160374188Y-90590482D01*
X160410498Y-90710180D01*
X160469463Y-90820494D01*
X160548815Y-90917185D01*
X160645506Y-90996537D01*
X160755820Y-91055502D01*
X160875518Y-91091812D01*
X161000000Y-91104072D01*
X161264250Y-91101000D01*
X161423000Y-90942250D01*
X161423000Y-90043000D01*
X161677000Y-90043000D01*
X161677000Y-90942250D01*
X161835750Y-91101000D01*
X162100000Y-91104072D01*
X162224482Y-91091812D01*
X162344180Y-91055502D01*
X162454494Y-90996537D01*
X162551185Y-90917185D01*
X162630537Y-90820494D01*
X162689502Y-90710180D01*
X162725812Y-90590482D01*
X162738072Y-90466000D01*
X162735000Y-90201750D01*
X162576250Y-90043000D01*
X161677000Y-90043000D01*
X161423000Y-90043000D01*
X160523750Y-90043000D01*
X160365000Y-90201750D01*
X160361928Y-90466000D01*
X159938072Y-90466000D01*
X159938072Y-89366000D01*
X160361928Y-89366000D01*
X160365000Y-89630250D01*
X160523750Y-89789000D01*
X161423000Y-89789000D01*
X161423000Y-88889750D01*
X161677000Y-88889750D01*
X161677000Y-89789000D01*
X162576250Y-89789000D01*
X162735000Y-89630250D01*
X162738072Y-89366000D01*
X162725812Y-89241518D01*
X162689502Y-89121820D01*
X162630537Y-89011506D01*
X162551185Y-88914815D01*
X162454494Y-88835463D01*
X162344180Y-88776498D01*
X162224482Y-88740188D01*
X162100000Y-88727928D01*
X161835750Y-88731000D01*
X161677000Y-88889750D01*
X161423000Y-88889750D01*
X161264250Y-88731000D01*
X161000000Y-88727928D01*
X160875518Y-88740188D01*
X160755820Y-88776498D01*
X160645506Y-88835463D01*
X160548815Y-88914815D01*
X160469463Y-89011506D01*
X160410498Y-89121820D01*
X160374188Y-89241518D01*
X160361928Y-89366000D01*
X159938072Y-89366000D01*
X159925812Y-89241518D01*
X159889502Y-89121820D01*
X159830537Y-89011506D01*
X159751185Y-88914815D01*
X159654494Y-88835463D01*
X159544180Y-88776498D01*
X159424482Y-88740188D01*
X159300000Y-88727928D01*
X158636730Y-88727928D01*
X158442802Y-88534001D01*
X158419000Y-88504998D01*
X158303275Y-88410025D01*
X158171246Y-88339453D01*
X158027985Y-88295996D01*
X157916332Y-88284999D01*
X157916321Y-88284999D01*
X157878999Y-88281323D01*
X157841677Y-88284999D01*
X155459923Y-88284999D01*
X155557853Y-88048574D01*
X155613000Y-87771335D01*
X155613000Y-87488665D01*
X155557853Y-87211426D01*
X155521951Y-87124750D01*
X158289000Y-87124750D01*
X158301594Y-87233524D01*
X158340968Y-87352249D01*
X158402748Y-87461012D01*
X158484559Y-87555631D01*
X158583258Y-87632473D01*
X158695051Y-87688582D01*
X158815643Y-87721804D01*
X158938250Y-87728000D01*
X159097000Y-87569250D01*
X159097000Y-86966000D01*
X159351000Y-86966000D01*
X159351000Y-87569250D01*
X159509750Y-87728000D01*
X159632357Y-87721804D01*
X159752949Y-87688582D01*
X159864742Y-87632473D01*
X159963441Y-87555631D01*
X160045252Y-87461012D01*
X160107032Y-87352249D01*
X160146406Y-87233524D01*
X160159000Y-87124750D01*
X160000250Y-86966000D01*
X159351000Y-86966000D01*
X159097000Y-86966000D01*
X158447750Y-86966000D01*
X158289000Y-87124750D01*
X155521951Y-87124750D01*
X155459923Y-86975001D01*
X157553677Y-86975001D01*
X157590999Y-86978677D01*
X157628321Y-86975001D01*
X157628332Y-86975001D01*
X157739985Y-86964004D01*
X157883246Y-86920547D01*
X158015275Y-86849975D01*
X158131000Y-86755002D01*
X158154803Y-86725998D01*
X158291547Y-86589254D01*
X158289000Y-86611250D01*
X158447750Y-86770000D01*
X159097000Y-86770000D01*
X159097000Y-86166750D01*
X159351000Y-86166750D01*
X159351000Y-86770000D01*
X160000250Y-86770000D01*
X160159000Y-86611250D01*
X160146406Y-86502476D01*
X160107032Y-86383751D01*
X160045252Y-86274988D01*
X159963441Y-86180369D01*
X159864742Y-86103527D01*
X159752949Y-86047418D01*
X159632357Y-86014196D01*
X159509750Y-86008000D01*
X159351000Y-86166750D01*
X159097000Y-86166750D01*
X158938250Y-86008000D01*
X158869318Y-86011484D01*
X159435730Y-85445072D01*
X159524000Y-85445072D01*
X159648482Y-85432812D01*
X159768180Y-85396502D01*
X159878494Y-85337537D01*
X159975185Y-85258185D01*
X160054537Y-85161494D01*
X160113502Y-85051180D01*
X160149812Y-84931482D01*
X160162072Y-84807000D01*
X160162072Y-84357000D01*
X160149812Y-84232518D01*
X160113502Y-84112820D01*
X160054537Y-84002506D01*
X159975185Y-83905815D01*
X159878494Y-83826463D01*
X159768180Y-83767498D01*
X159648482Y-83731188D01*
X159524000Y-83718928D01*
X158924000Y-83718928D01*
X158799518Y-83731188D01*
X158679820Y-83767498D01*
X158569506Y-83826463D01*
X158472815Y-83905815D01*
X158393463Y-84002506D01*
X158334498Y-84112820D01*
X158298188Y-84232518D01*
X158285928Y-84357000D01*
X158285928Y-84445270D01*
X157276198Y-85455001D01*
X155568509Y-85455001D01*
X155613000Y-85231335D01*
X155613000Y-84948665D01*
X155557853Y-84671426D01*
X155449680Y-84410273D01*
X155292637Y-84175241D01*
X155092759Y-83975363D01*
X154857727Y-83818320D01*
X154596574Y-83710147D01*
X154319335Y-83655000D01*
X154036665Y-83655000D01*
X153759426Y-83710147D01*
X153498273Y-83818320D01*
X153263241Y-83975363D01*
X153063363Y-84175241D01*
X152906320Y-84410273D01*
X152798147Y-84671426D01*
X152743000Y-84948665D01*
X152743000Y-85231335D01*
X152787491Y-85455001D01*
X148010324Y-85455001D01*
X147972999Y-85451325D01*
X147945352Y-85454048D01*
X147949904Y-85439039D01*
X147827915Y-85217000D01*
X146685000Y-85217000D01*
X146685000Y-85237000D01*
X146431000Y-85237000D01*
X146431000Y-85217000D01*
X145288085Y-85217000D01*
X145166096Y-85439039D01*
X145206754Y-85573087D01*
X145326963Y-85827420D01*
X145494481Y-86053414D01*
X145702869Y-86242385D01*
X145888865Y-86353933D01*
X145878273Y-86358320D01*
X145643241Y-86515363D01*
X145443363Y-86715241D01*
X145286320Y-86950273D01*
X145178147Y-87211426D01*
X145123000Y-87488665D01*
X145123000Y-87771335D01*
X145159312Y-87953887D01*
X144921997Y-88191202D01*
X144892999Y-88215000D01*
X144869201Y-88243998D01*
X144869200Y-88243999D01*
X144798025Y-88330725D01*
X144727453Y-88462755D01*
X144683997Y-88606016D01*
X144669323Y-88755001D01*
X144673000Y-88792333D01*
X144672999Y-96145677D01*
X144669323Y-96182999D01*
X144672999Y-96220321D01*
X144672999Y-96220331D01*
X144683996Y-96331984D01*
X144714410Y-96432246D01*
X144727453Y-96475245D01*
X144798025Y-96607275D01*
X144833911Y-96651002D01*
X144892998Y-96723000D01*
X144922002Y-96746803D01*
X147729928Y-99554730D01*
X147729928Y-99581270D01*
X146514988Y-100796211D01*
X146485990Y-100820009D01*
X146462192Y-100849007D01*
X146462191Y-100849008D01*
X146391016Y-100935734D01*
X146320444Y-101067764D01*
X146302628Y-101126498D01*
X146276988Y-101211024D01*
X146274159Y-101239750D01*
X146262314Y-101360010D01*
X146265991Y-101397342D01*
X146265990Y-107936190D01*
X144175001Y-105845202D01*
X144175001Y-86302323D01*
X144178677Y-86265000D01*
X144175001Y-86227677D01*
X144175001Y-86227668D01*
X144164004Y-86116015D01*
X144120547Y-85972754D01*
X144049975Y-85840725D01*
X143955002Y-85725000D01*
X143926004Y-85701202D01*
X143681210Y-85456408D01*
X143725000Y-85236260D01*
X143725000Y-84943740D01*
X143684665Y-84740961D01*
X145166096Y-84740961D01*
X145288085Y-84963000D01*
X146431000Y-84963000D01*
X146431000Y-83819376D01*
X146685000Y-83819376D01*
X146685000Y-84963000D01*
X147827915Y-84963000D01*
X147949904Y-84740961D01*
X147909246Y-84606913D01*
X147789037Y-84352580D01*
X147621519Y-84126586D01*
X147413131Y-83937615D01*
X147171881Y-83792930D01*
X146907040Y-83698091D01*
X146685000Y-83819376D01*
X146431000Y-83819376D01*
X146208960Y-83698091D01*
X145944119Y-83792930D01*
X145702869Y-83937615D01*
X145494481Y-84126586D01*
X145326963Y-84352580D01*
X145206754Y-84606913D01*
X145166096Y-84740961D01*
X143684665Y-84740961D01*
X143667932Y-84656842D01*
X143555990Y-84386589D01*
X143393475Y-84143368D01*
X143186632Y-83936525D01*
X142943411Y-83774010D01*
X142673158Y-83662068D01*
X142386260Y-83605000D01*
X142093740Y-83605000D01*
X141824999Y-83658456D01*
X141824999Y-81594483D01*
X142078967Y-81645000D01*
X142401033Y-81645000D01*
X142716912Y-81582168D01*
X143014463Y-81458918D01*
X143282252Y-81279987D01*
X143509987Y-81052252D01*
X143688918Y-80784463D01*
X143812168Y-80486912D01*
X143875000Y-80171033D01*
X143875000Y-79848967D01*
X143812168Y-79533088D01*
X143688918Y-79235537D01*
X143509987Y-78967748D01*
X143282252Y-78740013D01*
X143282233Y-78740000D01*
X143282252Y-78739987D01*
X143509987Y-78512252D01*
X143688918Y-78244463D01*
X143812168Y-77946912D01*
X143875000Y-77631033D01*
X143875000Y-77308967D01*
X143812168Y-76993088D01*
X143688918Y-76695537D01*
X143509987Y-76427748D01*
X143282252Y-76200013D01*
X143282233Y-76200000D01*
X143282252Y-76199987D01*
X143509987Y-75972252D01*
X143688918Y-75704463D01*
X143812168Y-75406912D01*
X143875000Y-75091033D01*
X143875000Y-74768967D01*
X143812168Y-74453088D01*
X143688918Y-74155537D01*
X143509987Y-73887748D01*
X143282252Y-73660013D01*
X143282233Y-73660000D01*
X143282252Y-73659987D01*
X143509987Y-73432252D01*
X143688918Y-73164463D01*
X143812168Y-72866912D01*
X143875000Y-72551033D01*
X143875000Y-72228967D01*
X143812168Y-71913088D01*
X143688918Y-71615537D01*
X143509987Y-71347748D01*
X143282252Y-71120013D01*
X143014463Y-70941082D01*
X142904336Y-70895466D01*
X148576832Y-65222969D01*
X148606500Y-65231969D01*
X148770000Y-65248072D01*
X149170000Y-65248072D01*
X149333500Y-65231969D01*
X149490716Y-65184278D01*
X149635608Y-65106831D01*
X149762606Y-65002606D01*
X149866831Y-64875608D01*
X149944278Y-64730716D01*
X149991969Y-64573500D01*
X150008072Y-64410000D01*
X150008072Y-64342873D01*
X166880001Y-81214803D01*
X166880000Y-83811821D01*
X166693368Y-83936525D01*
X166486525Y-84143368D01*
X166324010Y-84386589D01*
X166212068Y-84656842D01*
X166155000Y-84943740D01*
X166155000Y-85236260D01*
X166212068Y-85523158D01*
X166324010Y-85793411D01*
X166486525Y-86036632D01*
X166693368Y-86243475D01*
X166867760Y-86360000D01*
X166693368Y-86476525D01*
X166486525Y-86683368D01*
X166324010Y-86926589D01*
X166212068Y-87196842D01*
X166155000Y-87483740D01*
X166155000Y-87776260D01*
X166212068Y-88063158D01*
X166324010Y-88333411D01*
X166486525Y-88576632D01*
X166693368Y-88783475D01*
X166867760Y-88900000D01*
X166693368Y-89016525D01*
X166486525Y-89223368D01*
X166324010Y-89466589D01*
X166212068Y-89736842D01*
X166155000Y-90023740D01*
X166155000Y-90316260D01*
X166212068Y-90603158D01*
X166324010Y-90873411D01*
X166486525Y-91116632D01*
X166693368Y-91323475D01*
X166867760Y-91440000D01*
X166693368Y-91556525D01*
X166486525Y-91763368D01*
X166324010Y-92006589D01*
X166212068Y-92276842D01*
X166155000Y-92563740D01*
X166155000Y-92856260D01*
X166212068Y-93143158D01*
X166324010Y-93413411D01*
X166486525Y-93656632D01*
X166693368Y-93863475D01*
X166867760Y-93980000D01*
X166693368Y-94096525D01*
X166486525Y-94303368D01*
X166324010Y-94546589D01*
X166212068Y-94816842D01*
X166155000Y-95103740D01*
X166155000Y-95396260D01*
X166212068Y-95683158D01*
X166324010Y-95953411D01*
X166486525Y-96196632D01*
X166693368Y-96403475D01*
X166867760Y-96520000D01*
X166693368Y-96636525D01*
X166486525Y-96843368D01*
X166324010Y-97086589D01*
X166212068Y-97356842D01*
X166155000Y-97643740D01*
X166155000Y-97936260D01*
X166212068Y-98223158D01*
X166324010Y-98493411D01*
X166486525Y-98736632D01*
X166693368Y-98943475D01*
X166867760Y-99060000D01*
X166693368Y-99176525D01*
X166486525Y-99383368D01*
X166324010Y-99626589D01*
X166212068Y-99896842D01*
X166155000Y-100183740D01*
X166155000Y-100476260D01*
X166212068Y-100763158D01*
X166324010Y-101033411D01*
X166486525Y-101276632D01*
X166693368Y-101483475D01*
X166867760Y-101600000D01*
X166693368Y-101716525D01*
X166486525Y-101923368D01*
X166324010Y-102166589D01*
X166212068Y-102436842D01*
X166155000Y-102723740D01*
X166155000Y-103016260D01*
X166212068Y-103303158D01*
X166324010Y-103573411D01*
X166486525Y-103816632D01*
X166693368Y-104023475D01*
X166867760Y-104140000D01*
X166693368Y-104256525D01*
X166486525Y-104463368D01*
X166324010Y-104706589D01*
X166212068Y-104976842D01*
X166155000Y-105263740D01*
X166155000Y-105556260D01*
X166212068Y-105843158D01*
X166324010Y-106113411D01*
X166486525Y-106356632D01*
X166618380Y-106488487D01*
X166545820Y-106510498D01*
X166435506Y-106569463D01*
X166338815Y-106648815D01*
X166259463Y-106745506D01*
X166200498Y-106855820D01*
X166164188Y-106975518D01*
X166151928Y-107100000D01*
X166151928Y-108800000D01*
X166164188Y-108924482D01*
X166200498Y-109044180D01*
X166259463Y-109154494D01*
X166338815Y-109251185D01*
X166435506Y-109330537D01*
X166545820Y-109389502D01*
X166665518Y-109425812D01*
X166790000Y-109438072D01*
X168490000Y-109438072D01*
X168614482Y-109425812D01*
X168734180Y-109389502D01*
X168844494Y-109330537D01*
X168941185Y-109251185D01*
X169020537Y-109154494D01*
X169079502Y-109044180D01*
X169115812Y-108924482D01*
X169128072Y-108800000D01*
X169128072Y-107100000D01*
X169115812Y-106975518D01*
X169079502Y-106855820D01*
X169020537Y-106745506D01*
X168941185Y-106648815D01*
X168844494Y-106569463D01*
X168734180Y-106510498D01*
X168661620Y-106488487D01*
X168793475Y-106356632D01*
X168955990Y-106113411D01*
X169067932Y-105843158D01*
X169125000Y-105556260D01*
X169125000Y-105263740D01*
X169067932Y-104976842D01*
X168955990Y-104706589D01*
X168793475Y-104463368D01*
X168586632Y-104256525D01*
X168412240Y-104140000D01*
X168586632Y-104023475D01*
X168793475Y-103816632D01*
X168955990Y-103573411D01*
X169067932Y-103303158D01*
X169125000Y-103016260D01*
X169125000Y-102723740D01*
X169067932Y-102436842D01*
X168955990Y-102166589D01*
X168793475Y-101923368D01*
X168586632Y-101716525D01*
X168412240Y-101600000D01*
X168586632Y-101483475D01*
X168793475Y-101276632D01*
X168955990Y-101033411D01*
X169067932Y-100763158D01*
X169125000Y-100476260D01*
X169125000Y-100183740D01*
X169067932Y-99896842D01*
X168955990Y-99626589D01*
X168793475Y-99383368D01*
X168586632Y-99176525D01*
X168412240Y-99060000D01*
X168586632Y-98943475D01*
X168793475Y-98736632D01*
X168955990Y-98493411D01*
X169067932Y-98223158D01*
X169125000Y-97936260D01*
X169125000Y-97643740D01*
X169067932Y-97356842D01*
X168955990Y-97086589D01*
X168793475Y-96843368D01*
X168586632Y-96636525D01*
X168412240Y-96520000D01*
X168586632Y-96403475D01*
X168793475Y-96196632D01*
X168955990Y-95953411D01*
X169067932Y-95683158D01*
X169125000Y-95396260D01*
X169125000Y-95103740D01*
X169067932Y-94816842D01*
X168955990Y-94546589D01*
X168793475Y-94303368D01*
X168586632Y-94096525D01*
X168412240Y-93980000D01*
X168586632Y-93863475D01*
X168793475Y-93656632D01*
X168955990Y-93413411D01*
X169067932Y-93143158D01*
X169125000Y-92856260D01*
X169125000Y-92563740D01*
X169067932Y-92276842D01*
X168955990Y-92006589D01*
X168793475Y-91763368D01*
X168586632Y-91556525D01*
X168412240Y-91440000D01*
X168586632Y-91323475D01*
X168793475Y-91116632D01*
X168955990Y-90873411D01*
X169067932Y-90603158D01*
X169125000Y-90316260D01*
X169125000Y-90023740D01*
X169067932Y-89736842D01*
X168955990Y-89466589D01*
X168793475Y-89223368D01*
X168586632Y-89016525D01*
X168412240Y-88900000D01*
X168586632Y-88783475D01*
X168793475Y-88576632D01*
X168955990Y-88333411D01*
X169067932Y-88063158D01*
X169125000Y-87776260D01*
X169125000Y-87483740D01*
X169067932Y-87196842D01*
X168955990Y-86926589D01*
X168793475Y-86683368D01*
X168586632Y-86476525D01*
X168412240Y-86360000D01*
X168586632Y-86243475D01*
X168793475Y-86036632D01*
X168955990Y-85793411D01*
X169067932Y-85523158D01*
X169125000Y-85236260D01*
X169125000Y-84943740D01*
X169067932Y-84656842D01*
X168955990Y-84386589D01*
X168793475Y-84143368D01*
X168586632Y-83936525D01*
X168400000Y-83811822D01*
X168400000Y-80937322D01*
X168403676Y-80899999D01*
X168400000Y-80862676D01*
X168400000Y-80862667D01*
X168389003Y-80751014D01*
X168345546Y-80607753D01*
X168274974Y-80475724D01*
X168180001Y-80359999D01*
X168151003Y-80336201D01*
X161254674Y-73439872D01*
X176835000Y-73439872D01*
X176835000Y-73880128D01*
X176920890Y-74311925D01*
X177089369Y-74718669D01*
X177333962Y-75084729D01*
X177645271Y-75396038D01*
X178011331Y-75640631D01*
X178418075Y-75809110D01*
X178849872Y-75895000D01*
X179290128Y-75895000D01*
X179721925Y-75809110D01*
X180128669Y-75640631D01*
X180494729Y-75396038D01*
X180806038Y-75084729D01*
X181050631Y-74718669D01*
X181219110Y-74311925D01*
X181305000Y-73880128D01*
X181305000Y-73439872D01*
X181219110Y-73008075D01*
X181050631Y-72601331D01*
X180806038Y-72235271D01*
X180494729Y-71923962D01*
X180128669Y-71679369D01*
X179721925Y-71510890D01*
X179290128Y-71425000D01*
X178849872Y-71425000D01*
X178418075Y-71510890D01*
X178011331Y-71679369D01*
X177645271Y-71923962D01*
X177333962Y-72235271D01*
X177089369Y-72601331D01*
X176920890Y-73008075D01*
X176835000Y-73439872D01*
X161254674Y-73439872D01*
X150008072Y-62193271D01*
X150008072Y-61955000D01*
X149991969Y-61791500D01*
X149944278Y-61634284D01*
X149866831Y-61489392D01*
X149762606Y-61362394D01*
X149635608Y-61258169D01*
X149490716Y-61180722D01*
X149333500Y-61133031D01*
X149170000Y-61116928D01*
X148770000Y-61116928D01*
X148606500Y-61133031D01*
X148449284Y-61180722D01*
X148304392Y-61258169D01*
X148177394Y-61362394D01*
X148145000Y-61401866D01*
X148112606Y-61362394D01*
X147985608Y-61258169D01*
X147840716Y-61180722D01*
X147683500Y-61133031D01*
X147520000Y-61116928D01*
X147120000Y-61116928D01*
X146956500Y-61133031D01*
X146799284Y-61180722D01*
X146654392Y-61258169D01*
X146527394Y-61362394D01*
X146439084Y-61470000D01*
X144848313Y-61470000D01*
X144702312Y-61251495D01*
X144488505Y-61037688D01*
X144372948Y-60960475D01*
X165005000Y-60960475D01*
X165005000Y-61479525D01*
X165106261Y-61988601D01*
X165304893Y-62468141D01*
X165593262Y-62899715D01*
X165960285Y-63266738D01*
X166391859Y-63555107D01*
X166871399Y-63753739D01*
X167380475Y-63855000D01*
X167899525Y-63855000D01*
X168408601Y-63753739D01*
X168888141Y-63555107D01*
X169319715Y-63266738D01*
X169518954Y-63067499D01*
X176132106Y-63067499D01*
X176348228Y-63434258D01*
X176808105Y-63674938D01*
X177306098Y-63821275D01*
X177823071Y-63867648D01*
X178339159Y-63812273D01*
X178834526Y-63657279D01*
X179251772Y-63434258D01*
X179467894Y-63067499D01*
X177800000Y-61399605D01*
X176132106Y-63067499D01*
X169518954Y-63067499D01*
X169686738Y-62899715D01*
X169975107Y-62468141D01*
X170173739Y-61988601D01*
X170275000Y-61479525D01*
X170275000Y-61243071D01*
X175152352Y-61243071D01*
X175207727Y-61759159D01*
X175362721Y-62254526D01*
X175585742Y-62671772D01*
X175952501Y-62887894D01*
X177620395Y-61220000D01*
X177979605Y-61220000D01*
X179647499Y-62887894D01*
X180014258Y-62671772D01*
X180254938Y-62211895D01*
X180401275Y-61713902D01*
X180447648Y-61196929D01*
X180392273Y-60680841D01*
X180237279Y-60185474D01*
X180014258Y-59768228D01*
X179647499Y-59552106D01*
X177979605Y-61220000D01*
X177620395Y-61220000D01*
X175952501Y-59552106D01*
X175585742Y-59768228D01*
X175345062Y-60228105D01*
X175198725Y-60726098D01*
X175152352Y-61243071D01*
X170275000Y-61243071D01*
X170275000Y-60960475D01*
X170173739Y-60451399D01*
X169975107Y-59971859D01*
X169686738Y-59540285D01*
X169518954Y-59372501D01*
X176132106Y-59372501D01*
X177800000Y-61040395D01*
X179467894Y-59372501D01*
X179251772Y-59005742D01*
X178791895Y-58765062D01*
X178293902Y-58618725D01*
X177776929Y-58572352D01*
X177260841Y-58627727D01*
X176765474Y-58782721D01*
X176348228Y-59005742D01*
X176132106Y-59372501D01*
X169518954Y-59372501D01*
X169319715Y-59173262D01*
X168888141Y-58884893D01*
X168408601Y-58686261D01*
X167899525Y-58585000D01*
X167380475Y-58585000D01*
X166871399Y-58686261D01*
X166391859Y-58884893D01*
X165960285Y-59173262D01*
X165593262Y-59540285D01*
X165304893Y-59971859D01*
X165106261Y-60451399D01*
X165005000Y-60960475D01*
X144372948Y-60960475D01*
X144237095Y-60869701D01*
X143957743Y-60753989D01*
X143661184Y-60695000D01*
X143358816Y-60695000D01*
X143062257Y-60753989D01*
X142782905Y-60869701D01*
X142531495Y-61037688D01*
X142465056Y-61104127D01*
X142459502Y-61085820D01*
X142400537Y-60975506D01*
X142321185Y-60878815D01*
X142224494Y-60799463D01*
X142114180Y-60740498D01*
X141994482Y-60704188D01*
X141870000Y-60691928D01*
X141255750Y-60695000D01*
X141097000Y-60853750D01*
X141097000Y-62103000D01*
X141117000Y-62103000D01*
X141117000Y-62357000D01*
X141097000Y-62357000D01*
X141097000Y-62377000D01*
X140843000Y-62377000D01*
X140843000Y-62357000D01*
X139593750Y-62357000D01*
X139435000Y-62515750D01*
X139431928Y-63130000D01*
X139444188Y-63254482D01*
X139480498Y-63374180D01*
X139480936Y-63375000D01*
X136839802Y-63375000D01*
X136103731Y-62638930D01*
X136155000Y-62381184D01*
X136155000Y-62078816D01*
X136096011Y-61782257D01*
X135980299Y-61502905D01*
X135864768Y-61330000D01*
X139431928Y-61330000D01*
X139435000Y-61944250D01*
X139593750Y-62103000D01*
X140843000Y-62103000D01*
X140843000Y-60853750D01*
X140684250Y-60695000D01*
X140070000Y-60691928D01*
X139945518Y-60704188D01*
X139825820Y-60740498D01*
X139715506Y-60799463D01*
X139618815Y-60878815D01*
X139539463Y-60975506D01*
X139480498Y-61085820D01*
X139444188Y-61205518D01*
X139431928Y-61330000D01*
X135864768Y-61330000D01*
X135812312Y-61251495D01*
X135598505Y-61037688D01*
X135347095Y-60869701D01*
X135067743Y-60753989D01*
X134771184Y-60695000D01*
X134468816Y-60695000D01*
X134172257Y-60753989D01*
X133892905Y-60869701D01*
X133641495Y-61037688D01*
X133575056Y-61104127D01*
X133569502Y-61085820D01*
X133510537Y-60975506D01*
X133431185Y-60878815D01*
X133334494Y-60799463D01*
X133224180Y-60740498D01*
X133104482Y-60704188D01*
X132980000Y-60691928D01*
X132365750Y-60695000D01*
X132207000Y-60853750D01*
X131953000Y-60853750D01*
X131794250Y-60695000D01*
X131180000Y-60691928D01*
X131055518Y-60704188D01*
X130935820Y-60740498D01*
X130825506Y-60799463D01*
X130728815Y-60878815D01*
X130649463Y-60975506D01*
X130590498Y-61085820D01*
X130554188Y-61205518D01*
X130541928Y-61330000D01*
X128930000Y-61330000D01*
X128930000Y-52295475D01*
X130455000Y-52295475D01*
X130455000Y-52814525D01*
X130556261Y-53323601D01*
X130754893Y-53803141D01*
X131043262Y-54234715D01*
X131410285Y-54601738D01*
X131841859Y-54890107D01*
X132321399Y-55088739D01*
X132830475Y-55190000D01*
X133349525Y-55190000D01*
X133858601Y-55088739D01*
X134338141Y-54890107D01*
X134769715Y-54601738D01*
X135136738Y-54234715D01*
X135404711Y-53833665D01*
X138615000Y-53833665D01*
X138615000Y-54116335D01*
X138670147Y-54393574D01*
X138778320Y-54654727D01*
X138935363Y-54889759D01*
X139135241Y-55089637D01*
X139370273Y-55246680D01*
X139631426Y-55354853D01*
X139908665Y-55410000D01*
X140191335Y-55410000D01*
X140468574Y-55354853D01*
X140729727Y-55246680D01*
X140964759Y-55089637D01*
X141164637Y-54889759D01*
X141321680Y-54654727D01*
X141429853Y-54393574D01*
X141435000Y-54367699D01*
X141440147Y-54393574D01*
X141548320Y-54654727D01*
X141705363Y-54889759D01*
X141905241Y-55089637D01*
X142140273Y-55246680D01*
X142401426Y-55354853D01*
X142678665Y-55410000D01*
X142961335Y-55410000D01*
X143238574Y-55354853D01*
X143499727Y-55246680D01*
X143734759Y-55089637D01*
X143856694Y-54967702D01*
X144776903Y-54967702D01*
X144848486Y-55211671D01*
X145103996Y-55332571D01*
X145378184Y-55401300D01*
X145660512Y-55415217D01*
X145940130Y-55373787D01*
X146206292Y-55278603D01*
X146331514Y-55211671D01*
X146403097Y-54967702D01*
X145590000Y-54154605D01*
X144776903Y-54967702D01*
X143856694Y-54967702D01*
X143934637Y-54889759D01*
X144091680Y-54654727D01*
X144199853Y-54393574D01*
X144205513Y-54365118D01*
X144286397Y-54591292D01*
X144353329Y-54716514D01*
X144597298Y-54788097D01*
X145410395Y-53975000D01*
X145769605Y-53975000D01*
X146582702Y-54788097D01*
X146826671Y-54716514D01*
X146947571Y-54461004D01*
X146973212Y-54358711D01*
X146980147Y-54393574D01*
X147088320Y-54654727D01*
X147245363Y-54889759D01*
X147445241Y-55089637D01*
X147680273Y-55246680D01*
X147941426Y-55354853D01*
X148218665Y-55410000D01*
X148501335Y-55410000D01*
X148778574Y-55354853D01*
X149039727Y-55246680D01*
X149274759Y-55089637D01*
X149474637Y-54889759D01*
X149631680Y-54654727D01*
X149691928Y-54509275D01*
X149691928Y-54775000D01*
X149704188Y-54899482D01*
X149740498Y-55019180D01*
X149799463Y-55129494D01*
X149878815Y-55226185D01*
X149975506Y-55305537D01*
X150085820Y-55364502D01*
X150205518Y-55400812D01*
X150330000Y-55413072D01*
X151930000Y-55413072D01*
X152054482Y-55400812D01*
X152174180Y-55364502D01*
X152284494Y-55305537D01*
X152381185Y-55226185D01*
X152460537Y-55129494D01*
X152519502Y-55019180D01*
X152555812Y-54899482D01*
X152568072Y-54775000D01*
X152568072Y-53175000D01*
X152555812Y-53050518D01*
X152519502Y-52930820D01*
X152460537Y-52820506D01*
X152381185Y-52723815D01*
X152284494Y-52644463D01*
X152174180Y-52585498D01*
X152054482Y-52549188D01*
X151930000Y-52536928D01*
X150330000Y-52536928D01*
X150205518Y-52549188D01*
X150085820Y-52585498D01*
X149975506Y-52644463D01*
X149878815Y-52723815D01*
X149799463Y-52820506D01*
X149740498Y-52930820D01*
X149704188Y-53050518D01*
X149691928Y-53175000D01*
X149691928Y-53440725D01*
X149631680Y-53295273D01*
X149474637Y-53060241D01*
X149274759Y-52860363D01*
X149039727Y-52703320D01*
X148778574Y-52595147D01*
X148501335Y-52540000D01*
X148218665Y-52540000D01*
X147941426Y-52595147D01*
X147680273Y-52703320D01*
X147445241Y-52860363D01*
X147245363Y-53060241D01*
X147088320Y-53295273D01*
X146980147Y-53556426D01*
X146974487Y-53584882D01*
X146893603Y-53358708D01*
X146826671Y-53233486D01*
X146582702Y-53161903D01*
X145769605Y-53975000D01*
X145410395Y-53975000D01*
X144597298Y-53161903D01*
X144353329Y-53233486D01*
X144232429Y-53488996D01*
X144206788Y-53591289D01*
X144199853Y-53556426D01*
X144091680Y-53295273D01*
X143934637Y-53060241D01*
X143856694Y-52982298D01*
X144776903Y-52982298D01*
X145590000Y-53795395D01*
X146403097Y-52982298D01*
X146331514Y-52738329D01*
X146076004Y-52617429D01*
X145801816Y-52548700D01*
X145519488Y-52534783D01*
X145239870Y-52576213D01*
X144973708Y-52671397D01*
X144848486Y-52738329D01*
X144776903Y-52982298D01*
X143856694Y-52982298D01*
X143734759Y-52860363D01*
X143499727Y-52703320D01*
X143238574Y-52595147D01*
X142961335Y-52540000D01*
X142678665Y-52540000D01*
X142401426Y-52595147D01*
X142140273Y-52703320D01*
X141905241Y-52860363D01*
X141705363Y-53060241D01*
X141548320Y-53295273D01*
X141440147Y-53556426D01*
X141435000Y-53582301D01*
X141429853Y-53556426D01*
X141321680Y-53295273D01*
X141164637Y-53060241D01*
X140964759Y-52860363D01*
X140729727Y-52703320D01*
X140468574Y-52595147D01*
X140191335Y-52540000D01*
X139908665Y-52540000D01*
X139631426Y-52595147D01*
X139370273Y-52703320D01*
X139135241Y-52860363D01*
X138935363Y-53060241D01*
X138778320Y-53295273D01*
X138670147Y-53556426D01*
X138615000Y-53833665D01*
X135404711Y-53833665D01*
X135425107Y-53803141D01*
X135623739Y-53323601D01*
X135725000Y-52814525D01*
X135725000Y-52295475D01*
X135623739Y-51786399D01*
X135425107Y-51306859D01*
X135215838Y-50993665D01*
X140000000Y-50993665D01*
X140000000Y-51276335D01*
X140055147Y-51553574D01*
X140163320Y-51814727D01*
X140320363Y-52049759D01*
X140520241Y-52249637D01*
X140755273Y-52406680D01*
X141016426Y-52514853D01*
X141293665Y-52570000D01*
X141576335Y-52570000D01*
X141853574Y-52514853D01*
X142114727Y-52406680D01*
X142349759Y-52249637D01*
X142549637Y-52049759D01*
X142706680Y-51814727D01*
X142814853Y-51553574D01*
X142820000Y-51527699D01*
X142825147Y-51553574D01*
X142933320Y-51814727D01*
X143090363Y-52049759D01*
X143290241Y-52249637D01*
X143525273Y-52406680D01*
X143786426Y-52514853D01*
X144063665Y-52570000D01*
X144346335Y-52570000D01*
X144623574Y-52514853D01*
X144884727Y-52406680D01*
X145119759Y-52249637D01*
X145319637Y-52049759D01*
X145476680Y-51814727D01*
X145584853Y-51553574D01*
X145590000Y-51527699D01*
X145595147Y-51553574D01*
X145703320Y-51814727D01*
X145860363Y-52049759D01*
X146060241Y-52249637D01*
X146295273Y-52406680D01*
X146556426Y-52514853D01*
X146833665Y-52570000D01*
X147116335Y-52570000D01*
X147393574Y-52514853D01*
X147654727Y-52406680D01*
X147889759Y-52249637D01*
X148089637Y-52049759D01*
X148246680Y-51814727D01*
X148354853Y-51553574D01*
X148360000Y-51527699D01*
X148365147Y-51553574D01*
X148473320Y-51814727D01*
X148630363Y-52049759D01*
X148830241Y-52249637D01*
X149065273Y-52406680D01*
X149326426Y-52514853D01*
X149603665Y-52570000D01*
X149886335Y-52570000D01*
X150163574Y-52514853D01*
X150424727Y-52406680D01*
X150591157Y-52295475D01*
X155455000Y-52295475D01*
X155455000Y-52814525D01*
X155556261Y-53323601D01*
X155754893Y-53803141D01*
X156043262Y-54234715D01*
X156410285Y-54601738D01*
X156841859Y-54890107D01*
X157321399Y-55088739D01*
X157830475Y-55190000D01*
X158349525Y-55190000D01*
X158858601Y-55088739D01*
X159338141Y-54890107D01*
X159769715Y-54601738D01*
X160136738Y-54234715D01*
X160425107Y-53803141D01*
X160623739Y-53323601D01*
X160725000Y-52814525D01*
X160725000Y-52295475D01*
X160623739Y-51786399D01*
X160425107Y-51306859D01*
X160136738Y-50875285D01*
X159769715Y-50508262D01*
X159338141Y-50219893D01*
X158858601Y-50021261D01*
X158349525Y-49920000D01*
X157830475Y-49920000D01*
X157321399Y-50021261D01*
X156841859Y-50219893D01*
X156410285Y-50508262D01*
X156043262Y-50875285D01*
X155754893Y-51306859D01*
X155556261Y-51786399D01*
X155455000Y-52295475D01*
X150591157Y-52295475D01*
X150659759Y-52249637D01*
X150859637Y-52049759D01*
X151016680Y-51814727D01*
X151124853Y-51553574D01*
X151180000Y-51276335D01*
X151180000Y-50993665D01*
X151124853Y-50716426D01*
X151016680Y-50455273D01*
X150859637Y-50220241D01*
X150659759Y-50020363D01*
X150424727Y-49863320D01*
X150163574Y-49755147D01*
X149886335Y-49700000D01*
X149603665Y-49700000D01*
X149326426Y-49755147D01*
X149065273Y-49863320D01*
X148830241Y-50020363D01*
X148630363Y-50220241D01*
X148473320Y-50455273D01*
X148365147Y-50716426D01*
X148360000Y-50742301D01*
X148354853Y-50716426D01*
X148246680Y-50455273D01*
X148089637Y-50220241D01*
X147889759Y-50020363D01*
X147654727Y-49863320D01*
X147393574Y-49755147D01*
X147116335Y-49700000D01*
X146833665Y-49700000D01*
X146556426Y-49755147D01*
X146295273Y-49863320D01*
X146060241Y-50020363D01*
X145860363Y-50220241D01*
X145703320Y-50455273D01*
X145595147Y-50716426D01*
X145590000Y-50742301D01*
X145584853Y-50716426D01*
X145476680Y-50455273D01*
X145319637Y-50220241D01*
X145119759Y-50020363D01*
X144884727Y-49863320D01*
X144623574Y-49755147D01*
X144346335Y-49700000D01*
X144063665Y-49700000D01*
X143786426Y-49755147D01*
X143525273Y-49863320D01*
X143290241Y-50020363D01*
X143090363Y-50220241D01*
X142933320Y-50455273D01*
X142825147Y-50716426D01*
X142820000Y-50742301D01*
X142814853Y-50716426D01*
X142706680Y-50455273D01*
X142549637Y-50220241D01*
X142349759Y-50020363D01*
X142114727Y-49863320D01*
X141853574Y-49755147D01*
X141576335Y-49700000D01*
X141293665Y-49700000D01*
X141016426Y-49755147D01*
X140755273Y-49863320D01*
X140520241Y-50020363D01*
X140320363Y-50220241D01*
X140163320Y-50455273D01*
X140055147Y-50716426D01*
X140000000Y-50993665D01*
X135215838Y-50993665D01*
X135136738Y-50875285D01*
X134769715Y-50508262D01*
X134338141Y-50219893D01*
X133858601Y-50021261D01*
X133349525Y-49920000D01*
X132830475Y-49920000D01*
X132321399Y-50021261D01*
X131841859Y-50219893D01*
X131410285Y-50508262D01*
X131043262Y-50875285D01*
X130754893Y-51306859D01*
X130556261Y-51786399D01*
X130455000Y-52295475D01*
X128930000Y-52295475D01*
X128930000Y-43680000D01*
X165953547Y-43680000D01*
X165593262Y-44040285D01*
%TA.AperFunction,Conductor*%
D32*
G36*
X165593262Y-44040285D02*
G01*
X165304893Y-44471859D01*
X165106261Y-44951399D01*
X165005000Y-45460475D01*
X165005000Y-45979525D01*
X165106261Y-46488601D01*
X165304893Y-46968141D01*
X165593262Y-47399715D01*
X165960285Y-47766738D01*
X166391859Y-48055107D01*
X166871399Y-48253739D01*
X167380475Y-48355000D01*
X167899525Y-48355000D01*
X168408601Y-48253739D01*
X168888141Y-48055107D01*
X169319715Y-47766738D01*
X169518954Y-47567499D01*
X176132106Y-47567499D01*
X176348228Y-47934258D01*
X176808105Y-48174938D01*
X177306098Y-48321275D01*
X177823071Y-48367648D01*
X178339159Y-48312273D01*
X178834526Y-48157279D01*
X179251772Y-47934258D01*
X179467894Y-47567499D01*
X177800000Y-45899605D01*
X176132106Y-47567499D01*
X169518954Y-47567499D01*
X169686738Y-47399715D01*
X169975107Y-46968141D01*
X170173739Y-46488601D01*
X170275000Y-45979525D01*
X170275000Y-45743071D01*
X175152352Y-45743071D01*
X175207727Y-46259159D01*
X175362721Y-46754526D01*
X175585742Y-47171772D01*
X175952501Y-47387894D01*
X177620395Y-45720000D01*
X177979605Y-45720000D01*
X179647499Y-47387894D01*
X180014258Y-47171772D01*
X180254938Y-46711895D01*
X180401275Y-46213902D01*
X180447648Y-45696929D01*
X180392273Y-45180841D01*
X180237279Y-44685474D01*
X180014258Y-44268228D01*
X179647499Y-44052106D01*
X177979605Y-45720000D01*
X177620395Y-45720000D01*
X175952501Y-44052106D01*
X175585742Y-44268228D01*
X175345062Y-44728105D01*
X175198725Y-45226098D01*
X175152352Y-45743071D01*
X170275000Y-45743071D01*
X170275000Y-45460475D01*
X170173739Y-44951399D01*
X169975107Y-44471859D01*
X169686738Y-44040285D01*
X169326453Y-43680000D01*
X176245542Y-43680000D01*
X176132106Y-43872501D01*
X177800000Y-45540395D01*
X179467894Y-43872501D01*
X179354458Y-43680000D01*
X183490000Y-43680000D01*
X183490001Y-132690000D01*
X128930000Y-132690000D01*
X128930000Y-128049872D01*
X131115000Y-128049872D01*
X131115000Y-128490128D01*
X131200890Y-128921925D01*
X131369369Y-129328669D01*
X131613962Y-129694729D01*
X131925271Y-130006038D01*
X132291331Y-130250631D01*
X132698075Y-130419110D01*
X133129872Y-130505000D01*
X133570128Y-130505000D01*
X134001925Y-130419110D01*
X134408669Y-130250631D01*
X134774729Y-130006038D01*
X135086038Y-129694729D01*
X135270942Y-129418000D01*
X139531928Y-129418000D01*
X139544188Y-129542482D01*
X139580498Y-129662180D01*
X139639463Y-129772494D01*
X139718815Y-129869185D01*
X139815506Y-129948537D01*
X139925820Y-130007502D01*
X140045518Y-130043812D01*
X140170000Y-130056072D01*
X140684250Y-130053000D01*
X140843000Y-129894250D01*
X140843000Y-127795000D01*
X141097000Y-127795000D01*
X141097000Y-129894250D01*
X141255750Y-130053000D01*
X141770000Y-130056072D01*
X141894482Y-130043812D01*
X142014180Y-130007502D01*
X142124494Y-129948537D01*
X142221185Y-129869185D01*
X142300537Y-129772494D01*
X142356391Y-129668000D01*
X146361928Y-129668000D01*
X146374188Y-129792482D01*
X146410498Y-129912180D01*
X146469463Y-130022494D01*
X146548815Y-130119185D01*
X146645506Y-130198537D01*
X146755820Y-130257502D01*
X146875518Y-130293812D01*
X147000000Y-130306072D01*
X152114250Y-130303000D01*
X152273000Y-130144250D01*
X152273000Y-125095000D01*
X152527000Y-125095000D01*
X152527000Y-130144250D01*
X152685750Y-130303000D01*
X157800000Y-130306072D01*
X157924482Y-130293812D01*
X158044180Y-130257502D01*
X158154494Y-130198537D01*
X158251185Y-130119185D01*
X158330537Y-130022494D01*
X158389502Y-129912180D01*
X158425812Y-129792482D01*
X158438072Y-129668000D01*
X158437669Y-129088000D01*
X164656928Y-129088000D01*
X164669188Y-129212482D01*
X164705498Y-129332180D01*
X164764463Y-129442494D01*
X164843815Y-129539185D01*
X164940506Y-129618537D01*
X165050820Y-129677502D01*
X165170518Y-129713812D01*
X165295000Y-129726072D01*
X166084250Y-129723000D01*
X166243000Y-129564250D01*
X166243000Y-126365000D01*
X166497000Y-126365000D01*
X166497000Y-129564250D01*
X166655750Y-129723000D01*
X167445000Y-129726072D01*
X167569482Y-129713812D01*
X167689180Y-129677502D01*
X167799494Y-129618537D01*
X167896185Y-129539185D01*
X167975537Y-129442494D01*
X168034502Y-129332180D01*
X168070812Y-129212482D01*
X168083072Y-129088000D01*
X168080307Y-126779872D01*
X176835000Y-126779872D01*
X176835000Y-127220128D01*
X176920890Y-127651925D01*
X177089369Y-128058669D01*
X177333962Y-128424729D01*
X177645271Y-128736038D01*
X178011331Y-128980631D01*
X178418075Y-129149110D01*
X178849872Y-129235000D01*
X179290128Y-129235000D01*
X179721925Y-129149110D01*
X180128669Y-128980631D01*
X180494729Y-128736038D01*
X180806038Y-128424729D01*
X181050631Y-128058669D01*
X181219110Y-127651925D01*
X181305000Y-127220128D01*
X181305000Y-126779872D01*
X181219110Y-126348075D01*
X181050631Y-125941331D01*
X180806038Y-125575271D01*
X180494729Y-125263962D01*
X180128669Y-125019369D01*
X179721925Y-124850890D01*
X179290128Y-124765000D01*
X178849872Y-124765000D01*
X178418075Y-124850890D01*
X178011331Y-125019369D01*
X177645271Y-125263962D01*
X177333962Y-125575271D01*
X177089369Y-125941331D01*
X176920890Y-126348075D01*
X176835000Y-126779872D01*
X168080307Y-126779872D01*
X168080000Y-126523750D01*
X167921250Y-126365000D01*
X166497000Y-126365000D01*
X166243000Y-126365000D01*
X164818750Y-126365000D01*
X164660000Y-126523750D01*
X164656928Y-129088000D01*
X158437669Y-129088000D01*
X158435000Y-125253750D01*
X158276250Y-125095000D01*
X152527000Y-125095000D01*
X152273000Y-125095000D01*
X146523750Y-125095000D01*
X146365000Y-125253750D01*
X146361928Y-129668000D01*
X142356391Y-129668000D01*
X142359502Y-129662180D01*
X142395812Y-129542482D01*
X142408072Y-129418000D01*
X142405000Y-127953750D01*
X142246250Y-127795000D01*
X141097000Y-127795000D01*
X140843000Y-127795000D01*
X139693750Y-127795000D01*
X139535000Y-127953750D01*
X139531928Y-129418000D01*
X135270942Y-129418000D01*
X135330631Y-129328669D01*
X135499110Y-128921925D01*
X135585000Y-128490128D01*
X135585000Y-128049872D01*
X135499110Y-127618075D01*
X135330631Y-127211331D01*
X135086038Y-126845271D01*
X134774729Y-126533962D01*
X134408669Y-126289369D01*
X134001925Y-126120890D01*
X133570128Y-126035000D01*
X133129872Y-126035000D01*
X132698075Y-126120890D01*
X132291331Y-126289369D01*
X131925271Y-126533962D01*
X131613962Y-126845271D01*
X131369369Y-127211331D01*
X131200890Y-127618075D01*
X131115000Y-128049872D01*
X128930000Y-128049872D01*
X128930000Y-125918000D01*
X139531928Y-125918000D01*
X139535000Y-127382250D01*
X139693750Y-127541000D01*
X140843000Y-127541000D01*
X140843000Y-125441750D01*
X141097000Y-125441750D01*
X141097000Y-127541000D01*
X142246250Y-127541000D01*
X142405000Y-127382250D01*
X142408072Y-125918000D01*
X142395812Y-125793518D01*
X142359502Y-125673820D01*
X142300537Y-125563506D01*
X142221185Y-125466815D01*
X142124494Y-125387463D01*
X142014180Y-125328498D01*
X141894482Y-125292188D01*
X141770000Y-125279928D01*
X141255750Y-125283000D01*
X141097000Y-125441750D01*
X140843000Y-125441750D01*
X140684250Y-125283000D01*
X140170000Y-125279928D01*
X140045518Y-125292188D01*
X139925820Y-125328498D01*
X139815506Y-125387463D01*
X139718815Y-125466815D01*
X139639463Y-125563506D01*
X139580498Y-125673820D01*
X139544188Y-125793518D01*
X139531928Y-125918000D01*
X128930000Y-125918000D01*
X128930000Y-73439872D01*
X131115000Y-73439872D01*
X131115000Y-73880128D01*
X131200890Y-74311925D01*
X131369369Y-74718669D01*
X131613962Y-75084729D01*
X131925271Y-75396038D01*
X132291331Y-75640631D01*
X132698075Y-75809110D01*
X133129872Y-75895000D01*
X133570128Y-75895000D01*
X134001925Y-75809110D01*
X134408669Y-75640631D01*
X134774729Y-75396038D01*
X135086038Y-75084729D01*
X135330631Y-74718669D01*
X135499110Y-74311925D01*
X135585000Y-73880128D01*
X135585000Y-73439872D01*
X135499110Y-73008075D01*
X135330631Y-72601331D01*
X135086038Y-72235271D01*
X134774729Y-71923962D01*
X134408669Y-71679369D01*
X134001925Y-71510890D01*
X133570128Y-71425000D01*
X133129872Y-71425000D01*
X132698075Y-71510890D01*
X132291331Y-71679369D01*
X131925271Y-71923962D01*
X131613962Y-72235271D01*
X131369369Y-72601331D01*
X131200890Y-73008075D01*
X131115000Y-73439872D01*
X128930000Y-73439872D01*
X128930000Y-63130000D01*
X130541928Y-63130000D01*
X130554188Y-63254482D01*
X130590498Y-63374180D01*
X130649463Y-63484494D01*
X130728815Y-63581185D01*
X130825506Y-63660537D01*
X130935820Y-63719502D01*
X131055518Y-63755812D01*
X131180000Y-63768072D01*
X131794250Y-63765000D01*
X131953000Y-63606250D01*
X131953000Y-62357000D01*
X130703750Y-62357000D01*
X130545000Y-62515750D01*
X130541928Y-63130000D01*
X128930000Y-63130000D01*
X128930000Y-61330000D01*
X130541928Y-61330000D01*
X130545000Y-61944250D01*
X130703750Y-62103000D01*
X131953000Y-62103000D01*
X131953000Y-60853750D01*
X132207000Y-60853750D01*
X132207000Y-62103000D01*
X132227000Y-62103000D01*
X132227000Y-62357000D01*
X132207000Y-62357000D01*
X132207000Y-63606250D01*
X132365750Y-63765000D01*
X132980000Y-63768072D01*
X133104482Y-63755812D01*
X133224180Y-63719502D01*
X133334494Y-63660537D01*
X133431185Y-63581185D01*
X133510537Y-63484494D01*
X133569502Y-63374180D01*
X133575056Y-63355873D01*
X133641495Y-63422312D01*
X133892905Y-63590299D01*
X134172257Y-63706011D01*
X134468816Y-63765000D01*
X134771184Y-63765000D01*
X135028930Y-63713731D01*
X135961201Y-64646003D01*
X135984999Y-64675001D01*
X136100724Y-64769974D01*
X136232753Y-64840546D01*
X136376014Y-64884003D01*
X136487667Y-64895000D01*
X136487677Y-64895000D01*
X136525000Y-64898676D01*
X136562323Y-64895000D01*
X146439084Y-64895000D01*
X146527394Y-65002606D01*
X146593412Y-65056786D01*
X138753960Y-72896239D01*
X138724962Y-72920037D01*
X138701164Y-72949035D01*
X138701163Y-72949036D01*
X138629988Y-73035762D01*
X138559416Y-73167792D01*
X138515960Y-73311053D01*
X138501286Y-73460038D01*
X138504963Y-73497371D01*
X138504962Y-102397640D01*
X138501286Y-102434962D01*
X138504962Y-102472284D01*
X138504962Y-102472294D01*
X138515959Y-102583947D01*
X138551079Y-102699724D01*
X138559416Y-102727208D01*
X138629988Y-102859238D01*
X138664877Y-102901750D01*
X138724961Y-102974963D01*
X138753965Y-102998766D01*
X140798790Y-105043592D01*
X140755000Y-105263740D01*
X140755000Y-105556260D01*
X140812068Y-105843158D01*
X140924010Y-106113411D01*
X141086525Y-106356632D01*
X141218380Y-106488487D01*
X141145820Y-106510498D01*
X141035506Y-106569463D01*
X140938815Y-106648815D01*
X140859463Y-106745506D01*
X140800498Y-106855820D01*
X140764188Y-106975518D01*
X140751928Y-107100000D01*
X140751928Y-107832940D01*
X138706864Y-109878005D01*
X138663550Y-109913552D01*
X138521715Y-110086378D01*
X138455905Y-110209502D01*
X138416323Y-110283555D01*
X138351422Y-110497503D01*
X138329508Y-110720001D01*
X138334999Y-110775753D01*
X138335000Y-115792238D01*
X138329508Y-115847999D01*
X138351422Y-116070497D01*
X138416323Y-116284445D01*
X138440804Y-116330246D01*
X138521716Y-116481622D01*
X138663551Y-116654448D01*
X138706859Y-116689990D01*
X139531928Y-117515060D01*
X139531928Y-118298000D01*
X139544188Y-118422482D01*
X139580498Y-118542180D01*
X139639463Y-118652494D01*
X139718815Y-118749185D01*
X139815506Y-118828537D01*
X139835000Y-118838957D01*
X139835001Y-120104780D01*
X139792038Y-120140038D01*
X139681595Y-120274614D01*
X139599528Y-120428150D01*
X139548992Y-120594746D01*
X139531928Y-120768000D01*
X139531928Y-123768000D01*
X139548992Y-123941254D01*
X139599528Y-124107850D01*
X139681595Y-124261386D01*
X139792038Y-124395962D01*
X139926614Y-124506405D01*
X140080150Y-124588472D01*
X140246746Y-124639008D01*
X140420000Y-124656072D01*
X141520000Y-124656072D01*
X141693254Y-124639008D01*
X141859850Y-124588472D01*
X142013386Y-124506405D01*
X142147962Y-124395962D01*
X142258405Y-124261386D01*
X142340472Y-124107850D01*
X142391008Y-123941254D01*
X142408072Y-123768000D01*
X142408072Y-120768000D01*
X142391008Y-120594746D01*
X142340472Y-120428150D01*
X142258405Y-120274614D01*
X142252978Y-120268000D01*
X146361928Y-120268000D01*
X146365000Y-124682250D01*
X146523750Y-124841000D01*
X152273000Y-124841000D01*
X152273000Y-119791750D01*
X152527000Y-119791750D01*
X152527000Y-124841000D01*
X158276250Y-124841000D01*
X158435000Y-124682250D01*
X158435900Y-123388000D01*
X164656928Y-123388000D01*
X164660000Y-125952250D01*
X164818750Y-126111000D01*
X166243000Y-126111000D01*
X166243000Y-122911750D01*
X166497000Y-122911750D01*
X166497000Y-126111000D01*
X167921250Y-126111000D01*
X168080000Y-125952250D01*
X168083072Y-123388000D01*
X168070812Y-123263518D01*
X168034502Y-123143820D01*
X167975537Y-123033506D01*
X167896185Y-122936815D01*
X167799494Y-122857463D01*
X167689180Y-122798498D01*
X167569482Y-122762188D01*
X167445000Y-122749928D01*
X166655750Y-122753000D01*
X166497000Y-122911750D01*
X166243000Y-122911750D01*
X166084250Y-122753000D01*
X165295000Y-122749928D01*
X165170518Y-122762188D01*
X165050820Y-122798498D01*
X164940506Y-122857463D01*
X164843815Y-122936815D01*
X164764463Y-123033506D01*
X164705498Y-123143820D01*
X164669188Y-123263518D01*
X164656928Y-123388000D01*
X158435900Y-123388000D01*
X158438072Y-120268000D01*
X158425812Y-120143518D01*
X158389502Y-120023820D01*
X158330537Y-119913506D01*
X158251185Y-119816815D01*
X158154494Y-119737463D01*
X158044180Y-119678498D01*
X157924482Y-119642188D01*
X157800000Y-119629928D01*
X152685750Y-119633000D01*
X152527000Y-119791750D01*
X152273000Y-119791750D01*
X152114250Y-119633000D01*
X147000000Y-119629928D01*
X146875518Y-119642188D01*
X146755820Y-119678498D01*
X146645506Y-119737463D01*
X146548815Y-119816815D01*
X146469463Y-119913506D01*
X146410498Y-120023820D01*
X146374188Y-120143518D01*
X146361928Y-120268000D01*
X142252978Y-120268000D01*
X142147962Y-120140038D01*
X142105000Y-120104780D01*
X142105000Y-118838957D01*
X142124494Y-118828537D01*
X142221185Y-118749185D01*
X142300537Y-118652494D01*
X142359502Y-118542180D01*
X142395812Y-118422482D01*
X142408072Y-118298000D01*
X142408072Y-118118000D01*
X147811928Y-118118000D01*
X147824188Y-118242482D01*
X147860498Y-118362180D01*
X147919463Y-118472494D01*
X147998815Y-118569185D01*
X148095506Y-118648537D01*
X148205820Y-118707502D01*
X148325518Y-118743812D01*
X148450000Y-118756072D01*
X148714250Y-118753000D01*
X148873000Y-118594250D01*
X148873000Y-115945000D01*
X147973750Y-115945000D01*
X147815000Y-116103750D01*
X147811928Y-118118000D01*
X142408072Y-118118000D01*
X142408072Y-117515059D01*
X145970133Y-113952999D01*
X147812591Y-113952999D01*
X147815000Y-115532250D01*
X147973750Y-115691000D01*
X148873000Y-115691000D01*
X148873000Y-115671000D01*
X149127000Y-115671000D01*
X149127000Y-115691000D01*
X149147000Y-115691000D01*
X149147000Y-115945000D01*
X149127000Y-115945000D01*
X149127000Y-118594250D01*
X149285750Y-118753000D01*
X149550000Y-118756072D01*
X149674482Y-118743812D01*
X149794180Y-118707502D01*
X149850000Y-118677665D01*
X149905820Y-118707502D01*
X150025518Y-118743812D01*
X150150000Y-118756072D01*
X151250000Y-118756072D01*
X151374482Y-118743812D01*
X151494180Y-118707502D01*
X151550000Y-118677665D01*
X151605820Y-118707502D01*
X151725518Y-118743812D01*
X151850000Y-118756072D01*
X152114250Y-118753000D01*
X152273000Y-118594250D01*
X152273000Y-115945000D01*
X152253000Y-115945000D01*
X152253000Y-115691000D01*
X152273000Y-115691000D01*
X152273000Y-113041750D01*
X152114250Y-112883000D01*
X151850000Y-112879928D01*
X151725518Y-112892188D01*
X151713246Y-112895911D01*
X151711256Y-112892188D01*
X151648284Y-112774375D01*
X151630733Y-112752989D01*
X152510188Y-112752989D01*
X152662974Y-112905776D01*
X152527000Y-113041750D01*
X152527000Y-115691000D01*
X152547000Y-115691000D01*
X152547000Y-115945000D01*
X152527000Y-115945000D01*
X152527000Y-118594250D01*
X152685750Y-118753000D01*
X152950000Y-118756072D01*
X153074482Y-118743812D01*
X153194180Y-118707502D01*
X153250000Y-118677665D01*
X153305820Y-118707502D01*
X153425518Y-118743812D01*
X153550000Y-118756072D01*
X154650000Y-118756072D01*
X154774482Y-118743812D01*
X154894180Y-118707502D01*
X154950000Y-118677665D01*
X155005820Y-118707502D01*
X155125518Y-118743812D01*
X155250000Y-118756072D01*
X156350000Y-118756072D01*
X156474482Y-118743812D01*
X156594180Y-118707502D01*
X156704494Y-118648537D01*
X156801185Y-118569185D01*
X156880537Y-118472494D01*
X156939502Y-118362180D01*
X156975812Y-118242482D01*
X156988072Y-118118000D01*
X156988072Y-116953000D01*
X164656928Y-116953000D01*
X164656928Y-118888000D01*
X164669188Y-119012482D01*
X164705498Y-119132180D01*
X164764463Y-119242494D01*
X164843815Y-119339185D01*
X164940506Y-119418537D01*
X165050820Y-119477502D01*
X165170518Y-119513812D01*
X165295000Y-119526072D01*
X167445000Y-119526072D01*
X167569482Y-119513812D01*
X167689180Y-119477502D01*
X167799494Y-119418537D01*
X167896185Y-119339185D01*
X167975537Y-119242494D01*
X168034502Y-119132180D01*
X168070812Y-119012482D01*
X168083072Y-118888000D01*
X168083072Y-113188000D01*
X168070812Y-113063518D01*
X168034502Y-112943820D01*
X167975537Y-112833506D01*
X167896185Y-112736815D01*
X167799494Y-112657463D01*
X167689180Y-112598498D01*
X167569482Y-112562188D01*
X167445000Y-112549928D01*
X165391001Y-112549928D01*
X165391001Y-100049753D01*
X165396492Y-99994001D01*
X165374578Y-99771502D01*
X165309677Y-99557554D01*
X165204285Y-99360378D01*
X165153498Y-99298494D01*
X165062450Y-99187552D01*
X165019142Y-99152010D01*
X164194072Y-98326940D01*
X164194072Y-97144000D01*
X164181812Y-97019518D01*
X164145502Y-96899820D01*
X164086537Y-96789506D01*
X164007185Y-96692815D01*
X163910494Y-96613463D01*
X163800180Y-96554498D01*
X163680482Y-96518188D01*
X163556000Y-96505928D01*
X163441000Y-96505928D01*
X163441000Y-95518072D01*
X163556000Y-95518072D01*
X163680482Y-95505812D01*
X163800180Y-95469502D01*
X163910494Y-95410537D01*
X164007185Y-95331185D01*
X164086537Y-95234494D01*
X164145502Y-95124180D01*
X164181812Y-95004482D01*
X164194072Y-94880000D01*
X164194072Y-93166731D01*
X164341009Y-93019794D01*
X164370001Y-92996001D01*
X164393795Y-92967008D01*
X164393799Y-92967004D01*
X164464973Y-92880277D01*
X164464974Y-92880276D01*
X164535546Y-92748247D01*
X164579003Y-92604986D01*
X164590000Y-92493333D01*
X164590000Y-92493324D01*
X164593676Y-92456001D01*
X164590000Y-92418678D01*
X164590000Y-86015320D01*
X164593676Y-85977997D01*
X164590000Y-85940674D01*
X164590000Y-85940665D01*
X164579003Y-85829012D01*
X164535546Y-85685751D01*
X164464974Y-85553722D01*
X164370001Y-85437997D01*
X164341003Y-85414199D01*
X155885806Y-76959003D01*
X155862003Y-76929999D01*
X155746278Y-76835026D01*
X155614249Y-76764454D01*
X155470988Y-76720997D01*
X155359335Y-76710000D01*
X155359324Y-76710000D01*
X155322002Y-76706324D01*
X155284680Y-76710000D01*
X151498072Y-76710000D01*
X151498072Y-76470000D01*
X151485812Y-76345518D01*
X151449502Y-76225820D01*
X151390537Y-76115506D01*
X151311185Y-76018815D01*
X151214494Y-75939463D01*
X151104180Y-75880498D01*
X150984482Y-75844188D01*
X150860000Y-75831928D01*
X148860000Y-75831928D01*
X148735518Y-75844188D01*
X148615820Y-75880498D01*
X148505506Y-75939463D01*
X148408815Y-76018815D01*
X148329463Y-76115506D01*
X148270498Y-76225820D01*
X148234188Y-76345518D01*
X148221928Y-76470000D01*
X148221928Y-78470000D01*
X148234188Y-78594482D01*
X148270498Y-78714180D01*
X148329463Y-78824494D01*
X148408815Y-78921185D01*
X148505506Y-79000537D01*
X148615820Y-79059502D01*
X148735518Y-79095812D01*
X148860000Y-79108072D01*
X150860000Y-79108072D01*
X150984482Y-79095812D01*
X151104180Y-79059502D01*
X151214494Y-79000537D01*
X151311185Y-78921185D01*
X151390537Y-78824494D01*
X151449502Y-78714180D01*
X151485812Y-78594482D01*
X151498072Y-78470000D01*
X151498072Y-78230000D01*
X155007201Y-78230000D01*
X160633342Y-83856142D01*
X160572815Y-83905815D01*
X160493463Y-84002506D01*
X160434498Y-84112820D01*
X160398188Y-84232518D01*
X160385928Y-84357000D01*
X160385928Y-84807000D01*
X160398188Y-84931482D01*
X160434498Y-85051180D01*
X160493463Y-85161494D01*
X160564001Y-85247445D01*
X160564000Y-86202556D01*
X160493463Y-86288506D01*
X160434498Y-86398820D01*
X160398188Y-86518518D01*
X160385928Y-86643000D01*
X160385928Y-87093000D01*
X160398188Y-87217482D01*
X160434498Y-87337180D01*
X160493463Y-87447494D01*
X160572815Y-87544185D01*
X160669506Y-87623537D01*
X160779820Y-87682502D01*
X160899518Y-87718812D01*
X161024000Y-87731072D01*
X161624000Y-87731072D01*
X161748482Y-87718812D01*
X161868180Y-87682502D01*
X161978494Y-87623537D01*
X162075185Y-87544185D01*
X162154537Y-87447494D01*
X162213502Y-87337180D01*
X162249812Y-87217482D01*
X162262072Y-87093000D01*
X162262072Y-86643000D01*
X162249812Y-86518518D01*
X162213502Y-86398820D01*
X162154537Y-86288506D01*
X162084000Y-86202556D01*
X162084000Y-85306800D01*
X163070001Y-86292801D01*
X163070000Y-92141197D01*
X162769270Y-92441928D01*
X161056000Y-92441928D01*
X160931518Y-92454188D01*
X160811820Y-92490498D01*
X160701506Y-92549463D01*
X160604815Y-92628815D01*
X160525463Y-92725506D01*
X160466498Y-92835820D01*
X160430188Y-92955518D01*
X160417928Y-93080000D01*
X160417928Y-94880000D01*
X160430188Y-95004482D01*
X160466498Y-95124180D01*
X160525463Y-95234494D01*
X160604815Y-95331185D01*
X160701506Y-95410537D01*
X160811820Y-95469502D01*
X160931518Y-95505812D01*
X161056000Y-95518072D01*
X161171000Y-95518072D01*
X161171001Y-96505928D01*
X161056000Y-96505928D01*
X160931518Y-96518188D01*
X160811820Y-96554498D01*
X160701506Y-96613463D01*
X160604815Y-96692815D01*
X160525463Y-96789506D01*
X160466498Y-96899820D01*
X160430188Y-97019518D01*
X160417928Y-97144000D01*
X160417928Y-98944000D01*
X160430188Y-99068482D01*
X160466498Y-99188180D01*
X160525463Y-99298494D01*
X160604815Y-99395185D01*
X160701506Y-99474537D01*
X160811820Y-99533502D01*
X160931518Y-99569812D01*
X161056000Y-99582072D01*
X162238941Y-99582072D01*
X163121001Y-100464133D01*
X163121001Y-101077928D01*
X161056000Y-101077928D01*
X160931518Y-101090188D01*
X160811820Y-101126498D01*
X160701506Y-101185463D01*
X160604815Y-101264815D01*
X160525463Y-101361506D01*
X160466498Y-101471820D01*
X160430188Y-101591518D01*
X160417928Y-101716000D01*
X160417928Y-103429269D01*
X160170968Y-103676229D01*
X160181812Y-103640482D01*
X160194072Y-103516000D01*
X160191000Y-102901750D01*
X160032250Y-102743000D01*
X158433000Y-102743000D01*
X158433000Y-103992250D01*
X158591750Y-104151000D01*
X159556000Y-104154072D01*
X159680482Y-104141812D01*
X159716229Y-104130968D01*
X153589003Y-110258196D01*
X153559999Y-110281999D01*
X153529645Y-110318986D01*
X153465026Y-110397724D01*
X153426006Y-110470725D01*
X153394454Y-110529754D01*
X153350997Y-110673015D01*
X153340000Y-110784668D01*
X153340000Y-110784678D01*
X153336324Y-110822000D01*
X153340000Y-110859323D01*
X153340000Y-111432479D01*
X153249265Y-111358015D01*
X153117236Y-111287443D01*
X152973975Y-111243986D01*
X152862322Y-111232989D01*
X152862311Y-111232989D01*
X152824989Y-111229313D01*
X152787667Y-111232989D01*
X150193066Y-111232989D01*
X150269975Y-111139275D01*
X150340547Y-111007246D01*
X150384004Y-110863985D01*
X150395001Y-110752332D01*
X150395001Y-110752323D01*
X150398677Y-110715000D01*
X150395001Y-110677677D01*
X150395001Y-110256595D01*
X150410000Y-110258072D01*
X151310000Y-110258072D01*
X151434482Y-110245812D01*
X151554180Y-110209502D01*
X151664494Y-110150537D01*
X151761185Y-110071185D01*
X151840537Y-109974494D01*
X151899502Y-109864180D01*
X151935812Y-109744482D01*
X151948072Y-109620000D01*
X151948072Y-108820000D01*
X151935812Y-108695518D01*
X151899502Y-108575820D01*
X151840537Y-108465506D01*
X151761185Y-108368815D01*
X151664494Y-108289463D01*
X151554180Y-108230498D01*
X151434482Y-108194188D01*
X151310000Y-108181928D01*
X150896730Y-108181928D01*
X150402990Y-107688189D01*
X150402990Y-106692989D01*
X150590250Y-106691000D01*
X150749000Y-106532250D01*
X150749000Y-105283000D01*
X151003000Y-105283000D01*
X151003000Y-106532250D01*
X151161750Y-106691000D01*
X151451000Y-106694072D01*
X151575482Y-106681812D01*
X151695180Y-106645502D01*
X151805494Y-106586537D01*
X151902185Y-106507185D01*
X151981537Y-106410494D01*
X152040502Y-106300180D01*
X152076812Y-106180482D01*
X152089072Y-106056000D01*
X152086000Y-105441750D01*
X151927250Y-105283000D01*
X151003000Y-105283000D01*
X150749000Y-105283000D01*
X150729000Y-105283000D01*
X150729000Y-105029000D01*
X150749000Y-105029000D01*
X150749000Y-105009000D01*
X151003000Y-105009000D01*
X151003000Y-105029000D01*
X151927250Y-105029000D01*
X152086000Y-104870250D01*
X152089072Y-104256000D01*
X152076812Y-104131518D01*
X152040502Y-104011820D01*
X151981537Y-103901506D01*
X151902185Y-103804815D01*
X151805494Y-103725463D01*
X151695180Y-103666498D01*
X151575482Y-103630188D01*
X151451000Y-103617928D01*
X151372903Y-103618757D01*
X151389969Y-103562500D01*
X151394548Y-103516000D01*
X156417928Y-103516000D01*
X156430188Y-103640482D01*
X156466498Y-103760180D01*
X156525463Y-103870494D01*
X156604815Y-103967185D01*
X156701506Y-104046537D01*
X156811820Y-104105502D01*
X156931518Y-104141812D01*
X157056000Y-104154072D01*
X158020250Y-104151000D01*
X158179000Y-103992250D01*
X158179000Y-102743000D01*
X156579750Y-102743000D01*
X156421000Y-102901750D01*
X156417928Y-103516000D01*
X151394548Y-103516000D01*
X151406072Y-103399000D01*
X151406072Y-103160729D01*
X152850801Y-101716000D01*
X156417928Y-101716000D01*
X156421000Y-102330250D01*
X156579750Y-102489000D01*
X158179000Y-102489000D01*
X158179000Y-101239750D01*
X158433000Y-101239750D01*
X158433000Y-102489000D01*
X160032250Y-102489000D01*
X160191000Y-102330250D01*
X160194072Y-101716000D01*
X160181812Y-101591518D01*
X160145502Y-101471820D01*
X160086537Y-101361506D01*
X160007185Y-101264815D01*
X159910494Y-101185463D01*
X159800180Y-101126498D01*
X159680482Y-101090188D01*
X159556000Y-101077928D01*
X158591750Y-101081000D01*
X158433000Y-101239750D01*
X158179000Y-101239750D01*
X158020250Y-101081000D01*
X157056000Y-101077928D01*
X156931518Y-101090188D01*
X156811820Y-101126498D01*
X156701506Y-101185463D01*
X156604815Y-101264815D01*
X156525463Y-101361506D01*
X156466498Y-101471820D01*
X156430188Y-101591518D01*
X156417928Y-101716000D01*
X152850801Y-101716000D01*
X155762802Y-98804000D01*
X156417928Y-98804000D01*
X156417928Y-98944000D01*
X156430188Y-99068482D01*
X156466498Y-99188180D01*
X156525463Y-99298494D01*
X156604815Y-99395185D01*
X156701506Y-99474537D01*
X156811820Y-99533502D01*
X156931518Y-99569812D01*
X157056000Y-99582072D01*
X159556000Y-99582072D01*
X159680482Y-99569812D01*
X159800180Y-99533502D01*
X159910494Y-99474537D01*
X160007185Y-99395185D01*
X160086537Y-99298494D01*
X160145502Y-99188180D01*
X160181812Y-99068482D01*
X160194072Y-98944000D01*
X160194072Y-97144000D01*
X160181812Y-97019518D01*
X160145502Y-96899820D01*
X160086537Y-96789506D01*
X160007185Y-96692815D01*
X159910494Y-96613463D01*
X159800180Y-96554498D01*
X159680482Y-96518188D01*
X159556000Y-96505928D01*
X157056000Y-96505928D01*
X156931518Y-96518188D01*
X156811820Y-96554498D01*
X156799969Y-96560832D01*
X157842730Y-95518072D01*
X159556000Y-95518072D01*
X159680482Y-95505812D01*
X159800180Y-95469502D01*
X159910494Y-95410537D01*
X160007185Y-95331185D01*
X160086537Y-95234494D01*
X160145502Y-95124180D01*
X160181812Y-95004482D01*
X160194072Y-94880000D01*
X160194072Y-93080000D01*
X160181812Y-92955518D01*
X160145502Y-92835820D01*
X160086537Y-92725506D01*
X160007185Y-92628815D01*
X159910494Y-92549463D01*
X159800180Y-92490498D01*
X159680482Y-92454188D01*
X159556000Y-92441928D01*
X157056000Y-92441928D01*
X156931518Y-92454188D01*
X156811820Y-92490498D01*
X156701506Y-92549463D01*
X156604815Y-92628815D01*
X156525463Y-92725506D01*
X156466498Y-92835820D01*
X156430188Y-92955518D01*
X156417928Y-93080000D01*
X156417928Y-94793270D01*
X151405224Y-99805974D01*
X151294250Y-99695000D01*
X150495000Y-99695000D01*
X150495000Y-99715000D01*
X150241000Y-99715000D01*
X150241000Y-99695000D01*
X150221000Y-99695000D01*
X150221000Y-99441000D01*
X150241000Y-99441000D01*
X150241000Y-99421000D01*
X150495000Y-99421000D01*
X150495000Y-99441000D01*
X151294250Y-99441000D01*
X151453000Y-99282250D01*
X151456072Y-99093000D01*
X151443812Y-98968518D01*
X151407502Y-98848820D01*
X151348537Y-98738506D01*
X151269185Y-98641815D01*
X151233959Y-98612906D01*
X151310618Y-98519497D01*
X151390375Y-98370283D01*
X151439488Y-98208377D01*
X151456072Y-98040000D01*
X151456072Y-97540000D01*
X151439488Y-97371623D01*
X151390375Y-97209717D01*
X151310618Y-97060503D01*
X151203284Y-96929716D01*
X151151415Y-96887149D01*
X151160606Y-96879606D01*
X151264831Y-96752608D01*
X151337719Y-96616245D01*
X151416001Y-96552001D01*
X151439804Y-96522997D01*
X153814730Y-94148072D01*
X154978000Y-94148072D01*
X155102482Y-94135812D01*
X155222180Y-94099502D01*
X155332494Y-94040537D01*
X155429185Y-93961185D01*
X155508537Y-93864494D01*
X155567502Y-93754180D01*
X155603812Y-93634482D01*
X155616072Y-93510000D01*
X155616072Y-91910000D01*
X155603812Y-91785518D01*
X155567502Y-91665820D01*
X155508537Y-91555506D01*
X155429185Y-91458815D01*
X155332494Y-91379463D01*
X155222180Y-91320498D01*
X155102482Y-91284188D01*
X155094039Y-91283357D01*
X155292637Y-91084759D01*
X155449680Y-90849727D01*
X155557853Y-90588574D01*
X155613000Y-90311335D01*
X155613000Y-90028665D01*
X155568509Y-89804999D01*
X156140819Y-89804999D01*
X156054795Y-89933744D01*
X155976774Y-90122102D01*
X155937000Y-90322061D01*
X155937000Y-90525939D01*
X155976774Y-90725898D01*
X156054795Y-90914256D01*
X156168063Y-91083774D01*
X156312226Y-91227937D01*
X156481744Y-91341205D01*
X156670102Y-91419226D01*
X156870061Y-91459000D01*
X157073939Y-91459000D01*
X157273898Y-91419226D01*
X157462256Y-91341205D01*
X157631774Y-91227937D01*
X157675711Y-91184000D01*
X158204678Y-91184000D01*
X158242000Y-91187676D01*
X158279322Y-91184000D01*
X158279333Y-91184000D01*
X158390986Y-91173003D01*
X158534247Y-91129546D01*
X158581905Y-91104072D01*
X159300000Y-91104072D01*
X159424482Y-91091812D01*
X159544180Y-91055502D01*
X159654494Y-90996537D01*
X159751185Y-90917185D01*
X159830537Y-90820494D01*
X159889502Y-90710180D01*
X159925812Y-90590482D01*
X159938072Y-90466000D01*
X160361928Y-90466000D01*
X160374188Y-90590482D01*
X160410498Y-90710180D01*
X160469463Y-90820494D01*
X160548815Y-90917185D01*
X160645506Y-90996537D01*
X160755820Y-91055502D01*
X160875518Y-91091812D01*
X161000000Y-91104072D01*
X161264250Y-91101000D01*
X161423000Y-90942250D01*
X161423000Y-90043000D01*
X161677000Y-90043000D01*
X161677000Y-90942250D01*
X161835750Y-91101000D01*
X162100000Y-91104072D01*
X162224482Y-91091812D01*
X162344180Y-91055502D01*
X162454494Y-90996537D01*
X162551185Y-90917185D01*
X162630537Y-90820494D01*
X162689502Y-90710180D01*
X162725812Y-90590482D01*
X162738072Y-90466000D01*
X162735000Y-90201750D01*
X162576250Y-90043000D01*
X161677000Y-90043000D01*
X161423000Y-90043000D01*
X160523750Y-90043000D01*
X160365000Y-90201750D01*
X160361928Y-90466000D01*
X159938072Y-90466000D01*
X159938072Y-89366000D01*
X160361928Y-89366000D01*
X160365000Y-89630250D01*
X160523750Y-89789000D01*
X161423000Y-89789000D01*
X161423000Y-88889750D01*
X161677000Y-88889750D01*
X161677000Y-89789000D01*
X162576250Y-89789000D01*
X162735000Y-89630250D01*
X162738072Y-89366000D01*
X162725812Y-89241518D01*
X162689502Y-89121820D01*
X162630537Y-89011506D01*
X162551185Y-88914815D01*
X162454494Y-88835463D01*
X162344180Y-88776498D01*
X162224482Y-88740188D01*
X162100000Y-88727928D01*
X161835750Y-88731000D01*
X161677000Y-88889750D01*
X161423000Y-88889750D01*
X161264250Y-88731000D01*
X161000000Y-88727928D01*
X160875518Y-88740188D01*
X160755820Y-88776498D01*
X160645506Y-88835463D01*
X160548815Y-88914815D01*
X160469463Y-89011506D01*
X160410498Y-89121820D01*
X160374188Y-89241518D01*
X160361928Y-89366000D01*
X159938072Y-89366000D01*
X159925812Y-89241518D01*
X159889502Y-89121820D01*
X159830537Y-89011506D01*
X159751185Y-88914815D01*
X159654494Y-88835463D01*
X159544180Y-88776498D01*
X159424482Y-88740188D01*
X159300000Y-88727928D01*
X158636730Y-88727928D01*
X158442802Y-88534001D01*
X158419000Y-88504998D01*
X158303275Y-88410025D01*
X158171246Y-88339453D01*
X158027985Y-88295996D01*
X157916332Y-88284999D01*
X157916321Y-88284999D01*
X157878999Y-88281323D01*
X157841677Y-88284999D01*
X155459923Y-88284999D01*
X155557853Y-88048574D01*
X155613000Y-87771335D01*
X155613000Y-87488665D01*
X155557853Y-87211426D01*
X155521951Y-87124750D01*
X158289000Y-87124750D01*
X158301594Y-87233524D01*
X158340968Y-87352249D01*
X158402748Y-87461012D01*
X158484559Y-87555631D01*
X158583258Y-87632473D01*
X158695051Y-87688582D01*
X158815643Y-87721804D01*
X158938250Y-87728000D01*
X159097000Y-87569250D01*
X159097000Y-86966000D01*
X159351000Y-86966000D01*
X159351000Y-87569250D01*
X159509750Y-87728000D01*
X159632357Y-87721804D01*
X159752949Y-87688582D01*
X159864742Y-87632473D01*
X159963441Y-87555631D01*
X160045252Y-87461012D01*
X160107032Y-87352249D01*
X160146406Y-87233524D01*
X160159000Y-87124750D01*
X160000250Y-86966000D01*
X159351000Y-86966000D01*
X159097000Y-86966000D01*
X158447750Y-86966000D01*
X158289000Y-87124750D01*
X155521951Y-87124750D01*
X155459923Y-86975001D01*
X157553677Y-86975001D01*
X157590999Y-86978677D01*
X157628321Y-86975001D01*
X157628332Y-86975001D01*
X157739985Y-86964004D01*
X157883246Y-86920547D01*
X158015275Y-86849975D01*
X158131000Y-86755002D01*
X158154803Y-86725998D01*
X158291547Y-86589254D01*
X158289000Y-86611250D01*
X158447750Y-86770000D01*
X159097000Y-86770000D01*
X159097000Y-86166750D01*
X159351000Y-86166750D01*
X159351000Y-86770000D01*
X160000250Y-86770000D01*
X160159000Y-86611250D01*
X160146406Y-86502476D01*
X160107032Y-86383751D01*
X160045252Y-86274988D01*
X159963441Y-86180369D01*
X159864742Y-86103527D01*
X159752949Y-86047418D01*
X159632357Y-86014196D01*
X159509750Y-86008000D01*
X159351000Y-86166750D01*
X159097000Y-86166750D01*
X158938250Y-86008000D01*
X158869318Y-86011484D01*
X159435730Y-85445072D01*
X159524000Y-85445072D01*
X159648482Y-85432812D01*
X159768180Y-85396502D01*
X159878494Y-85337537D01*
X159975185Y-85258185D01*
X160054537Y-85161494D01*
X160113502Y-85051180D01*
X160149812Y-84931482D01*
X160162072Y-84807000D01*
X160162072Y-84357000D01*
X160149812Y-84232518D01*
X160113502Y-84112820D01*
X160054537Y-84002506D01*
X159975185Y-83905815D01*
X159878494Y-83826463D01*
X159768180Y-83767498D01*
X159648482Y-83731188D01*
X159524000Y-83718928D01*
X158924000Y-83718928D01*
X158799518Y-83731188D01*
X158679820Y-83767498D01*
X158569506Y-83826463D01*
X158472815Y-83905815D01*
X158393463Y-84002506D01*
X158334498Y-84112820D01*
X158298188Y-84232518D01*
X158285928Y-84357000D01*
X158285928Y-84445270D01*
X157276198Y-85455001D01*
X155568509Y-85455001D01*
X155613000Y-85231335D01*
X155613000Y-84948665D01*
X155557853Y-84671426D01*
X155449680Y-84410273D01*
X155292637Y-84175241D01*
X155092759Y-83975363D01*
X154857727Y-83818320D01*
X154596574Y-83710147D01*
X154319335Y-83655000D01*
X154036665Y-83655000D01*
X153759426Y-83710147D01*
X153498273Y-83818320D01*
X153263241Y-83975363D01*
X153063363Y-84175241D01*
X152906320Y-84410273D01*
X152798147Y-84671426D01*
X152743000Y-84948665D01*
X152743000Y-85231335D01*
X152787491Y-85455001D01*
X148010324Y-85455001D01*
X147972999Y-85451325D01*
X147945352Y-85454048D01*
X147949904Y-85439039D01*
X147827915Y-85217000D01*
X146685000Y-85217000D01*
X146685000Y-85237000D01*
X146431000Y-85237000D01*
X146431000Y-85217000D01*
X145288085Y-85217000D01*
X145166096Y-85439039D01*
X145206754Y-85573087D01*
X145326963Y-85827420D01*
X145494481Y-86053414D01*
X145702869Y-86242385D01*
X145888865Y-86353933D01*
X145878273Y-86358320D01*
X145643241Y-86515363D01*
X145443363Y-86715241D01*
X145286320Y-86950273D01*
X145178147Y-87211426D01*
X145123000Y-87488665D01*
X145123000Y-87771335D01*
X145159312Y-87953887D01*
X144921997Y-88191202D01*
X144892999Y-88215000D01*
X144869201Y-88243998D01*
X144869200Y-88243999D01*
X144798025Y-88330725D01*
X144727453Y-88462755D01*
X144683997Y-88606016D01*
X144669323Y-88755001D01*
X144673000Y-88792333D01*
X144672999Y-96145677D01*
X144669323Y-96182999D01*
X144672999Y-96220321D01*
X144672999Y-96220331D01*
X144683996Y-96331984D01*
X144714410Y-96432246D01*
X144727453Y-96475245D01*
X144798025Y-96607275D01*
X144833911Y-96651002D01*
X144892998Y-96723000D01*
X144922002Y-96746803D01*
X147729928Y-99554730D01*
X147729928Y-99581270D01*
X146514988Y-100796211D01*
X146485990Y-100820009D01*
X146462192Y-100849007D01*
X146462191Y-100849008D01*
X146391016Y-100935734D01*
X146320444Y-101067764D01*
X146302628Y-101126498D01*
X146276988Y-101211024D01*
X146274159Y-101239750D01*
X146262314Y-101360010D01*
X146265991Y-101397342D01*
X146265990Y-107936190D01*
X144175001Y-105845202D01*
X144175001Y-86302323D01*
X144178677Y-86265000D01*
X144175001Y-86227677D01*
X144175001Y-86227668D01*
X144164004Y-86116015D01*
X144120547Y-85972754D01*
X144049975Y-85840725D01*
X143955002Y-85725000D01*
X143926004Y-85701202D01*
X143681210Y-85456408D01*
X143725000Y-85236260D01*
X143725000Y-84943740D01*
X143684665Y-84740961D01*
X145166096Y-84740961D01*
X145288085Y-84963000D01*
X146431000Y-84963000D01*
X146431000Y-83819376D01*
X146685000Y-83819376D01*
X146685000Y-84963000D01*
X147827915Y-84963000D01*
X147949904Y-84740961D01*
X147909246Y-84606913D01*
X147789037Y-84352580D01*
X147621519Y-84126586D01*
X147413131Y-83937615D01*
X147171881Y-83792930D01*
X146907040Y-83698091D01*
X146685000Y-83819376D01*
X146431000Y-83819376D01*
X146208960Y-83698091D01*
X145944119Y-83792930D01*
X145702869Y-83937615D01*
X145494481Y-84126586D01*
X145326963Y-84352580D01*
X145206754Y-84606913D01*
X145166096Y-84740961D01*
X143684665Y-84740961D01*
X143667932Y-84656842D01*
X143555990Y-84386589D01*
X143393475Y-84143368D01*
X143186632Y-83936525D01*
X142943411Y-83774010D01*
X142673158Y-83662068D01*
X142386260Y-83605000D01*
X142093740Y-83605000D01*
X141824999Y-83658456D01*
X141824999Y-81594483D01*
X142078967Y-81645000D01*
X142401033Y-81645000D01*
X142716912Y-81582168D01*
X143014463Y-81458918D01*
X143282252Y-81279987D01*
X143509987Y-81052252D01*
X143688918Y-80784463D01*
X143812168Y-80486912D01*
X143875000Y-80171033D01*
X143875000Y-79848967D01*
X143812168Y-79533088D01*
X143688918Y-79235537D01*
X143509987Y-78967748D01*
X143282252Y-78740013D01*
X143282233Y-78740000D01*
X143282252Y-78739987D01*
X143509987Y-78512252D01*
X143688918Y-78244463D01*
X143812168Y-77946912D01*
X143875000Y-77631033D01*
X143875000Y-77308967D01*
X143812168Y-76993088D01*
X143688918Y-76695537D01*
X143509987Y-76427748D01*
X143282252Y-76200013D01*
X143282233Y-76200000D01*
X143282252Y-76199987D01*
X143509987Y-75972252D01*
X143688918Y-75704463D01*
X143812168Y-75406912D01*
X143875000Y-75091033D01*
X143875000Y-74768967D01*
X143812168Y-74453088D01*
X143688918Y-74155537D01*
X143509987Y-73887748D01*
X143282252Y-73660013D01*
X143282233Y-73660000D01*
X143282252Y-73659987D01*
X143509987Y-73432252D01*
X143688918Y-73164463D01*
X143812168Y-72866912D01*
X143875000Y-72551033D01*
X143875000Y-72228967D01*
X143812168Y-71913088D01*
X143688918Y-71615537D01*
X143509987Y-71347748D01*
X143282252Y-71120013D01*
X143014463Y-70941082D01*
X142904336Y-70895466D01*
X148576832Y-65222969D01*
X148606500Y-65231969D01*
X148770000Y-65248072D01*
X149170000Y-65248072D01*
X149333500Y-65231969D01*
X149490716Y-65184278D01*
X149635608Y-65106831D01*
X149762606Y-65002606D01*
X149866831Y-64875608D01*
X149944278Y-64730716D01*
X149991969Y-64573500D01*
X150008072Y-64410000D01*
X150008072Y-64342873D01*
X166880001Y-81214803D01*
X166880000Y-83811821D01*
X166693368Y-83936525D01*
X166486525Y-84143368D01*
X166324010Y-84386589D01*
X166212068Y-84656842D01*
X166155000Y-84943740D01*
X166155000Y-85236260D01*
X166212068Y-85523158D01*
X166324010Y-85793411D01*
X166486525Y-86036632D01*
X166693368Y-86243475D01*
X166867760Y-86360000D01*
X166693368Y-86476525D01*
X166486525Y-86683368D01*
X166324010Y-86926589D01*
X166212068Y-87196842D01*
X166155000Y-87483740D01*
X166155000Y-87776260D01*
X166212068Y-88063158D01*
X166324010Y-88333411D01*
X166486525Y-88576632D01*
X166693368Y-88783475D01*
X166867760Y-88900000D01*
X166693368Y-89016525D01*
X166486525Y-89223368D01*
X166324010Y-89466589D01*
X166212068Y-89736842D01*
X166155000Y-90023740D01*
X166155000Y-90316260D01*
X166212068Y-90603158D01*
X166324010Y-90873411D01*
X166486525Y-91116632D01*
X166693368Y-91323475D01*
X166867760Y-91440000D01*
X166693368Y-91556525D01*
X166486525Y-91763368D01*
X166324010Y-92006589D01*
X166212068Y-92276842D01*
X166155000Y-92563740D01*
X166155000Y-92856260D01*
X166212068Y-93143158D01*
X166324010Y-93413411D01*
X166486525Y-93656632D01*
X166693368Y-93863475D01*
X166867760Y-93980000D01*
X166693368Y-94096525D01*
X166486525Y-94303368D01*
X166324010Y-94546589D01*
X166212068Y-94816842D01*
X166155000Y-95103740D01*
X166155000Y-95396260D01*
X166212068Y-95683158D01*
X166324010Y-95953411D01*
X166486525Y-96196632D01*
X166693368Y-96403475D01*
X166867760Y-96520000D01*
X166693368Y-96636525D01*
X166486525Y-96843368D01*
X166324010Y-97086589D01*
X166212068Y-97356842D01*
X166155000Y-97643740D01*
X166155000Y-97936260D01*
X166212068Y-98223158D01*
X166324010Y-98493411D01*
X166486525Y-98736632D01*
X166693368Y-98943475D01*
X166867760Y-99060000D01*
X166693368Y-99176525D01*
X166486525Y-99383368D01*
X166324010Y-99626589D01*
X166212068Y-99896842D01*
X166155000Y-100183740D01*
X166155000Y-100476260D01*
X166212068Y-100763158D01*
X166324010Y-101033411D01*
X166486525Y-101276632D01*
X166693368Y-101483475D01*
X166867760Y-101600000D01*
X166693368Y-101716525D01*
X166486525Y-101923368D01*
X166324010Y-102166589D01*
X166212068Y-102436842D01*
X166155000Y-102723740D01*
X166155000Y-103016260D01*
X166212068Y-103303158D01*
X166324010Y-103573411D01*
X166486525Y-103816632D01*
X166693368Y-104023475D01*
X166867760Y-104140000D01*
X166693368Y-104256525D01*
X166486525Y-104463368D01*
X166324010Y-104706589D01*
X166212068Y-104976842D01*
X166155000Y-105263740D01*
X166155000Y-105556260D01*
X166212068Y-105843158D01*
X166324010Y-106113411D01*
X166486525Y-106356632D01*
X166618380Y-106488487D01*
X166545820Y-106510498D01*
X166435506Y-106569463D01*
X166338815Y-106648815D01*
X166259463Y-106745506D01*
X166200498Y-106855820D01*
X166164188Y-106975518D01*
X166151928Y-107100000D01*
X166151928Y-108800000D01*
X166164188Y-108924482D01*
X166200498Y-109044180D01*
X166259463Y-109154494D01*
X166338815Y-109251185D01*
X166435506Y-109330537D01*
X166545820Y-109389502D01*
X166665518Y-109425812D01*
X166790000Y-109438072D01*
X168490000Y-109438072D01*
X168614482Y-109425812D01*
X168734180Y-109389502D01*
X168844494Y-109330537D01*
X168941185Y-109251185D01*
X169020537Y-109154494D01*
X169079502Y-109044180D01*
X169115812Y-108924482D01*
X169128072Y-108800000D01*
X169128072Y-107100000D01*
X169115812Y-106975518D01*
X169079502Y-106855820D01*
X169020537Y-106745506D01*
X168941185Y-106648815D01*
X168844494Y-106569463D01*
X168734180Y-106510498D01*
X168661620Y-106488487D01*
X168793475Y-106356632D01*
X168955990Y-106113411D01*
X169067932Y-105843158D01*
X169125000Y-105556260D01*
X169125000Y-105263740D01*
X169067932Y-104976842D01*
X168955990Y-104706589D01*
X168793475Y-104463368D01*
X168586632Y-104256525D01*
X168412240Y-104140000D01*
X168586632Y-104023475D01*
X168793475Y-103816632D01*
X168955990Y-103573411D01*
X169067932Y-103303158D01*
X169125000Y-103016260D01*
X169125000Y-102723740D01*
X169067932Y-102436842D01*
X168955990Y-102166589D01*
X168793475Y-101923368D01*
X168586632Y-101716525D01*
X168412240Y-101600000D01*
X168586632Y-101483475D01*
X168793475Y-101276632D01*
X168955990Y-101033411D01*
X169067932Y-100763158D01*
X169125000Y-100476260D01*
X169125000Y-100183740D01*
X169067932Y-99896842D01*
X168955990Y-99626589D01*
X168793475Y-99383368D01*
X168586632Y-99176525D01*
X168412240Y-99060000D01*
X168586632Y-98943475D01*
X168793475Y-98736632D01*
X168955990Y-98493411D01*
X169067932Y-98223158D01*
X169125000Y-97936260D01*
X169125000Y-97643740D01*
X169067932Y-97356842D01*
X168955990Y-97086589D01*
X168793475Y-96843368D01*
X168586632Y-96636525D01*
X168412240Y-96520000D01*
X168586632Y-96403475D01*
X168793475Y-96196632D01*
X168955990Y-95953411D01*
X169067932Y-95683158D01*
X169125000Y-95396260D01*
X169125000Y-95103740D01*
X169067932Y-94816842D01*
X168955990Y-94546589D01*
X168793475Y-94303368D01*
X168586632Y-94096525D01*
X168412240Y-93980000D01*
X168586632Y-93863475D01*
X168793475Y-93656632D01*
X168955990Y-93413411D01*
X169067932Y-93143158D01*
X169125000Y-92856260D01*
X169125000Y-92563740D01*
X169067932Y-92276842D01*
X168955990Y-92006589D01*
X168793475Y-91763368D01*
X168586632Y-91556525D01*
X168412240Y-91440000D01*
X168586632Y-91323475D01*
X168793475Y-91116632D01*
X168955990Y-90873411D01*
X169067932Y-90603158D01*
X169125000Y-90316260D01*
X169125000Y-90023740D01*
X169067932Y-89736842D01*
X168955990Y-89466589D01*
X168793475Y-89223368D01*
X168586632Y-89016525D01*
X168412240Y-88900000D01*
X168586632Y-88783475D01*
X168793475Y-88576632D01*
X168955990Y-88333411D01*
X169067932Y-88063158D01*
X169125000Y-87776260D01*
X169125000Y-87483740D01*
X169067932Y-87196842D01*
X168955990Y-86926589D01*
X168793475Y-86683368D01*
X168586632Y-86476525D01*
X168412240Y-86360000D01*
X168586632Y-86243475D01*
X168793475Y-86036632D01*
X168955990Y-85793411D01*
X169067932Y-85523158D01*
X169125000Y-85236260D01*
X169125000Y-84943740D01*
X169067932Y-84656842D01*
X168955990Y-84386589D01*
X168793475Y-84143368D01*
X168586632Y-83936525D01*
X168400000Y-83811822D01*
X168400000Y-80937322D01*
X168403676Y-80899999D01*
X168400000Y-80862676D01*
X168400000Y-80862667D01*
X168389003Y-80751014D01*
X168345546Y-80607753D01*
X168274974Y-80475724D01*
X168180001Y-80359999D01*
X168151003Y-80336201D01*
X161254674Y-73439872D01*
X176835000Y-73439872D01*
X176835000Y-73880128D01*
X176920890Y-74311925D01*
X177089369Y-74718669D01*
X177333962Y-75084729D01*
X177645271Y-75396038D01*
X178011331Y-75640631D01*
X178418075Y-75809110D01*
X178849872Y-75895000D01*
X179290128Y-75895000D01*
X179721925Y-75809110D01*
X180128669Y-75640631D01*
X180494729Y-75396038D01*
X180806038Y-75084729D01*
X181050631Y-74718669D01*
X181219110Y-74311925D01*
X181305000Y-73880128D01*
X181305000Y-73439872D01*
X181219110Y-73008075D01*
X181050631Y-72601331D01*
X180806038Y-72235271D01*
X180494729Y-71923962D01*
X180128669Y-71679369D01*
X179721925Y-71510890D01*
X179290128Y-71425000D01*
X178849872Y-71425000D01*
X178418075Y-71510890D01*
X178011331Y-71679369D01*
X177645271Y-71923962D01*
X177333962Y-72235271D01*
X177089369Y-72601331D01*
X176920890Y-73008075D01*
X176835000Y-73439872D01*
X161254674Y-73439872D01*
X150008072Y-62193271D01*
X150008072Y-61955000D01*
X149991969Y-61791500D01*
X149944278Y-61634284D01*
X149866831Y-61489392D01*
X149762606Y-61362394D01*
X149635608Y-61258169D01*
X149490716Y-61180722D01*
X149333500Y-61133031D01*
X149170000Y-61116928D01*
X148770000Y-61116928D01*
X148606500Y-61133031D01*
X148449284Y-61180722D01*
X148304392Y-61258169D01*
X148177394Y-61362394D01*
X148145000Y-61401866D01*
X148112606Y-61362394D01*
X147985608Y-61258169D01*
X147840716Y-61180722D01*
X147683500Y-61133031D01*
X147520000Y-61116928D01*
X147120000Y-61116928D01*
X146956500Y-61133031D01*
X146799284Y-61180722D01*
X146654392Y-61258169D01*
X146527394Y-61362394D01*
X146439084Y-61470000D01*
X144848313Y-61470000D01*
X144702312Y-61251495D01*
X144488505Y-61037688D01*
X144372948Y-60960475D01*
X165005000Y-60960475D01*
X165005000Y-61479525D01*
X165106261Y-61988601D01*
X165304893Y-62468141D01*
X165593262Y-62899715D01*
X165960285Y-63266738D01*
X166391859Y-63555107D01*
X166871399Y-63753739D01*
X167380475Y-63855000D01*
X167899525Y-63855000D01*
X168408601Y-63753739D01*
X168888141Y-63555107D01*
X169319715Y-63266738D01*
X169518954Y-63067499D01*
X176132106Y-63067499D01*
X176348228Y-63434258D01*
X176808105Y-63674938D01*
X177306098Y-63821275D01*
X177823071Y-63867648D01*
X178339159Y-63812273D01*
X178834526Y-63657279D01*
X179251772Y-63434258D01*
X179467894Y-63067499D01*
X177800000Y-61399605D01*
X176132106Y-63067499D01*
X169518954Y-63067499D01*
X169686738Y-62899715D01*
X169975107Y-62468141D01*
X170173739Y-61988601D01*
X170275000Y-61479525D01*
X170275000Y-61243071D01*
X175152352Y-61243071D01*
X175207727Y-61759159D01*
X175362721Y-62254526D01*
X175585742Y-62671772D01*
X175952501Y-62887894D01*
X177620395Y-61220000D01*
X177979605Y-61220000D01*
X179647499Y-62887894D01*
X180014258Y-62671772D01*
X180254938Y-62211895D01*
X180401275Y-61713902D01*
X180447648Y-61196929D01*
X180392273Y-60680841D01*
X180237279Y-60185474D01*
X180014258Y-59768228D01*
X179647499Y-59552106D01*
X177979605Y-61220000D01*
X177620395Y-61220000D01*
X175952501Y-59552106D01*
X175585742Y-59768228D01*
X175345062Y-60228105D01*
X175198725Y-60726098D01*
X175152352Y-61243071D01*
X170275000Y-61243071D01*
X170275000Y-60960475D01*
X170173739Y-60451399D01*
X169975107Y-59971859D01*
X169686738Y-59540285D01*
X169518954Y-59372501D01*
X176132106Y-59372501D01*
X177800000Y-61040395D01*
X179467894Y-59372501D01*
X179251772Y-59005742D01*
X178791895Y-58765062D01*
X178293902Y-58618725D01*
X177776929Y-58572352D01*
X177260841Y-58627727D01*
X176765474Y-58782721D01*
X176348228Y-59005742D01*
X176132106Y-59372501D01*
X169518954Y-59372501D01*
X169319715Y-59173262D01*
X168888141Y-58884893D01*
X168408601Y-58686261D01*
X167899525Y-58585000D01*
X167380475Y-58585000D01*
X166871399Y-58686261D01*
X166391859Y-58884893D01*
X165960285Y-59173262D01*
X165593262Y-59540285D01*
X165304893Y-59971859D01*
X165106261Y-60451399D01*
X165005000Y-60960475D01*
X144372948Y-60960475D01*
X144237095Y-60869701D01*
X143957743Y-60753989D01*
X143661184Y-60695000D01*
X143358816Y-60695000D01*
X143062257Y-60753989D01*
X142782905Y-60869701D01*
X142531495Y-61037688D01*
X142465056Y-61104127D01*
X142459502Y-61085820D01*
X142400537Y-60975506D01*
X142321185Y-60878815D01*
X142224494Y-60799463D01*
X142114180Y-60740498D01*
X141994482Y-60704188D01*
X141870000Y-60691928D01*
X141255750Y-60695000D01*
X141097000Y-60853750D01*
X141097000Y-62103000D01*
X141117000Y-62103000D01*
X141117000Y-62357000D01*
X141097000Y-62357000D01*
X141097000Y-62377000D01*
X140843000Y-62377000D01*
X140843000Y-62357000D01*
X139593750Y-62357000D01*
X139435000Y-62515750D01*
X139431928Y-63130000D01*
X139444188Y-63254482D01*
X139480498Y-63374180D01*
X139480936Y-63375000D01*
X136839802Y-63375000D01*
X136103731Y-62638930D01*
X136155000Y-62381184D01*
X136155000Y-62078816D01*
X136096011Y-61782257D01*
X135980299Y-61502905D01*
X135864768Y-61330000D01*
X139431928Y-61330000D01*
X139435000Y-61944250D01*
X139593750Y-62103000D01*
X140843000Y-62103000D01*
X140843000Y-60853750D01*
X140684250Y-60695000D01*
X140070000Y-60691928D01*
X139945518Y-60704188D01*
X139825820Y-60740498D01*
X139715506Y-60799463D01*
X139618815Y-60878815D01*
X139539463Y-60975506D01*
X139480498Y-61085820D01*
X139444188Y-61205518D01*
X139431928Y-61330000D01*
X135864768Y-61330000D01*
X135812312Y-61251495D01*
X135598505Y-61037688D01*
X135347095Y-60869701D01*
X135067743Y-60753989D01*
X134771184Y-60695000D01*
X134468816Y-60695000D01*
X134172257Y-60753989D01*
X133892905Y-60869701D01*
X133641495Y-61037688D01*
X133575056Y-61104127D01*
X133569502Y-61085820D01*
X133510537Y-60975506D01*
X133431185Y-60878815D01*
X133334494Y-60799463D01*
X133224180Y-60740498D01*
X133104482Y-60704188D01*
X132980000Y-60691928D01*
X132365750Y-60695000D01*
X132207000Y-60853750D01*
X131953000Y-60853750D01*
X131794250Y-60695000D01*
X131180000Y-60691928D01*
X131055518Y-60704188D01*
X130935820Y-60740498D01*
X130825506Y-60799463D01*
X130728815Y-60878815D01*
X130649463Y-60975506D01*
X130590498Y-61085820D01*
X130554188Y-61205518D01*
X130541928Y-61330000D01*
X128930000Y-61330000D01*
X128930000Y-52295475D01*
X130455000Y-52295475D01*
X130455000Y-52814525D01*
X130556261Y-53323601D01*
X130754893Y-53803141D01*
X131043262Y-54234715D01*
X131410285Y-54601738D01*
X131841859Y-54890107D01*
X132321399Y-55088739D01*
X132830475Y-55190000D01*
X133349525Y-55190000D01*
X133858601Y-55088739D01*
X134338141Y-54890107D01*
X134769715Y-54601738D01*
X135136738Y-54234715D01*
X135404711Y-53833665D01*
X138615000Y-53833665D01*
X138615000Y-54116335D01*
X138670147Y-54393574D01*
X138778320Y-54654727D01*
X138935363Y-54889759D01*
X139135241Y-55089637D01*
X139370273Y-55246680D01*
X139631426Y-55354853D01*
X139908665Y-55410000D01*
X140191335Y-55410000D01*
X140468574Y-55354853D01*
X140729727Y-55246680D01*
X140964759Y-55089637D01*
X141164637Y-54889759D01*
X141321680Y-54654727D01*
X141429853Y-54393574D01*
X141435000Y-54367699D01*
X141440147Y-54393574D01*
X141548320Y-54654727D01*
X141705363Y-54889759D01*
X141905241Y-55089637D01*
X142140273Y-55246680D01*
X142401426Y-55354853D01*
X142678665Y-55410000D01*
X142961335Y-55410000D01*
X143238574Y-55354853D01*
X143499727Y-55246680D01*
X143734759Y-55089637D01*
X143856694Y-54967702D01*
X144776903Y-54967702D01*
X144848486Y-55211671D01*
X145103996Y-55332571D01*
X145378184Y-55401300D01*
X145660512Y-55415217D01*
X145940130Y-55373787D01*
X146206292Y-55278603D01*
X146331514Y-55211671D01*
X146403097Y-54967702D01*
X145590000Y-54154605D01*
X144776903Y-54967702D01*
X143856694Y-54967702D01*
X143934637Y-54889759D01*
X144091680Y-54654727D01*
X144199853Y-54393574D01*
X144205513Y-54365118D01*
X144286397Y-54591292D01*
X144353329Y-54716514D01*
X144597298Y-54788097D01*
X145410395Y-53975000D01*
X145769605Y-53975000D01*
X146582702Y-54788097D01*
X146826671Y-54716514D01*
X146947571Y-54461004D01*
X146973212Y-54358711D01*
X146980147Y-54393574D01*
X147088320Y-54654727D01*
X147245363Y-54889759D01*
X147445241Y-55089637D01*
X147680273Y-55246680D01*
X147941426Y-55354853D01*
X148218665Y-55410000D01*
X148501335Y-55410000D01*
X148778574Y-55354853D01*
X149039727Y-55246680D01*
X149274759Y-55089637D01*
X149474637Y-54889759D01*
X149631680Y-54654727D01*
X149691928Y-54509275D01*
X149691928Y-54775000D01*
X149704188Y-54899482D01*
X149740498Y-55019180D01*
X149799463Y-55129494D01*
X149878815Y-55226185D01*
X149975506Y-55305537D01*
X150085820Y-55364502D01*
X150205518Y-55400812D01*
X150330000Y-55413072D01*
X151930000Y-55413072D01*
X152054482Y-55400812D01*
X152174180Y-55364502D01*
X152284494Y-55305537D01*
X152381185Y-55226185D01*
X152460537Y-55129494D01*
X152519502Y-55019180D01*
X152555812Y-54899482D01*
X152568072Y-54775000D01*
X152568072Y-53175000D01*
X152555812Y-53050518D01*
X152519502Y-52930820D01*
X152460537Y-52820506D01*
X152381185Y-52723815D01*
X152284494Y-52644463D01*
X152174180Y-52585498D01*
X152054482Y-52549188D01*
X151930000Y-52536928D01*
X150330000Y-52536928D01*
X150205518Y-52549188D01*
X150085820Y-52585498D01*
X149975506Y-52644463D01*
X149878815Y-52723815D01*
X149799463Y-52820506D01*
X149740498Y-52930820D01*
X149704188Y-53050518D01*
X149691928Y-53175000D01*
X149691928Y-53440725D01*
X149631680Y-53295273D01*
X149474637Y-53060241D01*
X149274759Y-52860363D01*
X149039727Y-52703320D01*
X148778574Y-52595147D01*
X148501335Y-52540000D01*
X148218665Y-52540000D01*
X147941426Y-52595147D01*
X147680273Y-52703320D01*
X147445241Y-52860363D01*
X147245363Y-53060241D01*
X147088320Y-53295273D01*
X146980147Y-53556426D01*
X146974487Y-53584882D01*
X146893603Y-53358708D01*
X146826671Y-53233486D01*
X146582702Y-53161903D01*
X145769605Y-53975000D01*
X145410395Y-53975000D01*
X144597298Y-53161903D01*
X144353329Y-53233486D01*
X144232429Y-53488996D01*
X144206788Y-53591289D01*
X144199853Y-53556426D01*
X144091680Y-53295273D01*
X143934637Y-53060241D01*
X143856694Y-52982298D01*
X144776903Y-52982298D01*
X145590000Y-53795395D01*
X146403097Y-52982298D01*
X146331514Y-52738329D01*
X146076004Y-52617429D01*
X145801816Y-52548700D01*
X145519488Y-52534783D01*
X145239870Y-52576213D01*
X144973708Y-52671397D01*
X144848486Y-52738329D01*
X144776903Y-52982298D01*
X143856694Y-52982298D01*
X143734759Y-52860363D01*
X143499727Y-52703320D01*
X143238574Y-52595147D01*
X142961335Y-52540000D01*
X142678665Y-52540000D01*
X142401426Y-52595147D01*
X142140273Y-52703320D01*
X141905241Y-52860363D01*
X141705363Y-53060241D01*
X141548320Y-53295273D01*
X141440147Y-53556426D01*
X141435000Y-53582301D01*
X141429853Y-53556426D01*
X141321680Y-53295273D01*
X141164637Y-53060241D01*
X140964759Y-52860363D01*
X140729727Y-52703320D01*
X140468574Y-52595147D01*
X140191335Y-52540000D01*
X139908665Y-52540000D01*
X139631426Y-52595147D01*
X139370273Y-52703320D01*
X139135241Y-52860363D01*
X138935363Y-53060241D01*
X138778320Y-53295273D01*
X138670147Y-53556426D01*
X138615000Y-53833665D01*
X135404711Y-53833665D01*
X135425107Y-53803141D01*
X135623739Y-53323601D01*
X135725000Y-52814525D01*
X135725000Y-52295475D01*
X135623739Y-51786399D01*
X135425107Y-51306859D01*
X135215838Y-50993665D01*
X140000000Y-50993665D01*
X140000000Y-51276335D01*
X140055147Y-51553574D01*
X140163320Y-51814727D01*
X140320363Y-52049759D01*
X140520241Y-52249637D01*
X140755273Y-52406680D01*
X141016426Y-52514853D01*
X141293665Y-52570000D01*
X141576335Y-52570000D01*
X141853574Y-52514853D01*
X142114727Y-52406680D01*
X142349759Y-52249637D01*
X142549637Y-52049759D01*
X142706680Y-51814727D01*
X142814853Y-51553574D01*
X142820000Y-51527699D01*
X142825147Y-51553574D01*
X142933320Y-51814727D01*
X143090363Y-52049759D01*
X143290241Y-52249637D01*
X143525273Y-52406680D01*
X143786426Y-52514853D01*
X144063665Y-52570000D01*
X144346335Y-52570000D01*
X144623574Y-52514853D01*
X144884727Y-52406680D01*
X145119759Y-52249637D01*
X145319637Y-52049759D01*
X145476680Y-51814727D01*
X145584853Y-51553574D01*
X145590000Y-51527699D01*
X145595147Y-51553574D01*
X145703320Y-51814727D01*
X145860363Y-52049759D01*
X146060241Y-52249637D01*
X146295273Y-52406680D01*
X146556426Y-52514853D01*
X146833665Y-52570000D01*
X147116335Y-52570000D01*
X147393574Y-52514853D01*
X147654727Y-52406680D01*
X147889759Y-52249637D01*
X148089637Y-52049759D01*
X148246680Y-51814727D01*
X148354853Y-51553574D01*
X148360000Y-51527699D01*
X148365147Y-51553574D01*
X148473320Y-51814727D01*
X148630363Y-52049759D01*
X148830241Y-52249637D01*
X149065273Y-52406680D01*
X149326426Y-52514853D01*
X149603665Y-52570000D01*
X149886335Y-52570000D01*
X150163574Y-52514853D01*
X150424727Y-52406680D01*
X150591157Y-52295475D01*
X155455000Y-52295475D01*
X155455000Y-52814525D01*
X155556261Y-53323601D01*
X155754893Y-53803141D01*
X156043262Y-54234715D01*
X156410285Y-54601738D01*
X156841859Y-54890107D01*
X157321399Y-55088739D01*
X157830475Y-55190000D01*
X158349525Y-55190000D01*
X158858601Y-55088739D01*
X159338141Y-54890107D01*
X159769715Y-54601738D01*
X160136738Y-54234715D01*
X160425107Y-53803141D01*
X160623739Y-53323601D01*
X160725000Y-52814525D01*
X160725000Y-52295475D01*
X160623739Y-51786399D01*
X160425107Y-51306859D01*
X160136738Y-50875285D01*
X159769715Y-50508262D01*
X159338141Y-50219893D01*
X158858601Y-50021261D01*
X158349525Y-49920000D01*
X157830475Y-49920000D01*
X157321399Y-50021261D01*
X156841859Y-50219893D01*
X156410285Y-50508262D01*
X156043262Y-50875285D01*
X155754893Y-51306859D01*
X155556261Y-51786399D01*
X155455000Y-52295475D01*
X150591157Y-52295475D01*
X150659759Y-52249637D01*
X150859637Y-52049759D01*
X151016680Y-51814727D01*
X151124853Y-51553574D01*
X151180000Y-51276335D01*
X151180000Y-50993665D01*
X151124853Y-50716426D01*
X151016680Y-50455273D01*
X150859637Y-50220241D01*
X150659759Y-50020363D01*
X150424727Y-49863320D01*
X150163574Y-49755147D01*
X149886335Y-49700000D01*
X149603665Y-49700000D01*
X149326426Y-49755147D01*
X149065273Y-49863320D01*
X148830241Y-50020363D01*
X148630363Y-50220241D01*
X148473320Y-50455273D01*
X148365147Y-50716426D01*
X148360000Y-50742301D01*
X148354853Y-50716426D01*
X148246680Y-50455273D01*
X148089637Y-50220241D01*
X147889759Y-50020363D01*
X147654727Y-49863320D01*
X147393574Y-49755147D01*
X147116335Y-49700000D01*
X146833665Y-49700000D01*
X146556426Y-49755147D01*
X146295273Y-49863320D01*
X146060241Y-50020363D01*
X145860363Y-50220241D01*
X145703320Y-50455273D01*
X145595147Y-50716426D01*
X145590000Y-50742301D01*
X145584853Y-50716426D01*
X145476680Y-50455273D01*
X145319637Y-50220241D01*
X145119759Y-50020363D01*
X144884727Y-49863320D01*
X144623574Y-49755147D01*
X144346335Y-49700000D01*
X144063665Y-49700000D01*
X143786426Y-49755147D01*
X143525273Y-49863320D01*
X143290241Y-50020363D01*
X143090363Y-50220241D01*
X142933320Y-50455273D01*
X142825147Y-50716426D01*
X142820000Y-50742301D01*
X142814853Y-50716426D01*
X142706680Y-50455273D01*
X142549637Y-50220241D01*
X142349759Y-50020363D01*
X142114727Y-49863320D01*
X141853574Y-49755147D01*
X141576335Y-49700000D01*
X141293665Y-49700000D01*
X141016426Y-49755147D01*
X140755273Y-49863320D01*
X140520241Y-50020363D01*
X140320363Y-50220241D01*
X140163320Y-50455273D01*
X140055147Y-50716426D01*
X140000000Y-50993665D01*
X135215838Y-50993665D01*
X135136738Y-50875285D01*
X134769715Y-50508262D01*
X134338141Y-50219893D01*
X133858601Y-50021261D01*
X133349525Y-49920000D01*
X132830475Y-49920000D01*
X132321399Y-50021261D01*
X131841859Y-50219893D01*
X131410285Y-50508262D01*
X131043262Y-50875285D01*
X130754893Y-51306859D01*
X130556261Y-51786399D01*
X130455000Y-52295475D01*
X128930000Y-52295475D01*
X128930000Y-43680000D01*
X165953547Y-43680000D01*
X165593262Y-44040285D01*
G37*
%TD.AperFunction*%
D31*
X142367000Y-102743000D02*
X142387000Y-102743000D01*
X142387000Y-102997000D01*
X142367000Y-102997000D01*
X142367000Y-103017000D01*
X142113000Y-103017000D01*
X142113000Y-102997000D01*
X142093000Y-102997000D01*
X142093000Y-102743000D01*
X142113000Y-102743000D01*
X142113000Y-102723000D01*
X142367000Y-102723000D01*
X142367000Y-102743000D01*
%TA.AperFunction,Conductor*%
D32*
G36*
X142367000Y-102743000D02*
G01*
X142387000Y-102743000D01*
X142387000Y-102997000D01*
X142367000Y-102997000D01*
X142367000Y-103017000D01*
X142113000Y-103017000D01*
X142113000Y-102997000D01*
X142093000Y-102997000D01*
X142093000Y-102743000D01*
X142113000Y-102743000D01*
X142113000Y-102723000D01*
X142367000Y-102723000D01*
X142367000Y-102743000D01*
G37*
%TD.AperFunction*%
D31*
X148945000Y-97663000D02*
X148965000Y-97663000D01*
X148965000Y-97917000D01*
X148945000Y-97917000D01*
X148945000Y-97937000D01*
X148691000Y-97937000D01*
X148691000Y-97917000D01*
X148671000Y-97917000D01*
X148671000Y-97663000D01*
X148691000Y-97663000D01*
X148691000Y-97643000D01*
X148945000Y-97643000D01*
X148945000Y-97663000D01*
%TA.AperFunction,Conductor*%
D32*
G36*
X148945000Y-97663000D02*
G01*
X148965000Y-97663000D01*
X148965000Y-97917000D01*
X148945000Y-97917000D01*
X148945000Y-97937000D01*
X148691000Y-97937000D01*
X148691000Y-97917000D01*
X148671000Y-97917000D01*
X148671000Y-97663000D01*
X148691000Y-97663000D01*
X148691000Y-97643000D01*
X148945000Y-97643000D01*
X148945000Y-97663000D01*
G37*
%TD.AperFunction*%
M02*
