G04 #@! TF.GenerationSoftware,KiCad,Pcbnew,(5.1.10)-1*
G04 #@! TF.CreationDate,2022-07-05T13:36:51+02:00*
G04 #@! TF.ProjectId,Lin-bus card,4c696e2d-6275-4732-9063-6172642e6b69,V0.3*
G04 #@! TF.SameCoordinates,Original*
G04 #@! TF.FileFunction,Copper,L1,Top*
G04 #@! TF.FilePolarity,Positive*
%FSLAX46Y46*%
G04 Gerber Fmt 4.6, Leading zero omitted, Abs format (unit mm)*
G04 Created by KiCad (PCBNEW (5.1.10)-1) date 2022-07-05 13:36:51*
%MOMM*%
%LPD*%
G01*
G04 APERTURE LIST*
G04 #@! TA.AperFunction,SMDPad,CuDef*
%ADD10R,2.150000X5.700000*%
G04 #@! TD*
G04 #@! TA.AperFunction,SMDPad,CuDef*
%ADD11R,1.100000X1.100000*%
G04 #@! TD*
G04 #@! TA.AperFunction,SMDPad,CuDef*
%ADD12R,1.800000X2.500000*%
G04 #@! TD*
G04 #@! TA.AperFunction,SMDPad,CuDef*
%ADD13R,0.450000X0.600000*%
G04 #@! TD*
G04 #@! TA.AperFunction,ComponentPad*
%ADD14R,1.700000X1.700000*%
G04 #@! TD*
G04 #@! TA.AperFunction,ComponentPad*
%ADD15O,1.700000X1.700000*%
G04 #@! TD*
G04 #@! TA.AperFunction,ComponentPad*
%ADD16C,4.000000*%
G04 #@! TD*
G04 #@! TA.AperFunction,ComponentPad*
%ADD17R,1.600000X1.600000*%
G04 #@! TD*
G04 #@! TA.AperFunction,ComponentPad*
%ADD18C,1.600000*%
G04 #@! TD*
G04 #@! TA.AperFunction,SMDPad,CuDef*
%ADD19R,1.900000X1.600000*%
G04 #@! TD*
G04 #@! TA.AperFunction,ComponentPad*
%ADD20R,2.000000X2.000000*%
G04 #@! TD*
G04 #@! TA.AperFunction,ComponentPad*
%ADD21C,2.000000*%
G04 #@! TD*
G04 #@! TA.AperFunction,ComponentPad*
%ADD22O,1.600000X1.600000*%
G04 #@! TD*
G04 #@! TA.AperFunction,SMDPad,CuDef*
%ADD23R,1.100000X4.600000*%
G04 #@! TD*
G04 #@! TA.AperFunction,SMDPad,CuDef*
%ADD24R,10.800000X9.400000*%
G04 #@! TD*
G04 #@! TA.AperFunction,SMDPad,CuDef*
%ADD25R,0.650000X1.060000*%
G04 #@! TD*
G04 #@! TA.AperFunction,ComponentPad*
%ADD26C,1.524000*%
G04 #@! TD*
G04 #@! TA.AperFunction,ComponentPad*
%ADD27R,1.524000X1.524000*%
G04 #@! TD*
G04 #@! TA.AperFunction,ViaPad*
%ADD28C,0.800000*%
G04 #@! TD*
G04 #@! TA.AperFunction,Conductor*
%ADD29C,0.250000*%
G04 #@! TD*
G04 #@! TA.AperFunction,Conductor*
%ADD30C,1.000000*%
G04 #@! TD*
G04 #@! TA.AperFunction,Conductor*
%ADD31C,0.254000*%
G04 #@! TD*
G04 #@! TA.AperFunction,Conductor*
%ADD32C,0.100000*%
G04 #@! TD*
G04 APERTURE END LIST*
G04 #@! TA.AperFunction,SMDPad,CuDef*
G36*
G01*
X127885000Y-79825000D02*
X127385000Y-79825000D01*
G75*
G02*
X127160000Y-79600000I0J225000D01*
G01*
X127160000Y-79150000D01*
G75*
G02*
X127385000Y-78925000I225000J0D01*
G01*
X127885000Y-78925000D01*
G75*
G02*
X128110000Y-79150000I0J-225000D01*
G01*
X128110000Y-79600000D01*
G75*
G02*
X127885000Y-79825000I-225000J0D01*
G01*
G37*
G04 #@! TD.AperFunction*
G04 #@! TA.AperFunction,SMDPad,CuDef*
G36*
G01*
X127885000Y-81375000D02*
X127385000Y-81375000D01*
G75*
G02*
X127160000Y-81150000I0J225000D01*
G01*
X127160000Y-80700000D01*
G75*
G02*
X127385000Y-80475000I225000J0D01*
G01*
X127885000Y-80475000D01*
G75*
G02*
X128110000Y-80700000I0J-225000D01*
G01*
X128110000Y-81150000D01*
G75*
G02*
X127885000Y-81375000I-225000J0D01*
G01*
G37*
G04 #@! TD.AperFunction*
G04 #@! TA.AperFunction,SMDPad,CuDef*
G36*
G01*
X125480000Y-78925000D02*
X125980000Y-78925000D01*
G75*
G02*
X126205000Y-79150000I0J-225000D01*
G01*
X126205000Y-79600000D01*
G75*
G02*
X125980000Y-79825000I-225000J0D01*
G01*
X125480000Y-79825000D01*
G75*
G02*
X125255000Y-79600000I0J225000D01*
G01*
X125255000Y-79150000D01*
G75*
G02*
X125480000Y-78925000I225000J0D01*
G01*
G37*
G04 #@! TD.AperFunction*
G04 #@! TA.AperFunction,SMDPad,CuDef*
G36*
G01*
X125480000Y-80475000D02*
X125980000Y-80475000D01*
G75*
G02*
X126205000Y-80700000I0J-225000D01*
G01*
X126205000Y-81150000D01*
G75*
G02*
X125980000Y-81375000I-225000J0D01*
G01*
X125480000Y-81375000D01*
G75*
G02*
X125255000Y-81150000I0J225000D01*
G01*
X125255000Y-80700000D01*
G75*
G02*
X125480000Y-80475000I225000J0D01*
G01*
G37*
G04 #@! TD.AperFunction*
G04 #@! TA.AperFunction,SMDPad,CuDef*
G36*
G01*
X135270001Y-81220000D02*
X133969999Y-81220000D01*
G75*
G02*
X133720000Y-80970001I0J249999D01*
G01*
X133720000Y-80319999D01*
G75*
G02*
X133969999Y-80070000I249999J0D01*
G01*
X135270001Y-80070000D01*
G75*
G02*
X135520000Y-80319999I0J-249999D01*
G01*
X135520000Y-80970001D01*
G75*
G02*
X135270001Y-81220000I-249999J0D01*
G01*
G37*
G04 #@! TD.AperFunction*
G04 #@! TA.AperFunction,SMDPad,CuDef*
G36*
G01*
X135270001Y-78270000D02*
X133969999Y-78270000D01*
G75*
G02*
X133720000Y-78020001I0J249999D01*
G01*
X133720000Y-77369999D01*
G75*
G02*
X133969999Y-77120000I249999J0D01*
G01*
X135270001Y-77120000D01*
G75*
G02*
X135520000Y-77369999I0J-249999D01*
G01*
X135520000Y-78020001D01*
G75*
G02*
X135270001Y-78270000I-249999J0D01*
G01*
G37*
G04 #@! TD.AperFunction*
D10*
X130810000Y-127040000D03*
X130810000Y-116840000D03*
G04 #@! TA.AperFunction,SMDPad,CuDef*
G36*
G01*
X97635000Y-116925000D02*
X97635000Y-118025000D01*
G75*
G02*
X97385000Y-118275000I-250000J0D01*
G01*
X94385000Y-118275000D01*
G75*
G02*
X94135000Y-118025000I0J250000D01*
G01*
X94135000Y-116925000D01*
G75*
G02*
X94385000Y-116675000I250000J0D01*
G01*
X97385000Y-116675000D01*
G75*
G02*
X97635000Y-116925000I0J-250000D01*
G01*
G37*
G04 #@! TD.AperFunction*
G04 #@! TA.AperFunction,SMDPad,CuDef*
G36*
G01*
X92235000Y-116925000D02*
X92235000Y-118025000D01*
G75*
G02*
X91985000Y-118275000I-250000J0D01*
G01*
X88985000Y-118275000D01*
G75*
G02*
X88735000Y-118025000I0J250000D01*
G01*
X88735000Y-116925000D01*
G75*
G02*
X88985000Y-116675000I250000J0D01*
G01*
X91985000Y-116675000D01*
G75*
G02*
X92235000Y-116925000I0J-250000D01*
G01*
G37*
G04 #@! TD.AperFunction*
D11*
X137160000Y-80270000D03*
X137160000Y-77470000D03*
D12*
X108585000Y-76835000D03*
X108585000Y-80835000D03*
X104775000Y-80835000D03*
X104775000Y-76835000D03*
D13*
X85090000Y-119575000D03*
X85090000Y-117475000D03*
D12*
X108585000Y-116110000D03*
X108585000Y-120110000D03*
D13*
X82550000Y-117475000D03*
X82550000Y-119575000D03*
D14*
X136930000Y-111140000D03*
D15*
X134390000Y-111140000D03*
X131850000Y-111140000D03*
X129310000Y-111140000D03*
X126770000Y-111140000D03*
X124230000Y-111140000D03*
X121690000Y-111140000D03*
X119150000Y-111140000D03*
X116610000Y-111140000D03*
X114070000Y-111140000D03*
X114070000Y-85740000D03*
X116610000Y-85740000D03*
X119150000Y-85740000D03*
X121690000Y-85740000D03*
X124230000Y-85740000D03*
X126770000Y-85740000D03*
X129310000Y-85740000D03*
X131850000Y-85740000D03*
X134390000Y-85740000D03*
D14*
X136930000Y-85740000D03*
D16*
X144145000Y-132340000D03*
X144145000Y-116840000D03*
X154305000Y-116840000D03*
X154305000Y-132340000D03*
D17*
X88900000Y-124160000D03*
D18*
X91670000Y-124160000D03*
X94440000Y-124160000D03*
X97210000Y-124160000D03*
X99980000Y-124160000D03*
X90285000Y-127000000D03*
X93055000Y-127000000D03*
X95825000Y-127000000D03*
X98595000Y-127000000D03*
D16*
X81940000Y-125580000D03*
X106940000Y-125580000D03*
D19*
X104430000Y-117475000D03*
X100330000Y-117475000D03*
G04 #@! TA.AperFunction,SMDPad,CuDef*
G36*
G01*
X122195000Y-79775000D02*
X121645000Y-79775000D01*
G75*
G02*
X121445000Y-79575000I0J200000D01*
G01*
X121445000Y-79175000D01*
G75*
G02*
X121645000Y-78975000I200000J0D01*
G01*
X122195000Y-78975000D01*
G75*
G02*
X122395000Y-79175000I0J-200000D01*
G01*
X122395000Y-79575000D01*
G75*
G02*
X122195000Y-79775000I-200000J0D01*
G01*
G37*
G04 #@! TD.AperFunction*
G04 #@! TA.AperFunction,SMDPad,CuDef*
G36*
G01*
X122195000Y-81425000D02*
X121645000Y-81425000D01*
G75*
G02*
X121445000Y-81225000I0J200000D01*
G01*
X121445000Y-80825000D01*
G75*
G02*
X121645000Y-80625000I200000J0D01*
G01*
X122195000Y-80625000D01*
G75*
G02*
X122395000Y-80825000I0J-200000D01*
G01*
X122395000Y-81225000D01*
G75*
G02*
X122195000Y-81425000I-200000J0D01*
G01*
G37*
G04 #@! TD.AperFunction*
G04 #@! TA.AperFunction,SMDPad,CuDef*
G36*
G01*
X119740000Y-78975000D02*
X120290000Y-78975000D01*
G75*
G02*
X120490000Y-79175000I0J-200000D01*
G01*
X120490000Y-79575000D01*
G75*
G02*
X120290000Y-79775000I-200000J0D01*
G01*
X119740000Y-79775000D01*
G75*
G02*
X119540000Y-79575000I0J200000D01*
G01*
X119540000Y-79175000D01*
G75*
G02*
X119740000Y-78975000I200000J0D01*
G01*
G37*
G04 #@! TD.AperFunction*
G04 #@! TA.AperFunction,SMDPad,CuDef*
G36*
G01*
X119740000Y-80625000D02*
X120290000Y-80625000D01*
G75*
G02*
X120490000Y-80825000I0J-200000D01*
G01*
X120490000Y-81225000D01*
G75*
G02*
X120290000Y-81425000I-200000J0D01*
G01*
X119740000Y-81425000D01*
G75*
G02*
X119540000Y-81225000I0J200000D01*
G01*
X119540000Y-80825000D01*
G75*
G02*
X119740000Y-80625000I200000J0D01*
G01*
G37*
G04 #@! TD.AperFunction*
G04 #@! TA.AperFunction,SMDPad,CuDef*
G36*
G01*
X124100000Y-81425000D02*
X123550000Y-81425000D01*
G75*
G02*
X123350000Y-81225000I0J200000D01*
G01*
X123350000Y-80825000D01*
G75*
G02*
X123550000Y-80625000I200000J0D01*
G01*
X124100000Y-80625000D01*
G75*
G02*
X124300000Y-80825000I0J-200000D01*
G01*
X124300000Y-81225000D01*
G75*
G02*
X124100000Y-81425000I-200000J0D01*
G01*
G37*
G04 #@! TD.AperFunction*
G04 #@! TA.AperFunction,SMDPad,CuDef*
G36*
G01*
X124100000Y-79775000D02*
X123550000Y-79775000D01*
G75*
G02*
X123350000Y-79575000I0J200000D01*
G01*
X123350000Y-79175000D01*
G75*
G02*
X123550000Y-78975000I200000J0D01*
G01*
X124100000Y-78975000D01*
G75*
G02*
X124300000Y-79175000I0J-200000D01*
G01*
X124300000Y-79575000D01*
G75*
G02*
X124100000Y-79775000I-200000J0D01*
G01*
G37*
G04 #@! TD.AperFunction*
G04 #@! TA.AperFunction,SMDPad,CuDef*
G36*
G01*
X135655000Y-131805000D02*
X135655000Y-132355000D01*
G75*
G02*
X135455000Y-132555000I-200000J0D01*
G01*
X135055000Y-132555000D01*
G75*
G02*
X134855000Y-132355000I0J200000D01*
G01*
X134855000Y-131805000D01*
G75*
G02*
X135055000Y-131605000I200000J0D01*
G01*
X135455000Y-131605000D01*
G75*
G02*
X135655000Y-131805000I0J-200000D01*
G01*
G37*
G04 #@! TD.AperFunction*
G04 #@! TA.AperFunction,SMDPad,CuDef*
G36*
G01*
X134005000Y-131805000D02*
X134005000Y-132355000D01*
G75*
G02*
X133805000Y-132555000I-200000J0D01*
G01*
X133405000Y-132555000D01*
G75*
G02*
X133205000Y-132355000I0J200000D01*
G01*
X133205000Y-131805000D01*
G75*
G02*
X133405000Y-131605000I200000J0D01*
G01*
X133805000Y-131605000D01*
G75*
G02*
X134005000Y-131805000I0J-200000D01*
G01*
G37*
G04 #@! TD.AperFunction*
G04 #@! TA.AperFunction,SMDPad,CuDef*
G36*
G01*
X115170000Y-132355000D02*
X115170000Y-131805000D01*
G75*
G02*
X115370000Y-131605000I200000J0D01*
G01*
X115770000Y-131605000D01*
G75*
G02*
X115970000Y-131805000I0J-200000D01*
G01*
X115970000Y-132355000D01*
G75*
G02*
X115770000Y-132555000I-200000J0D01*
G01*
X115370000Y-132555000D01*
G75*
G02*
X115170000Y-132355000I0J200000D01*
G01*
G37*
G04 #@! TD.AperFunction*
G04 #@! TA.AperFunction,SMDPad,CuDef*
G36*
G01*
X113520000Y-132355000D02*
X113520000Y-131805000D01*
G75*
G02*
X113720000Y-131605000I200000J0D01*
G01*
X114120000Y-131605000D01*
G75*
G02*
X114320000Y-131805000I0J-200000D01*
G01*
X114320000Y-132355000D01*
G75*
G02*
X114120000Y-132555000I-200000J0D01*
G01*
X113720000Y-132555000D01*
G75*
G02*
X113520000Y-132355000I0J200000D01*
G01*
G37*
G04 #@! TD.AperFunction*
D20*
X92710000Y-73660000D03*
D21*
X95250000Y-81280000D03*
X92710000Y-81280000D03*
X90170000Y-81280000D03*
X87630000Y-81280000D03*
D17*
X142240000Y-81280000D03*
D22*
X149860000Y-73660000D03*
X144780000Y-81280000D03*
X147320000Y-73660000D03*
X147320000Y-81280000D03*
X144780000Y-73660000D03*
X149860000Y-81280000D03*
X142240000Y-73660000D03*
D23*
X120240000Y-116145000D03*
X118540000Y-116145000D03*
X116840000Y-116145000D03*
X115140000Y-116145000D03*
X113440000Y-116145000D03*
D24*
X116840000Y-125295000D03*
D25*
X99700000Y-80010000D03*
X100650000Y-80010000D03*
X101600000Y-80010000D03*
X101600000Y-77810000D03*
X99700000Y-77810000D03*
D26*
X128905000Y-132080000D03*
D27*
X126365000Y-132080000D03*
X122555000Y-132080000D03*
D26*
X120015000Y-132080000D03*
D28*
X121914879Y-81685001D03*
X127635000Y-81915000D03*
X137795000Y-132080000D03*
X126365000Y-78105000D03*
X100330000Y-81280000D03*
X111125000Y-81280000D03*
X121920000Y-78105000D03*
X119380000Y-81685001D03*
X133985000Y-82550000D03*
X111760000Y-132080000D03*
D29*
X113405000Y-116110000D02*
X113440000Y-116145000D01*
X108585000Y-116110000D02*
X113405000Y-116110000D01*
X97450000Y-73660000D02*
X101600000Y-77810000D01*
X92710000Y-73660000D02*
X97450000Y-73660000D01*
X127280000Y-79375000D02*
X125730000Y-80925000D01*
X127635000Y-79375000D02*
X127280000Y-79375000D01*
X121920000Y-81679880D02*
X121914879Y-81685001D01*
X121920000Y-81025000D02*
X121920000Y-81679880D01*
X127635000Y-81915000D02*
X127635000Y-80925000D01*
X130565000Y-81915000D02*
X134390000Y-85740000D01*
X127635000Y-81915000D02*
X130565000Y-81915000D01*
X144780000Y-81280000D02*
X143510000Y-82550000D01*
X137580000Y-82550000D02*
X134390000Y-85740000D01*
X143510000Y-82550000D02*
X137580000Y-82550000D01*
X137795000Y-132080000D02*
X135255000Y-132080000D01*
X86200002Y-119575000D02*
X85090000Y-119575000D01*
X125730000Y-79375000D02*
X123825000Y-79375000D01*
X125730000Y-78740000D02*
X126365000Y-78105000D01*
X125730000Y-79375000D02*
X125730000Y-78740000D01*
X124317468Y-81750010D02*
X124625010Y-81442468D01*
X123736400Y-81750010D02*
X124317468Y-81750010D01*
X120514999Y-84971411D02*
X123736400Y-81750010D01*
X124625010Y-80175010D02*
X123825000Y-79375000D01*
X124625010Y-81442468D02*
X124625010Y-80175010D01*
X120514999Y-86114003D02*
X120514999Y-84971411D01*
X119714001Y-86915001D02*
X120514999Y-86114003D01*
X118181809Y-86915001D02*
X119714001Y-86915001D01*
X86200002Y-118896808D02*
X118181809Y-86915001D01*
X86200002Y-119575000D02*
X86200002Y-118896808D01*
X91923630Y-127000000D02*
X93055000Y-127000000D01*
X90544999Y-125621369D02*
X91923630Y-127000000D01*
X90544999Y-123619999D02*
X90544999Y-125621369D01*
X86500002Y-119575000D02*
X90544999Y-123619999D01*
X86200002Y-119575000D02*
X86500002Y-119575000D01*
D30*
X130115000Y-116145000D02*
X130810000Y-116840000D01*
X120240000Y-116145000D02*
X130115000Y-116145000D01*
D29*
X100650000Y-80960000D02*
X100330000Y-81280000D01*
X100650000Y-80010000D02*
X100650000Y-80960000D01*
X110680000Y-80835000D02*
X111125000Y-81280000D01*
X108585000Y-80835000D02*
X110680000Y-80835000D01*
D30*
X130810000Y-116840000D02*
X144145000Y-116840000D01*
D29*
X95885000Y-117475000D02*
X100330000Y-117475000D01*
X115064999Y-113519999D02*
X104285001Y-113519999D01*
X104285001Y-113519999D02*
X100330000Y-117475000D01*
X115140000Y-113595000D02*
X115064999Y-113519999D01*
X115140000Y-116145000D02*
X115140000Y-113595000D01*
X117785001Y-104884999D02*
X136930000Y-85740000D01*
X117785001Y-111749999D02*
X117785001Y-104884999D01*
X115140000Y-114395000D02*
X117785001Y-111749999D01*
X115140000Y-116145000D02*
X115140000Y-114395000D01*
X111125000Y-79375000D02*
X108585000Y-76835000D01*
X120015000Y-79375000D02*
X111125000Y-79375000D01*
X122439999Y-82410001D02*
X123825000Y-81025000D01*
X104850001Y-82410001D02*
X122439999Y-82410001D01*
X104775000Y-82335000D02*
X104850001Y-82410001D01*
X104775000Y-80835000D02*
X104775000Y-82335000D01*
X85090000Y-117475000D02*
X82550000Y-117475000D01*
X105950000Y-117475000D02*
X108585000Y-120110000D01*
X104430000Y-117475000D02*
X105950000Y-117475000D01*
X117125000Y-120110000D02*
X108585000Y-120110000D01*
X118540000Y-118695000D02*
X117125000Y-120110000D01*
X118540000Y-116145000D02*
X118540000Y-118695000D01*
X121920000Y-78105000D02*
X121920000Y-79375000D01*
X138170000Y-80270000D02*
X137160000Y-80270000D01*
X144780000Y-73660000D02*
X138170000Y-80270000D01*
X134995000Y-80270000D02*
X134620000Y-80645000D01*
X137160000Y-80270000D02*
X134995000Y-80270000D01*
X120015000Y-81050001D02*
X119380000Y-81685001D01*
X120015000Y-81025000D02*
X120015000Y-81050001D01*
X133985000Y-81280000D02*
X134620000Y-80645000D01*
X133985000Y-82550000D02*
X133985000Y-81280000D01*
X133605000Y-132080000D02*
X128905000Y-132080000D01*
X120015000Y-132080000D02*
X115570000Y-132080000D01*
X111760000Y-132080000D02*
X113920000Y-132080000D01*
X102944999Y-78665001D02*
X104775000Y-76835000D01*
X100555001Y-78665001D02*
X102944999Y-78665001D01*
X99700000Y-77810000D02*
X100555001Y-78665001D01*
X106550000Y-85740000D02*
X114070000Y-85740000D01*
X101600000Y-80790000D02*
X106550000Y-85740000D01*
X101600000Y-80010000D02*
X101600000Y-80790000D01*
D31*
X91075000Y-73374250D02*
X91233750Y-73533000D01*
X92583000Y-73533000D01*
X92583000Y-73513000D01*
X92837000Y-73513000D01*
X92837000Y-73533000D01*
X94186250Y-73533000D01*
X94345000Y-73374250D01*
X94348072Y-72660001D01*
X141210603Y-72660001D01*
X141125363Y-72745241D01*
X140968320Y-72980273D01*
X140860147Y-73241426D01*
X140805000Y-73518665D01*
X140805000Y-73801335D01*
X140860147Y-74078574D01*
X140968320Y-74339727D01*
X141125363Y-74574759D01*
X141325241Y-74774637D01*
X141560273Y-74931680D01*
X141821426Y-75039853D01*
X142098665Y-75095000D01*
X142270198Y-75095000D01*
X138125593Y-79239606D01*
X138064494Y-79189463D01*
X137954180Y-79130498D01*
X137834482Y-79094188D01*
X137710000Y-79081928D01*
X136610000Y-79081928D01*
X136485518Y-79094188D01*
X136365820Y-79130498D01*
X136255506Y-79189463D01*
X136158815Y-79268815D01*
X136079463Y-79365506D01*
X136020498Y-79475820D01*
X136010130Y-79510000D01*
X135629443Y-79510000D01*
X135609851Y-79499528D01*
X135443255Y-79448992D01*
X135270001Y-79431928D01*
X133969999Y-79431928D01*
X133796745Y-79448992D01*
X133630149Y-79499528D01*
X133476613Y-79581595D01*
X133342038Y-79692038D01*
X133231595Y-79826613D01*
X133149528Y-79980149D01*
X133098992Y-80146745D01*
X133081928Y-80319999D01*
X133081928Y-80970001D01*
X133098992Y-81143255D01*
X133149528Y-81309851D01*
X133225001Y-81451050D01*
X133225001Y-81846288D01*
X133181063Y-81890226D01*
X133067795Y-82059744D01*
X132989774Y-82248102D01*
X132950000Y-82448061D01*
X132950000Y-82651939D01*
X132989774Y-82851898D01*
X133067795Y-83040256D01*
X133181063Y-83209774D01*
X133325226Y-83353937D01*
X133494744Y-83467205D01*
X133683102Y-83545226D01*
X133883061Y-83585000D01*
X134086939Y-83585000D01*
X134286898Y-83545226D01*
X134475256Y-83467205D01*
X134644774Y-83353937D01*
X134788937Y-83209774D01*
X134902205Y-83040256D01*
X134980226Y-82851898D01*
X135020000Y-82651939D01*
X135020000Y-82448061D01*
X134980226Y-82248102D01*
X134902205Y-82059744D01*
X134788937Y-81890226D01*
X134756783Y-81858072D01*
X135270001Y-81858072D01*
X135443255Y-81841008D01*
X135609851Y-81790472D01*
X135763387Y-81708405D01*
X135897962Y-81597962D01*
X136008405Y-81463387D01*
X136090472Y-81309851D01*
X136117480Y-81220818D01*
X136158815Y-81271185D01*
X136255506Y-81350537D01*
X136365820Y-81409502D01*
X136485518Y-81445812D01*
X136610000Y-81458072D01*
X137710000Y-81458072D01*
X137834482Y-81445812D01*
X137954180Y-81409502D01*
X138064494Y-81350537D01*
X138161185Y-81271185D01*
X138240537Y-81174494D01*
X138299502Y-81064180D01*
X138313028Y-81019590D01*
X138318986Y-81019003D01*
X138462247Y-80975546D01*
X138594276Y-80904974D01*
X138710001Y-80810001D01*
X138733804Y-80780997D01*
X144456114Y-75058688D01*
X144638665Y-75095000D01*
X144921335Y-75095000D01*
X145198574Y-75039853D01*
X145459727Y-74931680D01*
X145694759Y-74774637D01*
X145894637Y-74574759D01*
X146050000Y-74342241D01*
X146205363Y-74574759D01*
X146405241Y-74774637D01*
X146640273Y-74931680D01*
X146901426Y-75039853D01*
X147178665Y-75095000D01*
X147461335Y-75095000D01*
X147738574Y-75039853D01*
X147999727Y-74931680D01*
X148234759Y-74774637D01*
X148434637Y-74574759D01*
X148591680Y-74339727D01*
X148596067Y-74329135D01*
X148707615Y-74515131D01*
X148896586Y-74723519D01*
X149122580Y-74891037D01*
X149376913Y-75011246D01*
X149510961Y-75051904D01*
X149733000Y-74929915D01*
X149733000Y-73787000D01*
X149987000Y-73787000D01*
X149987000Y-74929915D01*
X150209039Y-75051904D01*
X150343087Y-75011246D01*
X150597420Y-74891037D01*
X150747389Y-74779872D01*
X153765000Y-74779872D01*
X153765000Y-75220128D01*
X153850890Y-75651925D01*
X154019369Y-76058669D01*
X154263962Y-76424729D01*
X154575271Y-76736038D01*
X154941331Y-76980631D01*
X155348075Y-77149110D01*
X155779872Y-77235000D01*
X156220128Y-77235000D01*
X156651925Y-77149110D01*
X157058669Y-76980631D01*
X157424729Y-76736038D01*
X157736038Y-76424729D01*
X157980631Y-76058669D01*
X158149110Y-75651925D01*
X158235000Y-75220128D01*
X158235000Y-74779872D01*
X158149110Y-74348075D01*
X157980631Y-73941331D01*
X157736038Y-73575271D01*
X157424729Y-73263962D01*
X157058669Y-73019369D01*
X156651925Y-72850890D01*
X156220128Y-72765000D01*
X155779872Y-72765000D01*
X155348075Y-72850890D01*
X154941331Y-73019369D01*
X154575271Y-73263962D01*
X154263962Y-73575271D01*
X154019369Y-73941331D01*
X153850890Y-74348075D01*
X153765000Y-74779872D01*
X150747389Y-74779872D01*
X150823414Y-74723519D01*
X151012385Y-74515131D01*
X151157070Y-74273881D01*
X151251909Y-74009040D01*
X151130624Y-73787000D01*
X149987000Y-73787000D01*
X149733000Y-73787000D01*
X149713000Y-73787000D01*
X149713000Y-73533000D01*
X149733000Y-73533000D01*
X149733000Y-73513000D01*
X149987000Y-73513000D01*
X149987000Y-73533000D01*
X151130624Y-73533000D01*
X151251909Y-73310960D01*
X151157070Y-73046119D01*
X151012385Y-72804869D01*
X150881015Y-72660001D01*
X158873000Y-72660001D01*
X158873000Y-134340001D01*
X155883028Y-134340001D01*
X155972894Y-134187499D01*
X154305000Y-132519605D01*
X152637106Y-134187499D01*
X152726972Y-134340001D01*
X145871452Y-134340001D01*
X146191738Y-134019715D01*
X146480107Y-133588141D01*
X146678739Y-133108601D01*
X146780000Y-132599525D01*
X146780000Y-132363071D01*
X151657352Y-132363071D01*
X151712727Y-132879159D01*
X151867721Y-133374526D01*
X152090742Y-133791772D01*
X152457501Y-134007894D01*
X154125395Y-132340000D01*
X154484605Y-132340000D01*
X156152499Y-134007894D01*
X156519258Y-133791772D01*
X156759938Y-133331895D01*
X156906275Y-132833902D01*
X156952648Y-132316929D01*
X156897273Y-131800841D01*
X156742279Y-131305474D01*
X156519258Y-130888228D01*
X156152499Y-130672106D01*
X154484605Y-132340000D01*
X154125395Y-132340000D01*
X152457501Y-130672106D01*
X152090742Y-130888228D01*
X151850062Y-131348105D01*
X151703725Y-131846098D01*
X151657352Y-132363071D01*
X146780000Y-132363071D01*
X146780000Y-132080475D01*
X146678739Y-131571399D01*
X146480107Y-131091859D01*
X146191738Y-130660285D01*
X146023954Y-130492501D01*
X152637106Y-130492501D01*
X154305000Y-132160395D01*
X155972894Y-130492501D01*
X155756772Y-130125742D01*
X155296895Y-129885062D01*
X154798902Y-129738725D01*
X154281929Y-129692352D01*
X153765841Y-129747727D01*
X153270474Y-129902721D01*
X152853228Y-130125742D01*
X152637106Y-130492501D01*
X146023954Y-130492501D01*
X145824715Y-130293262D01*
X145393141Y-130004893D01*
X144913601Y-129806261D01*
X144404525Y-129705000D01*
X143885475Y-129705000D01*
X143376399Y-129806261D01*
X142896859Y-130004893D01*
X142465285Y-130293262D01*
X142098262Y-130660285D01*
X141809893Y-131091859D01*
X141611261Y-131571399D01*
X141510000Y-132080475D01*
X141510000Y-132599525D01*
X141611261Y-133108601D01*
X141809893Y-133588141D01*
X142098262Y-134019715D01*
X142418548Y-134340001D01*
X79127000Y-134339999D01*
X79127000Y-131978061D01*
X110725000Y-131978061D01*
X110725000Y-132181939D01*
X110764774Y-132381898D01*
X110842795Y-132570256D01*
X110956063Y-132739774D01*
X111100226Y-132883937D01*
X111269744Y-132997205D01*
X111458102Y-133075226D01*
X111658061Y-133115000D01*
X111861939Y-133115000D01*
X112061898Y-133075226D01*
X112250256Y-132997205D01*
X112419774Y-132883937D01*
X112463711Y-132840000D01*
X113039084Y-132840000D01*
X113127394Y-132947606D01*
X113254392Y-133051831D01*
X113399284Y-133129278D01*
X113556500Y-133176969D01*
X113720000Y-133193072D01*
X114120000Y-133193072D01*
X114283500Y-133176969D01*
X114440716Y-133129278D01*
X114585608Y-133051831D01*
X114712606Y-132947606D01*
X114745000Y-132908134D01*
X114777394Y-132947606D01*
X114904392Y-133051831D01*
X115049284Y-133129278D01*
X115206500Y-133176969D01*
X115370000Y-133193072D01*
X115770000Y-133193072D01*
X115933500Y-133176969D01*
X116090716Y-133129278D01*
X116235608Y-133051831D01*
X116362606Y-132947606D01*
X116450916Y-132840000D01*
X118842659Y-132840000D01*
X118929880Y-132970535D01*
X119124465Y-133165120D01*
X119353273Y-133318005D01*
X119607510Y-133423314D01*
X119877408Y-133477000D01*
X120152592Y-133477000D01*
X120422490Y-133423314D01*
X120676727Y-133318005D01*
X120905535Y-133165120D01*
X121100120Y-132970535D01*
X121158920Y-132882535D01*
X121167188Y-132966482D01*
X121203498Y-133086180D01*
X121262463Y-133196494D01*
X121341815Y-133293185D01*
X121438506Y-133372537D01*
X121548820Y-133431502D01*
X121668518Y-133467812D01*
X121793000Y-133480072D01*
X122269250Y-133477000D01*
X122428000Y-133318250D01*
X122428000Y-132207000D01*
X122682000Y-132207000D01*
X122682000Y-133318250D01*
X122840750Y-133477000D01*
X123317000Y-133480072D01*
X123441482Y-133467812D01*
X123561180Y-133431502D01*
X123671494Y-133372537D01*
X123768185Y-133293185D01*
X123847537Y-133196494D01*
X123906502Y-133086180D01*
X123942812Y-132966482D01*
X123955072Y-132842000D01*
X124964928Y-132842000D01*
X124977188Y-132966482D01*
X125013498Y-133086180D01*
X125072463Y-133196494D01*
X125151815Y-133293185D01*
X125248506Y-133372537D01*
X125358820Y-133431502D01*
X125478518Y-133467812D01*
X125603000Y-133480072D01*
X126079250Y-133477000D01*
X126238000Y-133318250D01*
X126238000Y-132207000D01*
X125126750Y-132207000D01*
X124968000Y-132365750D01*
X124964928Y-132842000D01*
X123955072Y-132842000D01*
X123952000Y-132365750D01*
X123793250Y-132207000D01*
X122682000Y-132207000D01*
X122428000Y-132207000D01*
X122408000Y-132207000D01*
X122408000Y-131953000D01*
X122428000Y-131953000D01*
X122428000Y-130841750D01*
X122682000Y-130841750D01*
X122682000Y-131953000D01*
X123793250Y-131953000D01*
X123952000Y-131794250D01*
X123955072Y-131318000D01*
X124964928Y-131318000D01*
X124968000Y-131794250D01*
X125126750Y-131953000D01*
X126238000Y-131953000D01*
X126238000Y-130841750D01*
X126492000Y-130841750D01*
X126492000Y-131953000D01*
X126512000Y-131953000D01*
X126512000Y-132207000D01*
X126492000Y-132207000D01*
X126492000Y-133318250D01*
X126650750Y-133477000D01*
X127127000Y-133480072D01*
X127251482Y-133467812D01*
X127371180Y-133431502D01*
X127481494Y-133372537D01*
X127578185Y-133293185D01*
X127657537Y-133196494D01*
X127716502Y-133086180D01*
X127752812Y-132966482D01*
X127761080Y-132882535D01*
X127819880Y-132970535D01*
X128014465Y-133165120D01*
X128243273Y-133318005D01*
X128497510Y-133423314D01*
X128767408Y-133477000D01*
X129042592Y-133477000D01*
X129312490Y-133423314D01*
X129566727Y-133318005D01*
X129795535Y-133165120D01*
X129990120Y-132970535D01*
X130077341Y-132840000D01*
X132724084Y-132840000D01*
X132812394Y-132947606D01*
X132939392Y-133051831D01*
X133084284Y-133129278D01*
X133241500Y-133176969D01*
X133405000Y-133193072D01*
X133805000Y-133193072D01*
X133968500Y-133176969D01*
X134125716Y-133129278D01*
X134270608Y-133051831D01*
X134397606Y-132947606D01*
X134430000Y-132908134D01*
X134462394Y-132947606D01*
X134589392Y-133051831D01*
X134734284Y-133129278D01*
X134891500Y-133176969D01*
X135055000Y-133193072D01*
X135455000Y-133193072D01*
X135618500Y-133176969D01*
X135775716Y-133129278D01*
X135920608Y-133051831D01*
X136047606Y-132947606D01*
X136135916Y-132840000D01*
X137091289Y-132840000D01*
X137135226Y-132883937D01*
X137304744Y-132997205D01*
X137493102Y-133075226D01*
X137693061Y-133115000D01*
X137896939Y-133115000D01*
X138096898Y-133075226D01*
X138285256Y-132997205D01*
X138454774Y-132883937D01*
X138598937Y-132739774D01*
X138712205Y-132570256D01*
X138790226Y-132381898D01*
X138830000Y-132181939D01*
X138830000Y-131978061D01*
X138790226Y-131778102D01*
X138712205Y-131589744D01*
X138598937Y-131420226D01*
X138454774Y-131276063D01*
X138285256Y-131162795D01*
X138096898Y-131084774D01*
X137896939Y-131045000D01*
X137693061Y-131045000D01*
X137493102Y-131084774D01*
X137304744Y-131162795D01*
X137135226Y-131276063D01*
X137091289Y-131320000D01*
X136135916Y-131320000D01*
X136047606Y-131212394D01*
X135920608Y-131108169D01*
X135775716Y-131030722D01*
X135618500Y-130983031D01*
X135455000Y-130966928D01*
X135055000Y-130966928D01*
X134891500Y-130983031D01*
X134734284Y-131030722D01*
X134589392Y-131108169D01*
X134462394Y-131212394D01*
X134430000Y-131251866D01*
X134397606Y-131212394D01*
X134270608Y-131108169D01*
X134125716Y-131030722D01*
X133968500Y-130983031D01*
X133805000Y-130966928D01*
X133405000Y-130966928D01*
X133241500Y-130983031D01*
X133084284Y-131030722D01*
X132939392Y-131108169D01*
X132812394Y-131212394D01*
X132724084Y-131320000D01*
X130077341Y-131320000D01*
X129990120Y-131189465D01*
X129795535Y-130994880D01*
X129566727Y-130841995D01*
X129312490Y-130736686D01*
X129042592Y-130683000D01*
X128767408Y-130683000D01*
X128497510Y-130736686D01*
X128243273Y-130841995D01*
X128014465Y-130994880D01*
X127819880Y-131189465D01*
X127761080Y-131277465D01*
X127752812Y-131193518D01*
X127716502Y-131073820D01*
X127657537Y-130963506D01*
X127578185Y-130866815D01*
X127481494Y-130787463D01*
X127371180Y-130728498D01*
X127251482Y-130692188D01*
X127127000Y-130679928D01*
X126650750Y-130683000D01*
X126492000Y-130841750D01*
X126238000Y-130841750D01*
X126079250Y-130683000D01*
X125603000Y-130679928D01*
X125478518Y-130692188D01*
X125358820Y-130728498D01*
X125248506Y-130787463D01*
X125151815Y-130866815D01*
X125072463Y-130963506D01*
X125013498Y-131073820D01*
X124977188Y-131193518D01*
X124964928Y-131318000D01*
X123955072Y-131318000D01*
X123942812Y-131193518D01*
X123906502Y-131073820D01*
X123847537Y-130963506D01*
X123768185Y-130866815D01*
X123671494Y-130787463D01*
X123561180Y-130728498D01*
X123441482Y-130692188D01*
X123317000Y-130679928D01*
X122840750Y-130683000D01*
X122682000Y-130841750D01*
X122428000Y-130841750D01*
X122269250Y-130683000D01*
X121793000Y-130679928D01*
X121668518Y-130692188D01*
X121548820Y-130728498D01*
X121438506Y-130787463D01*
X121341815Y-130866815D01*
X121262463Y-130963506D01*
X121203498Y-131073820D01*
X121167188Y-131193518D01*
X121158920Y-131277465D01*
X121100120Y-131189465D01*
X120905535Y-130994880D01*
X120676727Y-130841995D01*
X120422490Y-130736686D01*
X120152592Y-130683000D01*
X119877408Y-130683000D01*
X119607510Y-130736686D01*
X119353273Y-130841995D01*
X119124465Y-130994880D01*
X118929880Y-131189465D01*
X118842659Y-131320000D01*
X116450916Y-131320000D01*
X116362606Y-131212394D01*
X116235608Y-131108169D01*
X116090716Y-131030722D01*
X115933500Y-130983031D01*
X115770000Y-130966928D01*
X115370000Y-130966928D01*
X115206500Y-130983031D01*
X115049284Y-131030722D01*
X114904392Y-131108169D01*
X114777394Y-131212394D01*
X114745000Y-131251866D01*
X114712606Y-131212394D01*
X114585608Y-131108169D01*
X114440716Y-131030722D01*
X114283500Y-130983031D01*
X114120000Y-130966928D01*
X113720000Y-130966928D01*
X113556500Y-130983031D01*
X113399284Y-131030722D01*
X113254392Y-131108169D01*
X113127394Y-131212394D01*
X113039084Y-131320000D01*
X112463711Y-131320000D01*
X112419774Y-131276063D01*
X112250256Y-131162795D01*
X112061898Y-131084774D01*
X111861939Y-131045000D01*
X111658061Y-131045000D01*
X111458102Y-131084774D01*
X111269744Y-131162795D01*
X111100226Y-131276063D01*
X110956063Y-131420226D01*
X110842795Y-131589744D01*
X110764774Y-131778102D01*
X110725000Y-131978061D01*
X79127000Y-131978061D01*
X79127000Y-129995000D01*
X110801928Y-129995000D01*
X110814188Y-130119482D01*
X110850498Y-130239180D01*
X110909463Y-130349494D01*
X110988815Y-130446185D01*
X111085506Y-130525537D01*
X111195820Y-130584502D01*
X111315518Y-130620812D01*
X111440000Y-130633072D01*
X116554250Y-130630000D01*
X116713000Y-130471250D01*
X116713000Y-125422000D01*
X116967000Y-125422000D01*
X116967000Y-130471250D01*
X117125750Y-130630000D01*
X122240000Y-130633072D01*
X122364482Y-130620812D01*
X122484180Y-130584502D01*
X122594494Y-130525537D01*
X122691185Y-130446185D01*
X122770537Y-130349494D01*
X122829502Y-130239180D01*
X122865812Y-130119482D01*
X122878072Y-129995000D01*
X122877999Y-129890000D01*
X129096928Y-129890000D01*
X129109188Y-130014482D01*
X129145498Y-130134180D01*
X129204463Y-130244494D01*
X129283815Y-130341185D01*
X129380506Y-130420537D01*
X129490820Y-130479502D01*
X129610518Y-130515812D01*
X129735000Y-130528072D01*
X130524250Y-130525000D01*
X130683000Y-130366250D01*
X130683000Y-127167000D01*
X130937000Y-127167000D01*
X130937000Y-130366250D01*
X131095750Y-130525000D01*
X131885000Y-130528072D01*
X132009482Y-130515812D01*
X132129180Y-130479502D01*
X132239494Y-130420537D01*
X132336185Y-130341185D01*
X132415537Y-130244494D01*
X132474502Y-130134180D01*
X132510812Y-130014482D01*
X132523072Y-129890000D01*
X132520000Y-127325750D01*
X132361250Y-127167000D01*
X130937000Y-127167000D01*
X130683000Y-127167000D01*
X129258750Y-127167000D01*
X129100000Y-127325750D01*
X129096928Y-129890000D01*
X122877999Y-129890000D01*
X122875000Y-125580750D01*
X122716250Y-125422000D01*
X116967000Y-125422000D01*
X116713000Y-125422000D01*
X110963750Y-125422000D01*
X110805000Y-125580750D01*
X110801928Y-129995000D01*
X79127000Y-129995000D01*
X79127000Y-125320475D01*
X79305000Y-125320475D01*
X79305000Y-125839525D01*
X79406261Y-126348601D01*
X79604893Y-126828141D01*
X79893262Y-127259715D01*
X80260285Y-127626738D01*
X80691859Y-127915107D01*
X81171399Y-128113739D01*
X81680475Y-128215000D01*
X82199525Y-128215000D01*
X82708601Y-128113739D01*
X83188141Y-127915107D01*
X83619715Y-127626738D01*
X83986738Y-127259715D01*
X84275107Y-126828141D01*
X84473739Y-126348601D01*
X84575000Y-125839525D01*
X84575000Y-125320475D01*
X84473739Y-124811399D01*
X84275107Y-124331859D01*
X83986738Y-123900285D01*
X83619715Y-123533262D01*
X83188141Y-123244893D01*
X82708601Y-123046261D01*
X82199525Y-122945000D01*
X81680475Y-122945000D01*
X81171399Y-123046261D01*
X80691859Y-123244893D01*
X80260285Y-123533262D01*
X79893262Y-123900285D01*
X79604893Y-124331859D01*
X79406261Y-124811399D01*
X79305000Y-125320475D01*
X79127000Y-125320475D01*
X79127000Y-119860750D01*
X81690000Y-119860750D01*
X81696196Y-119983357D01*
X81729418Y-120103949D01*
X81785527Y-120215742D01*
X81862369Y-120314441D01*
X81956988Y-120396252D01*
X82065751Y-120458032D01*
X82184476Y-120497406D01*
X82293250Y-120510000D01*
X82452000Y-120351250D01*
X82452000Y-119702000D01*
X82648000Y-119702000D01*
X82648000Y-120351250D01*
X82806750Y-120510000D01*
X82915524Y-120497406D01*
X83034249Y-120458032D01*
X83143012Y-120396252D01*
X83237631Y-120314441D01*
X83314473Y-120215742D01*
X83370582Y-120103949D01*
X83403804Y-119983357D01*
X83410000Y-119860750D01*
X83251250Y-119702000D01*
X82648000Y-119702000D01*
X82452000Y-119702000D01*
X81848750Y-119702000D01*
X81690000Y-119860750D01*
X79127000Y-119860750D01*
X79127000Y-119289250D01*
X81690000Y-119289250D01*
X81848750Y-119448000D01*
X82452000Y-119448000D01*
X82452000Y-118798750D01*
X82648000Y-118798750D01*
X82648000Y-119448000D01*
X83251250Y-119448000D01*
X83410000Y-119289250D01*
X83409280Y-119275000D01*
X84226928Y-119275000D01*
X84226928Y-119875000D01*
X84239188Y-119999482D01*
X84275498Y-120119180D01*
X84334463Y-120229494D01*
X84413815Y-120326185D01*
X84510506Y-120405537D01*
X84620820Y-120464502D01*
X84740518Y-120500812D01*
X84865000Y-120513072D01*
X85315000Y-120513072D01*
X85439482Y-120500812D01*
X85559180Y-120464502D01*
X85669494Y-120405537D01*
X85755444Y-120335000D01*
X86162669Y-120335000D01*
X86187662Y-120337462D01*
X88572127Y-122721928D01*
X88100000Y-122721928D01*
X87975518Y-122734188D01*
X87855820Y-122770498D01*
X87745506Y-122829463D01*
X87648815Y-122908815D01*
X87569463Y-123005506D01*
X87510498Y-123115820D01*
X87474188Y-123235518D01*
X87461928Y-123360000D01*
X87461928Y-124960000D01*
X87474188Y-125084482D01*
X87510498Y-125204180D01*
X87569463Y-125314494D01*
X87648815Y-125411185D01*
X87745506Y-125490537D01*
X87855820Y-125549502D01*
X87975518Y-125585812D01*
X88100000Y-125598072D01*
X89700000Y-125598072D01*
X89784437Y-125589756D01*
X89781323Y-125621369D01*
X89784543Y-125654064D01*
X89605273Y-125728320D01*
X89370241Y-125885363D01*
X89170363Y-126085241D01*
X89013320Y-126320273D01*
X88905147Y-126581426D01*
X88850000Y-126858665D01*
X88850000Y-127141335D01*
X88905147Y-127418574D01*
X89013320Y-127679727D01*
X89170363Y-127914759D01*
X89370241Y-128114637D01*
X89605273Y-128271680D01*
X89866426Y-128379853D01*
X90143665Y-128435000D01*
X90426335Y-128435000D01*
X90703574Y-128379853D01*
X90964727Y-128271680D01*
X91199759Y-128114637D01*
X91399637Y-127914759D01*
X91556680Y-127679727D01*
X91561465Y-127668174D01*
X91631383Y-127705546D01*
X91774644Y-127749003D01*
X91833481Y-127754798D01*
X91940363Y-127914759D01*
X92140241Y-128114637D01*
X92375273Y-128271680D01*
X92636426Y-128379853D01*
X92913665Y-128435000D01*
X93196335Y-128435000D01*
X93473574Y-128379853D01*
X93734727Y-128271680D01*
X93969759Y-128114637D01*
X94169637Y-127914759D01*
X94326680Y-127679727D01*
X94434853Y-127418574D01*
X94440000Y-127392699D01*
X94445147Y-127418574D01*
X94553320Y-127679727D01*
X94710363Y-127914759D01*
X94910241Y-128114637D01*
X95145273Y-128271680D01*
X95406426Y-128379853D01*
X95683665Y-128435000D01*
X95966335Y-128435000D01*
X96243574Y-128379853D01*
X96504727Y-128271680D01*
X96739759Y-128114637D01*
X96939637Y-127914759D01*
X97096680Y-127679727D01*
X97204853Y-127418574D01*
X97210000Y-127392699D01*
X97215147Y-127418574D01*
X97323320Y-127679727D01*
X97480363Y-127914759D01*
X97680241Y-128114637D01*
X97915273Y-128271680D01*
X98176426Y-128379853D01*
X98453665Y-128435000D01*
X98736335Y-128435000D01*
X99013574Y-128379853D01*
X99274727Y-128271680D01*
X99509759Y-128114637D01*
X99709637Y-127914759D01*
X99866680Y-127679727D01*
X99974853Y-127418574D01*
X100030000Y-127141335D01*
X100030000Y-126858665D01*
X99974853Y-126581426D01*
X99866680Y-126320273D01*
X99709637Y-126085241D01*
X99509759Y-125885363D01*
X99274727Y-125728320D01*
X99013574Y-125620147D01*
X98736335Y-125565000D01*
X98453665Y-125565000D01*
X98176426Y-125620147D01*
X97915273Y-125728320D01*
X97680241Y-125885363D01*
X97480363Y-126085241D01*
X97323320Y-126320273D01*
X97215147Y-126581426D01*
X97210000Y-126607301D01*
X97204853Y-126581426D01*
X97096680Y-126320273D01*
X96939637Y-126085241D01*
X96739759Y-125885363D01*
X96504727Y-125728320D01*
X96243574Y-125620147D01*
X95966335Y-125565000D01*
X95683665Y-125565000D01*
X95406426Y-125620147D01*
X95145273Y-125728320D01*
X94910241Y-125885363D01*
X94710363Y-126085241D01*
X94553320Y-126320273D01*
X94445147Y-126581426D01*
X94440000Y-126607301D01*
X94434853Y-126581426D01*
X94326680Y-126320273D01*
X94169637Y-126085241D01*
X93969759Y-125885363D01*
X93734727Y-125728320D01*
X93473574Y-125620147D01*
X93196335Y-125565000D01*
X92913665Y-125565000D01*
X92636426Y-125620147D01*
X92375273Y-125728320D01*
X92140241Y-125885363D01*
X92012018Y-126013586D01*
X91593431Y-125595000D01*
X91811335Y-125595000D01*
X92088574Y-125539853D01*
X92349727Y-125431680D01*
X92584759Y-125274637D01*
X92706694Y-125152702D01*
X93626903Y-125152702D01*
X93698486Y-125396671D01*
X93953996Y-125517571D01*
X94228184Y-125586300D01*
X94510512Y-125600217D01*
X94790130Y-125558787D01*
X95056292Y-125463603D01*
X95181514Y-125396671D01*
X95253097Y-125152702D01*
X94440000Y-124339605D01*
X93626903Y-125152702D01*
X92706694Y-125152702D01*
X92784637Y-125074759D01*
X92941680Y-124839727D01*
X93049853Y-124578574D01*
X93055513Y-124550118D01*
X93136397Y-124776292D01*
X93203329Y-124901514D01*
X93447298Y-124973097D01*
X94260395Y-124160000D01*
X94619605Y-124160000D01*
X95432702Y-124973097D01*
X95676671Y-124901514D01*
X95797571Y-124646004D01*
X95823212Y-124543711D01*
X95830147Y-124578574D01*
X95938320Y-124839727D01*
X96095363Y-125074759D01*
X96295241Y-125274637D01*
X96530273Y-125431680D01*
X96791426Y-125539853D01*
X97068665Y-125595000D01*
X97351335Y-125595000D01*
X97628574Y-125539853D01*
X97889727Y-125431680D01*
X98124759Y-125274637D01*
X98324637Y-125074759D01*
X98481680Y-124839727D01*
X98589853Y-124578574D01*
X98595000Y-124552699D01*
X98600147Y-124578574D01*
X98708320Y-124839727D01*
X98865363Y-125074759D01*
X99065241Y-125274637D01*
X99300273Y-125431680D01*
X99561426Y-125539853D01*
X99838665Y-125595000D01*
X100121335Y-125595000D01*
X100398574Y-125539853D01*
X100659727Y-125431680D01*
X100826157Y-125320475D01*
X104305000Y-125320475D01*
X104305000Y-125839525D01*
X104406261Y-126348601D01*
X104604893Y-126828141D01*
X104893262Y-127259715D01*
X105260285Y-127626738D01*
X105691859Y-127915107D01*
X106171399Y-128113739D01*
X106680475Y-128215000D01*
X107199525Y-128215000D01*
X107708601Y-128113739D01*
X108188141Y-127915107D01*
X108619715Y-127626738D01*
X108986738Y-127259715D01*
X109275107Y-126828141D01*
X109473739Y-126348601D01*
X109575000Y-125839525D01*
X109575000Y-125320475D01*
X109473739Y-124811399D01*
X109275107Y-124331859D01*
X108986738Y-123900285D01*
X108619715Y-123533262D01*
X108188141Y-123244893D01*
X107708601Y-123046261D01*
X107199525Y-122945000D01*
X106680475Y-122945000D01*
X106171399Y-123046261D01*
X105691859Y-123244893D01*
X105260285Y-123533262D01*
X104893262Y-123900285D01*
X104604893Y-124331859D01*
X104406261Y-124811399D01*
X104305000Y-125320475D01*
X100826157Y-125320475D01*
X100894759Y-125274637D01*
X101094637Y-125074759D01*
X101251680Y-124839727D01*
X101359853Y-124578574D01*
X101415000Y-124301335D01*
X101415000Y-124018665D01*
X101359853Y-123741426D01*
X101251680Y-123480273D01*
X101094637Y-123245241D01*
X100894759Y-123045363D01*
X100659727Y-122888320D01*
X100398574Y-122780147D01*
X100121335Y-122725000D01*
X99838665Y-122725000D01*
X99561426Y-122780147D01*
X99300273Y-122888320D01*
X99065241Y-123045363D01*
X98865363Y-123245241D01*
X98708320Y-123480273D01*
X98600147Y-123741426D01*
X98595000Y-123767301D01*
X98589853Y-123741426D01*
X98481680Y-123480273D01*
X98324637Y-123245241D01*
X98124759Y-123045363D01*
X97889727Y-122888320D01*
X97628574Y-122780147D01*
X97351335Y-122725000D01*
X97068665Y-122725000D01*
X96791426Y-122780147D01*
X96530273Y-122888320D01*
X96295241Y-123045363D01*
X96095363Y-123245241D01*
X95938320Y-123480273D01*
X95830147Y-123741426D01*
X95824487Y-123769882D01*
X95743603Y-123543708D01*
X95676671Y-123418486D01*
X95432702Y-123346903D01*
X94619605Y-124160000D01*
X94260395Y-124160000D01*
X93447298Y-123346903D01*
X93203329Y-123418486D01*
X93082429Y-123673996D01*
X93056788Y-123776289D01*
X93049853Y-123741426D01*
X92941680Y-123480273D01*
X92784637Y-123245241D01*
X92706694Y-123167298D01*
X93626903Y-123167298D01*
X94440000Y-123980395D01*
X95253097Y-123167298D01*
X95181514Y-122923329D01*
X94926004Y-122802429D01*
X94651816Y-122733700D01*
X94369488Y-122719783D01*
X94089870Y-122761213D01*
X93823708Y-122856397D01*
X93698486Y-122923329D01*
X93626903Y-123167298D01*
X92706694Y-123167298D01*
X92584759Y-123045363D01*
X92349727Y-122888320D01*
X92088574Y-122780147D01*
X91811335Y-122725000D01*
X91528665Y-122725000D01*
X91251426Y-122780147D01*
X90990273Y-122888320D01*
X90929038Y-122929236D01*
X87085707Y-119085904D01*
X88098132Y-118073479D01*
X88096928Y-118275000D01*
X88109188Y-118399482D01*
X88145498Y-118519180D01*
X88204463Y-118629494D01*
X88283815Y-118726185D01*
X88380506Y-118805537D01*
X88490820Y-118864502D01*
X88610518Y-118900812D01*
X88735000Y-118913072D01*
X90199250Y-118910000D01*
X90358000Y-118751250D01*
X90358000Y-117602000D01*
X90612000Y-117602000D01*
X90612000Y-118751250D01*
X90770750Y-118910000D01*
X92235000Y-118913072D01*
X92359482Y-118900812D01*
X92479180Y-118864502D01*
X92589494Y-118805537D01*
X92686185Y-118726185D01*
X92765537Y-118629494D01*
X92824502Y-118519180D01*
X92860812Y-118399482D01*
X92873072Y-118275000D01*
X92870000Y-117760750D01*
X92711250Y-117602000D01*
X90612000Y-117602000D01*
X90358000Y-117602000D01*
X90338000Y-117602000D01*
X90338000Y-117348000D01*
X90358000Y-117348000D01*
X90358000Y-116198750D01*
X90612000Y-116198750D01*
X90612000Y-117348000D01*
X92711250Y-117348000D01*
X92870000Y-117189250D01*
X92873072Y-116675000D01*
X92860812Y-116550518D01*
X92824502Y-116430820D01*
X92765537Y-116320506D01*
X92686185Y-116223815D01*
X92589494Y-116144463D01*
X92479180Y-116085498D01*
X92359482Y-116049188D01*
X92235000Y-116036928D01*
X90770750Y-116040000D01*
X90612000Y-116198750D01*
X90358000Y-116198750D01*
X90199250Y-116040000D01*
X90131753Y-116039858D01*
X118496611Y-87675001D01*
X119676679Y-87675001D01*
X119714001Y-87678677D01*
X119751323Y-87675001D01*
X119751334Y-87675001D01*
X119862987Y-87664004D01*
X120006248Y-87620547D01*
X120138277Y-87549975D01*
X120254002Y-87455002D01*
X120277804Y-87425999D01*
X120783508Y-86920296D01*
X120986589Y-87055990D01*
X121256842Y-87167932D01*
X121543740Y-87225000D01*
X121836260Y-87225000D01*
X122123158Y-87167932D01*
X122393411Y-87055990D01*
X122636632Y-86893475D01*
X122843475Y-86686632D01*
X122960000Y-86512240D01*
X123076525Y-86686632D01*
X123283368Y-86893475D01*
X123526589Y-87055990D01*
X123796842Y-87167932D01*
X124083740Y-87225000D01*
X124376260Y-87225000D01*
X124663158Y-87167932D01*
X124933411Y-87055990D01*
X125176632Y-86893475D01*
X125383475Y-86686632D01*
X125500000Y-86512240D01*
X125616525Y-86686632D01*
X125823368Y-86893475D01*
X126066589Y-87055990D01*
X126336842Y-87167932D01*
X126623740Y-87225000D01*
X126916260Y-87225000D01*
X127203158Y-87167932D01*
X127473411Y-87055990D01*
X127716632Y-86893475D01*
X127923475Y-86686632D01*
X128040000Y-86512240D01*
X128156525Y-86686632D01*
X128363368Y-86893475D01*
X128606589Y-87055990D01*
X128876842Y-87167932D01*
X129163740Y-87225000D01*
X129456260Y-87225000D01*
X129743158Y-87167932D01*
X130013411Y-87055990D01*
X130256632Y-86893475D01*
X130463475Y-86686632D01*
X130585195Y-86504466D01*
X130654822Y-86621355D01*
X130849731Y-86837588D01*
X131083080Y-87011641D01*
X131345901Y-87136825D01*
X131493110Y-87181476D01*
X131723000Y-87060155D01*
X131723000Y-85867000D01*
X131703000Y-85867000D01*
X131703000Y-85613000D01*
X131723000Y-85613000D01*
X131723000Y-85593000D01*
X131977000Y-85593000D01*
X131977000Y-85613000D01*
X131997000Y-85613000D01*
X131997000Y-85867000D01*
X131977000Y-85867000D01*
X131977000Y-87060155D01*
X132206890Y-87181476D01*
X132354099Y-87136825D01*
X132616920Y-87011641D01*
X132850269Y-86837588D01*
X133045178Y-86621355D01*
X133114805Y-86504466D01*
X133236525Y-86686632D01*
X133443368Y-86893475D01*
X133686589Y-87055990D01*
X133956842Y-87167932D01*
X134243740Y-87225000D01*
X134370198Y-87225000D01*
X117273999Y-104321200D01*
X117245001Y-104344998D01*
X117221203Y-104373996D01*
X117221202Y-104373997D01*
X117150027Y-104460723D01*
X117079455Y-104592753D01*
X117035999Y-104736014D01*
X117021325Y-104884999D01*
X117025002Y-104922331D01*
X117025001Y-109708456D01*
X116756260Y-109655000D01*
X116463740Y-109655000D01*
X116176842Y-109712068D01*
X115906589Y-109824010D01*
X115663368Y-109986525D01*
X115456525Y-110193368D01*
X115340000Y-110367760D01*
X115223475Y-110193368D01*
X115016632Y-109986525D01*
X114773411Y-109824010D01*
X114503158Y-109712068D01*
X114216260Y-109655000D01*
X113923740Y-109655000D01*
X113636842Y-109712068D01*
X113366589Y-109824010D01*
X113123368Y-109986525D01*
X112916525Y-110193368D01*
X112754010Y-110436589D01*
X112642068Y-110706842D01*
X112585000Y-110993740D01*
X112585000Y-111286260D01*
X112642068Y-111573158D01*
X112754010Y-111843411D01*
X112916525Y-112086632D01*
X113123368Y-112293475D01*
X113366589Y-112455990D01*
X113636842Y-112567932D01*
X113923740Y-112625000D01*
X114216260Y-112625000D01*
X114503158Y-112567932D01*
X114773411Y-112455990D01*
X115016632Y-112293475D01*
X115223475Y-112086632D01*
X115340000Y-111912240D01*
X115456525Y-112086632D01*
X115663368Y-112293475D01*
X115906589Y-112455990D01*
X115975616Y-112484582D01*
X115536454Y-112923744D01*
X115489275Y-112885025D01*
X115357246Y-112814453D01*
X115213985Y-112770996D01*
X115102332Y-112759999D01*
X115102321Y-112759999D01*
X115064999Y-112756323D01*
X115027677Y-112759999D01*
X104322323Y-112759999D01*
X104285000Y-112756323D01*
X104247677Y-112759999D01*
X104247668Y-112759999D01*
X104136015Y-112770996D01*
X103992754Y-112814453D01*
X103860724Y-112885025D01*
X103777084Y-112953667D01*
X103745000Y-112979998D01*
X103721202Y-113008996D01*
X100693271Y-116036928D01*
X99380000Y-116036928D01*
X99255518Y-116049188D01*
X99135820Y-116085498D01*
X99025506Y-116144463D01*
X98928815Y-116223815D01*
X98849463Y-116320506D01*
X98790498Y-116430820D01*
X98754188Y-116550518D01*
X98741928Y-116675000D01*
X98741928Y-116715000D01*
X98244861Y-116715000D01*
X98205472Y-116585150D01*
X98123405Y-116431614D01*
X98012962Y-116297038D01*
X97878386Y-116186595D01*
X97724850Y-116104528D01*
X97558254Y-116053992D01*
X97385000Y-116036928D01*
X94385000Y-116036928D01*
X94211746Y-116053992D01*
X94045150Y-116104528D01*
X93891614Y-116186595D01*
X93757038Y-116297038D01*
X93646595Y-116431614D01*
X93564528Y-116585150D01*
X93513992Y-116751746D01*
X93496928Y-116925000D01*
X93496928Y-118025000D01*
X93513992Y-118198254D01*
X93564528Y-118364850D01*
X93646595Y-118518386D01*
X93757038Y-118652962D01*
X93891614Y-118763405D01*
X94045150Y-118845472D01*
X94211746Y-118896008D01*
X94385000Y-118913072D01*
X97385000Y-118913072D01*
X97558254Y-118896008D01*
X97724850Y-118845472D01*
X97878386Y-118763405D01*
X98012962Y-118652962D01*
X98123405Y-118518386D01*
X98205472Y-118364850D01*
X98244861Y-118235000D01*
X98741928Y-118235000D01*
X98741928Y-118275000D01*
X98754188Y-118399482D01*
X98790498Y-118519180D01*
X98849463Y-118629494D01*
X98928815Y-118726185D01*
X99025506Y-118805537D01*
X99135820Y-118864502D01*
X99255518Y-118900812D01*
X99380000Y-118913072D01*
X101280000Y-118913072D01*
X101404482Y-118900812D01*
X101524180Y-118864502D01*
X101634494Y-118805537D01*
X101731185Y-118726185D01*
X101810537Y-118629494D01*
X101869502Y-118519180D01*
X101905812Y-118399482D01*
X101918072Y-118275000D01*
X101918072Y-116961729D01*
X104599803Y-114279999D01*
X107423045Y-114279999D01*
X107330506Y-114329463D01*
X107233815Y-114408815D01*
X107154463Y-114505506D01*
X107095498Y-114615820D01*
X107059188Y-114735518D01*
X107046928Y-114860000D01*
X107050000Y-115824250D01*
X107208750Y-115983000D01*
X108458000Y-115983000D01*
X108458000Y-115963000D01*
X108712000Y-115963000D01*
X108712000Y-115983000D01*
X109961250Y-115983000D01*
X110120000Y-115824250D01*
X110123072Y-114860000D01*
X110110812Y-114735518D01*
X110074502Y-114615820D01*
X110015537Y-114505506D01*
X109936185Y-114408815D01*
X109839494Y-114329463D01*
X109746955Y-114279999D01*
X112252591Y-114279999D01*
X112255000Y-115859250D01*
X112413750Y-116018000D01*
X113313000Y-116018000D01*
X113313000Y-115998000D01*
X113567000Y-115998000D01*
X113567000Y-116018000D01*
X113587000Y-116018000D01*
X113587000Y-116272000D01*
X113567000Y-116272000D01*
X113567000Y-118921250D01*
X113725750Y-119080000D01*
X113990000Y-119083072D01*
X114114482Y-119070812D01*
X114234180Y-119034502D01*
X114290000Y-119004665D01*
X114345820Y-119034502D01*
X114465518Y-119070812D01*
X114590000Y-119083072D01*
X115690000Y-119083072D01*
X115814482Y-119070812D01*
X115934180Y-119034502D01*
X115990000Y-119004665D01*
X116045820Y-119034502D01*
X116165518Y-119070812D01*
X116290000Y-119083072D01*
X116554250Y-119080000D01*
X116713000Y-118921250D01*
X116713000Y-116272000D01*
X116693000Y-116272000D01*
X116693000Y-116018000D01*
X116713000Y-116018000D01*
X116713000Y-115998000D01*
X116967000Y-115998000D01*
X116967000Y-116018000D01*
X116987000Y-116018000D01*
X116987000Y-116272000D01*
X116967000Y-116272000D01*
X116967000Y-118921250D01*
X117102974Y-119057224D01*
X116810199Y-119350000D01*
X110123072Y-119350000D01*
X110123072Y-118860000D01*
X110110812Y-118735518D01*
X110074502Y-118615820D01*
X110015537Y-118505506D01*
X109965882Y-118445000D01*
X112251928Y-118445000D01*
X112264188Y-118569482D01*
X112300498Y-118689180D01*
X112359463Y-118799494D01*
X112438815Y-118896185D01*
X112535506Y-118975537D01*
X112645820Y-119034502D01*
X112765518Y-119070812D01*
X112890000Y-119083072D01*
X113154250Y-119080000D01*
X113313000Y-118921250D01*
X113313000Y-116272000D01*
X112413750Y-116272000D01*
X112255000Y-116430750D01*
X112251928Y-118445000D01*
X109965882Y-118445000D01*
X109936185Y-118408815D01*
X109839494Y-118329463D01*
X109729180Y-118270498D01*
X109609482Y-118234188D01*
X109485000Y-118221928D01*
X107771729Y-118221928D01*
X107524769Y-117974968D01*
X107560518Y-117985812D01*
X107685000Y-117998072D01*
X108299250Y-117995000D01*
X108458000Y-117836250D01*
X108458000Y-116237000D01*
X108712000Y-116237000D01*
X108712000Y-117836250D01*
X108870750Y-117995000D01*
X109485000Y-117998072D01*
X109609482Y-117985812D01*
X109729180Y-117949502D01*
X109839494Y-117890537D01*
X109936185Y-117811185D01*
X110015537Y-117714494D01*
X110074502Y-117604180D01*
X110110812Y-117484482D01*
X110123072Y-117360000D01*
X110120000Y-116395750D01*
X109961250Y-116237000D01*
X108712000Y-116237000D01*
X108458000Y-116237000D01*
X107208750Y-116237000D01*
X107050000Y-116395750D01*
X107046928Y-117360000D01*
X107059188Y-117484482D01*
X107070032Y-117520231D01*
X106513804Y-116964003D01*
X106490001Y-116934999D01*
X106374276Y-116840026D01*
X106242247Y-116769454D01*
X106098986Y-116725997D01*
X106018072Y-116718028D01*
X106018072Y-116675000D01*
X106005812Y-116550518D01*
X105969502Y-116430820D01*
X105910537Y-116320506D01*
X105831185Y-116223815D01*
X105734494Y-116144463D01*
X105624180Y-116085498D01*
X105504482Y-116049188D01*
X105380000Y-116036928D01*
X103480000Y-116036928D01*
X103355518Y-116049188D01*
X103235820Y-116085498D01*
X103125506Y-116144463D01*
X103028815Y-116223815D01*
X102949463Y-116320506D01*
X102890498Y-116430820D01*
X102854188Y-116550518D01*
X102841928Y-116675000D01*
X102841928Y-118275000D01*
X102854188Y-118399482D01*
X102890498Y-118519180D01*
X102949463Y-118629494D01*
X103028815Y-118726185D01*
X103125506Y-118805537D01*
X103235820Y-118864502D01*
X103355518Y-118900812D01*
X103480000Y-118913072D01*
X105380000Y-118913072D01*
X105504482Y-118900812D01*
X105624180Y-118864502D01*
X105734494Y-118805537D01*
X105831185Y-118726185D01*
X105910537Y-118629494D01*
X105952043Y-118551844D01*
X107046928Y-119646730D01*
X107046928Y-121360000D01*
X107059188Y-121484482D01*
X107095498Y-121604180D01*
X107154463Y-121714494D01*
X107233815Y-121811185D01*
X107330506Y-121890537D01*
X107440820Y-121949502D01*
X107560518Y-121985812D01*
X107685000Y-121998072D01*
X109485000Y-121998072D01*
X109609482Y-121985812D01*
X109729180Y-121949502D01*
X109839494Y-121890537D01*
X109936185Y-121811185D01*
X110015537Y-121714494D01*
X110074502Y-121604180D01*
X110110812Y-121484482D01*
X110123072Y-121360000D01*
X110123072Y-120870000D01*
X110802119Y-120870000D01*
X110805000Y-125009250D01*
X110963750Y-125168000D01*
X116713000Y-125168000D01*
X116713000Y-125148000D01*
X116967000Y-125148000D01*
X116967000Y-125168000D01*
X122716250Y-125168000D01*
X122875000Y-125009250D01*
X122875570Y-124190000D01*
X129096928Y-124190000D01*
X129100000Y-126754250D01*
X129258750Y-126913000D01*
X130683000Y-126913000D01*
X130683000Y-123713750D01*
X130937000Y-123713750D01*
X130937000Y-126913000D01*
X132361250Y-126913000D01*
X132520000Y-126754250D01*
X132523072Y-124190000D01*
X132510812Y-124065518D01*
X132474502Y-123945820D01*
X132415537Y-123835506D01*
X132336185Y-123738815D01*
X132239494Y-123659463D01*
X132129180Y-123600498D01*
X132009482Y-123564188D01*
X131885000Y-123551928D01*
X131095750Y-123555000D01*
X130937000Y-123713750D01*
X130683000Y-123713750D01*
X130524250Y-123555000D01*
X129735000Y-123551928D01*
X129610518Y-123564188D01*
X129490820Y-123600498D01*
X129380506Y-123659463D01*
X129283815Y-123738815D01*
X129204463Y-123835506D01*
X129145498Y-123945820D01*
X129109188Y-124065518D01*
X129096928Y-124190000D01*
X122875570Y-124190000D01*
X122878072Y-120595000D01*
X122865812Y-120470518D01*
X122829502Y-120350820D01*
X122770537Y-120240506D01*
X122691185Y-120143815D01*
X122594494Y-120064463D01*
X122484180Y-120005498D01*
X122364482Y-119969188D01*
X122240000Y-119956928D01*
X118350537Y-119959264D01*
X119051003Y-119258799D01*
X119080001Y-119235001D01*
X119174974Y-119119276D01*
X119200123Y-119072226D01*
X119214482Y-119070812D01*
X119334180Y-119034502D01*
X119390000Y-119004665D01*
X119445820Y-119034502D01*
X119565518Y-119070812D01*
X119690000Y-119083072D01*
X120790000Y-119083072D01*
X120914482Y-119070812D01*
X121034180Y-119034502D01*
X121144494Y-118975537D01*
X121241185Y-118896185D01*
X121320537Y-118799494D01*
X121379502Y-118689180D01*
X121415812Y-118569482D01*
X121428072Y-118445000D01*
X121428072Y-117280000D01*
X129096928Y-117280000D01*
X129096928Y-119690000D01*
X129109188Y-119814482D01*
X129145498Y-119934180D01*
X129204463Y-120044494D01*
X129283815Y-120141185D01*
X129380506Y-120220537D01*
X129490820Y-120279502D01*
X129610518Y-120315812D01*
X129735000Y-120328072D01*
X131885000Y-120328072D01*
X132009482Y-120315812D01*
X132129180Y-120279502D01*
X132239494Y-120220537D01*
X132336185Y-120141185D01*
X132415537Y-120044494D01*
X132474502Y-119934180D01*
X132510812Y-119814482D01*
X132523072Y-119690000D01*
X132523072Y-117975000D01*
X141763028Y-117975000D01*
X141809893Y-118088141D01*
X142098262Y-118519715D01*
X142465285Y-118886738D01*
X142896859Y-119175107D01*
X143376399Y-119373739D01*
X143885475Y-119475000D01*
X144404525Y-119475000D01*
X144913601Y-119373739D01*
X145393141Y-119175107D01*
X145824715Y-118886738D01*
X146023954Y-118687499D01*
X152637106Y-118687499D01*
X152853228Y-119054258D01*
X153313105Y-119294938D01*
X153811098Y-119441275D01*
X154328071Y-119487648D01*
X154844159Y-119432273D01*
X155339526Y-119277279D01*
X155756772Y-119054258D01*
X155972894Y-118687499D01*
X154305000Y-117019605D01*
X152637106Y-118687499D01*
X146023954Y-118687499D01*
X146191738Y-118519715D01*
X146480107Y-118088141D01*
X146678739Y-117608601D01*
X146780000Y-117099525D01*
X146780000Y-116863071D01*
X151657352Y-116863071D01*
X151712727Y-117379159D01*
X151867721Y-117874526D01*
X152090742Y-118291772D01*
X152457501Y-118507894D01*
X154125395Y-116840000D01*
X154484605Y-116840000D01*
X156152499Y-118507894D01*
X156519258Y-118291772D01*
X156759938Y-117831895D01*
X156906275Y-117333902D01*
X156952648Y-116816929D01*
X156897273Y-116300841D01*
X156742279Y-115805474D01*
X156519258Y-115388228D01*
X156152499Y-115172106D01*
X154484605Y-116840000D01*
X154125395Y-116840000D01*
X152457501Y-115172106D01*
X152090742Y-115388228D01*
X151850062Y-115848105D01*
X151703725Y-116346098D01*
X151657352Y-116863071D01*
X146780000Y-116863071D01*
X146780000Y-116580475D01*
X146678739Y-116071399D01*
X146480107Y-115591859D01*
X146191738Y-115160285D01*
X146023954Y-114992501D01*
X152637106Y-114992501D01*
X154305000Y-116660395D01*
X155972894Y-114992501D01*
X155756772Y-114625742D01*
X155296895Y-114385062D01*
X154798902Y-114238725D01*
X154281929Y-114192352D01*
X153765841Y-114247727D01*
X153270474Y-114402721D01*
X152853228Y-114625742D01*
X152637106Y-114992501D01*
X146023954Y-114992501D01*
X145824715Y-114793262D01*
X145393141Y-114504893D01*
X144913601Y-114306261D01*
X144404525Y-114205000D01*
X143885475Y-114205000D01*
X143376399Y-114306261D01*
X142896859Y-114504893D01*
X142465285Y-114793262D01*
X142098262Y-115160285D01*
X141809893Y-115591859D01*
X141763028Y-115705000D01*
X132523072Y-115705000D01*
X132523072Y-113990000D01*
X132510812Y-113865518D01*
X132474502Y-113745820D01*
X132415537Y-113635506D01*
X132336185Y-113538815D01*
X132239494Y-113459463D01*
X132129180Y-113400498D01*
X132009482Y-113364188D01*
X131885000Y-113351928D01*
X129735000Y-113351928D01*
X129610518Y-113364188D01*
X129490820Y-113400498D01*
X129380506Y-113459463D01*
X129283815Y-113538815D01*
X129204463Y-113635506D01*
X129145498Y-113745820D01*
X129109188Y-113865518D01*
X129096928Y-113990000D01*
X129096928Y-115010000D01*
X121428072Y-115010000D01*
X121428072Y-113845000D01*
X121415812Y-113720518D01*
X121379502Y-113600820D01*
X121320537Y-113490506D01*
X121241185Y-113393815D01*
X121144494Y-113314463D01*
X121034180Y-113255498D01*
X120914482Y-113219188D01*
X120790000Y-113206928D01*
X119690000Y-113206928D01*
X119565518Y-113219188D01*
X119445820Y-113255498D01*
X119390000Y-113285335D01*
X119334180Y-113255498D01*
X119214482Y-113219188D01*
X119090000Y-113206928D01*
X117990000Y-113206928D01*
X117865518Y-113219188D01*
X117745820Y-113255498D01*
X117690000Y-113285335D01*
X117634180Y-113255498D01*
X117514482Y-113219188D01*
X117401719Y-113208082D01*
X118271082Y-112338720D01*
X118446589Y-112455990D01*
X118716842Y-112567932D01*
X119003740Y-112625000D01*
X119296260Y-112625000D01*
X119583158Y-112567932D01*
X119853411Y-112455990D01*
X120096632Y-112293475D01*
X120303475Y-112086632D01*
X120420000Y-111912240D01*
X120536525Y-112086632D01*
X120743368Y-112293475D01*
X120986589Y-112455990D01*
X121256842Y-112567932D01*
X121543740Y-112625000D01*
X121836260Y-112625000D01*
X122123158Y-112567932D01*
X122393411Y-112455990D01*
X122636632Y-112293475D01*
X122843475Y-112086632D01*
X122960000Y-111912240D01*
X123076525Y-112086632D01*
X123283368Y-112293475D01*
X123526589Y-112455990D01*
X123796842Y-112567932D01*
X124083740Y-112625000D01*
X124376260Y-112625000D01*
X124663158Y-112567932D01*
X124933411Y-112455990D01*
X125176632Y-112293475D01*
X125383475Y-112086632D01*
X125500000Y-111912240D01*
X125616525Y-112086632D01*
X125823368Y-112293475D01*
X126066589Y-112455990D01*
X126336842Y-112567932D01*
X126623740Y-112625000D01*
X126916260Y-112625000D01*
X127203158Y-112567932D01*
X127473411Y-112455990D01*
X127716632Y-112293475D01*
X127923475Y-112086632D01*
X128040000Y-111912240D01*
X128156525Y-112086632D01*
X128363368Y-112293475D01*
X128606589Y-112455990D01*
X128876842Y-112567932D01*
X129163740Y-112625000D01*
X129456260Y-112625000D01*
X129743158Y-112567932D01*
X130013411Y-112455990D01*
X130256632Y-112293475D01*
X130463475Y-112086632D01*
X130580000Y-111912240D01*
X130696525Y-112086632D01*
X130903368Y-112293475D01*
X131146589Y-112455990D01*
X131416842Y-112567932D01*
X131703740Y-112625000D01*
X131996260Y-112625000D01*
X132283158Y-112567932D01*
X132553411Y-112455990D01*
X132796632Y-112293475D01*
X133003475Y-112086632D01*
X133120000Y-111912240D01*
X133236525Y-112086632D01*
X133443368Y-112293475D01*
X133686589Y-112455990D01*
X133956842Y-112567932D01*
X134243740Y-112625000D01*
X134536260Y-112625000D01*
X134823158Y-112567932D01*
X135093411Y-112455990D01*
X135336632Y-112293475D01*
X135468487Y-112161620D01*
X135490498Y-112234180D01*
X135549463Y-112344494D01*
X135628815Y-112441185D01*
X135725506Y-112520537D01*
X135835820Y-112579502D01*
X135955518Y-112615812D01*
X136080000Y-112628072D01*
X137780000Y-112628072D01*
X137904482Y-112615812D01*
X138024180Y-112579502D01*
X138134494Y-112520537D01*
X138231185Y-112441185D01*
X138310537Y-112344494D01*
X138369502Y-112234180D01*
X138405812Y-112114482D01*
X138418072Y-111990000D01*
X138418072Y-110290000D01*
X138405812Y-110165518D01*
X138369502Y-110045820D01*
X138310537Y-109935506D01*
X138231185Y-109838815D01*
X138134494Y-109759463D01*
X138024180Y-109700498D01*
X137904482Y-109664188D01*
X137780000Y-109651928D01*
X136080000Y-109651928D01*
X135955518Y-109664188D01*
X135835820Y-109700498D01*
X135725506Y-109759463D01*
X135628815Y-109838815D01*
X135549463Y-109935506D01*
X135490498Y-110045820D01*
X135468487Y-110118380D01*
X135336632Y-109986525D01*
X135093411Y-109824010D01*
X134823158Y-109712068D01*
X134536260Y-109655000D01*
X134243740Y-109655000D01*
X133956842Y-109712068D01*
X133686589Y-109824010D01*
X133443368Y-109986525D01*
X133236525Y-110193368D01*
X133120000Y-110367760D01*
X133003475Y-110193368D01*
X132796632Y-109986525D01*
X132553411Y-109824010D01*
X132283158Y-109712068D01*
X131996260Y-109655000D01*
X131703740Y-109655000D01*
X131416842Y-109712068D01*
X131146589Y-109824010D01*
X130903368Y-109986525D01*
X130696525Y-110193368D01*
X130580000Y-110367760D01*
X130463475Y-110193368D01*
X130256632Y-109986525D01*
X130013411Y-109824010D01*
X129743158Y-109712068D01*
X129456260Y-109655000D01*
X129163740Y-109655000D01*
X128876842Y-109712068D01*
X128606589Y-109824010D01*
X128363368Y-109986525D01*
X128156525Y-110193368D01*
X128040000Y-110367760D01*
X127923475Y-110193368D01*
X127716632Y-109986525D01*
X127473411Y-109824010D01*
X127203158Y-109712068D01*
X126916260Y-109655000D01*
X126623740Y-109655000D01*
X126336842Y-109712068D01*
X126066589Y-109824010D01*
X125823368Y-109986525D01*
X125616525Y-110193368D01*
X125500000Y-110367760D01*
X125383475Y-110193368D01*
X125176632Y-109986525D01*
X124933411Y-109824010D01*
X124663158Y-109712068D01*
X124376260Y-109655000D01*
X124083740Y-109655000D01*
X123796842Y-109712068D01*
X123526589Y-109824010D01*
X123283368Y-109986525D01*
X123076525Y-110193368D01*
X122960000Y-110367760D01*
X122843475Y-110193368D01*
X122636632Y-109986525D01*
X122393411Y-109824010D01*
X122123158Y-109712068D01*
X121836260Y-109655000D01*
X121543740Y-109655000D01*
X121256842Y-109712068D01*
X120986589Y-109824010D01*
X120743368Y-109986525D01*
X120536525Y-110193368D01*
X120420000Y-110367760D01*
X120303475Y-110193368D01*
X120096632Y-109986525D01*
X119853411Y-109824010D01*
X119583158Y-109712068D01*
X119296260Y-109655000D01*
X119003740Y-109655000D01*
X118716842Y-109712068D01*
X118545001Y-109783247D01*
X118545001Y-105199800D01*
X136516730Y-87228072D01*
X137780000Y-87228072D01*
X137904482Y-87215812D01*
X138024180Y-87179502D01*
X138134494Y-87120537D01*
X138231185Y-87041185D01*
X138310537Y-86944494D01*
X138369502Y-86834180D01*
X138405812Y-86714482D01*
X138418072Y-86590000D01*
X138418072Y-84890000D01*
X138405812Y-84765518D01*
X138369502Y-84645820D01*
X138310537Y-84535506D01*
X138231185Y-84438815D01*
X138134494Y-84359463D01*
X138024180Y-84300498D01*
X137904482Y-84264188D01*
X137780000Y-84251928D01*
X136952874Y-84251928D01*
X137894802Y-83310000D01*
X143472678Y-83310000D01*
X143510000Y-83313676D01*
X143547322Y-83310000D01*
X143547333Y-83310000D01*
X143658986Y-83299003D01*
X143802247Y-83255546D01*
X143934276Y-83184974D01*
X144050001Y-83090001D01*
X144073804Y-83060997D01*
X144456114Y-82678688D01*
X144638665Y-82715000D01*
X144921335Y-82715000D01*
X145198574Y-82659853D01*
X145459727Y-82551680D01*
X145694759Y-82394637D01*
X145894637Y-82194759D01*
X146050000Y-81962241D01*
X146205363Y-82194759D01*
X146405241Y-82394637D01*
X146640273Y-82551680D01*
X146901426Y-82659853D01*
X147178665Y-82715000D01*
X147461335Y-82715000D01*
X147738574Y-82659853D01*
X147999727Y-82551680D01*
X148234759Y-82394637D01*
X148434637Y-82194759D01*
X148590000Y-81962241D01*
X148745363Y-82194759D01*
X148945241Y-82394637D01*
X149180273Y-82551680D01*
X149441426Y-82659853D01*
X149718665Y-82715000D01*
X150001335Y-82715000D01*
X150278574Y-82659853D01*
X150539727Y-82551680D01*
X150774759Y-82394637D01*
X150974637Y-82194759D01*
X151131680Y-81959727D01*
X151239853Y-81698574D01*
X151295000Y-81421335D01*
X151295000Y-81138665D01*
X151239853Y-80861426D01*
X151131680Y-80600273D01*
X150974637Y-80365241D01*
X150774759Y-80165363D01*
X150539727Y-80008320D01*
X150278574Y-79900147D01*
X150001335Y-79845000D01*
X149718665Y-79845000D01*
X149441426Y-79900147D01*
X149180273Y-80008320D01*
X148945241Y-80165363D01*
X148745363Y-80365241D01*
X148590000Y-80597759D01*
X148434637Y-80365241D01*
X148234759Y-80165363D01*
X147999727Y-80008320D01*
X147738574Y-79900147D01*
X147461335Y-79845000D01*
X147178665Y-79845000D01*
X146901426Y-79900147D01*
X146640273Y-80008320D01*
X146405241Y-80165363D01*
X146205363Y-80365241D01*
X146050000Y-80597759D01*
X145894637Y-80365241D01*
X145694759Y-80165363D01*
X145459727Y-80008320D01*
X145198574Y-79900147D01*
X144921335Y-79845000D01*
X144638665Y-79845000D01*
X144361426Y-79900147D01*
X144100273Y-80008320D01*
X143865241Y-80165363D01*
X143666643Y-80363961D01*
X143665812Y-80355518D01*
X143629502Y-80235820D01*
X143570537Y-80125506D01*
X143491185Y-80028815D01*
X143394494Y-79949463D01*
X143284180Y-79890498D01*
X143164482Y-79854188D01*
X143040000Y-79841928D01*
X141440000Y-79841928D01*
X141315518Y-79854188D01*
X141195820Y-79890498D01*
X141085506Y-79949463D01*
X140988815Y-80028815D01*
X140909463Y-80125506D01*
X140850498Y-80235820D01*
X140814188Y-80355518D01*
X140801928Y-80480000D01*
X140801928Y-81790000D01*
X137617322Y-81790000D01*
X137579999Y-81786324D01*
X137542676Y-81790000D01*
X137542667Y-81790000D01*
X137431014Y-81800997D01*
X137287753Y-81844454D01*
X137155724Y-81915026D01*
X137039999Y-82009999D01*
X137016201Y-82038997D01*
X134756408Y-84298791D01*
X134536260Y-84255000D01*
X134243740Y-84255000D01*
X134023592Y-84298790D01*
X131128804Y-81404003D01*
X131105001Y-81374999D01*
X130989276Y-81280026D01*
X130857247Y-81209454D01*
X130713986Y-81165997D01*
X130602333Y-81155000D01*
X130602322Y-81155000D01*
X130565000Y-81151324D01*
X130527678Y-81155000D01*
X128747580Y-81155000D01*
X128748072Y-81150000D01*
X128748072Y-80700000D01*
X128731488Y-80531623D01*
X128682375Y-80369717D01*
X128604300Y-80223649D01*
X128640537Y-80179494D01*
X128699502Y-80069180D01*
X128735812Y-79949482D01*
X128748072Y-79825000D01*
X128745000Y-79660750D01*
X128586250Y-79502000D01*
X127762000Y-79502000D01*
X127762000Y-79522000D01*
X127508000Y-79522000D01*
X127508000Y-79502000D01*
X127488000Y-79502000D01*
X127488000Y-79248000D01*
X127508000Y-79248000D01*
X127508000Y-78448750D01*
X127762000Y-78448750D01*
X127762000Y-79248000D01*
X128586250Y-79248000D01*
X128745000Y-79089250D01*
X128748072Y-78925000D01*
X128735812Y-78800518D01*
X128699502Y-78680820D01*
X128640537Y-78570506D01*
X128561185Y-78473815D01*
X128464494Y-78394463D01*
X128354180Y-78335498D01*
X128234482Y-78299188D01*
X128110000Y-78286928D01*
X127920750Y-78290000D01*
X127762000Y-78448750D01*
X127508000Y-78448750D01*
X127377799Y-78318549D01*
X127387456Y-78270000D01*
X133081928Y-78270000D01*
X133094188Y-78394482D01*
X133130498Y-78514180D01*
X133189463Y-78624494D01*
X133268815Y-78721185D01*
X133365506Y-78800537D01*
X133475820Y-78859502D01*
X133595518Y-78895812D01*
X133720000Y-78908072D01*
X134334250Y-78905000D01*
X134493000Y-78746250D01*
X134493000Y-77822000D01*
X133243750Y-77822000D01*
X133085000Y-77980750D01*
X133081928Y-78270000D01*
X127387456Y-78270000D01*
X127400000Y-78206939D01*
X127400000Y-78003061D01*
X127360226Y-77803102D01*
X127282205Y-77614744D01*
X127168937Y-77445226D01*
X127024774Y-77301063D01*
X126855256Y-77187795D01*
X126691586Y-77120000D01*
X133081928Y-77120000D01*
X133085000Y-77409250D01*
X133243750Y-77568000D01*
X134493000Y-77568000D01*
X134493000Y-76643750D01*
X134747000Y-76643750D01*
X134747000Y-77568000D01*
X134767000Y-77568000D01*
X134767000Y-77822000D01*
X134747000Y-77822000D01*
X134747000Y-78746250D01*
X134905750Y-78905000D01*
X135520000Y-78908072D01*
X135644482Y-78895812D01*
X135764180Y-78859502D01*
X135874494Y-78800537D01*
X135971185Y-78721185D01*
X136050537Y-78624494D01*
X136109502Y-78514180D01*
X136132333Y-78438916D01*
X136158815Y-78471185D01*
X136255506Y-78550537D01*
X136365820Y-78609502D01*
X136485518Y-78645812D01*
X136610000Y-78658072D01*
X136874250Y-78655000D01*
X137033000Y-78496250D01*
X137033000Y-77597000D01*
X137287000Y-77597000D01*
X137287000Y-78496250D01*
X137445750Y-78655000D01*
X137710000Y-78658072D01*
X137834482Y-78645812D01*
X137954180Y-78609502D01*
X138064494Y-78550537D01*
X138161185Y-78471185D01*
X138240537Y-78374494D01*
X138299502Y-78264180D01*
X138335812Y-78144482D01*
X138348072Y-78020000D01*
X138345000Y-77755750D01*
X138186250Y-77597000D01*
X137287000Y-77597000D01*
X137033000Y-77597000D01*
X137013000Y-77597000D01*
X137013000Y-77343000D01*
X137033000Y-77343000D01*
X137033000Y-76443750D01*
X137287000Y-76443750D01*
X137287000Y-77343000D01*
X138186250Y-77343000D01*
X138345000Y-77184250D01*
X138348072Y-76920000D01*
X138335812Y-76795518D01*
X138299502Y-76675820D01*
X138240537Y-76565506D01*
X138161185Y-76468815D01*
X138064494Y-76389463D01*
X137954180Y-76330498D01*
X137834482Y-76294188D01*
X137710000Y-76281928D01*
X137445750Y-76285000D01*
X137287000Y-76443750D01*
X137033000Y-76443750D01*
X136874250Y-76285000D01*
X136610000Y-76281928D01*
X136485518Y-76294188D01*
X136365820Y-76330498D01*
X136255506Y-76389463D01*
X136158815Y-76468815D01*
X136079463Y-76565506D01*
X136020498Y-76675820D01*
X136008741Y-76714577D01*
X135971185Y-76668815D01*
X135874494Y-76589463D01*
X135764180Y-76530498D01*
X135644482Y-76494188D01*
X135520000Y-76481928D01*
X134905750Y-76485000D01*
X134747000Y-76643750D01*
X134493000Y-76643750D01*
X134334250Y-76485000D01*
X133720000Y-76481928D01*
X133595518Y-76494188D01*
X133475820Y-76530498D01*
X133365506Y-76589463D01*
X133268815Y-76668815D01*
X133189463Y-76765506D01*
X133130498Y-76875820D01*
X133094188Y-76995518D01*
X133081928Y-77120000D01*
X126691586Y-77120000D01*
X126666898Y-77109774D01*
X126466939Y-77070000D01*
X126263061Y-77070000D01*
X126063102Y-77109774D01*
X125874744Y-77187795D01*
X125705226Y-77301063D01*
X125561063Y-77445226D01*
X125447795Y-77614744D01*
X125369774Y-77803102D01*
X125330000Y-78003061D01*
X125330000Y-78065199D01*
X125218998Y-78176201D01*
X125190000Y-78199999D01*
X125166202Y-78228997D01*
X125166201Y-78228998D01*
X125095026Y-78315724D01*
X125075302Y-78352625D01*
X125045537Y-78408311D01*
X125000503Y-78432382D01*
X124869716Y-78539716D01*
X124807932Y-78615000D01*
X124719365Y-78615000D01*
X124692606Y-78582394D01*
X124565608Y-78478169D01*
X124420716Y-78400722D01*
X124263500Y-78353031D01*
X124100000Y-78336928D01*
X123550000Y-78336928D01*
X123386500Y-78353031D01*
X123229284Y-78400722D01*
X123084392Y-78478169D01*
X122957394Y-78582394D01*
X122872500Y-78685837D01*
X122819683Y-78621480D01*
X122837205Y-78595256D01*
X122915226Y-78406898D01*
X122955000Y-78206939D01*
X122955000Y-78003061D01*
X122915226Y-77803102D01*
X122837205Y-77614744D01*
X122723937Y-77445226D01*
X122579774Y-77301063D01*
X122410256Y-77187795D01*
X122221898Y-77109774D01*
X122021939Y-77070000D01*
X121818061Y-77070000D01*
X121618102Y-77109774D01*
X121429744Y-77187795D01*
X121260226Y-77301063D01*
X121116063Y-77445226D01*
X121002795Y-77614744D01*
X120924774Y-77803102D01*
X120885000Y-78003061D01*
X120885000Y-78206939D01*
X120924774Y-78406898D01*
X121002795Y-78595256D01*
X121020317Y-78621480D01*
X120967500Y-78685837D01*
X120882606Y-78582394D01*
X120755608Y-78478169D01*
X120610716Y-78400722D01*
X120453500Y-78353031D01*
X120290000Y-78336928D01*
X119740000Y-78336928D01*
X119576500Y-78353031D01*
X119419284Y-78400722D01*
X119274392Y-78478169D01*
X119147394Y-78582394D01*
X119120635Y-78615000D01*
X111439803Y-78615000D01*
X110123072Y-77298270D01*
X110123072Y-75585000D01*
X110110812Y-75460518D01*
X110074502Y-75340820D01*
X110015537Y-75230506D01*
X109936185Y-75133815D01*
X109839494Y-75054463D01*
X109729180Y-74995498D01*
X109609482Y-74959188D01*
X109485000Y-74946928D01*
X107685000Y-74946928D01*
X107560518Y-74959188D01*
X107440820Y-74995498D01*
X107330506Y-75054463D01*
X107233815Y-75133815D01*
X107154463Y-75230506D01*
X107095498Y-75340820D01*
X107059188Y-75460518D01*
X107046928Y-75585000D01*
X107046928Y-78085000D01*
X107059188Y-78209482D01*
X107095498Y-78329180D01*
X107154463Y-78439494D01*
X107233815Y-78536185D01*
X107330506Y-78615537D01*
X107440820Y-78674502D01*
X107560518Y-78710812D01*
X107685000Y-78723072D01*
X109398270Y-78723072D01*
X109645230Y-78970032D01*
X109609482Y-78959188D01*
X109485000Y-78946928D01*
X107685000Y-78946928D01*
X107560518Y-78959188D01*
X107440820Y-78995498D01*
X107330506Y-79054463D01*
X107233815Y-79133815D01*
X107154463Y-79230506D01*
X107095498Y-79340820D01*
X107059188Y-79460518D01*
X107046928Y-79585000D01*
X107046928Y-81650001D01*
X106313072Y-81650001D01*
X106313072Y-79585000D01*
X106300812Y-79460518D01*
X106264502Y-79340820D01*
X106205537Y-79230506D01*
X106126185Y-79133815D01*
X106029494Y-79054463D01*
X105919180Y-78995498D01*
X105799482Y-78959188D01*
X105675000Y-78946928D01*
X103875000Y-78946928D01*
X103750518Y-78959188D01*
X103714769Y-78970032D01*
X103961729Y-78723072D01*
X105675000Y-78723072D01*
X105799482Y-78710812D01*
X105919180Y-78674502D01*
X106029494Y-78615537D01*
X106126185Y-78536185D01*
X106205537Y-78439494D01*
X106264502Y-78329180D01*
X106300812Y-78209482D01*
X106313072Y-78085000D01*
X106313072Y-75585000D01*
X106300812Y-75460518D01*
X106264502Y-75340820D01*
X106205537Y-75230506D01*
X106126185Y-75133815D01*
X106029494Y-75054463D01*
X105919180Y-74995498D01*
X105799482Y-74959188D01*
X105675000Y-74946928D01*
X103875000Y-74946928D01*
X103750518Y-74959188D01*
X103630820Y-74995498D01*
X103520506Y-75054463D01*
X103423815Y-75133815D01*
X103344463Y-75230506D01*
X103285498Y-75340820D01*
X103249188Y-75460518D01*
X103236928Y-75585000D01*
X103236928Y-77298271D01*
X102630198Y-77905001D01*
X101453000Y-77905001D01*
X101453000Y-77683000D01*
X101473000Y-77683000D01*
X101473000Y-76803750D01*
X101727000Y-76803750D01*
X101727000Y-77683000D01*
X102401250Y-77683000D01*
X102560000Y-77524250D01*
X102563072Y-77280000D01*
X102550812Y-77155518D01*
X102514502Y-77035820D01*
X102455537Y-76925506D01*
X102376185Y-76828815D01*
X102279494Y-76749463D01*
X102169180Y-76690498D01*
X102049482Y-76654188D01*
X101925000Y-76641928D01*
X101885750Y-76645000D01*
X101727000Y-76803750D01*
X101473000Y-76803750D01*
X101314250Y-76645000D01*
X101275000Y-76641928D01*
X101150518Y-76654188D01*
X101030820Y-76690498D01*
X100920506Y-76749463D01*
X100823815Y-76828815D01*
X100744463Y-76925506D01*
X100685498Y-77035820D01*
X100650000Y-77152841D01*
X100614502Y-77035820D01*
X100555537Y-76925506D01*
X100476185Y-76828815D01*
X100379494Y-76749463D01*
X100269180Y-76690498D01*
X100149482Y-76654188D01*
X100025000Y-76641928D01*
X99375000Y-76641928D01*
X99250518Y-76654188D01*
X99130820Y-76690498D01*
X99020506Y-76749463D01*
X98923815Y-76828815D01*
X98844463Y-76925506D01*
X98785498Y-77035820D01*
X98749188Y-77155518D01*
X98736928Y-77280000D01*
X98736928Y-78340000D01*
X98749188Y-78464482D01*
X98785498Y-78584180D01*
X98844463Y-78694494D01*
X98923815Y-78791185D01*
X99020506Y-78870537D01*
X99094335Y-78910000D01*
X99020506Y-78949463D01*
X98923815Y-79028815D01*
X98844463Y-79125506D01*
X98785498Y-79235820D01*
X98749188Y-79355518D01*
X98736928Y-79480000D01*
X98736928Y-80540000D01*
X98749188Y-80664482D01*
X98785498Y-80784180D01*
X98844463Y-80894494D01*
X98923815Y-80991185D01*
X99020506Y-81070537D01*
X99130820Y-81129502D01*
X99250518Y-81165812D01*
X99296535Y-81170344D01*
X99295000Y-81178061D01*
X99295000Y-81381939D01*
X99334774Y-81581898D01*
X99412795Y-81770256D01*
X99526063Y-81939774D01*
X99670226Y-82083937D01*
X99839744Y-82197205D01*
X100028102Y-82275226D01*
X100228061Y-82315000D01*
X100431939Y-82315000D01*
X100631898Y-82275226D01*
X100820256Y-82197205D01*
X100989774Y-82083937D01*
X101133937Y-81939774D01*
X101247205Y-81770256D01*
X101322845Y-81587646D01*
X105986201Y-86251003D01*
X106009999Y-86280001D01*
X106038997Y-86303799D01*
X106125723Y-86374974D01*
X106184236Y-86406250D01*
X106257753Y-86445546D01*
X106401014Y-86489003D01*
X106512667Y-86500000D01*
X106512676Y-86500000D01*
X106549999Y-86503676D01*
X106587322Y-86500000D01*
X112791822Y-86500000D01*
X112916525Y-86686632D01*
X113123368Y-86893475D01*
X113366589Y-87055990D01*
X113636842Y-87167932D01*
X113923740Y-87225000D01*
X114216260Y-87225000D01*
X114503158Y-87167932D01*
X114773411Y-87055990D01*
X115016632Y-86893475D01*
X115223475Y-86686632D01*
X115340000Y-86512240D01*
X115456525Y-86686632D01*
X115663368Y-86893475D01*
X115906589Y-87055990D01*
X116176842Y-87167932D01*
X116463740Y-87225000D01*
X116756260Y-87225000D01*
X116807126Y-87214882D01*
X85689000Y-118333009D01*
X85660002Y-118356807D01*
X85636204Y-118385805D01*
X85636203Y-118385806D01*
X85565028Y-118472532D01*
X85494456Y-118604562D01*
X85480919Y-118649188D01*
X85477428Y-118660699D01*
X85439482Y-118649188D01*
X85315000Y-118636928D01*
X84865000Y-118636928D01*
X84740518Y-118649188D01*
X84620820Y-118685498D01*
X84510506Y-118744463D01*
X84413815Y-118823815D01*
X84334463Y-118920506D01*
X84275498Y-119030820D01*
X84239188Y-119150518D01*
X84226928Y-119275000D01*
X83409280Y-119275000D01*
X83403804Y-119166643D01*
X83370582Y-119046051D01*
X83314473Y-118934258D01*
X83237631Y-118835559D01*
X83143012Y-118753748D01*
X83034249Y-118691968D01*
X82915524Y-118652594D01*
X82806750Y-118640000D01*
X82648000Y-118798750D01*
X82452000Y-118798750D01*
X82293250Y-118640000D01*
X82184476Y-118652594D01*
X82065751Y-118691968D01*
X81956988Y-118753748D01*
X81862369Y-118835559D01*
X81785527Y-118934258D01*
X81729418Y-119046051D01*
X81696196Y-119166643D01*
X81690000Y-119289250D01*
X79127000Y-119289250D01*
X79127000Y-117175000D01*
X81686928Y-117175000D01*
X81686928Y-117775000D01*
X81699188Y-117899482D01*
X81735498Y-118019180D01*
X81794463Y-118129494D01*
X81873815Y-118226185D01*
X81970506Y-118305537D01*
X82080820Y-118364502D01*
X82200518Y-118400812D01*
X82325000Y-118413072D01*
X82775000Y-118413072D01*
X82899482Y-118400812D01*
X83019180Y-118364502D01*
X83129494Y-118305537D01*
X83215444Y-118235000D01*
X84424556Y-118235000D01*
X84510506Y-118305537D01*
X84620820Y-118364502D01*
X84740518Y-118400812D01*
X84865000Y-118413072D01*
X85315000Y-118413072D01*
X85439482Y-118400812D01*
X85559180Y-118364502D01*
X85669494Y-118305537D01*
X85766185Y-118226185D01*
X85845537Y-118129494D01*
X85904502Y-118019180D01*
X85940812Y-117899482D01*
X85953072Y-117775000D01*
X85953072Y-117175000D01*
X85940812Y-117050518D01*
X85904502Y-116930820D01*
X85845537Y-116820506D01*
X85766185Y-116723815D01*
X85669494Y-116644463D01*
X85559180Y-116585498D01*
X85439482Y-116549188D01*
X85315000Y-116536928D01*
X84865000Y-116536928D01*
X84740518Y-116549188D01*
X84620820Y-116585498D01*
X84510506Y-116644463D01*
X84424556Y-116715000D01*
X83215444Y-116715000D01*
X83129494Y-116644463D01*
X83019180Y-116585498D01*
X82899482Y-116549188D01*
X82775000Y-116536928D01*
X82325000Y-116536928D01*
X82200518Y-116549188D01*
X82080820Y-116585498D01*
X81970506Y-116644463D01*
X81873815Y-116723815D01*
X81794463Y-116820506D01*
X81735498Y-116930820D01*
X81699188Y-117050518D01*
X81686928Y-117175000D01*
X79127000Y-117175000D01*
X79127000Y-81118967D01*
X85995000Y-81118967D01*
X85995000Y-81441033D01*
X86057832Y-81756912D01*
X86181082Y-82054463D01*
X86360013Y-82322252D01*
X86587748Y-82549987D01*
X86855537Y-82728918D01*
X87153088Y-82852168D01*
X87468967Y-82915000D01*
X87791033Y-82915000D01*
X88106912Y-82852168D01*
X88404463Y-82728918D01*
X88672252Y-82549987D01*
X88899987Y-82322252D01*
X88900000Y-82322233D01*
X88900013Y-82322252D01*
X89127748Y-82549987D01*
X89395537Y-82728918D01*
X89693088Y-82852168D01*
X90008967Y-82915000D01*
X90331033Y-82915000D01*
X90646912Y-82852168D01*
X90944463Y-82728918D01*
X91212252Y-82549987D01*
X91439987Y-82322252D01*
X91440000Y-82322233D01*
X91440013Y-82322252D01*
X91667748Y-82549987D01*
X91935537Y-82728918D01*
X92233088Y-82852168D01*
X92548967Y-82915000D01*
X92871033Y-82915000D01*
X93186912Y-82852168D01*
X93484463Y-82728918D01*
X93752252Y-82549987D01*
X93979987Y-82322252D01*
X93980000Y-82322233D01*
X93980013Y-82322252D01*
X94207748Y-82549987D01*
X94475537Y-82728918D01*
X94773088Y-82852168D01*
X95088967Y-82915000D01*
X95411033Y-82915000D01*
X95726912Y-82852168D01*
X96024463Y-82728918D01*
X96292252Y-82549987D01*
X96519987Y-82322252D01*
X96698918Y-82054463D01*
X96822168Y-81756912D01*
X96885000Y-81441033D01*
X96885000Y-81118967D01*
X96822168Y-80803088D01*
X96698918Y-80505537D01*
X96519987Y-80237748D01*
X96292252Y-80010013D01*
X96024463Y-79831082D01*
X95726912Y-79707832D01*
X95411033Y-79645000D01*
X95088967Y-79645000D01*
X94773088Y-79707832D01*
X94475537Y-79831082D01*
X94207748Y-80010013D01*
X93980013Y-80237748D01*
X93980000Y-80237767D01*
X93979987Y-80237748D01*
X93752252Y-80010013D01*
X93484463Y-79831082D01*
X93186912Y-79707832D01*
X92871033Y-79645000D01*
X92548967Y-79645000D01*
X92233088Y-79707832D01*
X91935537Y-79831082D01*
X91667748Y-80010013D01*
X91440013Y-80237748D01*
X91440000Y-80237767D01*
X91439987Y-80237748D01*
X91212252Y-80010013D01*
X90944463Y-79831082D01*
X90646912Y-79707832D01*
X90331033Y-79645000D01*
X90008967Y-79645000D01*
X89693088Y-79707832D01*
X89395537Y-79831082D01*
X89127748Y-80010013D01*
X88900013Y-80237748D01*
X88900000Y-80237767D01*
X88899987Y-80237748D01*
X88672252Y-80010013D01*
X88404463Y-79831082D01*
X88106912Y-79707832D01*
X87791033Y-79645000D01*
X87468967Y-79645000D01*
X87153088Y-79707832D01*
X86855537Y-79831082D01*
X86587748Y-80010013D01*
X86360013Y-80237748D01*
X86181082Y-80505537D01*
X86057832Y-80803088D01*
X85995000Y-81118967D01*
X79127000Y-81118967D01*
X79127000Y-74779872D01*
X79765000Y-74779872D01*
X79765000Y-75220128D01*
X79850890Y-75651925D01*
X80019369Y-76058669D01*
X80263962Y-76424729D01*
X80575271Y-76736038D01*
X80941331Y-76980631D01*
X81348075Y-77149110D01*
X81779872Y-77235000D01*
X82220128Y-77235000D01*
X82651925Y-77149110D01*
X83058669Y-76980631D01*
X83424729Y-76736038D01*
X83736038Y-76424729D01*
X83980631Y-76058669D01*
X84149110Y-75651925D01*
X84235000Y-75220128D01*
X84235000Y-74779872D01*
X84211156Y-74660000D01*
X91071928Y-74660000D01*
X91084188Y-74784482D01*
X91120498Y-74904180D01*
X91179463Y-75014494D01*
X91258815Y-75111185D01*
X91355506Y-75190537D01*
X91465820Y-75249502D01*
X91585518Y-75285812D01*
X91710000Y-75298072D01*
X92424250Y-75295000D01*
X92583000Y-75136250D01*
X92583000Y-73787000D01*
X92837000Y-73787000D01*
X92837000Y-75136250D01*
X92995750Y-75295000D01*
X93710000Y-75298072D01*
X93834482Y-75285812D01*
X93954180Y-75249502D01*
X94064494Y-75190537D01*
X94161185Y-75111185D01*
X94240537Y-75014494D01*
X94299502Y-74904180D01*
X94335812Y-74784482D01*
X94348072Y-74660000D01*
X94345000Y-73945750D01*
X94186250Y-73787000D01*
X92837000Y-73787000D01*
X92583000Y-73787000D01*
X91233750Y-73787000D01*
X91075000Y-73945750D01*
X91071928Y-74660000D01*
X84211156Y-74660000D01*
X84149110Y-74348075D01*
X83980631Y-73941331D01*
X83736038Y-73575271D01*
X83424729Y-73263962D01*
X83058669Y-73019369D01*
X82651925Y-72850890D01*
X82220128Y-72765000D01*
X81779872Y-72765000D01*
X81348075Y-72850890D01*
X80941331Y-73019369D01*
X80575271Y-73263962D01*
X80263962Y-73575271D01*
X80019369Y-73941331D01*
X79850890Y-74348075D01*
X79765000Y-74779872D01*
X79127000Y-74779872D01*
X79127000Y-72660001D01*
X91071928Y-72660001D01*
X91075000Y-73374250D01*
G04 #@! TA.AperFunction,Conductor*
D32*
G36*
X91075000Y-73374250D02*
G01*
X91233750Y-73533000D01*
X92583000Y-73533000D01*
X92583000Y-73513000D01*
X92837000Y-73513000D01*
X92837000Y-73533000D01*
X94186250Y-73533000D01*
X94345000Y-73374250D01*
X94348072Y-72660001D01*
X141210603Y-72660001D01*
X141125363Y-72745241D01*
X140968320Y-72980273D01*
X140860147Y-73241426D01*
X140805000Y-73518665D01*
X140805000Y-73801335D01*
X140860147Y-74078574D01*
X140968320Y-74339727D01*
X141125363Y-74574759D01*
X141325241Y-74774637D01*
X141560273Y-74931680D01*
X141821426Y-75039853D01*
X142098665Y-75095000D01*
X142270198Y-75095000D01*
X138125593Y-79239606D01*
X138064494Y-79189463D01*
X137954180Y-79130498D01*
X137834482Y-79094188D01*
X137710000Y-79081928D01*
X136610000Y-79081928D01*
X136485518Y-79094188D01*
X136365820Y-79130498D01*
X136255506Y-79189463D01*
X136158815Y-79268815D01*
X136079463Y-79365506D01*
X136020498Y-79475820D01*
X136010130Y-79510000D01*
X135629443Y-79510000D01*
X135609851Y-79499528D01*
X135443255Y-79448992D01*
X135270001Y-79431928D01*
X133969999Y-79431928D01*
X133796745Y-79448992D01*
X133630149Y-79499528D01*
X133476613Y-79581595D01*
X133342038Y-79692038D01*
X133231595Y-79826613D01*
X133149528Y-79980149D01*
X133098992Y-80146745D01*
X133081928Y-80319999D01*
X133081928Y-80970001D01*
X133098992Y-81143255D01*
X133149528Y-81309851D01*
X133225001Y-81451050D01*
X133225001Y-81846288D01*
X133181063Y-81890226D01*
X133067795Y-82059744D01*
X132989774Y-82248102D01*
X132950000Y-82448061D01*
X132950000Y-82651939D01*
X132989774Y-82851898D01*
X133067795Y-83040256D01*
X133181063Y-83209774D01*
X133325226Y-83353937D01*
X133494744Y-83467205D01*
X133683102Y-83545226D01*
X133883061Y-83585000D01*
X134086939Y-83585000D01*
X134286898Y-83545226D01*
X134475256Y-83467205D01*
X134644774Y-83353937D01*
X134788937Y-83209774D01*
X134902205Y-83040256D01*
X134980226Y-82851898D01*
X135020000Y-82651939D01*
X135020000Y-82448061D01*
X134980226Y-82248102D01*
X134902205Y-82059744D01*
X134788937Y-81890226D01*
X134756783Y-81858072D01*
X135270001Y-81858072D01*
X135443255Y-81841008D01*
X135609851Y-81790472D01*
X135763387Y-81708405D01*
X135897962Y-81597962D01*
X136008405Y-81463387D01*
X136090472Y-81309851D01*
X136117480Y-81220818D01*
X136158815Y-81271185D01*
X136255506Y-81350537D01*
X136365820Y-81409502D01*
X136485518Y-81445812D01*
X136610000Y-81458072D01*
X137710000Y-81458072D01*
X137834482Y-81445812D01*
X137954180Y-81409502D01*
X138064494Y-81350537D01*
X138161185Y-81271185D01*
X138240537Y-81174494D01*
X138299502Y-81064180D01*
X138313028Y-81019590D01*
X138318986Y-81019003D01*
X138462247Y-80975546D01*
X138594276Y-80904974D01*
X138710001Y-80810001D01*
X138733804Y-80780997D01*
X144456114Y-75058688D01*
X144638665Y-75095000D01*
X144921335Y-75095000D01*
X145198574Y-75039853D01*
X145459727Y-74931680D01*
X145694759Y-74774637D01*
X145894637Y-74574759D01*
X146050000Y-74342241D01*
X146205363Y-74574759D01*
X146405241Y-74774637D01*
X146640273Y-74931680D01*
X146901426Y-75039853D01*
X147178665Y-75095000D01*
X147461335Y-75095000D01*
X147738574Y-75039853D01*
X147999727Y-74931680D01*
X148234759Y-74774637D01*
X148434637Y-74574759D01*
X148591680Y-74339727D01*
X148596067Y-74329135D01*
X148707615Y-74515131D01*
X148896586Y-74723519D01*
X149122580Y-74891037D01*
X149376913Y-75011246D01*
X149510961Y-75051904D01*
X149733000Y-74929915D01*
X149733000Y-73787000D01*
X149987000Y-73787000D01*
X149987000Y-74929915D01*
X150209039Y-75051904D01*
X150343087Y-75011246D01*
X150597420Y-74891037D01*
X150747389Y-74779872D01*
X153765000Y-74779872D01*
X153765000Y-75220128D01*
X153850890Y-75651925D01*
X154019369Y-76058669D01*
X154263962Y-76424729D01*
X154575271Y-76736038D01*
X154941331Y-76980631D01*
X155348075Y-77149110D01*
X155779872Y-77235000D01*
X156220128Y-77235000D01*
X156651925Y-77149110D01*
X157058669Y-76980631D01*
X157424729Y-76736038D01*
X157736038Y-76424729D01*
X157980631Y-76058669D01*
X158149110Y-75651925D01*
X158235000Y-75220128D01*
X158235000Y-74779872D01*
X158149110Y-74348075D01*
X157980631Y-73941331D01*
X157736038Y-73575271D01*
X157424729Y-73263962D01*
X157058669Y-73019369D01*
X156651925Y-72850890D01*
X156220128Y-72765000D01*
X155779872Y-72765000D01*
X155348075Y-72850890D01*
X154941331Y-73019369D01*
X154575271Y-73263962D01*
X154263962Y-73575271D01*
X154019369Y-73941331D01*
X153850890Y-74348075D01*
X153765000Y-74779872D01*
X150747389Y-74779872D01*
X150823414Y-74723519D01*
X151012385Y-74515131D01*
X151157070Y-74273881D01*
X151251909Y-74009040D01*
X151130624Y-73787000D01*
X149987000Y-73787000D01*
X149733000Y-73787000D01*
X149713000Y-73787000D01*
X149713000Y-73533000D01*
X149733000Y-73533000D01*
X149733000Y-73513000D01*
X149987000Y-73513000D01*
X149987000Y-73533000D01*
X151130624Y-73533000D01*
X151251909Y-73310960D01*
X151157070Y-73046119D01*
X151012385Y-72804869D01*
X150881015Y-72660001D01*
X158873000Y-72660001D01*
X158873000Y-134340001D01*
X155883028Y-134340001D01*
X155972894Y-134187499D01*
X154305000Y-132519605D01*
X152637106Y-134187499D01*
X152726972Y-134340001D01*
X145871452Y-134340001D01*
X146191738Y-134019715D01*
X146480107Y-133588141D01*
X146678739Y-133108601D01*
X146780000Y-132599525D01*
X146780000Y-132363071D01*
X151657352Y-132363071D01*
X151712727Y-132879159D01*
X151867721Y-133374526D01*
X152090742Y-133791772D01*
X152457501Y-134007894D01*
X154125395Y-132340000D01*
X154484605Y-132340000D01*
X156152499Y-134007894D01*
X156519258Y-133791772D01*
X156759938Y-133331895D01*
X156906275Y-132833902D01*
X156952648Y-132316929D01*
X156897273Y-131800841D01*
X156742279Y-131305474D01*
X156519258Y-130888228D01*
X156152499Y-130672106D01*
X154484605Y-132340000D01*
X154125395Y-132340000D01*
X152457501Y-130672106D01*
X152090742Y-130888228D01*
X151850062Y-131348105D01*
X151703725Y-131846098D01*
X151657352Y-132363071D01*
X146780000Y-132363071D01*
X146780000Y-132080475D01*
X146678739Y-131571399D01*
X146480107Y-131091859D01*
X146191738Y-130660285D01*
X146023954Y-130492501D01*
X152637106Y-130492501D01*
X154305000Y-132160395D01*
X155972894Y-130492501D01*
X155756772Y-130125742D01*
X155296895Y-129885062D01*
X154798902Y-129738725D01*
X154281929Y-129692352D01*
X153765841Y-129747727D01*
X153270474Y-129902721D01*
X152853228Y-130125742D01*
X152637106Y-130492501D01*
X146023954Y-130492501D01*
X145824715Y-130293262D01*
X145393141Y-130004893D01*
X144913601Y-129806261D01*
X144404525Y-129705000D01*
X143885475Y-129705000D01*
X143376399Y-129806261D01*
X142896859Y-130004893D01*
X142465285Y-130293262D01*
X142098262Y-130660285D01*
X141809893Y-131091859D01*
X141611261Y-131571399D01*
X141510000Y-132080475D01*
X141510000Y-132599525D01*
X141611261Y-133108601D01*
X141809893Y-133588141D01*
X142098262Y-134019715D01*
X142418548Y-134340001D01*
X79127000Y-134339999D01*
X79127000Y-131978061D01*
X110725000Y-131978061D01*
X110725000Y-132181939D01*
X110764774Y-132381898D01*
X110842795Y-132570256D01*
X110956063Y-132739774D01*
X111100226Y-132883937D01*
X111269744Y-132997205D01*
X111458102Y-133075226D01*
X111658061Y-133115000D01*
X111861939Y-133115000D01*
X112061898Y-133075226D01*
X112250256Y-132997205D01*
X112419774Y-132883937D01*
X112463711Y-132840000D01*
X113039084Y-132840000D01*
X113127394Y-132947606D01*
X113254392Y-133051831D01*
X113399284Y-133129278D01*
X113556500Y-133176969D01*
X113720000Y-133193072D01*
X114120000Y-133193072D01*
X114283500Y-133176969D01*
X114440716Y-133129278D01*
X114585608Y-133051831D01*
X114712606Y-132947606D01*
X114745000Y-132908134D01*
X114777394Y-132947606D01*
X114904392Y-133051831D01*
X115049284Y-133129278D01*
X115206500Y-133176969D01*
X115370000Y-133193072D01*
X115770000Y-133193072D01*
X115933500Y-133176969D01*
X116090716Y-133129278D01*
X116235608Y-133051831D01*
X116362606Y-132947606D01*
X116450916Y-132840000D01*
X118842659Y-132840000D01*
X118929880Y-132970535D01*
X119124465Y-133165120D01*
X119353273Y-133318005D01*
X119607510Y-133423314D01*
X119877408Y-133477000D01*
X120152592Y-133477000D01*
X120422490Y-133423314D01*
X120676727Y-133318005D01*
X120905535Y-133165120D01*
X121100120Y-132970535D01*
X121158920Y-132882535D01*
X121167188Y-132966482D01*
X121203498Y-133086180D01*
X121262463Y-133196494D01*
X121341815Y-133293185D01*
X121438506Y-133372537D01*
X121548820Y-133431502D01*
X121668518Y-133467812D01*
X121793000Y-133480072D01*
X122269250Y-133477000D01*
X122428000Y-133318250D01*
X122428000Y-132207000D01*
X122682000Y-132207000D01*
X122682000Y-133318250D01*
X122840750Y-133477000D01*
X123317000Y-133480072D01*
X123441482Y-133467812D01*
X123561180Y-133431502D01*
X123671494Y-133372537D01*
X123768185Y-133293185D01*
X123847537Y-133196494D01*
X123906502Y-133086180D01*
X123942812Y-132966482D01*
X123955072Y-132842000D01*
X124964928Y-132842000D01*
X124977188Y-132966482D01*
X125013498Y-133086180D01*
X125072463Y-133196494D01*
X125151815Y-133293185D01*
X125248506Y-133372537D01*
X125358820Y-133431502D01*
X125478518Y-133467812D01*
X125603000Y-133480072D01*
X126079250Y-133477000D01*
X126238000Y-133318250D01*
X126238000Y-132207000D01*
X125126750Y-132207000D01*
X124968000Y-132365750D01*
X124964928Y-132842000D01*
X123955072Y-132842000D01*
X123952000Y-132365750D01*
X123793250Y-132207000D01*
X122682000Y-132207000D01*
X122428000Y-132207000D01*
X122408000Y-132207000D01*
X122408000Y-131953000D01*
X122428000Y-131953000D01*
X122428000Y-130841750D01*
X122682000Y-130841750D01*
X122682000Y-131953000D01*
X123793250Y-131953000D01*
X123952000Y-131794250D01*
X123955072Y-131318000D01*
X124964928Y-131318000D01*
X124968000Y-131794250D01*
X125126750Y-131953000D01*
X126238000Y-131953000D01*
X126238000Y-130841750D01*
X126492000Y-130841750D01*
X126492000Y-131953000D01*
X126512000Y-131953000D01*
X126512000Y-132207000D01*
X126492000Y-132207000D01*
X126492000Y-133318250D01*
X126650750Y-133477000D01*
X127127000Y-133480072D01*
X127251482Y-133467812D01*
X127371180Y-133431502D01*
X127481494Y-133372537D01*
X127578185Y-133293185D01*
X127657537Y-133196494D01*
X127716502Y-133086180D01*
X127752812Y-132966482D01*
X127761080Y-132882535D01*
X127819880Y-132970535D01*
X128014465Y-133165120D01*
X128243273Y-133318005D01*
X128497510Y-133423314D01*
X128767408Y-133477000D01*
X129042592Y-133477000D01*
X129312490Y-133423314D01*
X129566727Y-133318005D01*
X129795535Y-133165120D01*
X129990120Y-132970535D01*
X130077341Y-132840000D01*
X132724084Y-132840000D01*
X132812394Y-132947606D01*
X132939392Y-133051831D01*
X133084284Y-133129278D01*
X133241500Y-133176969D01*
X133405000Y-133193072D01*
X133805000Y-133193072D01*
X133968500Y-133176969D01*
X134125716Y-133129278D01*
X134270608Y-133051831D01*
X134397606Y-132947606D01*
X134430000Y-132908134D01*
X134462394Y-132947606D01*
X134589392Y-133051831D01*
X134734284Y-133129278D01*
X134891500Y-133176969D01*
X135055000Y-133193072D01*
X135455000Y-133193072D01*
X135618500Y-133176969D01*
X135775716Y-133129278D01*
X135920608Y-133051831D01*
X136047606Y-132947606D01*
X136135916Y-132840000D01*
X137091289Y-132840000D01*
X137135226Y-132883937D01*
X137304744Y-132997205D01*
X137493102Y-133075226D01*
X137693061Y-133115000D01*
X137896939Y-133115000D01*
X138096898Y-133075226D01*
X138285256Y-132997205D01*
X138454774Y-132883937D01*
X138598937Y-132739774D01*
X138712205Y-132570256D01*
X138790226Y-132381898D01*
X138830000Y-132181939D01*
X138830000Y-131978061D01*
X138790226Y-131778102D01*
X138712205Y-131589744D01*
X138598937Y-131420226D01*
X138454774Y-131276063D01*
X138285256Y-131162795D01*
X138096898Y-131084774D01*
X137896939Y-131045000D01*
X137693061Y-131045000D01*
X137493102Y-131084774D01*
X137304744Y-131162795D01*
X137135226Y-131276063D01*
X137091289Y-131320000D01*
X136135916Y-131320000D01*
X136047606Y-131212394D01*
X135920608Y-131108169D01*
X135775716Y-131030722D01*
X135618500Y-130983031D01*
X135455000Y-130966928D01*
X135055000Y-130966928D01*
X134891500Y-130983031D01*
X134734284Y-131030722D01*
X134589392Y-131108169D01*
X134462394Y-131212394D01*
X134430000Y-131251866D01*
X134397606Y-131212394D01*
X134270608Y-131108169D01*
X134125716Y-131030722D01*
X133968500Y-130983031D01*
X133805000Y-130966928D01*
X133405000Y-130966928D01*
X133241500Y-130983031D01*
X133084284Y-131030722D01*
X132939392Y-131108169D01*
X132812394Y-131212394D01*
X132724084Y-131320000D01*
X130077341Y-131320000D01*
X129990120Y-131189465D01*
X129795535Y-130994880D01*
X129566727Y-130841995D01*
X129312490Y-130736686D01*
X129042592Y-130683000D01*
X128767408Y-130683000D01*
X128497510Y-130736686D01*
X128243273Y-130841995D01*
X128014465Y-130994880D01*
X127819880Y-131189465D01*
X127761080Y-131277465D01*
X127752812Y-131193518D01*
X127716502Y-131073820D01*
X127657537Y-130963506D01*
X127578185Y-130866815D01*
X127481494Y-130787463D01*
X127371180Y-130728498D01*
X127251482Y-130692188D01*
X127127000Y-130679928D01*
X126650750Y-130683000D01*
X126492000Y-130841750D01*
X126238000Y-130841750D01*
X126079250Y-130683000D01*
X125603000Y-130679928D01*
X125478518Y-130692188D01*
X125358820Y-130728498D01*
X125248506Y-130787463D01*
X125151815Y-130866815D01*
X125072463Y-130963506D01*
X125013498Y-131073820D01*
X124977188Y-131193518D01*
X124964928Y-131318000D01*
X123955072Y-131318000D01*
X123942812Y-131193518D01*
X123906502Y-131073820D01*
X123847537Y-130963506D01*
X123768185Y-130866815D01*
X123671494Y-130787463D01*
X123561180Y-130728498D01*
X123441482Y-130692188D01*
X123317000Y-130679928D01*
X122840750Y-130683000D01*
X122682000Y-130841750D01*
X122428000Y-130841750D01*
X122269250Y-130683000D01*
X121793000Y-130679928D01*
X121668518Y-130692188D01*
X121548820Y-130728498D01*
X121438506Y-130787463D01*
X121341815Y-130866815D01*
X121262463Y-130963506D01*
X121203498Y-131073820D01*
X121167188Y-131193518D01*
X121158920Y-131277465D01*
X121100120Y-131189465D01*
X120905535Y-130994880D01*
X120676727Y-130841995D01*
X120422490Y-130736686D01*
X120152592Y-130683000D01*
X119877408Y-130683000D01*
X119607510Y-130736686D01*
X119353273Y-130841995D01*
X119124465Y-130994880D01*
X118929880Y-131189465D01*
X118842659Y-131320000D01*
X116450916Y-131320000D01*
X116362606Y-131212394D01*
X116235608Y-131108169D01*
X116090716Y-131030722D01*
X115933500Y-130983031D01*
X115770000Y-130966928D01*
X115370000Y-130966928D01*
X115206500Y-130983031D01*
X115049284Y-131030722D01*
X114904392Y-131108169D01*
X114777394Y-131212394D01*
X114745000Y-131251866D01*
X114712606Y-131212394D01*
X114585608Y-131108169D01*
X114440716Y-131030722D01*
X114283500Y-130983031D01*
X114120000Y-130966928D01*
X113720000Y-130966928D01*
X113556500Y-130983031D01*
X113399284Y-131030722D01*
X113254392Y-131108169D01*
X113127394Y-131212394D01*
X113039084Y-131320000D01*
X112463711Y-131320000D01*
X112419774Y-131276063D01*
X112250256Y-131162795D01*
X112061898Y-131084774D01*
X111861939Y-131045000D01*
X111658061Y-131045000D01*
X111458102Y-131084774D01*
X111269744Y-131162795D01*
X111100226Y-131276063D01*
X110956063Y-131420226D01*
X110842795Y-131589744D01*
X110764774Y-131778102D01*
X110725000Y-131978061D01*
X79127000Y-131978061D01*
X79127000Y-129995000D01*
X110801928Y-129995000D01*
X110814188Y-130119482D01*
X110850498Y-130239180D01*
X110909463Y-130349494D01*
X110988815Y-130446185D01*
X111085506Y-130525537D01*
X111195820Y-130584502D01*
X111315518Y-130620812D01*
X111440000Y-130633072D01*
X116554250Y-130630000D01*
X116713000Y-130471250D01*
X116713000Y-125422000D01*
X116967000Y-125422000D01*
X116967000Y-130471250D01*
X117125750Y-130630000D01*
X122240000Y-130633072D01*
X122364482Y-130620812D01*
X122484180Y-130584502D01*
X122594494Y-130525537D01*
X122691185Y-130446185D01*
X122770537Y-130349494D01*
X122829502Y-130239180D01*
X122865812Y-130119482D01*
X122878072Y-129995000D01*
X122877999Y-129890000D01*
X129096928Y-129890000D01*
X129109188Y-130014482D01*
X129145498Y-130134180D01*
X129204463Y-130244494D01*
X129283815Y-130341185D01*
X129380506Y-130420537D01*
X129490820Y-130479502D01*
X129610518Y-130515812D01*
X129735000Y-130528072D01*
X130524250Y-130525000D01*
X130683000Y-130366250D01*
X130683000Y-127167000D01*
X130937000Y-127167000D01*
X130937000Y-130366250D01*
X131095750Y-130525000D01*
X131885000Y-130528072D01*
X132009482Y-130515812D01*
X132129180Y-130479502D01*
X132239494Y-130420537D01*
X132336185Y-130341185D01*
X132415537Y-130244494D01*
X132474502Y-130134180D01*
X132510812Y-130014482D01*
X132523072Y-129890000D01*
X132520000Y-127325750D01*
X132361250Y-127167000D01*
X130937000Y-127167000D01*
X130683000Y-127167000D01*
X129258750Y-127167000D01*
X129100000Y-127325750D01*
X129096928Y-129890000D01*
X122877999Y-129890000D01*
X122875000Y-125580750D01*
X122716250Y-125422000D01*
X116967000Y-125422000D01*
X116713000Y-125422000D01*
X110963750Y-125422000D01*
X110805000Y-125580750D01*
X110801928Y-129995000D01*
X79127000Y-129995000D01*
X79127000Y-125320475D01*
X79305000Y-125320475D01*
X79305000Y-125839525D01*
X79406261Y-126348601D01*
X79604893Y-126828141D01*
X79893262Y-127259715D01*
X80260285Y-127626738D01*
X80691859Y-127915107D01*
X81171399Y-128113739D01*
X81680475Y-128215000D01*
X82199525Y-128215000D01*
X82708601Y-128113739D01*
X83188141Y-127915107D01*
X83619715Y-127626738D01*
X83986738Y-127259715D01*
X84275107Y-126828141D01*
X84473739Y-126348601D01*
X84575000Y-125839525D01*
X84575000Y-125320475D01*
X84473739Y-124811399D01*
X84275107Y-124331859D01*
X83986738Y-123900285D01*
X83619715Y-123533262D01*
X83188141Y-123244893D01*
X82708601Y-123046261D01*
X82199525Y-122945000D01*
X81680475Y-122945000D01*
X81171399Y-123046261D01*
X80691859Y-123244893D01*
X80260285Y-123533262D01*
X79893262Y-123900285D01*
X79604893Y-124331859D01*
X79406261Y-124811399D01*
X79305000Y-125320475D01*
X79127000Y-125320475D01*
X79127000Y-119860750D01*
X81690000Y-119860750D01*
X81696196Y-119983357D01*
X81729418Y-120103949D01*
X81785527Y-120215742D01*
X81862369Y-120314441D01*
X81956988Y-120396252D01*
X82065751Y-120458032D01*
X82184476Y-120497406D01*
X82293250Y-120510000D01*
X82452000Y-120351250D01*
X82452000Y-119702000D01*
X82648000Y-119702000D01*
X82648000Y-120351250D01*
X82806750Y-120510000D01*
X82915524Y-120497406D01*
X83034249Y-120458032D01*
X83143012Y-120396252D01*
X83237631Y-120314441D01*
X83314473Y-120215742D01*
X83370582Y-120103949D01*
X83403804Y-119983357D01*
X83410000Y-119860750D01*
X83251250Y-119702000D01*
X82648000Y-119702000D01*
X82452000Y-119702000D01*
X81848750Y-119702000D01*
X81690000Y-119860750D01*
X79127000Y-119860750D01*
X79127000Y-119289250D01*
X81690000Y-119289250D01*
X81848750Y-119448000D01*
X82452000Y-119448000D01*
X82452000Y-118798750D01*
X82648000Y-118798750D01*
X82648000Y-119448000D01*
X83251250Y-119448000D01*
X83410000Y-119289250D01*
X83409280Y-119275000D01*
X84226928Y-119275000D01*
X84226928Y-119875000D01*
X84239188Y-119999482D01*
X84275498Y-120119180D01*
X84334463Y-120229494D01*
X84413815Y-120326185D01*
X84510506Y-120405537D01*
X84620820Y-120464502D01*
X84740518Y-120500812D01*
X84865000Y-120513072D01*
X85315000Y-120513072D01*
X85439482Y-120500812D01*
X85559180Y-120464502D01*
X85669494Y-120405537D01*
X85755444Y-120335000D01*
X86162669Y-120335000D01*
X86187662Y-120337462D01*
X88572127Y-122721928D01*
X88100000Y-122721928D01*
X87975518Y-122734188D01*
X87855820Y-122770498D01*
X87745506Y-122829463D01*
X87648815Y-122908815D01*
X87569463Y-123005506D01*
X87510498Y-123115820D01*
X87474188Y-123235518D01*
X87461928Y-123360000D01*
X87461928Y-124960000D01*
X87474188Y-125084482D01*
X87510498Y-125204180D01*
X87569463Y-125314494D01*
X87648815Y-125411185D01*
X87745506Y-125490537D01*
X87855820Y-125549502D01*
X87975518Y-125585812D01*
X88100000Y-125598072D01*
X89700000Y-125598072D01*
X89784437Y-125589756D01*
X89781323Y-125621369D01*
X89784543Y-125654064D01*
X89605273Y-125728320D01*
X89370241Y-125885363D01*
X89170363Y-126085241D01*
X89013320Y-126320273D01*
X88905147Y-126581426D01*
X88850000Y-126858665D01*
X88850000Y-127141335D01*
X88905147Y-127418574D01*
X89013320Y-127679727D01*
X89170363Y-127914759D01*
X89370241Y-128114637D01*
X89605273Y-128271680D01*
X89866426Y-128379853D01*
X90143665Y-128435000D01*
X90426335Y-128435000D01*
X90703574Y-128379853D01*
X90964727Y-128271680D01*
X91199759Y-128114637D01*
X91399637Y-127914759D01*
X91556680Y-127679727D01*
X91561465Y-127668174D01*
X91631383Y-127705546D01*
X91774644Y-127749003D01*
X91833481Y-127754798D01*
X91940363Y-127914759D01*
X92140241Y-128114637D01*
X92375273Y-128271680D01*
X92636426Y-128379853D01*
X92913665Y-128435000D01*
X93196335Y-128435000D01*
X93473574Y-128379853D01*
X93734727Y-128271680D01*
X93969759Y-128114637D01*
X94169637Y-127914759D01*
X94326680Y-127679727D01*
X94434853Y-127418574D01*
X94440000Y-127392699D01*
X94445147Y-127418574D01*
X94553320Y-127679727D01*
X94710363Y-127914759D01*
X94910241Y-128114637D01*
X95145273Y-128271680D01*
X95406426Y-128379853D01*
X95683665Y-128435000D01*
X95966335Y-128435000D01*
X96243574Y-128379853D01*
X96504727Y-128271680D01*
X96739759Y-128114637D01*
X96939637Y-127914759D01*
X97096680Y-127679727D01*
X97204853Y-127418574D01*
X97210000Y-127392699D01*
X97215147Y-127418574D01*
X97323320Y-127679727D01*
X97480363Y-127914759D01*
X97680241Y-128114637D01*
X97915273Y-128271680D01*
X98176426Y-128379853D01*
X98453665Y-128435000D01*
X98736335Y-128435000D01*
X99013574Y-128379853D01*
X99274727Y-128271680D01*
X99509759Y-128114637D01*
X99709637Y-127914759D01*
X99866680Y-127679727D01*
X99974853Y-127418574D01*
X100030000Y-127141335D01*
X100030000Y-126858665D01*
X99974853Y-126581426D01*
X99866680Y-126320273D01*
X99709637Y-126085241D01*
X99509759Y-125885363D01*
X99274727Y-125728320D01*
X99013574Y-125620147D01*
X98736335Y-125565000D01*
X98453665Y-125565000D01*
X98176426Y-125620147D01*
X97915273Y-125728320D01*
X97680241Y-125885363D01*
X97480363Y-126085241D01*
X97323320Y-126320273D01*
X97215147Y-126581426D01*
X97210000Y-126607301D01*
X97204853Y-126581426D01*
X97096680Y-126320273D01*
X96939637Y-126085241D01*
X96739759Y-125885363D01*
X96504727Y-125728320D01*
X96243574Y-125620147D01*
X95966335Y-125565000D01*
X95683665Y-125565000D01*
X95406426Y-125620147D01*
X95145273Y-125728320D01*
X94910241Y-125885363D01*
X94710363Y-126085241D01*
X94553320Y-126320273D01*
X94445147Y-126581426D01*
X94440000Y-126607301D01*
X94434853Y-126581426D01*
X94326680Y-126320273D01*
X94169637Y-126085241D01*
X93969759Y-125885363D01*
X93734727Y-125728320D01*
X93473574Y-125620147D01*
X93196335Y-125565000D01*
X92913665Y-125565000D01*
X92636426Y-125620147D01*
X92375273Y-125728320D01*
X92140241Y-125885363D01*
X92012018Y-126013586D01*
X91593431Y-125595000D01*
X91811335Y-125595000D01*
X92088574Y-125539853D01*
X92349727Y-125431680D01*
X92584759Y-125274637D01*
X92706694Y-125152702D01*
X93626903Y-125152702D01*
X93698486Y-125396671D01*
X93953996Y-125517571D01*
X94228184Y-125586300D01*
X94510512Y-125600217D01*
X94790130Y-125558787D01*
X95056292Y-125463603D01*
X95181514Y-125396671D01*
X95253097Y-125152702D01*
X94440000Y-124339605D01*
X93626903Y-125152702D01*
X92706694Y-125152702D01*
X92784637Y-125074759D01*
X92941680Y-124839727D01*
X93049853Y-124578574D01*
X93055513Y-124550118D01*
X93136397Y-124776292D01*
X93203329Y-124901514D01*
X93447298Y-124973097D01*
X94260395Y-124160000D01*
X94619605Y-124160000D01*
X95432702Y-124973097D01*
X95676671Y-124901514D01*
X95797571Y-124646004D01*
X95823212Y-124543711D01*
X95830147Y-124578574D01*
X95938320Y-124839727D01*
X96095363Y-125074759D01*
X96295241Y-125274637D01*
X96530273Y-125431680D01*
X96791426Y-125539853D01*
X97068665Y-125595000D01*
X97351335Y-125595000D01*
X97628574Y-125539853D01*
X97889727Y-125431680D01*
X98124759Y-125274637D01*
X98324637Y-125074759D01*
X98481680Y-124839727D01*
X98589853Y-124578574D01*
X98595000Y-124552699D01*
X98600147Y-124578574D01*
X98708320Y-124839727D01*
X98865363Y-125074759D01*
X99065241Y-125274637D01*
X99300273Y-125431680D01*
X99561426Y-125539853D01*
X99838665Y-125595000D01*
X100121335Y-125595000D01*
X100398574Y-125539853D01*
X100659727Y-125431680D01*
X100826157Y-125320475D01*
X104305000Y-125320475D01*
X104305000Y-125839525D01*
X104406261Y-126348601D01*
X104604893Y-126828141D01*
X104893262Y-127259715D01*
X105260285Y-127626738D01*
X105691859Y-127915107D01*
X106171399Y-128113739D01*
X106680475Y-128215000D01*
X107199525Y-128215000D01*
X107708601Y-128113739D01*
X108188141Y-127915107D01*
X108619715Y-127626738D01*
X108986738Y-127259715D01*
X109275107Y-126828141D01*
X109473739Y-126348601D01*
X109575000Y-125839525D01*
X109575000Y-125320475D01*
X109473739Y-124811399D01*
X109275107Y-124331859D01*
X108986738Y-123900285D01*
X108619715Y-123533262D01*
X108188141Y-123244893D01*
X107708601Y-123046261D01*
X107199525Y-122945000D01*
X106680475Y-122945000D01*
X106171399Y-123046261D01*
X105691859Y-123244893D01*
X105260285Y-123533262D01*
X104893262Y-123900285D01*
X104604893Y-124331859D01*
X104406261Y-124811399D01*
X104305000Y-125320475D01*
X100826157Y-125320475D01*
X100894759Y-125274637D01*
X101094637Y-125074759D01*
X101251680Y-124839727D01*
X101359853Y-124578574D01*
X101415000Y-124301335D01*
X101415000Y-124018665D01*
X101359853Y-123741426D01*
X101251680Y-123480273D01*
X101094637Y-123245241D01*
X100894759Y-123045363D01*
X100659727Y-122888320D01*
X100398574Y-122780147D01*
X100121335Y-122725000D01*
X99838665Y-122725000D01*
X99561426Y-122780147D01*
X99300273Y-122888320D01*
X99065241Y-123045363D01*
X98865363Y-123245241D01*
X98708320Y-123480273D01*
X98600147Y-123741426D01*
X98595000Y-123767301D01*
X98589853Y-123741426D01*
X98481680Y-123480273D01*
X98324637Y-123245241D01*
X98124759Y-123045363D01*
X97889727Y-122888320D01*
X97628574Y-122780147D01*
X97351335Y-122725000D01*
X97068665Y-122725000D01*
X96791426Y-122780147D01*
X96530273Y-122888320D01*
X96295241Y-123045363D01*
X96095363Y-123245241D01*
X95938320Y-123480273D01*
X95830147Y-123741426D01*
X95824487Y-123769882D01*
X95743603Y-123543708D01*
X95676671Y-123418486D01*
X95432702Y-123346903D01*
X94619605Y-124160000D01*
X94260395Y-124160000D01*
X93447298Y-123346903D01*
X93203329Y-123418486D01*
X93082429Y-123673996D01*
X93056788Y-123776289D01*
X93049853Y-123741426D01*
X92941680Y-123480273D01*
X92784637Y-123245241D01*
X92706694Y-123167298D01*
X93626903Y-123167298D01*
X94440000Y-123980395D01*
X95253097Y-123167298D01*
X95181514Y-122923329D01*
X94926004Y-122802429D01*
X94651816Y-122733700D01*
X94369488Y-122719783D01*
X94089870Y-122761213D01*
X93823708Y-122856397D01*
X93698486Y-122923329D01*
X93626903Y-123167298D01*
X92706694Y-123167298D01*
X92584759Y-123045363D01*
X92349727Y-122888320D01*
X92088574Y-122780147D01*
X91811335Y-122725000D01*
X91528665Y-122725000D01*
X91251426Y-122780147D01*
X90990273Y-122888320D01*
X90929038Y-122929236D01*
X87085707Y-119085904D01*
X88098132Y-118073479D01*
X88096928Y-118275000D01*
X88109188Y-118399482D01*
X88145498Y-118519180D01*
X88204463Y-118629494D01*
X88283815Y-118726185D01*
X88380506Y-118805537D01*
X88490820Y-118864502D01*
X88610518Y-118900812D01*
X88735000Y-118913072D01*
X90199250Y-118910000D01*
X90358000Y-118751250D01*
X90358000Y-117602000D01*
X90612000Y-117602000D01*
X90612000Y-118751250D01*
X90770750Y-118910000D01*
X92235000Y-118913072D01*
X92359482Y-118900812D01*
X92479180Y-118864502D01*
X92589494Y-118805537D01*
X92686185Y-118726185D01*
X92765537Y-118629494D01*
X92824502Y-118519180D01*
X92860812Y-118399482D01*
X92873072Y-118275000D01*
X92870000Y-117760750D01*
X92711250Y-117602000D01*
X90612000Y-117602000D01*
X90358000Y-117602000D01*
X90338000Y-117602000D01*
X90338000Y-117348000D01*
X90358000Y-117348000D01*
X90358000Y-116198750D01*
X90612000Y-116198750D01*
X90612000Y-117348000D01*
X92711250Y-117348000D01*
X92870000Y-117189250D01*
X92873072Y-116675000D01*
X92860812Y-116550518D01*
X92824502Y-116430820D01*
X92765537Y-116320506D01*
X92686185Y-116223815D01*
X92589494Y-116144463D01*
X92479180Y-116085498D01*
X92359482Y-116049188D01*
X92235000Y-116036928D01*
X90770750Y-116040000D01*
X90612000Y-116198750D01*
X90358000Y-116198750D01*
X90199250Y-116040000D01*
X90131753Y-116039858D01*
X118496611Y-87675001D01*
X119676679Y-87675001D01*
X119714001Y-87678677D01*
X119751323Y-87675001D01*
X119751334Y-87675001D01*
X119862987Y-87664004D01*
X120006248Y-87620547D01*
X120138277Y-87549975D01*
X120254002Y-87455002D01*
X120277804Y-87425999D01*
X120783508Y-86920296D01*
X120986589Y-87055990D01*
X121256842Y-87167932D01*
X121543740Y-87225000D01*
X121836260Y-87225000D01*
X122123158Y-87167932D01*
X122393411Y-87055990D01*
X122636632Y-86893475D01*
X122843475Y-86686632D01*
X122960000Y-86512240D01*
X123076525Y-86686632D01*
X123283368Y-86893475D01*
X123526589Y-87055990D01*
X123796842Y-87167932D01*
X124083740Y-87225000D01*
X124376260Y-87225000D01*
X124663158Y-87167932D01*
X124933411Y-87055990D01*
X125176632Y-86893475D01*
X125383475Y-86686632D01*
X125500000Y-86512240D01*
X125616525Y-86686632D01*
X125823368Y-86893475D01*
X126066589Y-87055990D01*
X126336842Y-87167932D01*
X126623740Y-87225000D01*
X126916260Y-87225000D01*
X127203158Y-87167932D01*
X127473411Y-87055990D01*
X127716632Y-86893475D01*
X127923475Y-86686632D01*
X128040000Y-86512240D01*
X128156525Y-86686632D01*
X128363368Y-86893475D01*
X128606589Y-87055990D01*
X128876842Y-87167932D01*
X129163740Y-87225000D01*
X129456260Y-87225000D01*
X129743158Y-87167932D01*
X130013411Y-87055990D01*
X130256632Y-86893475D01*
X130463475Y-86686632D01*
X130585195Y-86504466D01*
X130654822Y-86621355D01*
X130849731Y-86837588D01*
X131083080Y-87011641D01*
X131345901Y-87136825D01*
X131493110Y-87181476D01*
X131723000Y-87060155D01*
X131723000Y-85867000D01*
X131703000Y-85867000D01*
X131703000Y-85613000D01*
X131723000Y-85613000D01*
X131723000Y-85593000D01*
X131977000Y-85593000D01*
X131977000Y-85613000D01*
X131997000Y-85613000D01*
X131997000Y-85867000D01*
X131977000Y-85867000D01*
X131977000Y-87060155D01*
X132206890Y-87181476D01*
X132354099Y-87136825D01*
X132616920Y-87011641D01*
X132850269Y-86837588D01*
X133045178Y-86621355D01*
X133114805Y-86504466D01*
X133236525Y-86686632D01*
X133443368Y-86893475D01*
X133686589Y-87055990D01*
X133956842Y-87167932D01*
X134243740Y-87225000D01*
X134370198Y-87225000D01*
X117273999Y-104321200D01*
X117245001Y-104344998D01*
X117221203Y-104373996D01*
X117221202Y-104373997D01*
X117150027Y-104460723D01*
X117079455Y-104592753D01*
X117035999Y-104736014D01*
X117021325Y-104884999D01*
X117025002Y-104922331D01*
X117025001Y-109708456D01*
X116756260Y-109655000D01*
X116463740Y-109655000D01*
X116176842Y-109712068D01*
X115906589Y-109824010D01*
X115663368Y-109986525D01*
X115456525Y-110193368D01*
X115340000Y-110367760D01*
X115223475Y-110193368D01*
X115016632Y-109986525D01*
X114773411Y-109824010D01*
X114503158Y-109712068D01*
X114216260Y-109655000D01*
X113923740Y-109655000D01*
X113636842Y-109712068D01*
X113366589Y-109824010D01*
X113123368Y-109986525D01*
X112916525Y-110193368D01*
X112754010Y-110436589D01*
X112642068Y-110706842D01*
X112585000Y-110993740D01*
X112585000Y-111286260D01*
X112642068Y-111573158D01*
X112754010Y-111843411D01*
X112916525Y-112086632D01*
X113123368Y-112293475D01*
X113366589Y-112455990D01*
X113636842Y-112567932D01*
X113923740Y-112625000D01*
X114216260Y-112625000D01*
X114503158Y-112567932D01*
X114773411Y-112455990D01*
X115016632Y-112293475D01*
X115223475Y-112086632D01*
X115340000Y-111912240D01*
X115456525Y-112086632D01*
X115663368Y-112293475D01*
X115906589Y-112455990D01*
X115975616Y-112484582D01*
X115536454Y-112923744D01*
X115489275Y-112885025D01*
X115357246Y-112814453D01*
X115213985Y-112770996D01*
X115102332Y-112759999D01*
X115102321Y-112759999D01*
X115064999Y-112756323D01*
X115027677Y-112759999D01*
X104322323Y-112759999D01*
X104285000Y-112756323D01*
X104247677Y-112759999D01*
X104247668Y-112759999D01*
X104136015Y-112770996D01*
X103992754Y-112814453D01*
X103860724Y-112885025D01*
X103777084Y-112953667D01*
X103745000Y-112979998D01*
X103721202Y-113008996D01*
X100693271Y-116036928D01*
X99380000Y-116036928D01*
X99255518Y-116049188D01*
X99135820Y-116085498D01*
X99025506Y-116144463D01*
X98928815Y-116223815D01*
X98849463Y-116320506D01*
X98790498Y-116430820D01*
X98754188Y-116550518D01*
X98741928Y-116675000D01*
X98741928Y-116715000D01*
X98244861Y-116715000D01*
X98205472Y-116585150D01*
X98123405Y-116431614D01*
X98012962Y-116297038D01*
X97878386Y-116186595D01*
X97724850Y-116104528D01*
X97558254Y-116053992D01*
X97385000Y-116036928D01*
X94385000Y-116036928D01*
X94211746Y-116053992D01*
X94045150Y-116104528D01*
X93891614Y-116186595D01*
X93757038Y-116297038D01*
X93646595Y-116431614D01*
X93564528Y-116585150D01*
X93513992Y-116751746D01*
X93496928Y-116925000D01*
X93496928Y-118025000D01*
X93513992Y-118198254D01*
X93564528Y-118364850D01*
X93646595Y-118518386D01*
X93757038Y-118652962D01*
X93891614Y-118763405D01*
X94045150Y-118845472D01*
X94211746Y-118896008D01*
X94385000Y-118913072D01*
X97385000Y-118913072D01*
X97558254Y-118896008D01*
X97724850Y-118845472D01*
X97878386Y-118763405D01*
X98012962Y-118652962D01*
X98123405Y-118518386D01*
X98205472Y-118364850D01*
X98244861Y-118235000D01*
X98741928Y-118235000D01*
X98741928Y-118275000D01*
X98754188Y-118399482D01*
X98790498Y-118519180D01*
X98849463Y-118629494D01*
X98928815Y-118726185D01*
X99025506Y-118805537D01*
X99135820Y-118864502D01*
X99255518Y-118900812D01*
X99380000Y-118913072D01*
X101280000Y-118913072D01*
X101404482Y-118900812D01*
X101524180Y-118864502D01*
X101634494Y-118805537D01*
X101731185Y-118726185D01*
X101810537Y-118629494D01*
X101869502Y-118519180D01*
X101905812Y-118399482D01*
X101918072Y-118275000D01*
X101918072Y-116961729D01*
X104599803Y-114279999D01*
X107423045Y-114279999D01*
X107330506Y-114329463D01*
X107233815Y-114408815D01*
X107154463Y-114505506D01*
X107095498Y-114615820D01*
X107059188Y-114735518D01*
X107046928Y-114860000D01*
X107050000Y-115824250D01*
X107208750Y-115983000D01*
X108458000Y-115983000D01*
X108458000Y-115963000D01*
X108712000Y-115963000D01*
X108712000Y-115983000D01*
X109961250Y-115983000D01*
X110120000Y-115824250D01*
X110123072Y-114860000D01*
X110110812Y-114735518D01*
X110074502Y-114615820D01*
X110015537Y-114505506D01*
X109936185Y-114408815D01*
X109839494Y-114329463D01*
X109746955Y-114279999D01*
X112252591Y-114279999D01*
X112255000Y-115859250D01*
X112413750Y-116018000D01*
X113313000Y-116018000D01*
X113313000Y-115998000D01*
X113567000Y-115998000D01*
X113567000Y-116018000D01*
X113587000Y-116018000D01*
X113587000Y-116272000D01*
X113567000Y-116272000D01*
X113567000Y-118921250D01*
X113725750Y-119080000D01*
X113990000Y-119083072D01*
X114114482Y-119070812D01*
X114234180Y-119034502D01*
X114290000Y-119004665D01*
X114345820Y-119034502D01*
X114465518Y-119070812D01*
X114590000Y-119083072D01*
X115690000Y-119083072D01*
X115814482Y-119070812D01*
X115934180Y-119034502D01*
X115990000Y-119004665D01*
X116045820Y-119034502D01*
X116165518Y-119070812D01*
X116290000Y-119083072D01*
X116554250Y-119080000D01*
X116713000Y-118921250D01*
X116713000Y-116272000D01*
X116693000Y-116272000D01*
X116693000Y-116018000D01*
X116713000Y-116018000D01*
X116713000Y-115998000D01*
X116967000Y-115998000D01*
X116967000Y-116018000D01*
X116987000Y-116018000D01*
X116987000Y-116272000D01*
X116967000Y-116272000D01*
X116967000Y-118921250D01*
X117102974Y-119057224D01*
X116810199Y-119350000D01*
X110123072Y-119350000D01*
X110123072Y-118860000D01*
X110110812Y-118735518D01*
X110074502Y-118615820D01*
X110015537Y-118505506D01*
X109965882Y-118445000D01*
X112251928Y-118445000D01*
X112264188Y-118569482D01*
X112300498Y-118689180D01*
X112359463Y-118799494D01*
X112438815Y-118896185D01*
X112535506Y-118975537D01*
X112645820Y-119034502D01*
X112765518Y-119070812D01*
X112890000Y-119083072D01*
X113154250Y-119080000D01*
X113313000Y-118921250D01*
X113313000Y-116272000D01*
X112413750Y-116272000D01*
X112255000Y-116430750D01*
X112251928Y-118445000D01*
X109965882Y-118445000D01*
X109936185Y-118408815D01*
X109839494Y-118329463D01*
X109729180Y-118270498D01*
X109609482Y-118234188D01*
X109485000Y-118221928D01*
X107771729Y-118221928D01*
X107524769Y-117974968D01*
X107560518Y-117985812D01*
X107685000Y-117998072D01*
X108299250Y-117995000D01*
X108458000Y-117836250D01*
X108458000Y-116237000D01*
X108712000Y-116237000D01*
X108712000Y-117836250D01*
X108870750Y-117995000D01*
X109485000Y-117998072D01*
X109609482Y-117985812D01*
X109729180Y-117949502D01*
X109839494Y-117890537D01*
X109936185Y-117811185D01*
X110015537Y-117714494D01*
X110074502Y-117604180D01*
X110110812Y-117484482D01*
X110123072Y-117360000D01*
X110120000Y-116395750D01*
X109961250Y-116237000D01*
X108712000Y-116237000D01*
X108458000Y-116237000D01*
X107208750Y-116237000D01*
X107050000Y-116395750D01*
X107046928Y-117360000D01*
X107059188Y-117484482D01*
X107070032Y-117520231D01*
X106513804Y-116964003D01*
X106490001Y-116934999D01*
X106374276Y-116840026D01*
X106242247Y-116769454D01*
X106098986Y-116725997D01*
X106018072Y-116718028D01*
X106018072Y-116675000D01*
X106005812Y-116550518D01*
X105969502Y-116430820D01*
X105910537Y-116320506D01*
X105831185Y-116223815D01*
X105734494Y-116144463D01*
X105624180Y-116085498D01*
X105504482Y-116049188D01*
X105380000Y-116036928D01*
X103480000Y-116036928D01*
X103355518Y-116049188D01*
X103235820Y-116085498D01*
X103125506Y-116144463D01*
X103028815Y-116223815D01*
X102949463Y-116320506D01*
X102890498Y-116430820D01*
X102854188Y-116550518D01*
X102841928Y-116675000D01*
X102841928Y-118275000D01*
X102854188Y-118399482D01*
X102890498Y-118519180D01*
X102949463Y-118629494D01*
X103028815Y-118726185D01*
X103125506Y-118805537D01*
X103235820Y-118864502D01*
X103355518Y-118900812D01*
X103480000Y-118913072D01*
X105380000Y-118913072D01*
X105504482Y-118900812D01*
X105624180Y-118864502D01*
X105734494Y-118805537D01*
X105831185Y-118726185D01*
X105910537Y-118629494D01*
X105952043Y-118551844D01*
X107046928Y-119646730D01*
X107046928Y-121360000D01*
X107059188Y-121484482D01*
X107095498Y-121604180D01*
X107154463Y-121714494D01*
X107233815Y-121811185D01*
X107330506Y-121890537D01*
X107440820Y-121949502D01*
X107560518Y-121985812D01*
X107685000Y-121998072D01*
X109485000Y-121998072D01*
X109609482Y-121985812D01*
X109729180Y-121949502D01*
X109839494Y-121890537D01*
X109936185Y-121811185D01*
X110015537Y-121714494D01*
X110074502Y-121604180D01*
X110110812Y-121484482D01*
X110123072Y-121360000D01*
X110123072Y-120870000D01*
X110802119Y-120870000D01*
X110805000Y-125009250D01*
X110963750Y-125168000D01*
X116713000Y-125168000D01*
X116713000Y-125148000D01*
X116967000Y-125148000D01*
X116967000Y-125168000D01*
X122716250Y-125168000D01*
X122875000Y-125009250D01*
X122875570Y-124190000D01*
X129096928Y-124190000D01*
X129100000Y-126754250D01*
X129258750Y-126913000D01*
X130683000Y-126913000D01*
X130683000Y-123713750D01*
X130937000Y-123713750D01*
X130937000Y-126913000D01*
X132361250Y-126913000D01*
X132520000Y-126754250D01*
X132523072Y-124190000D01*
X132510812Y-124065518D01*
X132474502Y-123945820D01*
X132415537Y-123835506D01*
X132336185Y-123738815D01*
X132239494Y-123659463D01*
X132129180Y-123600498D01*
X132009482Y-123564188D01*
X131885000Y-123551928D01*
X131095750Y-123555000D01*
X130937000Y-123713750D01*
X130683000Y-123713750D01*
X130524250Y-123555000D01*
X129735000Y-123551928D01*
X129610518Y-123564188D01*
X129490820Y-123600498D01*
X129380506Y-123659463D01*
X129283815Y-123738815D01*
X129204463Y-123835506D01*
X129145498Y-123945820D01*
X129109188Y-124065518D01*
X129096928Y-124190000D01*
X122875570Y-124190000D01*
X122878072Y-120595000D01*
X122865812Y-120470518D01*
X122829502Y-120350820D01*
X122770537Y-120240506D01*
X122691185Y-120143815D01*
X122594494Y-120064463D01*
X122484180Y-120005498D01*
X122364482Y-119969188D01*
X122240000Y-119956928D01*
X118350537Y-119959264D01*
X119051003Y-119258799D01*
X119080001Y-119235001D01*
X119174974Y-119119276D01*
X119200123Y-119072226D01*
X119214482Y-119070812D01*
X119334180Y-119034502D01*
X119390000Y-119004665D01*
X119445820Y-119034502D01*
X119565518Y-119070812D01*
X119690000Y-119083072D01*
X120790000Y-119083072D01*
X120914482Y-119070812D01*
X121034180Y-119034502D01*
X121144494Y-118975537D01*
X121241185Y-118896185D01*
X121320537Y-118799494D01*
X121379502Y-118689180D01*
X121415812Y-118569482D01*
X121428072Y-118445000D01*
X121428072Y-117280000D01*
X129096928Y-117280000D01*
X129096928Y-119690000D01*
X129109188Y-119814482D01*
X129145498Y-119934180D01*
X129204463Y-120044494D01*
X129283815Y-120141185D01*
X129380506Y-120220537D01*
X129490820Y-120279502D01*
X129610518Y-120315812D01*
X129735000Y-120328072D01*
X131885000Y-120328072D01*
X132009482Y-120315812D01*
X132129180Y-120279502D01*
X132239494Y-120220537D01*
X132336185Y-120141185D01*
X132415537Y-120044494D01*
X132474502Y-119934180D01*
X132510812Y-119814482D01*
X132523072Y-119690000D01*
X132523072Y-117975000D01*
X141763028Y-117975000D01*
X141809893Y-118088141D01*
X142098262Y-118519715D01*
X142465285Y-118886738D01*
X142896859Y-119175107D01*
X143376399Y-119373739D01*
X143885475Y-119475000D01*
X144404525Y-119475000D01*
X144913601Y-119373739D01*
X145393141Y-119175107D01*
X145824715Y-118886738D01*
X146023954Y-118687499D01*
X152637106Y-118687499D01*
X152853228Y-119054258D01*
X153313105Y-119294938D01*
X153811098Y-119441275D01*
X154328071Y-119487648D01*
X154844159Y-119432273D01*
X155339526Y-119277279D01*
X155756772Y-119054258D01*
X155972894Y-118687499D01*
X154305000Y-117019605D01*
X152637106Y-118687499D01*
X146023954Y-118687499D01*
X146191738Y-118519715D01*
X146480107Y-118088141D01*
X146678739Y-117608601D01*
X146780000Y-117099525D01*
X146780000Y-116863071D01*
X151657352Y-116863071D01*
X151712727Y-117379159D01*
X151867721Y-117874526D01*
X152090742Y-118291772D01*
X152457501Y-118507894D01*
X154125395Y-116840000D01*
X154484605Y-116840000D01*
X156152499Y-118507894D01*
X156519258Y-118291772D01*
X156759938Y-117831895D01*
X156906275Y-117333902D01*
X156952648Y-116816929D01*
X156897273Y-116300841D01*
X156742279Y-115805474D01*
X156519258Y-115388228D01*
X156152499Y-115172106D01*
X154484605Y-116840000D01*
X154125395Y-116840000D01*
X152457501Y-115172106D01*
X152090742Y-115388228D01*
X151850062Y-115848105D01*
X151703725Y-116346098D01*
X151657352Y-116863071D01*
X146780000Y-116863071D01*
X146780000Y-116580475D01*
X146678739Y-116071399D01*
X146480107Y-115591859D01*
X146191738Y-115160285D01*
X146023954Y-114992501D01*
X152637106Y-114992501D01*
X154305000Y-116660395D01*
X155972894Y-114992501D01*
X155756772Y-114625742D01*
X155296895Y-114385062D01*
X154798902Y-114238725D01*
X154281929Y-114192352D01*
X153765841Y-114247727D01*
X153270474Y-114402721D01*
X152853228Y-114625742D01*
X152637106Y-114992501D01*
X146023954Y-114992501D01*
X145824715Y-114793262D01*
X145393141Y-114504893D01*
X144913601Y-114306261D01*
X144404525Y-114205000D01*
X143885475Y-114205000D01*
X143376399Y-114306261D01*
X142896859Y-114504893D01*
X142465285Y-114793262D01*
X142098262Y-115160285D01*
X141809893Y-115591859D01*
X141763028Y-115705000D01*
X132523072Y-115705000D01*
X132523072Y-113990000D01*
X132510812Y-113865518D01*
X132474502Y-113745820D01*
X132415537Y-113635506D01*
X132336185Y-113538815D01*
X132239494Y-113459463D01*
X132129180Y-113400498D01*
X132009482Y-113364188D01*
X131885000Y-113351928D01*
X129735000Y-113351928D01*
X129610518Y-113364188D01*
X129490820Y-113400498D01*
X129380506Y-113459463D01*
X129283815Y-113538815D01*
X129204463Y-113635506D01*
X129145498Y-113745820D01*
X129109188Y-113865518D01*
X129096928Y-113990000D01*
X129096928Y-115010000D01*
X121428072Y-115010000D01*
X121428072Y-113845000D01*
X121415812Y-113720518D01*
X121379502Y-113600820D01*
X121320537Y-113490506D01*
X121241185Y-113393815D01*
X121144494Y-113314463D01*
X121034180Y-113255498D01*
X120914482Y-113219188D01*
X120790000Y-113206928D01*
X119690000Y-113206928D01*
X119565518Y-113219188D01*
X119445820Y-113255498D01*
X119390000Y-113285335D01*
X119334180Y-113255498D01*
X119214482Y-113219188D01*
X119090000Y-113206928D01*
X117990000Y-113206928D01*
X117865518Y-113219188D01*
X117745820Y-113255498D01*
X117690000Y-113285335D01*
X117634180Y-113255498D01*
X117514482Y-113219188D01*
X117401719Y-113208082D01*
X118271082Y-112338720D01*
X118446589Y-112455990D01*
X118716842Y-112567932D01*
X119003740Y-112625000D01*
X119296260Y-112625000D01*
X119583158Y-112567932D01*
X119853411Y-112455990D01*
X120096632Y-112293475D01*
X120303475Y-112086632D01*
X120420000Y-111912240D01*
X120536525Y-112086632D01*
X120743368Y-112293475D01*
X120986589Y-112455990D01*
X121256842Y-112567932D01*
X121543740Y-112625000D01*
X121836260Y-112625000D01*
X122123158Y-112567932D01*
X122393411Y-112455990D01*
X122636632Y-112293475D01*
X122843475Y-112086632D01*
X122960000Y-111912240D01*
X123076525Y-112086632D01*
X123283368Y-112293475D01*
X123526589Y-112455990D01*
X123796842Y-112567932D01*
X124083740Y-112625000D01*
X124376260Y-112625000D01*
X124663158Y-112567932D01*
X124933411Y-112455990D01*
X125176632Y-112293475D01*
X125383475Y-112086632D01*
X125500000Y-111912240D01*
X125616525Y-112086632D01*
X125823368Y-112293475D01*
X126066589Y-112455990D01*
X126336842Y-112567932D01*
X126623740Y-112625000D01*
X126916260Y-112625000D01*
X127203158Y-112567932D01*
X127473411Y-112455990D01*
X127716632Y-112293475D01*
X127923475Y-112086632D01*
X128040000Y-111912240D01*
X128156525Y-112086632D01*
X128363368Y-112293475D01*
X128606589Y-112455990D01*
X128876842Y-112567932D01*
X129163740Y-112625000D01*
X129456260Y-112625000D01*
X129743158Y-112567932D01*
X130013411Y-112455990D01*
X130256632Y-112293475D01*
X130463475Y-112086632D01*
X130580000Y-111912240D01*
X130696525Y-112086632D01*
X130903368Y-112293475D01*
X131146589Y-112455990D01*
X131416842Y-112567932D01*
X131703740Y-112625000D01*
X131996260Y-112625000D01*
X132283158Y-112567932D01*
X132553411Y-112455990D01*
X132796632Y-112293475D01*
X133003475Y-112086632D01*
X133120000Y-111912240D01*
X133236525Y-112086632D01*
X133443368Y-112293475D01*
X133686589Y-112455990D01*
X133956842Y-112567932D01*
X134243740Y-112625000D01*
X134536260Y-112625000D01*
X134823158Y-112567932D01*
X135093411Y-112455990D01*
X135336632Y-112293475D01*
X135468487Y-112161620D01*
X135490498Y-112234180D01*
X135549463Y-112344494D01*
X135628815Y-112441185D01*
X135725506Y-112520537D01*
X135835820Y-112579502D01*
X135955518Y-112615812D01*
X136080000Y-112628072D01*
X137780000Y-112628072D01*
X137904482Y-112615812D01*
X138024180Y-112579502D01*
X138134494Y-112520537D01*
X138231185Y-112441185D01*
X138310537Y-112344494D01*
X138369502Y-112234180D01*
X138405812Y-112114482D01*
X138418072Y-111990000D01*
X138418072Y-110290000D01*
X138405812Y-110165518D01*
X138369502Y-110045820D01*
X138310537Y-109935506D01*
X138231185Y-109838815D01*
X138134494Y-109759463D01*
X138024180Y-109700498D01*
X137904482Y-109664188D01*
X137780000Y-109651928D01*
X136080000Y-109651928D01*
X135955518Y-109664188D01*
X135835820Y-109700498D01*
X135725506Y-109759463D01*
X135628815Y-109838815D01*
X135549463Y-109935506D01*
X135490498Y-110045820D01*
X135468487Y-110118380D01*
X135336632Y-109986525D01*
X135093411Y-109824010D01*
X134823158Y-109712068D01*
X134536260Y-109655000D01*
X134243740Y-109655000D01*
X133956842Y-109712068D01*
X133686589Y-109824010D01*
X133443368Y-109986525D01*
X133236525Y-110193368D01*
X133120000Y-110367760D01*
X133003475Y-110193368D01*
X132796632Y-109986525D01*
X132553411Y-109824010D01*
X132283158Y-109712068D01*
X131996260Y-109655000D01*
X131703740Y-109655000D01*
X131416842Y-109712068D01*
X131146589Y-109824010D01*
X130903368Y-109986525D01*
X130696525Y-110193368D01*
X130580000Y-110367760D01*
X130463475Y-110193368D01*
X130256632Y-109986525D01*
X130013411Y-109824010D01*
X129743158Y-109712068D01*
X129456260Y-109655000D01*
X129163740Y-109655000D01*
X128876842Y-109712068D01*
X128606589Y-109824010D01*
X128363368Y-109986525D01*
X128156525Y-110193368D01*
X128040000Y-110367760D01*
X127923475Y-110193368D01*
X127716632Y-109986525D01*
X127473411Y-109824010D01*
X127203158Y-109712068D01*
X126916260Y-109655000D01*
X126623740Y-109655000D01*
X126336842Y-109712068D01*
X126066589Y-109824010D01*
X125823368Y-109986525D01*
X125616525Y-110193368D01*
X125500000Y-110367760D01*
X125383475Y-110193368D01*
X125176632Y-109986525D01*
X124933411Y-109824010D01*
X124663158Y-109712068D01*
X124376260Y-109655000D01*
X124083740Y-109655000D01*
X123796842Y-109712068D01*
X123526589Y-109824010D01*
X123283368Y-109986525D01*
X123076525Y-110193368D01*
X122960000Y-110367760D01*
X122843475Y-110193368D01*
X122636632Y-109986525D01*
X122393411Y-109824010D01*
X122123158Y-109712068D01*
X121836260Y-109655000D01*
X121543740Y-109655000D01*
X121256842Y-109712068D01*
X120986589Y-109824010D01*
X120743368Y-109986525D01*
X120536525Y-110193368D01*
X120420000Y-110367760D01*
X120303475Y-110193368D01*
X120096632Y-109986525D01*
X119853411Y-109824010D01*
X119583158Y-109712068D01*
X119296260Y-109655000D01*
X119003740Y-109655000D01*
X118716842Y-109712068D01*
X118545001Y-109783247D01*
X118545001Y-105199800D01*
X136516730Y-87228072D01*
X137780000Y-87228072D01*
X137904482Y-87215812D01*
X138024180Y-87179502D01*
X138134494Y-87120537D01*
X138231185Y-87041185D01*
X138310537Y-86944494D01*
X138369502Y-86834180D01*
X138405812Y-86714482D01*
X138418072Y-86590000D01*
X138418072Y-84890000D01*
X138405812Y-84765518D01*
X138369502Y-84645820D01*
X138310537Y-84535506D01*
X138231185Y-84438815D01*
X138134494Y-84359463D01*
X138024180Y-84300498D01*
X137904482Y-84264188D01*
X137780000Y-84251928D01*
X136952874Y-84251928D01*
X137894802Y-83310000D01*
X143472678Y-83310000D01*
X143510000Y-83313676D01*
X143547322Y-83310000D01*
X143547333Y-83310000D01*
X143658986Y-83299003D01*
X143802247Y-83255546D01*
X143934276Y-83184974D01*
X144050001Y-83090001D01*
X144073804Y-83060997D01*
X144456114Y-82678688D01*
X144638665Y-82715000D01*
X144921335Y-82715000D01*
X145198574Y-82659853D01*
X145459727Y-82551680D01*
X145694759Y-82394637D01*
X145894637Y-82194759D01*
X146050000Y-81962241D01*
X146205363Y-82194759D01*
X146405241Y-82394637D01*
X146640273Y-82551680D01*
X146901426Y-82659853D01*
X147178665Y-82715000D01*
X147461335Y-82715000D01*
X147738574Y-82659853D01*
X147999727Y-82551680D01*
X148234759Y-82394637D01*
X148434637Y-82194759D01*
X148590000Y-81962241D01*
X148745363Y-82194759D01*
X148945241Y-82394637D01*
X149180273Y-82551680D01*
X149441426Y-82659853D01*
X149718665Y-82715000D01*
X150001335Y-82715000D01*
X150278574Y-82659853D01*
X150539727Y-82551680D01*
X150774759Y-82394637D01*
X150974637Y-82194759D01*
X151131680Y-81959727D01*
X151239853Y-81698574D01*
X151295000Y-81421335D01*
X151295000Y-81138665D01*
X151239853Y-80861426D01*
X151131680Y-80600273D01*
X150974637Y-80365241D01*
X150774759Y-80165363D01*
X150539727Y-80008320D01*
X150278574Y-79900147D01*
X150001335Y-79845000D01*
X149718665Y-79845000D01*
X149441426Y-79900147D01*
X149180273Y-80008320D01*
X148945241Y-80165363D01*
X148745363Y-80365241D01*
X148590000Y-80597759D01*
X148434637Y-80365241D01*
X148234759Y-80165363D01*
X147999727Y-80008320D01*
X147738574Y-79900147D01*
X147461335Y-79845000D01*
X147178665Y-79845000D01*
X146901426Y-79900147D01*
X146640273Y-80008320D01*
X146405241Y-80165363D01*
X146205363Y-80365241D01*
X146050000Y-80597759D01*
X145894637Y-80365241D01*
X145694759Y-80165363D01*
X145459727Y-80008320D01*
X145198574Y-79900147D01*
X144921335Y-79845000D01*
X144638665Y-79845000D01*
X144361426Y-79900147D01*
X144100273Y-80008320D01*
X143865241Y-80165363D01*
X143666643Y-80363961D01*
X143665812Y-80355518D01*
X143629502Y-80235820D01*
X143570537Y-80125506D01*
X143491185Y-80028815D01*
X143394494Y-79949463D01*
X143284180Y-79890498D01*
X143164482Y-79854188D01*
X143040000Y-79841928D01*
X141440000Y-79841928D01*
X141315518Y-79854188D01*
X141195820Y-79890498D01*
X141085506Y-79949463D01*
X140988815Y-80028815D01*
X140909463Y-80125506D01*
X140850498Y-80235820D01*
X140814188Y-80355518D01*
X140801928Y-80480000D01*
X140801928Y-81790000D01*
X137617322Y-81790000D01*
X137579999Y-81786324D01*
X137542676Y-81790000D01*
X137542667Y-81790000D01*
X137431014Y-81800997D01*
X137287753Y-81844454D01*
X137155724Y-81915026D01*
X137039999Y-82009999D01*
X137016201Y-82038997D01*
X134756408Y-84298791D01*
X134536260Y-84255000D01*
X134243740Y-84255000D01*
X134023592Y-84298790D01*
X131128804Y-81404003D01*
X131105001Y-81374999D01*
X130989276Y-81280026D01*
X130857247Y-81209454D01*
X130713986Y-81165997D01*
X130602333Y-81155000D01*
X130602322Y-81155000D01*
X130565000Y-81151324D01*
X130527678Y-81155000D01*
X128747580Y-81155000D01*
X128748072Y-81150000D01*
X128748072Y-80700000D01*
X128731488Y-80531623D01*
X128682375Y-80369717D01*
X128604300Y-80223649D01*
X128640537Y-80179494D01*
X128699502Y-80069180D01*
X128735812Y-79949482D01*
X128748072Y-79825000D01*
X128745000Y-79660750D01*
X128586250Y-79502000D01*
X127762000Y-79502000D01*
X127762000Y-79522000D01*
X127508000Y-79522000D01*
X127508000Y-79502000D01*
X127488000Y-79502000D01*
X127488000Y-79248000D01*
X127508000Y-79248000D01*
X127508000Y-78448750D01*
X127762000Y-78448750D01*
X127762000Y-79248000D01*
X128586250Y-79248000D01*
X128745000Y-79089250D01*
X128748072Y-78925000D01*
X128735812Y-78800518D01*
X128699502Y-78680820D01*
X128640537Y-78570506D01*
X128561185Y-78473815D01*
X128464494Y-78394463D01*
X128354180Y-78335498D01*
X128234482Y-78299188D01*
X128110000Y-78286928D01*
X127920750Y-78290000D01*
X127762000Y-78448750D01*
X127508000Y-78448750D01*
X127377799Y-78318549D01*
X127387456Y-78270000D01*
X133081928Y-78270000D01*
X133094188Y-78394482D01*
X133130498Y-78514180D01*
X133189463Y-78624494D01*
X133268815Y-78721185D01*
X133365506Y-78800537D01*
X133475820Y-78859502D01*
X133595518Y-78895812D01*
X133720000Y-78908072D01*
X134334250Y-78905000D01*
X134493000Y-78746250D01*
X134493000Y-77822000D01*
X133243750Y-77822000D01*
X133085000Y-77980750D01*
X133081928Y-78270000D01*
X127387456Y-78270000D01*
X127400000Y-78206939D01*
X127400000Y-78003061D01*
X127360226Y-77803102D01*
X127282205Y-77614744D01*
X127168937Y-77445226D01*
X127024774Y-77301063D01*
X126855256Y-77187795D01*
X126691586Y-77120000D01*
X133081928Y-77120000D01*
X133085000Y-77409250D01*
X133243750Y-77568000D01*
X134493000Y-77568000D01*
X134493000Y-76643750D01*
X134747000Y-76643750D01*
X134747000Y-77568000D01*
X134767000Y-77568000D01*
X134767000Y-77822000D01*
X134747000Y-77822000D01*
X134747000Y-78746250D01*
X134905750Y-78905000D01*
X135520000Y-78908072D01*
X135644482Y-78895812D01*
X135764180Y-78859502D01*
X135874494Y-78800537D01*
X135971185Y-78721185D01*
X136050537Y-78624494D01*
X136109502Y-78514180D01*
X136132333Y-78438916D01*
X136158815Y-78471185D01*
X136255506Y-78550537D01*
X136365820Y-78609502D01*
X136485518Y-78645812D01*
X136610000Y-78658072D01*
X136874250Y-78655000D01*
X137033000Y-78496250D01*
X137033000Y-77597000D01*
X137287000Y-77597000D01*
X137287000Y-78496250D01*
X137445750Y-78655000D01*
X137710000Y-78658072D01*
X137834482Y-78645812D01*
X137954180Y-78609502D01*
X138064494Y-78550537D01*
X138161185Y-78471185D01*
X138240537Y-78374494D01*
X138299502Y-78264180D01*
X138335812Y-78144482D01*
X138348072Y-78020000D01*
X138345000Y-77755750D01*
X138186250Y-77597000D01*
X137287000Y-77597000D01*
X137033000Y-77597000D01*
X137013000Y-77597000D01*
X137013000Y-77343000D01*
X137033000Y-77343000D01*
X137033000Y-76443750D01*
X137287000Y-76443750D01*
X137287000Y-77343000D01*
X138186250Y-77343000D01*
X138345000Y-77184250D01*
X138348072Y-76920000D01*
X138335812Y-76795518D01*
X138299502Y-76675820D01*
X138240537Y-76565506D01*
X138161185Y-76468815D01*
X138064494Y-76389463D01*
X137954180Y-76330498D01*
X137834482Y-76294188D01*
X137710000Y-76281928D01*
X137445750Y-76285000D01*
X137287000Y-76443750D01*
X137033000Y-76443750D01*
X136874250Y-76285000D01*
X136610000Y-76281928D01*
X136485518Y-76294188D01*
X136365820Y-76330498D01*
X136255506Y-76389463D01*
X136158815Y-76468815D01*
X136079463Y-76565506D01*
X136020498Y-76675820D01*
X136008741Y-76714577D01*
X135971185Y-76668815D01*
X135874494Y-76589463D01*
X135764180Y-76530498D01*
X135644482Y-76494188D01*
X135520000Y-76481928D01*
X134905750Y-76485000D01*
X134747000Y-76643750D01*
X134493000Y-76643750D01*
X134334250Y-76485000D01*
X133720000Y-76481928D01*
X133595518Y-76494188D01*
X133475820Y-76530498D01*
X133365506Y-76589463D01*
X133268815Y-76668815D01*
X133189463Y-76765506D01*
X133130498Y-76875820D01*
X133094188Y-76995518D01*
X133081928Y-77120000D01*
X126691586Y-77120000D01*
X126666898Y-77109774D01*
X126466939Y-77070000D01*
X126263061Y-77070000D01*
X126063102Y-77109774D01*
X125874744Y-77187795D01*
X125705226Y-77301063D01*
X125561063Y-77445226D01*
X125447795Y-77614744D01*
X125369774Y-77803102D01*
X125330000Y-78003061D01*
X125330000Y-78065199D01*
X125218998Y-78176201D01*
X125190000Y-78199999D01*
X125166202Y-78228997D01*
X125166201Y-78228998D01*
X125095026Y-78315724D01*
X125075302Y-78352625D01*
X125045537Y-78408311D01*
X125000503Y-78432382D01*
X124869716Y-78539716D01*
X124807932Y-78615000D01*
X124719365Y-78615000D01*
X124692606Y-78582394D01*
X124565608Y-78478169D01*
X124420716Y-78400722D01*
X124263500Y-78353031D01*
X124100000Y-78336928D01*
X123550000Y-78336928D01*
X123386500Y-78353031D01*
X123229284Y-78400722D01*
X123084392Y-78478169D01*
X122957394Y-78582394D01*
X122872500Y-78685837D01*
X122819683Y-78621480D01*
X122837205Y-78595256D01*
X122915226Y-78406898D01*
X122955000Y-78206939D01*
X122955000Y-78003061D01*
X122915226Y-77803102D01*
X122837205Y-77614744D01*
X122723937Y-77445226D01*
X122579774Y-77301063D01*
X122410256Y-77187795D01*
X122221898Y-77109774D01*
X122021939Y-77070000D01*
X121818061Y-77070000D01*
X121618102Y-77109774D01*
X121429744Y-77187795D01*
X121260226Y-77301063D01*
X121116063Y-77445226D01*
X121002795Y-77614744D01*
X120924774Y-77803102D01*
X120885000Y-78003061D01*
X120885000Y-78206939D01*
X120924774Y-78406898D01*
X121002795Y-78595256D01*
X121020317Y-78621480D01*
X120967500Y-78685837D01*
X120882606Y-78582394D01*
X120755608Y-78478169D01*
X120610716Y-78400722D01*
X120453500Y-78353031D01*
X120290000Y-78336928D01*
X119740000Y-78336928D01*
X119576500Y-78353031D01*
X119419284Y-78400722D01*
X119274392Y-78478169D01*
X119147394Y-78582394D01*
X119120635Y-78615000D01*
X111439803Y-78615000D01*
X110123072Y-77298270D01*
X110123072Y-75585000D01*
X110110812Y-75460518D01*
X110074502Y-75340820D01*
X110015537Y-75230506D01*
X109936185Y-75133815D01*
X109839494Y-75054463D01*
X109729180Y-74995498D01*
X109609482Y-74959188D01*
X109485000Y-74946928D01*
X107685000Y-74946928D01*
X107560518Y-74959188D01*
X107440820Y-74995498D01*
X107330506Y-75054463D01*
X107233815Y-75133815D01*
X107154463Y-75230506D01*
X107095498Y-75340820D01*
X107059188Y-75460518D01*
X107046928Y-75585000D01*
X107046928Y-78085000D01*
X107059188Y-78209482D01*
X107095498Y-78329180D01*
X107154463Y-78439494D01*
X107233815Y-78536185D01*
X107330506Y-78615537D01*
X107440820Y-78674502D01*
X107560518Y-78710812D01*
X107685000Y-78723072D01*
X109398270Y-78723072D01*
X109645230Y-78970032D01*
X109609482Y-78959188D01*
X109485000Y-78946928D01*
X107685000Y-78946928D01*
X107560518Y-78959188D01*
X107440820Y-78995498D01*
X107330506Y-79054463D01*
X107233815Y-79133815D01*
X107154463Y-79230506D01*
X107095498Y-79340820D01*
X107059188Y-79460518D01*
X107046928Y-79585000D01*
X107046928Y-81650001D01*
X106313072Y-81650001D01*
X106313072Y-79585000D01*
X106300812Y-79460518D01*
X106264502Y-79340820D01*
X106205537Y-79230506D01*
X106126185Y-79133815D01*
X106029494Y-79054463D01*
X105919180Y-78995498D01*
X105799482Y-78959188D01*
X105675000Y-78946928D01*
X103875000Y-78946928D01*
X103750518Y-78959188D01*
X103714769Y-78970032D01*
X103961729Y-78723072D01*
X105675000Y-78723072D01*
X105799482Y-78710812D01*
X105919180Y-78674502D01*
X106029494Y-78615537D01*
X106126185Y-78536185D01*
X106205537Y-78439494D01*
X106264502Y-78329180D01*
X106300812Y-78209482D01*
X106313072Y-78085000D01*
X106313072Y-75585000D01*
X106300812Y-75460518D01*
X106264502Y-75340820D01*
X106205537Y-75230506D01*
X106126185Y-75133815D01*
X106029494Y-75054463D01*
X105919180Y-74995498D01*
X105799482Y-74959188D01*
X105675000Y-74946928D01*
X103875000Y-74946928D01*
X103750518Y-74959188D01*
X103630820Y-74995498D01*
X103520506Y-75054463D01*
X103423815Y-75133815D01*
X103344463Y-75230506D01*
X103285498Y-75340820D01*
X103249188Y-75460518D01*
X103236928Y-75585000D01*
X103236928Y-77298271D01*
X102630198Y-77905001D01*
X101453000Y-77905001D01*
X101453000Y-77683000D01*
X101473000Y-77683000D01*
X101473000Y-76803750D01*
X101727000Y-76803750D01*
X101727000Y-77683000D01*
X102401250Y-77683000D01*
X102560000Y-77524250D01*
X102563072Y-77280000D01*
X102550812Y-77155518D01*
X102514502Y-77035820D01*
X102455537Y-76925506D01*
X102376185Y-76828815D01*
X102279494Y-76749463D01*
X102169180Y-76690498D01*
X102049482Y-76654188D01*
X101925000Y-76641928D01*
X101885750Y-76645000D01*
X101727000Y-76803750D01*
X101473000Y-76803750D01*
X101314250Y-76645000D01*
X101275000Y-76641928D01*
X101150518Y-76654188D01*
X101030820Y-76690498D01*
X100920506Y-76749463D01*
X100823815Y-76828815D01*
X100744463Y-76925506D01*
X100685498Y-77035820D01*
X100650000Y-77152841D01*
X100614502Y-77035820D01*
X100555537Y-76925506D01*
X100476185Y-76828815D01*
X100379494Y-76749463D01*
X100269180Y-76690498D01*
X100149482Y-76654188D01*
X100025000Y-76641928D01*
X99375000Y-76641928D01*
X99250518Y-76654188D01*
X99130820Y-76690498D01*
X99020506Y-76749463D01*
X98923815Y-76828815D01*
X98844463Y-76925506D01*
X98785498Y-77035820D01*
X98749188Y-77155518D01*
X98736928Y-77280000D01*
X98736928Y-78340000D01*
X98749188Y-78464482D01*
X98785498Y-78584180D01*
X98844463Y-78694494D01*
X98923815Y-78791185D01*
X99020506Y-78870537D01*
X99094335Y-78910000D01*
X99020506Y-78949463D01*
X98923815Y-79028815D01*
X98844463Y-79125506D01*
X98785498Y-79235820D01*
X98749188Y-79355518D01*
X98736928Y-79480000D01*
X98736928Y-80540000D01*
X98749188Y-80664482D01*
X98785498Y-80784180D01*
X98844463Y-80894494D01*
X98923815Y-80991185D01*
X99020506Y-81070537D01*
X99130820Y-81129502D01*
X99250518Y-81165812D01*
X99296535Y-81170344D01*
X99295000Y-81178061D01*
X99295000Y-81381939D01*
X99334774Y-81581898D01*
X99412795Y-81770256D01*
X99526063Y-81939774D01*
X99670226Y-82083937D01*
X99839744Y-82197205D01*
X100028102Y-82275226D01*
X100228061Y-82315000D01*
X100431939Y-82315000D01*
X100631898Y-82275226D01*
X100820256Y-82197205D01*
X100989774Y-82083937D01*
X101133937Y-81939774D01*
X101247205Y-81770256D01*
X101322845Y-81587646D01*
X105986201Y-86251003D01*
X106009999Y-86280001D01*
X106038997Y-86303799D01*
X106125723Y-86374974D01*
X106184236Y-86406250D01*
X106257753Y-86445546D01*
X106401014Y-86489003D01*
X106512667Y-86500000D01*
X106512676Y-86500000D01*
X106549999Y-86503676D01*
X106587322Y-86500000D01*
X112791822Y-86500000D01*
X112916525Y-86686632D01*
X113123368Y-86893475D01*
X113366589Y-87055990D01*
X113636842Y-87167932D01*
X113923740Y-87225000D01*
X114216260Y-87225000D01*
X114503158Y-87167932D01*
X114773411Y-87055990D01*
X115016632Y-86893475D01*
X115223475Y-86686632D01*
X115340000Y-86512240D01*
X115456525Y-86686632D01*
X115663368Y-86893475D01*
X115906589Y-87055990D01*
X116176842Y-87167932D01*
X116463740Y-87225000D01*
X116756260Y-87225000D01*
X116807126Y-87214882D01*
X85689000Y-118333009D01*
X85660002Y-118356807D01*
X85636204Y-118385805D01*
X85636203Y-118385806D01*
X85565028Y-118472532D01*
X85494456Y-118604562D01*
X85480919Y-118649188D01*
X85477428Y-118660699D01*
X85439482Y-118649188D01*
X85315000Y-118636928D01*
X84865000Y-118636928D01*
X84740518Y-118649188D01*
X84620820Y-118685498D01*
X84510506Y-118744463D01*
X84413815Y-118823815D01*
X84334463Y-118920506D01*
X84275498Y-119030820D01*
X84239188Y-119150518D01*
X84226928Y-119275000D01*
X83409280Y-119275000D01*
X83403804Y-119166643D01*
X83370582Y-119046051D01*
X83314473Y-118934258D01*
X83237631Y-118835559D01*
X83143012Y-118753748D01*
X83034249Y-118691968D01*
X82915524Y-118652594D01*
X82806750Y-118640000D01*
X82648000Y-118798750D01*
X82452000Y-118798750D01*
X82293250Y-118640000D01*
X82184476Y-118652594D01*
X82065751Y-118691968D01*
X81956988Y-118753748D01*
X81862369Y-118835559D01*
X81785527Y-118934258D01*
X81729418Y-119046051D01*
X81696196Y-119166643D01*
X81690000Y-119289250D01*
X79127000Y-119289250D01*
X79127000Y-117175000D01*
X81686928Y-117175000D01*
X81686928Y-117775000D01*
X81699188Y-117899482D01*
X81735498Y-118019180D01*
X81794463Y-118129494D01*
X81873815Y-118226185D01*
X81970506Y-118305537D01*
X82080820Y-118364502D01*
X82200518Y-118400812D01*
X82325000Y-118413072D01*
X82775000Y-118413072D01*
X82899482Y-118400812D01*
X83019180Y-118364502D01*
X83129494Y-118305537D01*
X83215444Y-118235000D01*
X84424556Y-118235000D01*
X84510506Y-118305537D01*
X84620820Y-118364502D01*
X84740518Y-118400812D01*
X84865000Y-118413072D01*
X85315000Y-118413072D01*
X85439482Y-118400812D01*
X85559180Y-118364502D01*
X85669494Y-118305537D01*
X85766185Y-118226185D01*
X85845537Y-118129494D01*
X85904502Y-118019180D01*
X85940812Y-117899482D01*
X85953072Y-117775000D01*
X85953072Y-117175000D01*
X85940812Y-117050518D01*
X85904502Y-116930820D01*
X85845537Y-116820506D01*
X85766185Y-116723815D01*
X85669494Y-116644463D01*
X85559180Y-116585498D01*
X85439482Y-116549188D01*
X85315000Y-116536928D01*
X84865000Y-116536928D01*
X84740518Y-116549188D01*
X84620820Y-116585498D01*
X84510506Y-116644463D01*
X84424556Y-116715000D01*
X83215444Y-116715000D01*
X83129494Y-116644463D01*
X83019180Y-116585498D01*
X82899482Y-116549188D01*
X82775000Y-116536928D01*
X82325000Y-116536928D01*
X82200518Y-116549188D01*
X82080820Y-116585498D01*
X81970506Y-116644463D01*
X81873815Y-116723815D01*
X81794463Y-116820506D01*
X81735498Y-116930820D01*
X81699188Y-117050518D01*
X81686928Y-117175000D01*
X79127000Y-117175000D01*
X79127000Y-81118967D01*
X85995000Y-81118967D01*
X85995000Y-81441033D01*
X86057832Y-81756912D01*
X86181082Y-82054463D01*
X86360013Y-82322252D01*
X86587748Y-82549987D01*
X86855537Y-82728918D01*
X87153088Y-82852168D01*
X87468967Y-82915000D01*
X87791033Y-82915000D01*
X88106912Y-82852168D01*
X88404463Y-82728918D01*
X88672252Y-82549987D01*
X88899987Y-82322252D01*
X88900000Y-82322233D01*
X88900013Y-82322252D01*
X89127748Y-82549987D01*
X89395537Y-82728918D01*
X89693088Y-82852168D01*
X90008967Y-82915000D01*
X90331033Y-82915000D01*
X90646912Y-82852168D01*
X90944463Y-82728918D01*
X91212252Y-82549987D01*
X91439987Y-82322252D01*
X91440000Y-82322233D01*
X91440013Y-82322252D01*
X91667748Y-82549987D01*
X91935537Y-82728918D01*
X92233088Y-82852168D01*
X92548967Y-82915000D01*
X92871033Y-82915000D01*
X93186912Y-82852168D01*
X93484463Y-82728918D01*
X93752252Y-82549987D01*
X93979987Y-82322252D01*
X93980000Y-82322233D01*
X93980013Y-82322252D01*
X94207748Y-82549987D01*
X94475537Y-82728918D01*
X94773088Y-82852168D01*
X95088967Y-82915000D01*
X95411033Y-82915000D01*
X95726912Y-82852168D01*
X96024463Y-82728918D01*
X96292252Y-82549987D01*
X96519987Y-82322252D01*
X96698918Y-82054463D01*
X96822168Y-81756912D01*
X96885000Y-81441033D01*
X96885000Y-81118967D01*
X96822168Y-80803088D01*
X96698918Y-80505537D01*
X96519987Y-80237748D01*
X96292252Y-80010013D01*
X96024463Y-79831082D01*
X95726912Y-79707832D01*
X95411033Y-79645000D01*
X95088967Y-79645000D01*
X94773088Y-79707832D01*
X94475537Y-79831082D01*
X94207748Y-80010013D01*
X93980013Y-80237748D01*
X93980000Y-80237767D01*
X93979987Y-80237748D01*
X93752252Y-80010013D01*
X93484463Y-79831082D01*
X93186912Y-79707832D01*
X92871033Y-79645000D01*
X92548967Y-79645000D01*
X92233088Y-79707832D01*
X91935537Y-79831082D01*
X91667748Y-80010013D01*
X91440013Y-80237748D01*
X91440000Y-80237767D01*
X91439987Y-80237748D01*
X91212252Y-80010013D01*
X90944463Y-79831082D01*
X90646912Y-79707832D01*
X90331033Y-79645000D01*
X90008967Y-79645000D01*
X89693088Y-79707832D01*
X89395537Y-79831082D01*
X89127748Y-80010013D01*
X88900013Y-80237748D01*
X88900000Y-80237767D01*
X88899987Y-80237748D01*
X88672252Y-80010013D01*
X88404463Y-79831082D01*
X88106912Y-79707832D01*
X87791033Y-79645000D01*
X87468967Y-79645000D01*
X87153088Y-79707832D01*
X86855537Y-79831082D01*
X86587748Y-80010013D01*
X86360013Y-80237748D01*
X86181082Y-80505537D01*
X86057832Y-80803088D01*
X85995000Y-81118967D01*
X79127000Y-81118967D01*
X79127000Y-74779872D01*
X79765000Y-74779872D01*
X79765000Y-75220128D01*
X79850890Y-75651925D01*
X80019369Y-76058669D01*
X80263962Y-76424729D01*
X80575271Y-76736038D01*
X80941331Y-76980631D01*
X81348075Y-77149110D01*
X81779872Y-77235000D01*
X82220128Y-77235000D01*
X82651925Y-77149110D01*
X83058669Y-76980631D01*
X83424729Y-76736038D01*
X83736038Y-76424729D01*
X83980631Y-76058669D01*
X84149110Y-75651925D01*
X84235000Y-75220128D01*
X84235000Y-74779872D01*
X84211156Y-74660000D01*
X91071928Y-74660000D01*
X91084188Y-74784482D01*
X91120498Y-74904180D01*
X91179463Y-75014494D01*
X91258815Y-75111185D01*
X91355506Y-75190537D01*
X91465820Y-75249502D01*
X91585518Y-75285812D01*
X91710000Y-75298072D01*
X92424250Y-75295000D01*
X92583000Y-75136250D01*
X92583000Y-73787000D01*
X92837000Y-73787000D01*
X92837000Y-75136250D01*
X92995750Y-75295000D01*
X93710000Y-75298072D01*
X93834482Y-75285812D01*
X93954180Y-75249502D01*
X94064494Y-75190537D01*
X94161185Y-75111185D01*
X94240537Y-75014494D01*
X94299502Y-74904180D01*
X94335812Y-74784482D01*
X94348072Y-74660000D01*
X94345000Y-73945750D01*
X94186250Y-73787000D01*
X92837000Y-73787000D01*
X92583000Y-73787000D01*
X91233750Y-73787000D01*
X91075000Y-73945750D01*
X91071928Y-74660000D01*
X84211156Y-74660000D01*
X84149110Y-74348075D01*
X83980631Y-73941331D01*
X83736038Y-73575271D01*
X83424729Y-73263962D01*
X83058669Y-73019369D01*
X82651925Y-72850890D01*
X82220128Y-72765000D01*
X81779872Y-72765000D01*
X81348075Y-72850890D01*
X80941331Y-73019369D01*
X80575271Y-73263962D01*
X80263962Y-73575271D01*
X80019369Y-73941331D01*
X79850890Y-74348075D01*
X79765000Y-74779872D01*
X79127000Y-74779872D01*
X79127000Y-72660001D01*
X91071928Y-72660001D01*
X91075000Y-73374250D01*
G37*
G04 #@! TD.AperFunction*
D31*
X125857000Y-80798000D02*
X125877000Y-80798000D01*
X125877000Y-81052000D01*
X125857000Y-81052000D01*
X125857000Y-81851250D01*
X126015750Y-82010000D01*
X126205000Y-82013072D01*
X126329482Y-82000812D01*
X126449180Y-81964502D01*
X126559494Y-81905537D01*
X126600000Y-81872295D01*
X126600000Y-82016939D01*
X126639774Y-82216898D01*
X126717795Y-82405256D01*
X126831063Y-82574774D01*
X126975226Y-82718937D01*
X127144744Y-82832205D01*
X127333102Y-82910226D01*
X127533061Y-82950000D01*
X127736939Y-82950000D01*
X127936898Y-82910226D01*
X128125256Y-82832205D01*
X128294774Y-82718937D01*
X128338711Y-82675000D01*
X130250199Y-82675000D01*
X131830199Y-84255000D01*
X131722998Y-84255000D01*
X131722998Y-84419844D01*
X131493110Y-84298524D01*
X131345901Y-84343175D01*
X131083080Y-84468359D01*
X130849731Y-84642412D01*
X130654822Y-84858645D01*
X130585195Y-84975534D01*
X130463475Y-84793368D01*
X130256632Y-84586525D01*
X130013411Y-84424010D01*
X129743158Y-84312068D01*
X129456260Y-84255000D01*
X129163740Y-84255000D01*
X128876842Y-84312068D01*
X128606589Y-84424010D01*
X128363368Y-84586525D01*
X128156525Y-84793368D01*
X128040000Y-84967760D01*
X127923475Y-84793368D01*
X127716632Y-84586525D01*
X127473411Y-84424010D01*
X127203158Y-84312068D01*
X126916260Y-84255000D01*
X126623740Y-84255000D01*
X126336842Y-84312068D01*
X126066589Y-84424010D01*
X125823368Y-84586525D01*
X125616525Y-84793368D01*
X125500000Y-84967760D01*
X125383475Y-84793368D01*
X125176632Y-84586525D01*
X124933411Y-84424010D01*
X124663158Y-84312068D01*
X124376260Y-84255000D01*
X124083740Y-84255000D01*
X123796842Y-84312068D01*
X123526589Y-84424010D01*
X123283368Y-84586525D01*
X123076525Y-84793368D01*
X122960000Y-84967760D01*
X122843475Y-84793368D01*
X122636632Y-84586525D01*
X122393411Y-84424010D01*
X122212243Y-84348968D01*
X124051202Y-82510010D01*
X124280146Y-82510010D01*
X124317468Y-82513686D01*
X124354790Y-82510010D01*
X124354801Y-82510010D01*
X124466454Y-82499013D01*
X124609715Y-82455556D01*
X124741744Y-82384984D01*
X124857469Y-82290011D01*
X124881272Y-82261007D01*
X125136008Y-82006271D01*
X125141359Y-82001880D01*
X125255000Y-82013072D01*
X125444250Y-82010000D01*
X125603000Y-81851250D01*
X125603000Y-81052000D01*
X125583000Y-81052000D01*
X125583000Y-80798000D01*
X125603000Y-80798000D01*
X125603000Y-80778000D01*
X125857000Y-80778000D01*
X125857000Y-80798000D01*
G04 #@! TA.AperFunction,Conductor*
D32*
G36*
X125857000Y-80798000D02*
G01*
X125877000Y-80798000D01*
X125877000Y-81052000D01*
X125857000Y-81052000D01*
X125857000Y-81851250D01*
X126015750Y-82010000D01*
X126205000Y-82013072D01*
X126329482Y-82000812D01*
X126449180Y-81964502D01*
X126559494Y-81905537D01*
X126600000Y-81872295D01*
X126600000Y-82016939D01*
X126639774Y-82216898D01*
X126717795Y-82405256D01*
X126831063Y-82574774D01*
X126975226Y-82718937D01*
X127144744Y-82832205D01*
X127333102Y-82910226D01*
X127533061Y-82950000D01*
X127736939Y-82950000D01*
X127936898Y-82910226D01*
X128125256Y-82832205D01*
X128294774Y-82718937D01*
X128338711Y-82675000D01*
X130250199Y-82675000D01*
X131830199Y-84255000D01*
X131722998Y-84255000D01*
X131722998Y-84419844D01*
X131493110Y-84298524D01*
X131345901Y-84343175D01*
X131083080Y-84468359D01*
X130849731Y-84642412D01*
X130654822Y-84858645D01*
X130585195Y-84975534D01*
X130463475Y-84793368D01*
X130256632Y-84586525D01*
X130013411Y-84424010D01*
X129743158Y-84312068D01*
X129456260Y-84255000D01*
X129163740Y-84255000D01*
X128876842Y-84312068D01*
X128606589Y-84424010D01*
X128363368Y-84586525D01*
X128156525Y-84793368D01*
X128040000Y-84967760D01*
X127923475Y-84793368D01*
X127716632Y-84586525D01*
X127473411Y-84424010D01*
X127203158Y-84312068D01*
X126916260Y-84255000D01*
X126623740Y-84255000D01*
X126336842Y-84312068D01*
X126066589Y-84424010D01*
X125823368Y-84586525D01*
X125616525Y-84793368D01*
X125500000Y-84967760D01*
X125383475Y-84793368D01*
X125176632Y-84586525D01*
X124933411Y-84424010D01*
X124663158Y-84312068D01*
X124376260Y-84255000D01*
X124083740Y-84255000D01*
X123796842Y-84312068D01*
X123526589Y-84424010D01*
X123283368Y-84586525D01*
X123076525Y-84793368D01*
X122960000Y-84967760D01*
X122843475Y-84793368D01*
X122636632Y-84586525D01*
X122393411Y-84424010D01*
X122212243Y-84348968D01*
X124051202Y-82510010D01*
X124280146Y-82510010D01*
X124317468Y-82513686D01*
X124354790Y-82510010D01*
X124354801Y-82510010D01*
X124466454Y-82499013D01*
X124609715Y-82455556D01*
X124741744Y-82384984D01*
X124857469Y-82290011D01*
X124881272Y-82261007D01*
X125136008Y-82006271D01*
X125141359Y-82001880D01*
X125255000Y-82013072D01*
X125444250Y-82010000D01*
X125603000Y-81851250D01*
X125603000Y-81052000D01*
X125583000Y-81052000D01*
X125583000Y-80798000D01*
X125603000Y-80798000D01*
X125603000Y-80778000D01*
X125857000Y-80778000D01*
X125857000Y-80798000D01*
G37*
G04 #@! TD.AperFunction*
M02*
