%FSLAX45Y45*%
G04 Gerber Fmt 4.5, Leading zero omitted, Abs format (unit mm)*
G04 Created by KiCad (PCBNEW (5.1.10)-1) date 2022-07-05 13:37:32*
%MOMM*%
%LPD*%
G01*
G04 APERTURE LIST*
%TA.AperFunction,Profile*%
%ADD10C,0.050000*%
%TD*%
%ADD11C,0.200000*%
%ADD12C,0.300000*%
G04 APERTURE END LIST*
D10*
X6650000Y-8200000D02*
X6650000Y-12500000D01*
X16150000Y-7200000D02*
X7650000Y-7200000D01*
X17150000Y-12500000D02*
X17150000Y-8200000D01*
X7650000Y-13500000D02*
X16150000Y-13500000D01*
X6650000Y-12500000D02*
G75*
G02*
X7650000Y-13500000I450000J-550000D01*
G01*
X7650000Y-7200000D02*
G75*
G02*
X6650000Y-8200000I-550000J-450000D01*
G01*
X17150000Y-8200000D02*
G75*
G02*
X16150000Y-7200000I-450000J550000D01*
G01*
X16150000Y-13500000D02*
G75*
G02*
X17150000Y-12500000I550000J450000D01*
G01*
D11*
X10013000Y-8108000D02*
X10053000Y-8148000D01*
X10053000Y-8108000D02*
X10013000Y-8148000D01*
X11092500Y-8108000D02*
X11132500Y-8148000D01*
X11132500Y-8108000D02*
X11092500Y-8148000D01*
X11156000Y-13188000D02*
X11196000Y-13228000D01*
X11196000Y-13188000D02*
X11156000Y-13228000D01*
X11918000Y-8148500D02*
X11958000Y-8188500D01*
X11958000Y-8148500D02*
X11918000Y-8188500D01*
X12171488Y-8148500D02*
X12211488Y-8188500D01*
X12211488Y-8148500D02*
X12171488Y-8188500D01*
X12172000Y-7790500D02*
X12212000Y-7830500D01*
X12212000Y-7790500D02*
X12172000Y-7830500D01*
X12616500Y-7790500D02*
X12656500Y-7830500D01*
X12656500Y-7790500D02*
X12616500Y-7830500D01*
X12743500Y-8171500D02*
X12783500Y-8211500D01*
X12783500Y-8171500D02*
X12743500Y-8211500D01*
X13378500Y-8235000D02*
X13418500Y-8275000D01*
X13418500Y-8235000D02*
X13378500Y-8275000D01*
X13759500Y-13188000D02*
X13799500Y-13228000D01*
X13799500Y-13188000D02*
X13759500Y-13228000D01*
X12039600Y-13208000D02*
G75*
G03*
X12039600Y-13208000I-38100J0D01*
G01*
X12928600Y-13208000D02*
G75*
G03*
X12928600Y-13208000I-38100J0D01*
G01*
X14224000Y-7326000D02*
X14224000Y-7406000D01*
X14184000Y-7366000D02*
X14264000Y-7366000D01*
X14224000Y-8088000D02*
X14224000Y-8168000D01*
X14184000Y-8128000D02*
X14264000Y-8128000D01*
X14478000Y-7326000D02*
X14478000Y-7406000D01*
X14438000Y-7366000D02*
X14518000Y-7366000D01*
X14478000Y-8088000D02*
X14478000Y-8168000D01*
X14438000Y-8128000D02*
X14518000Y-8128000D01*
X14732000Y-7326000D02*
X14732000Y-7406000D01*
X14692000Y-7366000D02*
X14772000Y-7366000D01*
X14732000Y-8088000D02*
X14732000Y-8168000D01*
X14692000Y-8128000D02*
X14772000Y-8128000D01*
X14986000Y-7326000D02*
X14986000Y-7406000D01*
X14946000Y-7366000D02*
X15026000Y-7366000D01*
X14986000Y-8088000D02*
X14986000Y-8168000D01*
X14946000Y-8128000D02*
X15026000Y-8128000D01*
X12287320Y-13239820D02*
X12287320Y-13176180D01*
X12223680Y-13176180D01*
X12223680Y-13239820D01*
X12287320Y-13239820D01*
X12668320Y-13239820D02*
X12668320Y-13176180D01*
X12604680Y-13176180D01*
X12604680Y-13239820D01*
X12668320Y-13239820D01*
X8763000Y-8178000D02*
X8813000Y-8128000D01*
X8763000Y-8078000D01*
X8713000Y-8128000D01*
X8763000Y-8178000D01*
X8890000Y-12466000D02*
X8940000Y-12416000D01*
X8890000Y-12366000D01*
X8840000Y-12416000D01*
X8890000Y-12466000D01*
X9017000Y-8178000D02*
X9067000Y-8128000D01*
X9017000Y-8078000D01*
X8967000Y-8128000D01*
X9017000Y-8178000D01*
X9028500Y-12750000D02*
X9078500Y-12700000D01*
X9028500Y-12650000D01*
X8978500Y-12700000D01*
X9028500Y-12750000D01*
X9167000Y-12466000D02*
X9217000Y-12416000D01*
X9167000Y-12366000D01*
X9117000Y-12416000D01*
X9167000Y-12466000D01*
X9271000Y-7416000D02*
X9321000Y-7366000D01*
X9271000Y-7316000D01*
X9221000Y-7366000D01*
X9271000Y-7416000D01*
X9271000Y-8178000D02*
X9321000Y-8128000D01*
X9271000Y-8078000D01*
X9221000Y-8128000D01*
X9271000Y-8178000D01*
X9305500Y-12750000D02*
X9355500Y-12700000D01*
X9305500Y-12650000D01*
X9255500Y-12700000D01*
X9305500Y-12750000D01*
X9444000Y-12466000D02*
X9494000Y-12416000D01*
X9444000Y-12366000D01*
X9394000Y-12416000D01*
X9444000Y-12466000D01*
X9525000Y-8178000D02*
X9575000Y-8128000D01*
X9525000Y-8078000D01*
X9475000Y-8128000D01*
X9525000Y-8178000D01*
X9582500Y-12750000D02*
X9632500Y-12700000D01*
X9582500Y-12650000D01*
X9532500Y-12700000D01*
X9582500Y-12750000D01*
X9721000Y-12466000D02*
X9771000Y-12416000D01*
X9721000Y-12366000D01*
X9671000Y-12416000D01*
X9721000Y-12466000D01*
X9859500Y-12750000D02*
X9909500Y-12700000D01*
X9859500Y-12650000D01*
X9809500Y-12700000D01*
X9859500Y-12750000D01*
X9998000Y-12466000D02*
X10048000Y-12416000D01*
X9998000Y-12366000D01*
X9948000Y-12416000D01*
X9998000Y-12466000D01*
X11407000Y-8624000D02*
X11457000Y-8574000D01*
X11407000Y-8524000D01*
X11357000Y-8574000D01*
X11407000Y-8624000D01*
X11407000Y-11164000D02*
X11457000Y-11114000D01*
X11407000Y-11064000D01*
X11357000Y-11114000D01*
X11407000Y-11164000D01*
X11661000Y-8624000D02*
X11711000Y-8574000D01*
X11661000Y-8524000D01*
X11611000Y-8574000D01*
X11661000Y-8624000D01*
X11661000Y-11164000D02*
X11711000Y-11114000D01*
X11661000Y-11064000D01*
X11611000Y-11114000D01*
X11661000Y-11164000D01*
X11915000Y-8624000D02*
X11965000Y-8574000D01*
X11915000Y-8524000D01*
X11865000Y-8574000D01*
X11915000Y-8624000D01*
X11915000Y-11164000D02*
X11965000Y-11114000D01*
X11915000Y-11064000D01*
X11865000Y-11114000D01*
X11915000Y-11164000D01*
X12169000Y-8624000D02*
X12219000Y-8574000D01*
X12169000Y-8524000D01*
X12119000Y-8574000D01*
X12169000Y-8624000D01*
X12169000Y-11164000D02*
X12219000Y-11114000D01*
X12169000Y-11064000D01*
X12119000Y-11114000D01*
X12169000Y-11164000D01*
X12423000Y-8624000D02*
X12473000Y-8574000D01*
X12423000Y-8524000D01*
X12373000Y-8574000D01*
X12423000Y-8624000D01*
X12423000Y-11164000D02*
X12473000Y-11114000D01*
X12423000Y-11064000D01*
X12373000Y-11114000D01*
X12423000Y-11164000D01*
X12677000Y-8624000D02*
X12727000Y-8574000D01*
X12677000Y-8524000D01*
X12627000Y-8574000D01*
X12677000Y-8624000D01*
X12677000Y-11164000D02*
X12727000Y-11114000D01*
X12677000Y-11064000D01*
X12627000Y-11114000D01*
X12677000Y-11164000D01*
X12931000Y-8624000D02*
X12981000Y-8574000D01*
X12931000Y-8524000D01*
X12881000Y-8574000D01*
X12931000Y-8624000D01*
X12931000Y-11164000D02*
X12981000Y-11114000D01*
X12931000Y-11064000D01*
X12881000Y-11114000D01*
X12931000Y-11164000D01*
X13185000Y-8624000D02*
X13235000Y-8574000D01*
X13185000Y-8524000D01*
X13135000Y-8574000D01*
X13185000Y-8624000D01*
X13185000Y-11164000D02*
X13235000Y-11114000D01*
X13185000Y-11064000D01*
X13135000Y-11114000D01*
X13185000Y-11164000D01*
X13439000Y-8624000D02*
X13489000Y-8574000D01*
X13439000Y-8524000D01*
X13389000Y-8574000D01*
X13439000Y-8624000D01*
X13439000Y-11164000D02*
X13489000Y-11114000D01*
X13439000Y-11064000D01*
X13389000Y-11114000D01*
X13439000Y-11164000D01*
X13693000Y-8624000D02*
X13743000Y-8574000D01*
X13693000Y-8524000D01*
X13643000Y-8574000D01*
X13693000Y-8624000D01*
X13693000Y-11164000D02*
X13743000Y-11114000D01*
X13693000Y-11064000D01*
X13643000Y-11114000D01*
X13693000Y-11164000D01*
X14314500Y-11584000D02*
X14514500Y-11784000D01*
X14514500Y-11584000D02*
X14314500Y-11784000D01*
X14514500Y-11684000D02*
G75*
G03*
X14514500Y-11684000I-100000J0D01*
G01*
X14314500Y-13134000D02*
X14514500Y-13334000D01*
X14514500Y-13134000D02*
X14314500Y-13334000D01*
X14514500Y-13234000D02*
G75*
G03*
X14514500Y-13234000I-100000J0D01*
G01*
X15330500Y-11584000D02*
X15530500Y-11784000D01*
X15530500Y-11584000D02*
X15330500Y-11784000D01*
X15530500Y-11684000D02*
G75*
G03*
X15530500Y-11684000I-100000J0D01*
G01*
X15330500Y-13134000D02*
X15530500Y-13334000D01*
X15530500Y-13134000D02*
X15330500Y-13334000D01*
X15530500Y-13234000D02*
G75*
G03*
X15530500Y-13234000I-100000J0D01*
G01*
X8034000Y-12398000D02*
X8354000Y-12718000D01*
X8354000Y-12398000D02*
X8034000Y-12718000D01*
X8194000Y-12398000D02*
X8194000Y-12718000D01*
X8034000Y-12558000D02*
X8354000Y-12558000D01*
X10534000Y-12398000D02*
X10854000Y-12718000D01*
X10854000Y-12398000D02*
X10534000Y-12718000D01*
X10694000Y-12398000D02*
X10694000Y-12718000D01*
X10534000Y-12558000D02*
X10854000Y-12558000D01*
D12*
X6933928Y-13968214D02*
X6933928Y-13668214D01*
X7005357Y-13668214D01*
X7048214Y-13682500D01*
X7076786Y-13711071D01*
X7091071Y-13739643D01*
X7105357Y-13796786D01*
X7105357Y-13839643D01*
X7091071Y-13896786D01*
X7076786Y-13925357D01*
X7048214Y-13953929D01*
X7005357Y-13968214D01*
X6933928Y-13968214D01*
X7233928Y-13968214D02*
X7233928Y-13768214D01*
X7233928Y-13825357D02*
X7248214Y-13796786D01*
X7262500Y-13782500D01*
X7291071Y-13768214D01*
X7319643Y-13768214D01*
X7419643Y-13968214D02*
X7419643Y-13768214D01*
X7419643Y-13668214D02*
X7405357Y-13682500D01*
X7419643Y-13696786D01*
X7433928Y-13682500D01*
X7419643Y-13668214D01*
X7419643Y-13696786D01*
X7605357Y-13968214D02*
X7576786Y-13953929D01*
X7562500Y-13925357D01*
X7562500Y-13668214D01*
X7762500Y-13968214D02*
X7733928Y-13953929D01*
X7719643Y-13925357D01*
X7719643Y-13668214D01*
X8105357Y-13968214D02*
X8105357Y-13668214D01*
X8205357Y-13882500D01*
X8305357Y-13668214D01*
X8305357Y-13968214D01*
X8576786Y-13968214D02*
X8576786Y-13811071D01*
X8562500Y-13782500D01*
X8533929Y-13768214D01*
X8476786Y-13768214D01*
X8448214Y-13782500D01*
X8576786Y-13953929D02*
X8548214Y-13968214D01*
X8476786Y-13968214D01*
X8448214Y-13953929D01*
X8433929Y-13925357D01*
X8433929Y-13896786D01*
X8448214Y-13868214D01*
X8476786Y-13853929D01*
X8548214Y-13853929D01*
X8576786Y-13839643D01*
X8719643Y-13768214D02*
X8719643Y-14068214D01*
X8719643Y-13782500D02*
X8748214Y-13768214D01*
X8805357Y-13768214D01*
X8833929Y-13782500D01*
X8848214Y-13796786D01*
X8862500Y-13825357D01*
X8862500Y-13911071D01*
X8848214Y-13939643D01*
X8833929Y-13953929D01*
X8805357Y-13968214D01*
X8748214Y-13968214D01*
X8719643Y-13953929D01*
X8991071Y-13939643D02*
X9005357Y-13953929D01*
X8991071Y-13968214D01*
X8976786Y-13953929D01*
X8991071Y-13939643D01*
X8991071Y-13968214D01*
X8991071Y-13782500D02*
X9005357Y-13796786D01*
X8991071Y-13811071D01*
X8976786Y-13796786D01*
X8991071Y-13782500D01*
X8991071Y-13811071D01*
X6607500Y-14442500D02*
X6647500Y-14482500D01*
X6647500Y-14442500D02*
X6607500Y-14482500D01*
X6991071Y-14298214D02*
X7019643Y-14298214D01*
X7048214Y-14312500D01*
X7062500Y-14326786D01*
X7076786Y-14355357D01*
X7091071Y-14412500D01*
X7091071Y-14483929D01*
X7076786Y-14541071D01*
X7062500Y-14569643D01*
X7048214Y-14583929D01*
X7019643Y-14598214D01*
X6991071Y-14598214D01*
X6962500Y-14583929D01*
X6948214Y-14569643D01*
X6933928Y-14541071D01*
X6919643Y-14483929D01*
X6919643Y-14412500D01*
X6933928Y-14355357D01*
X6948214Y-14326786D01*
X6962500Y-14312500D01*
X6991071Y-14298214D01*
X7219643Y-14569643D02*
X7233928Y-14583929D01*
X7219643Y-14598214D01*
X7205357Y-14583929D01*
X7219643Y-14569643D01*
X7219643Y-14598214D01*
X7491071Y-14398214D02*
X7491071Y-14598214D01*
X7419643Y-14283929D02*
X7348214Y-14498214D01*
X7533928Y-14498214D01*
X7705357Y-14298214D02*
X7733928Y-14298214D01*
X7762500Y-14312500D01*
X7776786Y-14326786D01*
X7791071Y-14355357D01*
X7805357Y-14412500D01*
X7805357Y-14483929D01*
X7791071Y-14541071D01*
X7776786Y-14569643D01*
X7762500Y-14583929D01*
X7733928Y-14598214D01*
X7705357Y-14598214D01*
X7676786Y-14583929D01*
X7662500Y-14569643D01*
X7648214Y-14541071D01*
X7633928Y-14483929D01*
X7633928Y-14412500D01*
X7648214Y-14355357D01*
X7662500Y-14326786D01*
X7676786Y-14312500D01*
X7705357Y-14298214D01*
X7991071Y-14298214D02*
X8019643Y-14298214D01*
X8048214Y-14312500D01*
X8062500Y-14326786D01*
X8076786Y-14355357D01*
X8091071Y-14412500D01*
X8091071Y-14483929D01*
X8076786Y-14541071D01*
X8062500Y-14569643D01*
X8048214Y-14583929D01*
X8019643Y-14598214D01*
X7991071Y-14598214D01*
X7962500Y-14583929D01*
X7948214Y-14569643D01*
X7933928Y-14541071D01*
X7919643Y-14483929D01*
X7919643Y-14412500D01*
X7933928Y-14355357D01*
X7948214Y-14326786D01*
X7962500Y-14312500D01*
X7991071Y-14298214D01*
X8219643Y-14598214D02*
X8219643Y-14398214D01*
X8219643Y-14426786D02*
X8233928Y-14412500D01*
X8262500Y-14398214D01*
X8305357Y-14398214D01*
X8333928Y-14412500D01*
X8348214Y-14441071D01*
X8348214Y-14598214D01*
X8348214Y-14441071D02*
X8362500Y-14412500D01*
X8391071Y-14398214D01*
X8433929Y-14398214D01*
X8462500Y-14412500D01*
X8476786Y-14441071D01*
X8476786Y-14598214D01*
X8619643Y-14598214D02*
X8619643Y-14398214D01*
X8619643Y-14426786D02*
X8633929Y-14412500D01*
X8662500Y-14398214D01*
X8705357Y-14398214D01*
X8733929Y-14412500D01*
X8748214Y-14441071D01*
X8748214Y-14598214D01*
X8748214Y-14441071D02*
X8762500Y-14412500D01*
X8791071Y-14398214D01*
X8833929Y-14398214D01*
X8862500Y-14412500D01*
X8876786Y-14441071D01*
X8876786Y-14598214D01*
X9462500Y-14283929D02*
X9205357Y-14669643D01*
X9848214Y-14298214D02*
X9876786Y-14298214D01*
X9905357Y-14312500D01*
X9919643Y-14326786D01*
X9933929Y-14355357D01*
X9948214Y-14412500D01*
X9948214Y-14483929D01*
X9933929Y-14541071D01*
X9919643Y-14569643D01*
X9905357Y-14583929D01*
X9876786Y-14598214D01*
X9848214Y-14598214D01*
X9819643Y-14583929D01*
X9805357Y-14569643D01*
X9791071Y-14541071D01*
X9776786Y-14483929D01*
X9776786Y-14412500D01*
X9791071Y-14355357D01*
X9805357Y-14326786D01*
X9819643Y-14312500D01*
X9848214Y-14298214D01*
X10076786Y-14569643D02*
X10091071Y-14583929D01*
X10076786Y-14598214D01*
X10062500Y-14583929D01*
X10076786Y-14569643D01*
X10076786Y-14598214D01*
X10276786Y-14298214D02*
X10305357Y-14298214D01*
X10333929Y-14312500D01*
X10348214Y-14326786D01*
X10362500Y-14355357D01*
X10376786Y-14412500D01*
X10376786Y-14483929D01*
X10362500Y-14541071D01*
X10348214Y-14569643D01*
X10333929Y-14583929D01*
X10305357Y-14598214D01*
X10276786Y-14598214D01*
X10248214Y-14583929D01*
X10233929Y-14569643D01*
X10219643Y-14541071D01*
X10205357Y-14483929D01*
X10205357Y-14412500D01*
X10219643Y-14355357D01*
X10233929Y-14326786D01*
X10248214Y-14312500D01*
X10276786Y-14298214D01*
X10662500Y-14598214D02*
X10491071Y-14598214D01*
X10576786Y-14598214D02*
X10576786Y-14298214D01*
X10548214Y-14341071D01*
X10519643Y-14369643D01*
X10491071Y-14383929D01*
X10933929Y-14298214D02*
X10791071Y-14298214D01*
X10776786Y-14441071D01*
X10791071Y-14426786D01*
X10819643Y-14412500D01*
X10891071Y-14412500D01*
X10919643Y-14426786D01*
X10933929Y-14441071D01*
X10948214Y-14469643D01*
X10948214Y-14541071D01*
X10933929Y-14569643D01*
X10919643Y-14583929D01*
X10891071Y-14598214D01*
X10819643Y-14598214D01*
X10791071Y-14583929D01*
X10776786Y-14569643D01*
X11048214Y-14298214D02*
X11248214Y-14298214D01*
X11119643Y-14598214D01*
X11348214Y-14298214D02*
X11348214Y-14355357D01*
X11462500Y-14298214D02*
X11462500Y-14355357D01*
X11905357Y-14712500D02*
X11891071Y-14698214D01*
X11862500Y-14655357D01*
X11848214Y-14626786D01*
X11833928Y-14583929D01*
X11819643Y-14512500D01*
X11819643Y-14455357D01*
X11833928Y-14383929D01*
X11848214Y-14341071D01*
X11862500Y-14312500D01*
X11891071Y-14269643D01*
X11905357Y-14255357D01*
X12176786Y-14598214D02*
X12005357Y-14598214D01*
X12091071Y-14598214D02*
X12091071Y-14298214D01*
X12062500Y-14341071D01*
X12033928Y-14369643D01*
X12005357Y-14383929D01*
X12362500Y-14298214D02*
X12391071Y-14298214D01*
X12419643Y-14312500D01*
X12433928Y-14326786D01*
X12448214Y-14355357D01*
X12462500Y-14412500D01*
X12462500Y-14483929D01*
X12448214Y-14541071D01*
X12433928Y-14569643D01*
X12419643Y-14583929D01*
X12391071Y-14598214D01*
X12362500Y-14598214D01*
X12333928Y-14583929D01*
X12319643Y-14569643D01*
X12305357Y-14541071D01*
X12291071Y-14483929D01*
X12291071Y-14412500D01*
X12305357Y-14355357D01*
X12319643Y-14326786D01*
X12333928Y-14312500D01*
X12362500Y-14298214D01*
X12819643Y-14598214D02*
X12819643Y-14298214D01*
X12948214Y-14598214D02*
X12948214Y-14441071D01*
X12933928Y-14412500D01*
X12905357Y-14398214D01*
X12862500Y-14398214D01*
X12833928Y-14412500D01*
X12819643Y-14426786D01*
X13133928Y-14598214D02*
X13105357Y-14583929D01*
X13091071Y-14569643D01*
X13076786Y-14541071D01*
X13076786Y-14455357D01*
X13091071Y-14426786D01*
X13105357Y-14412500D01*
X13133928Y-14398214D01*
X13176786Y-14398214D01*
X13205357Y-14412500D01*
X13219643Y-14426786D01*
X13233928Y-14455357D01*
X13233928Y-14541071D01*
X13219643Y-14569643D01*
X13205357Y-14583929D01*
X13176786Y-14598214D01*
X13133928Y-14598214D01*
X13405357Y-14598214D02*
X13376786Y-14583929D01*
X13362500Y-14555357D01*
X13362500Y-14298214D01*
X13633928Y-14583929D02*
X13605357Y-14598214D01*
X13548214Y-14598214D01*
X13519643Y-14583929D01*
X13505357Y-14555357D01*
X13505357Y-14441071D01*
X13519643Y-14412500D01*
X13548214Y-14398214D01*
X13605357Y-14398214D01*
X13633928Y-14412500D01*
X13648214Y-14441071D01*
X13648214Y-14469643D01*
X13505357Y-14498214D01*
X13762500Y-14583929D02*
X13791071Y-14598214D01*
X13848214Y-14598214D01*
X13876786Y-14583929D01*
X13891071Y-14555357D01*
X13891071Y-14541071D01*
X13876786Y-14512500D01*
X13848214Y-14498214D01*
X13805357Y-14498214D01*
X13776786Y-14483929D01*
X13762500Y-14455357D01*
X13762500Y-14441071D01*
X13776786Y-14412500D01*
X13805357Y-14398214D01*
X13848214Y-14398214D01*
X13876786Y-14412500D01*
X13991071Y-14712500D02*
X14005357Y-14698214D01*
X14033928Y-14655357D01*
X14048214Y-14626786D01*
X14062500Y-14583929D01*
X14076786Y-14512500D01*
X14076786Y-14455357D01*
X14062500Y-14383929D01*
X14048214Y-14341071D01*
X14033928Y-14312500D01*
X14005357Y-14269643D01*
X13991071Y-14255357D01*
X6647500Y-14858500D02*
G75*
G03*
X6647500Y-14858500I-38100J0D01*
G01*
X6991071Y-14694214D02*
X7019643Y-14694214D01*
X7048214Y-14708500D01*
X7062500Y-14722786D01*
X7076786Y-14751357D01*
X7091071Y-14808500D01*
X7091071Y-14879929D01*
X7076786Y-14937071D01*
X7062500Y-14965643D01*
X7048214Y-14979929D01*
X7019643Y-14994214D01*
X6991071Y-14994214D01*
X6962500Y-14979929D01*
X6948214Y-14965643D01*
X6933928Y-14937071D01*
X6919643Y-14879929D01*
X6919643Y-14808500D01*
X6933928Y-14751357D01*
X6948214Y-14722786D01*
X6962500Y-14708500D01*
X6991071Y-14694214D01*
X7219643Y-14965643D02*
X7233928Y-14979929D01*
X7219643Y-14994214D01*
X7205357Y-14979929D01*
X7219643Y-14965643D01*
X7219643Y-14994214D01*
X7333928Y-14694214D02*
X7533928Y-14694214D01*
X7405357Y-14994214D01*
X7776786Y-14694214D02*
X7719643Y-14694214D01*
X7691071Y-14708500D01*
X7676786Y-14722786D01*
X7648214Y-14765643D01*
X7633928Y-14822786D01*
X7633928Y-14937071D01*
X7648214Y-14965643D01*
X7662500Y-14979929D01*
X7691071Y-14994214D01*
X7748214Y-14994214D01*
X7776786Y-14979929D01*
X7791071Y-14965643D01*
X7805357Y-14937071D01*
X7805357Y-14865643D01*
X7791071Y-14837071D01*
X7776786Y-14822786D01*
X7748214Y-14808500D01*
X7691071Y-14808500D01*
X7662500Y-14822786D01*
X7648214Y-14837071D01*
X7633928Y-14865643D01*
X7919643Y-14722786D02*
X7933928Y-14708500D01*
X7962500Y-14694214D01*
X8033928Y-14694214D01*
X8062500Y-14708500D01*
X8076786Y-14722786D01*
X8091071Y-14751357D01*
X8091071Y-14779929D01*
X8076786Y-14822786D01*
X7905357Y-14994214D01*
X8091071Y-14994214D01*
X8219643Y-14994214D02*
X8219643Y-14794214D01*
X8219643Y-14822786D02*
X8233928Y-14808500D01*
X8262500Y-14794214D01*
X8305357Y-14794214D01*
X8333928Y-14808500D01*
X8348214Y-14837071D01*
X8348214Y-14994214D01*
X8348214Y-14837071D02*
X8362500Y-14808500D01*
X8391071Y-14794214D01*
X8433929Y-14794214D01*
X8462500Y-14808500D01*
X8476786Y-14837071D01*
X8476786Y-14994214D01*
X8619643Y-14994214D02*
X8619643Y-14794214D01*
X8619643Y-14822786D02*
X8633929Y-14808500D01*
X8662500Y-14794214D01*
X8705357Y-14794214D01*
X8733929Y-14808500D01*
X8748214Y-14837071D01*
X8748214Y-14994214D01*
X8748214Y-14837071D02*
X8762500Y-14808500D01*
X8791071Y-14794214D01*
X8833929Y-14794214D01*
X8862500Y-14808500D01*
X8876786Y-14837071D01*
X8876786Y-14994214D01*
X9462500Y-14679929D02*
X9205357Y-15065643D01*
X9848214Y-14694214D02*
X9876786Y-14694214D01*
X9905357Y-14708500D01*
X9919643Y-14722786D01*
X9933929Y-14751357D01*
X9948214Y-14808500D01*
X9948214Y-14879929D01*
X9933929Y-14937071D01*
X9919643Y-14965643D01*
X9905357Y-14979929D01*
X9876786Y-14994214D01*
X9848214Y-14994214D01*
X9819643Y-14979929D01*
X9805357Y-14965643D01*
X9791071Y-14937071D01*
X9776786Y-14879929D01*
X9776786Y-14808500D01*
X9791071Y-14751357D01*
X9805357Y-14722786D01*
X9819643Y-14708500D01*
X9848214Y-14694214D01*
X10076786Y-14965643D02*
X10091071Y-14979929D01*
X10076786Y-14994214D01*
X10062500Y-14979929D01*
X10076786Y-14965643D01*
X10076786Y-14994214D01*
X10276786Y-14694214D02*
X10305357Y-14694214D01*
X10333929Y-14708500D01*
X10348214Y-14722786D01*
X10362500Y-14751357D01*
X10376786Y-14808500D01*
X10376786Y-14879929D01*
X10362500Y-14937071D01*
X10348214Y-14965643D01*
X10333929Y-14979929D01*
X10305357Y-14994214D01*
X10276786Y-14994214D01*
X10248214Y-14979929D01*
X10233929Y-14965643D01*
X10219643Y-14937071D01*
X10205357Y-14879929D01*
X10205357Y-14808500D01*
X10219643Y-14751357D01*
X10233929Y-14722786D01*
X10248214Y-14708500D01*
X10276786Y-14694214D01*
X10476786Y-14694214D02*
X10662500Y-14694214D01*
X10562500Y-14808500D01*
X10605357Y-14808500D01*
X10633929Y-14822786D01*
X10648214Y-14837071D01*
X10662500Y-14865643D01*
X10662500Y-14937071D01*
X10648214Y-14965643D01*
X10633929Y-14979929D01*
X10605357Y-14994214D01*
X10519643Y-14994214D01*
X10491071Y-14979929D01*
X10476786Y-14965643D01*
X10848214Y-14694214D02*
X10876786Y-14694214D01*
X10905357Y-14708500D01*
X10919643Y-14722786D01*
X10933929Y-14751357D01*
X10948214Y-14808500D01*
X10948214Y-14879929D01*
X10933929Y-14937071D01*
X10919643Y-14965643D01*
X10905357Y-14979929D01*
X10876786Y-14994214D01*
X10848214Y-14994214D01*
X10819643Y-14979929D01*
X10805357Y-14965643D01*
X10791071Y-14937071D01*
X10776786Y-14879929D01*
X10776786Y-14808500D01*
X10791071Y-14751357D01*
X10805357Y-14722786D01*
X10819643Y-14708500D01*
X10848214Y-14694214D01*
X11133929Y-14694214D02*
X11162500Y-14694214D01*
X11191071Y-14708500D01*
X11205357Y-14722786D01*
X11219643Y-14751357D01*
X11233928Y-14808500D01*
X11233928Y-14879929D01*
X11219643Y-14937071D01*
X11205357Y-14965643D01*
X11191071Y-14979929D01*
X11162500Y-14994214D01*
X11133929Y-14994214D01*
X11105357Y-14979929D01*
X11091071Y-14965643D01*
X11076786Y-14937071D01*
X11062500Y-14879929D01*
X11062500Y-14808500D01*
X11076786Y-14751357D01*
X11091071Y-14722786D01*
X11105357Y-14708500D01*
X11133929Y-14694214D01*
X11348214Y-14694214D02*
X11348214Y-14751357D01*
X11462500Y-14694214D02*
X11462500Y-14751357D01*
X11905357Y-15108500D02*
X11891071Y-15094214D01*
X11862500Y-15051357D01*
X11848214Y-15022786D01*
X11833928Y-14979929D01*
X11819643Y-14908500D01*
X11819643Y-14851357D01*
X11833928Y-14779929D01*
X11848214Y-14737071D01*
X11862500Y-14708500D01*
X11891071Y-14665643D01*
X11905357Y-14651357D01*
X12005357Y-14722786D02*
X12019643Y-14708500D01*
X12048214Y-14694214D01*
X12119643Y-14694214D01*
X12148214Y-14708500D01*
X12162500Y-14722786D01*
X12176786Y-14751357D01*
X12176786Y-14779929D01*
X12162500Y-14822786D01*
X11991071Y-14994214D01*
X12176786Y-14994214D01*
X12533928Y-14994214D02*
X12533928Y-14694214D01*
X12662500Y-14994214D02*
X12662500Y-14837071D01*
X12648214Y-14808500D01*
X12619643Y-14794214D01*
X12576786Y-14794214D01*
X12548214Y-14808500D01*
X12533928Y-14822786D01*
X12848214Y-14994214D02*
X12819643Y-14979929D01*
X12805357Y-14965643D01*
X12791071Y-14937071D01*
X12791071Y-14851357D01*
X12805357Y-14822786D01*
X12819643Y-14808500D01*
X12848214Y-14794214D01*
X12891071Y-14794214D01*
X12919643Y-14808500D01*
X12933928Y-14822786D01*
X12948214Y-14851357D01*
X12948214Y-14937071D01*
X12933928Y-14965643D01*
X12919643Y-14979929D01*
X12891071Y-14994214D01*
X12848214Y-14994214D01*
X13119643Y-14994214D02*
X13091071Y-14979929D01*
X13076786Y-14951357D01*
X13076786Y-14694214D01*
X13348214Y-14979929D02*
X13319643Y-14994214D01*
X13262500Y-14994214D01*
X13233928Y-14979929D01*
X13219643Y-14951357D01*
X13219643Y-14837071D01*
X13233928Y-14808500D01*
X13262500Y-14794214D01*
X13319643Y-14794214D01*
X13348214Y-14808500D01*
X13362500Y-14837071D01*
X13362500Y-14865643D01*
X13219643Y-14894214D01*
X13476786Y-14979929D02*
X13505357Y-14994214D01*
X13562500Y-14994214D01*
X13591071Y-14979929D01*
X13605357Y-14951357D01*
X13605357Y-14937071D01*
X13591071Y-14908500D01*
X13562500Y-14894214D01*
X13519643Y-14894214D01*
X13491071Y-14879929D01*
X13476786Y-14851357D01*
X13476786Y-14837071D01*
X13491071Y-14808500D01*
X13519643Y-14794214D01*
X13562500Y-14794214D01*
X13591071Y-14808500D01*
X13705357Y-15108500D02*
X13719643Y-15094214D01*
X13748214Y-15051357D01*
X13762500Y-15022786D01*
X13776786Y-14979929D01*
X13791071Y-14908500D01*
X13791071Y-14851357D01*
X13776786Y-14779929D01*
X13762500Y-14737071D01*
X13748214Y-14708500D01*
X13719643Y-14665643D01*
X13705357Y-14651357D01*
X6607500Y-15214500D02*
X6607500Y-15294500D01*
X6567500Y-15254500D02*
X6647500Y-15254500D01*
X6991071Y-15090214D02*
X7019643Y-15090214D01*
X7048214Y-15104500D01*
X7062500Y-15118786D01*
X7076786Y-15147357D01*
X7091071Y-15204500D01*
X7091071Y-15275929D01*
X7076786Y-15333071D01*
X7062500Y-15361643D01*
X7048214Y-15375929D01*
X7019643Y-15390214D01*
X6991071Y-15390214D01*
X6962500Y-15375929D01*
X6948214Y-15361643D01*
X6933928Y-15333071D01*
X6919643Y-15275929D01*
X6919643Y-15204500D01*
X6933928Y-15147357D01*
X6948214Y-15118786D01*
X6962500Y-15104500D01*
X6991071Y-15090214D01*
X7219643Y-15361643D02*
X7233928Y-15375929D01*
X7219643Y-15390214D01*
X7205357Y-15375929D01*
X7219643Y-15361643D01*
X7219643Y-15390214D01*
X7405357Y-15218786D02*
X7376786Y-15204500D01*
X7362500Y-15190214D01*
X7348214Y-15161643D01*
X7348214Y-15147357D01*
X7362500Y-15118786D01*
X7376786Y-15104500D01*
X7405357Y-15090214D01*
X7462500Y-15090214D01*
X7491071Y-15104500D01*
X7505357Y-15118786D01*
X7519643Y-15147357D01*
X7519643Y-15161643D01*
X7505357Y-15190214D01*
X7491071Y-15204500D01*
X7462500Y-15218786D01*
X7405357Y-15218786D01*
X7376786Y-15233071D01*
X7362500Y-15247357D01*
X7348214Y-15275929D01*
X7348214Y-15333071D01*
X7362500Y-15361643D01*
X7376786Y-15375929D01*
X7405357Y-15390214D01*
X7462500Y-15390214D01*
X7491071Y-15375929D01*
X7505357Y-15361643D01*
X7519643Y-15333071D01*
X7519643Y-15275929D01*
X7505357Y-15247357D01*
X7491071Y-15233071D01*
X7462500Y-15218786D01*
X7705357Y-15090214D02*
X7733928Y-15090214D01*
X7762500Y-15104500D01*
X7776786Y-15118786D01*
X7791071Y-15147357D01*
X7805357Y-15204500D01*
X7805357Y-15275929D01*
X7791071Y-15333071D01*
X7776786Y-15361643D01*
X7762500Y-15375929D01*
X7733928Y-15390214D01*
X7705357Y-15390214D01*
X7676786Y-15375929D01*
X7662500Y-15361643D01*
X7648214Y-15333071D01*
X7633928Y-15275929D01*
X7633928Y-15204500D01*
X7648214Y-15147357D01*
X7662500Y-15118786D01*
X7676786Y-15104500D01*
X7705357Y-15090214D01*
X7991071Y-15090214D02*
X8019643Y-15090214D01*
X8048214Y-15104500D01*
X8062500Y-15118786D01*
X8076786Y-15147357D01*
X8091071Y-15204500D01*
X8091071Y-15275929D01*
X8076786Y-15333071D01*
X8062500Y-15361643D01*
X8048214Y-15375929D01*
X8019643Y-15390214D01*
X7991071Y-15390214D01*
X7962500Y-15375929D01*
X7948214Y-15361643D01*
X7933928Y-15333071D01*
X7919643Y-15275929D01*
X7919643Y-15204500D01*
X7933928Y-15147357D01*
X7948214Y-15118786D01*
X7962500Y-15104500D01*
X7991071Y-15090214D01*
X8219643Y-15390214D02*
X8219643Y-15190214D01*
X8219643Y-15218786D02*
X8233928Y-15204500D01*
X8262500Y-15190214D01*
X8305357Y-15190214D01*
X8333928Y-15204500D01*
X8348214Y-15233071D01*
X8348214Y-15390214D01*
X8348214Y-15233071D02*
X8362500Y-15204500D01*
X8391071Y-15190214D01*
X8433929Y-15190214D01*
X8462500Y-15204500D01*
X8476786Y-15233071D01*
X8476786Y-15390214D01*
X8619643Y-15390214D02*
X8619643Y-15190214D01*
X8619643Y-15218786D02*
X8633929Y-15204500D01*
X8662500Y-15190214D01*
X8705357Y-15190214D01*
X8733929Y-15204500D01*
X8748214Y-15233071D01*
X8748214Y-15390214D01*
X8748214Y-15233071D02*
X8762500Y-15204500D01*
X8791071Y-15190214D01*
X8833929Y-15190214D01*
X8862500Y-15204500D01*
X8876786Y-15233071D01*
X8876786Y-15390214D01*
X9462500Y-15075929D02*
X9205357Y-15461643D01*
X9848214Y-15090214D02*
X9876786Y-15090214D01*
X9905357Y-15104500D01*
X9919643Y-15118786D01*
X9933929Y-15147357D01*
X9948214Y-15204500D01*
X9948214Y-15275929D01*
X9933929Y-15333071D01*
X9919643Y-15361643D01*
X9905357Y-15375929D01*
X9876786Y-15390214D01*
X9848214Y-15390214D01*
X9819643Y-15375929D01*
X9805357Y-15361643D01*
X9791071Y-15333071D01*
X9776786Y-15275929D01*
X9776786Y-15204500D01*
X9791071Y-15147357D01*
X9805357Y-15118786D01*
X9819643Y-15104500D01*
X9848214Y-15090214D01*
X10076786Y-15361643D02*
X10091071Y-15375929D01*
X10076786Y-15390214D01*
X10062500Y-15375929D01*
X10076786Y-15361643D01*
X10076786Y-15390214D01*
X10276786Y-15090214D02*
X10305357Y-15090214D01*
X10333929Y-15104500D01*
X10348214Y-15118786D01*
X10362500Y-15147357D01*
X10376786Y-15204500D01*
X10376786Y-15275929D01*
X10362500Y-15333071D01*
X10348214Y-15361643D01*
X10333929Y-15375929D01*
X10305357Y-15390214D01*
X10276786Y-15390214D01*
X10248214Y-15375929D01*
X10233929Y-15361643D01*
X10219643Y-15333071D01*
X10205357Y-15275929D01*
X10205357Y-15204500D01*
X10219643Y-15147357D01*
X10233929Y-15118786D01*
X10248214Y-15104500D01*
X10276786Y-15090214D01*
X10476786Y-15090214D02*
X10662500Y-15090214D01*
X10562500Y-15204500D01*
X10605357Y-15204500D01*
X10633929Y-15218786D01*
X10648214Y-15233071D01*
X10662500Y-15261643D01*
X10662500Y-15333071D01*
X10648214Y-15361643D01*
X10633929Y-15375929D01*
X10605357Y-15390214D01*
X10519643Y-15390214D01*
X10491071Y-15375929D01*
X10476786Y-15361643D01*
X10948214Y-15390214D02*
X10776786Y-15390214D01*
X10862500Y-15390214D02*
X10862500Y-15090214D01*
X10833929Y-15133071D01*
X10805357Y-15161643D01*
X10776786Y-15175929D01*
X11219643Y-15090214D02*
X11076786Y-15090214D01*
X11062500Y-15233071D01*
X11076786Y-15218786D01*
X11105357Y-15204500D01*
X11176786Y-15204500D01*
X11205357Y-15218786D01*
X11219643Y-15233071D01*
X11233928Y-15261643D01*
X11233928Y-15333071D01*
X11219643Y-15361643D01*
X11205357Y-15375929D01*
X11176786Y-15390214D01*
X11105357Y-15390214D01*
X11076786Y-15375929D01*
X11062500Y-15361643D01*
X11348214Y-15090214D02*
X11348214Y-15147357D01*
X11462500Y-15090214D02*
X11462500Y-15147357D01*
X11905357Y-15504500D02*
X11891071Y-15490214D01*
X11862500Y-15447357D01*
X11848214Y-15418786D01*
X11833928Y-15375929D01*
X11819643Y-15304500D01*
X11819643Y-15247357D01*
X11833928Y-15175929D01*
X11848214Y-15133071D01*
X11862500Y-15104500D01*
X11891071Y-15061643D01*
X11905357Y-15047357D01*
X12062500Y-15218786D02*
X12033928Y-15204500D01*
X12019643Y-15190214D01*
X12005357Y-15161643D01*
X12005357Y-15147357D01*
X12019643Y-15118786D01*
X12033928Y-15104500D01*
X12062500Y-15090214D01*
X12119643Y-15090214D01*
X12148214Y-15104500D01*
X12162500Y-15118786D01*
X12176786Y-15147357D01*
X12176786Y-15161643D01*
X12162500Y-15190214D01*
X12148214Y-15204500D01*
X12119643Y-15218786D01*
X12062500Y-15218786D01*
X12033928Y-15233071D01*
X12019643Y-15247357D01*
X12005357Y-15275929D01*
X12005357Y-15333071D01*
X12019643Y-15361643D01*
X12033928Y-15375929D01*
X12062500Y-15390214D01*
X12119643Y-15390214D01*
X12148214Y-15375929D01*
X12162500Y-15361643D01*
X12176786Y-15333071D01*
X12176786Y-15275929D01*
X12162500Y-15247357D01*
X12148214Y-15233071D01*
X12119643Y-15218786D01*
X12533928Y-15390214D02*
X12533928Y-15090214D01*
X12662500Y-15390214D02*
X12662500Y-15233071D01*
X12648214Y-15204500D01*
X12619643Y-15190214D01*
X12576786Y-15190214D01*
X12548214Y-15204500D01*
X12533928Y-15218786D01*
X12848214Y-15390214D02*
X12819643Y-15375929D01*
X12805357Y-15361643D01*
X12791071Y-15333071D01*
X12791071Y-15247357D01*
X12805357Y-15218786D01*
X12819643Y-15204500D01*
X12848214Y-15190214D01*
X12891071Y-15190214D01*
X12919643Y-15204500D01*
X12933928Y-15218786D01*
X12948214Y-15247357D01*
X12948214Y-15333071D01*
X12933928Y-15361643D01*
X12919643Y-15375929D01*
X12891071Y-15390214D01*
X12848214Y-15390214D01*
X13119643Y-15390214D02*
X13091071Y-15375929D01*
X13076786Y-15347357D01*
X13076786Y-15090214D01*
X13348214Y-15375929D02*
X13319643Y-15390214D01*
X13262500Y-15390214D01*
X13233928Y-15375929D01*
X13219643Y-15347357D01*
X13219643Y-15233071D01*
X13233928Y-15204500D01*
X13262500Y-15190214D01*
X13319643Y-15190214D01*
X13348214Y-15204500D01*
X13362500Y-15233071D01*
X13362500Y-15261643D01*
X13219643Y-15290214D01*
X13476786Y-15375929D02*
X13505357Y-15390214D01*
X13562500Y-15390214D01*
X13591071Y-15375929D01*
X13605357Y-15347357D01*
X13605357Y-15333071D01*
X13591071Y-15304500D01*
X13562500Y-15290214D01*
X13519643Y-15290214D01*
X13491071Y-15275929D01*
X13476786Y-15247357D01*
X13476786Y-15233071D01*
X13491071Y-15204500D01*
X13519643Y-15190214D01*
X13562500Y-15190214D01*
X13591071Y-15204500D01*
X13705357Y-15504500D02*
X13719643Y-15490214D01*
X13748214Y-15447357D01*
X13762500Y-15418786D01*
X13776786Y-15375929D01*
X13791071Y-15304500D01*
X13791071Y-15247357D01*
X13776786Y-15175929D01*
X13762500Y-15133071D01*
X13748214Y-15104500D01*
X13719643Y-15061643D01*
X13705357Y-15047357D01*
X6634320Y-15682320D02*
X6634320Y-15618680D01*
X6570680Y-15618680D01*
X6570680Y-15682320D01*
X6634320Y-15682320D01*
X6991071Y-15486214D02*
X7019643Y-15486214D01*
X7048214Y-15500500D01*
X7062500Y-15514786D01*
X7076786Y-15543357D01*
X7091071Y-15600500D01*
X7091071Y-15671929D01*
X7076786Y-15729071D01*
X7062500Y-15757643D01*
X7048214Y-15771929D01*
X7019643Y-15786214D01*
X6991071Y-15786214D01*
X6962500Y-15771929D01*
X6948214Y-15757643D01*
X6933928Y-15729071D01*
X6919643Y-15671929D01*
X6919643Y-15600500D01*
X6933928Y-15543357D01*
X6948214Y-15514786D01*
X6962500Y-15500500D01*
X6991071Y-15486214D01*
X7219643Y-15757643D02*
X7233928Y-15771929D01*
X7219643Y-15786214D01*
X7205357Y-15771929D01*
X7219643Y-15757643D01*
X7219643Y-15786214D01*
X7376786Y-15786214D02*
X7433928Y-15786214D01*
X7462500Y-15771929D01*
X7476786Y-15757643D01*
X7505357Y-15714786D01*
X7519643Y-15657643D01*
X7519643Y-15543357D01*
X7505357Y-15514786D01*
X7491071Y-15500500D01*
X7462500Y-15486214D01*
X7405357Y-15486214D01*
X7376786Y-15500500D01*
X7362500Y-15514786D01*
X7348214Y-15543357D01*
X7348214Y-15614786D01*
X7362500Y-15643357D01*
X7376786Y-15657643D01*
X7405357Y-15671929D01*
X7462500Y-15671929D01*
X7491071Y-15657643D01*
X7505357Y-15643357D01*
X7519643Y-15614786D01*
X7705357Y-15486214D02*
X7733928Y-15486214D01*
X7762500Y-15500500D01*
X7776786Y-15514786D01*
X7791071Y-15543357D01*
X7805357Y-15600500D01*
X7805357Y-15671929D01*
X7791071Y-15729071D01*
X7776786Y-15757643D01*
X7762500Y-15771929D01*
X7733928Y-15786214D01*
X7705357Y-15786214D01*
X7676786Y-15771929D01*
X7662500Y-15757643D01*
X7648214Y-15729071D01*
X7633928Y-15671929D01*
X7633928Y-15600500D01*
X7648214Y-15543357D01*
X7662500Y-15514786D01*
X7676786Y-15500500D01*
X7705357Y-15486214D01*
X7991071Y-15486214D02*
X8019643Y-15486214D01*
X8048214Y-15500500D01*
X8062500Y-15514786D01*
X8076786Y-15543357D01*
X8091071Y-15600500D01*
X8091071Y-15671929D01*
X8076786Y-15729071D01*
X8062500Y-15757643D01*
X8048214Y-15771929D01*
X8019643Y-15786214D01*
X7991071Y-15786214D01*
X7962500Y-15771929D01*
X7948214Y-15757643D01*
X7933928Y-15729071D01*
X7919643Y-15671929D01*
X7919643Y-15600500D01*
X7933928Y-15543357D01*
X7948214Y-15514786D01*
X7962500Y-15500500D01*
X7991071Y-15486214D01*
X8219643Y-15786214D02*
X8219643Y-15586214D01*
X8219643Y-15614786D02*
X8233928Y-15600500D01*
X8262500Y-15586214D01*
X8305357Y-15586214D01*
X8333928Y-15600500D01*
X8348214Y-15629071D01*
X8348214Y-15786214D01*
X8348214Y-15629071D02*
X8362500Y-15600500D01*
X8391071Y-15586214D01*
X8433929Y-15586214D01*
X8462500Y-15600500D01*
X8476786Y-15629071D01*
X8476786Y-15786214D01*
X8619643Y-15786214D02*
X8619643Y-15586214D01*
X8619643Y-15614786D02*
X8633929Y-15600500D01*
X8662500Y-15586214D01*
X8705357Y-15586214D01*
X8733929Y-15600500D01*
X8748214Y-15629071D01*
X8748214Y-15786214D01*
X8748214Y-15629071D02*
X8762500Y-15600500D01*
X8791071Y-15586214D01*
X8833929Y-15586214D01*
X8862500Y-15600500D01*
X8876786Y-15629071D01*
X8876786Y-15786214D01*
X9462500Y-15471929D02*
X9205357Y-15857643D01*
X9848214Y-15486214D02*
X9876786Y-15486214D01*
X9905357Y-15500500D01*
X9919643Y-15514786D01*
X9933929Y-15543357D01*
X9948214Y-15600500D01*
X9948214Y-15671929D01*
X9933929Y-15729071D01*
X9919643Y-15757643D01*
X9905357Y-15771929D01*
X9876786Y-15786214D01*
X9848214Y-15786214D01*
X9819643Y-15771929D01*
X9805357Y-15757643D01*
X9791071Y-15729071D01*
X9776786Y-15671929D01*
X9776786Y-15600500D01*
X9791071Y-15543357D01*
X9805357Y-15514786D01*
X9819643Y-15500500D01*
X9848214Y-15486214D01*
X10076786Y-15757643D02*
X10091071Y-15771929D01*
X10076786Y-15786214D01*
X10062500Y-15771929D01*
X10076786Y-15757643D01*
X10076786Y-15786214D01*
X10276786Y-15486214D02*
X10305357Y-15486214D01*
X10333929Y-15500500D01*
X10348214Y-15514786D01*
X10362500Y-15543357D01*
X10376786Y-15600500D01*
X10376786Y-15671929D01*
X10362500Y-15729071D01*
X10348214Y-15757643D01*
X10333929Y-15771929D01*
X10305357Y-15786214D01*
X10276786Y-15786214D01*
X10248214Y-15771929D01*
X10233929Y-15757643D01*
X10219643Y-15729071D01*
X10205357Y-15671929D01*
X10205357Y-15600500D01*
X10219643Y-15543357D01*
X10233929Y-15514786D01*
X10248214Y-15500500D01*
X10276786Y-15486214D01*
X10476786Y-15486214D02*
X10662500Y-15486214D01*
X10562500Y-15600500D01*
X10605357Y-15600500D01*
X10633929Y-15614786D01*
X10648214Y-15629071D01*
X10662500Y-15657643D01*
X10662500Y-15729071D01*
X10648214Y-15757643D01*
X10633929Y-15771929D01*
X10605357Y-15786214D01*
X10519643Y-15786214D01*
X10491071Y-15771929D01*
X10476786Y-15757643D01*
X10933929Y-15486214D02*
X10791071Y-15486214D01*
X10776786Y-15629071D01*
X10791071Y-15614786D01*
X10819643Y-15600500D01*
X10891071Y-15600500D01*
X10919643Y-15614786D01*
X10933929Y-15629071D01*
X10948214Y-15657643D01*
X10948214Y-15729071D01*
X10933929Y-15757643D01*
X10919643Y-15771929D01*
X10891071Y-15786214D01*
X10819643Y-15786214D01*
X10791071Y-15771929D01*
X10776786Y-15757643D01*
X11205357Y-15586214D02*
X11205357Y-15786214D01*
X11133929Y-15471929D02*
X11062500Y-15686214D01*
X11248214Y-15686214D01*
X11348214Y-15486214D02*
X11348214Y-15543357D01*
X11462500Y-15486214D02*
X11462500Y-15543357D01*
X11905357Y-15900500D02*
X11891071Y-15886214D01*
X11862500Y-15843357D01*
X11848214Y-15814786D01*
X11833928Y-15771929D01*
X11819643Y-15700500D01*
X11819643Y-15643357D01*
X11833928Y-15571929D01*
X11848214Y-15529071D01*
X11862500Y-15500500D01*
X11891071Y-15457643D01*
X11905357Y-15443357D01*
X12005357Y-15514786D02*
X12019643Y-15500500D01*
X12048214Y-15486214D01*
X12119643Y-15486214D01*
X12148214Y-15500500D01*
X12162500Y-15514786D01*
X12176786Y-15543357D01*
X12176786Y-15571929D01*
X12162500Y-15614786D01*
X11991071Y-15786214D01*
X12176786Y-15786214D01*
X12533928Y-15786214D02*
X12533928Y-15486214D01*
X12662500Y-15786214D02*
X12662500Y-15629071D01*
X12648214Y-15600500D01*
X12619643Y-15586214D01*
X12576786Y-15586214D01*
X12548214Y-15600500D01*
X12533928Y-15614786D01*
X12848214Y-15786214D02*
X12819643Y-15771929D01*
X12805357Y-15757643D01*
X12791071Y-15729071D01*
X12791071Y-15643357D01*
X12805357Y-15614786D01*
X12819643Y-15600500D01*
X12848214Y-15586214D01*
X12891071Y-15586214D01*
X12919643Y-15600500D01*
X12933928Y-15614786D01*
X12948214Y-15643357D01*
X12948214Y-15729071D01*
X12933928Y-15757643D01*
X12919643Y-15771929D01*
X12891071Y-15786214D01*
X12848214Y-15786214D01*
X13119643Y-15786214D02*
X13091071Y-15771929D01*
X13076786Y-15743357D01*
X13076786Y-15486214D01*
X13348214Y-15771929D02*
X13319643Y-15786214D01*
X13262500Y-15786214D01*
X13233928Y-15771929D01*
X13219643Y-15743357D01*
X13219643Y-15629071D01*
X13233928Y-15600500D01*
X13262500Y-15586214D01*
X13319643Y-15586214D01*
X13348214Y-15600500D01*
X13362500Y-15629071D01*
X13362500Y-15657643D01*
X13219643Y-15686214D01*
X13476786Y-15771929D02*
X13505357Y-15786214D01*
X13562500Y-15786214D01*
X13591071Y-15771929D01*
X13605357Y-15743357D01*
X13605357Y-15729071D01*
X13591071Y-15700500D01*
X13562500Y-15686214D01*
X13519643Y-15686214D01*
X13491071Y-15671929D01*
X13476786Y-15643357D01*
X13476786Y-15629071D01*
X13491071Y-15600500D01*
X13519643Y-15586214D01*
X13562500Y-15586214D01*
X13591071Y-15600500D01*
X13705357Y-15900500D02*
X13719643Y-15886214D01*
X13748214Y-15843357D01*
X13762500Y-15814786D01*
X13776786Y-15771929D01*
X13791071Y-15700500D01*
X13791071Y-15643357D01*
X13776786Y-15571929D01*
X13762500Y-15529071D01*
X13748214Y-15500500D01*
X13719643Y-15457643D01*
X13705357Y-15443357D01*
X6597500Y-16096500D02*
X6647500Y-16046500D01*
X6597500Y-15996500D01*
X6547500Y-16046500D01*
X6597500Y-16096500D01*
X7091071Y-16182214D02*
X6919643Y-16182214D01*
X7005357Y-16182214D02*
X7005357Y-15882214D01*
X6976786Y-15925071D01*
X6948214Y-15953643D01*
X6919643Y-15967929D01*
X7219643Y-16153643D02*
X7233928Y-16167929D01*
X7219643Y-16182214D01*
X7205357Y-16167929D01*
X7219643Y-16153643D01*
X7219643Y-16182214D01*
X7419643Y-15882214D02*
X7448214Y-15882214D01*
X7476786Y-15896500D01*
X7491071Y-15910786D01*
X7505357Y-15939357D01*
X7519643Y-15996500D01*
X7519643Y-16067929D01*
X7505357Y-16125071D01*
X7491071Y-16153643D01*
X7476786Y-16167929D01*
X7448214Y-16182214D01*
X7419643Y-16182214D01*
X7391071Y-16167929D01*
X7376786Y-16153643D01*
X7362500Y-16125071D01*
X7348214Y-16067929D01*
X7348214Y-15996500D01*
X7362500Y-15939357D01*
X7376786Y-15910786D01*
X7391071Y-15896500D01*
X7419643Y-15882214D01*
X7705357Y-15882214D02*
X7733928Y-15882214D01*
X7762500Y-15896500D01*
X7776786Y-15910786D01*
X7791071Y-15939357D01*
X7805357Y-15996500D01*
X7805357Y-16067929D01*
X7791071Y-16125071D01*
X7776786Y-16153643D01*
X7762500Y-16167929D01*
X7733928Y-16182214D01*
X7705357Y-16182214D01*
X7676786Y-16167929D01*
X7662500Y-16153643D01*
X7648214Y-16125071D01*
X7633928Y-16067929D01*
X7633928Y-15996500D01*
X7648214Y-15939357D01*
X7662500Y-15910786D01*
X7676786Y-15896500D01*
X7705357Y-15882214D01*
X7991071Y-15882214D02*
X8019643Y-15882214D01*
X8048214Y-15896500D01*
X8062500Y-15910786D01*
X8076786Y-15939357D01*
X8091071Y-15996500D01*
X8091071Y-16067929D01*
X8076786Y-16125071D01*
X8062500Y-16153643D01*
X8048214Y-16167929D01*
X8019643Y-16182214D01*
X7991071Y-16182214D01*
X7962500Y-16167929D01*
X7948214Y-16153643D01*
X7933928Y-16125071D01*
X7919643Y-16067929D01*
X7919643Y-15996500D01*
X7933928Y-15939357D01*
X7948214Y-15910786D01*
X7962500Y-15896500D01*
X7991071Y-15882214D01*
X8219643Y-16182214D02*
X8219643Y-15982214D01*
X8219643Y-16010786D02*
X8233928Y-15996500D01*
X8262500Y-15982214D01*
X8305357Y-15982214D01*
X8333928Y-15996500D01*
X8348214Y-16025071D01*
X8348214Y-16182214D01*
X8348214Y-16025071D02*
X8362500Y-15996500D01*
X8391071Y-15982214D01*
X8433929Y-15982214D01*
X8462500Y-15996500D01*
X8476786Y-16025071D01*
X8476786Y-16182214D01*
X8619643Y-16182214D02*
X8619643Y-15982214D01*
X8619643Y-16010786D02*
X8633929Y-15996500D01*
X8662500Y-15982214D01*
X8705357Y-15982214D01*
X8733929Y-15996500D01*
X8748214Y-16025071D01*
X8748214Y-16182214D01*
X8748214Y-16025071D02*
X8762500Y-15996500D01*
X8791071Y-15982214D01*
X8833929Y-15982214D01*
X8862500Y-15996500D01*
X8876786Y-16025071D01*
X8876786Y-16182214D01*
X9462500Y-15867929D02*
X9205357Y-16253643D01*
X9848214Y-15882214D02*
X9876786Y-15882214D01*
X9905357Y-15896500D01*
X9919643Y-15910786D01*
X9933929Y-15939357D01*
X9948214Y-15996500D01*
X9948214Y-16067929D01*
X9933929Y-16125071D01*
X9919643Y-16153643D01*
X9905357Y-16167929D01*
X9876786Y-16182214D01*
X9848214Y-16182214D01*
X9819643Y-16167929D01*
X9805357Y-16153643D01*
X9791071Y-16125071D01*
X9776786Y-16067929D01*
X9776786Y-15996500D01*
X9791071Y-15939357D01*
X9805357Y-15910786D01*
X9819643Y-15896500D01*
X9848214Y-15882214D01*
X10076786Y-16153643D02*
X10091071Y-16167929D01*
X10076786Y-16182214D01*
X10062500Y-16167929D01*
X10076786Y-16153643D01*
X10076786Y-16182214D01*
X10276786Y-15882214D02*
X10305357Y-15882214D01*
X10333929Y-15896500D01*
X10348214Y-15910786D01*
X10362500Y-15939357D01*
X10376786Y-15996500D01*
X10376786Y-16067929D01*
X10362500Y-16125071D01*
X10348214Y-16153643D01*
X10333929Y-16167929D01*
X10305357Y-16182214D01*
X10276786Y-16182214D01*
X10248214Y-16167929D01*
X10233929Y-16153643D01*
X10219643Y-16125071D01*
X10205357Y-16067929D01*
X10205357Y-15996500D01*
X10219643Y-15939357D01*
X10233929Y-15910786D01*
X10248214Y-15896500D01*
X10276786Y-15882214D01*
X10476786Y-15882214D02*
X10662500Y-15882214D01*
X10562500Y-15996500D01*
X10605357Y-15996500D01*
X10633929Y-16010786D01*
X10648214Y-16025071D01*
X10662500Y-16053643D01*
X10662500Y-16125071D01*
X10648214Y-16153643D01*
X10633929Y-16167929D01*
X10605357Y-16182214D01*
X10519643Y-16182214D01*
X10491071Y-16167929D01*
X10476786Y-16153643D01*
X10805357Y-16182214D02*
X10862500Y-16182214D01*
X10891071Y-16167929D01*
X10905357Y-16153643D01*
X10933929Y-16110786D01*
X10948214Y-16053643D01*
X10948214Y-15939357D01*
X10933929Y-15910786D01*
X10919643Y-15896500D01*
X10891071Y-15882214D01*
X10833929Y-15882214D01*
X10805357Y-15896500D01*
X10791071Y-15910786D01*
X10776786Y-15939357D01*
X10776786Y-16010786D01*
X10791071Y-16039357D01*
X10805357Y-16053643D01*
X10833929Y-16067929D01*
X10891071Y-16067929D01*
X10919643Y-16053643D01*
X10933929Y-16039357D01*
X10948214Y-16010786D01*
X11205357Y-15982214D02*
X11205357Y-16182214D01*
X11133929Y-15867929D02*
X11062500Y-16082214D01*
X11248214Y-16082214D01*
X11348214Y-15882214D02*
X11348214Y-15939357D01*
X11462500Y-15882214D02*
X11462500Y-15939357D01*
X11905357Y-16296500D02*
X11891071Y-16282214D01*
X11862500Y-16239357D01*
X11848214Y-16210786D01*
X11833928Y-16167929D01*
X11819643Y-16096500D01*
X11819643Y-16039357D01*
X11833928Y-15967929D01*
X11848214Y-15925071D01*
X11862500Y-15896500D01*
X11891071Y-15853643D01*
X11905357Y-15839357D01*
X11991071Y-15882214D02*
X12176786Y-15882214D01*
X12076786Y-15996500D01*
X12119643Y-15996500D01*
X12148214Y-16010786D01*
X12162500Y-16025071D01*
X12176786Y-16053643D01*
X12176786Y-16125071D01*
X12162500Y-16153643D01*
X12148214Y-16167929D01*
X12119643Y-16182214D01*
X12033928Y-16182214D01*
X12005357Y-16167929D01*
X11991071Y-16153643D01*
X12433928Y-15982214D02*
X12433928Y-16182214D01*
X12362500Y-15867929D02*
X12291071Y-16082214D01*
X12476786Y-16082214D01*
X12819643Y-16182214D02*
X12819643Y-15882214D01*
X12948214Y-16182214D02*
X12948214Y-16025071D01*
X12933928Y-15996500D01*
X12905357Y-15982214D01*
X12862500Y-15982214D01*
X12833928Y-15996500D01*
X12819643Y-16010786D01*
X13133928Y-16182214D02*
X13105357Y-16167929D01*
X13091071Y-16153643D01*
X13076786Y-16125071D01*
X13076786Y-16039357D01*
X13091071Y-16010786D01*
X13105357Y-15996500D01*
X13133928Y-15982214D01*
X13176786Y-15982214D01*
X13205357Y-15996500D01*
X13219643Y-16010786D01*
X13233928Y-16039357D01*
X13233928Y-16125071D01*
X13219643Y-16153643D01*
X13205357Y-16167929D01*
X13176786Y-16182214D01*
X13133928Y-16182214D01*
X13405357Y-16182214D02*
X13376786Y-16167929D01*
X13362500Y-16139357D01*
X13362500Y-15882214D01*
X13633928Y-16167929D02*
X13605357Y-16182214D01*
X13548214Y-16182214D01*
X13519643Y-16167929D01*
X13505357Y-16139357D01*
X13505357Y-16025071D01*
X13519643Y-15996500D01*
X13548214Y-15982214D01*
X13605357Y-15982214D01*
X13633928Y-15996500D01*
X13648214Y-16025071D01*
X13648214Y-16053643D01*
X13505357Y-16082214D01*
X13762500Y-16167929D02*
X13791071Y-16182214D01*
X13848214Y-16182214D01*
X13876786Y-16167929D01*
X13891071Y-16139357D01*
X13891071Y-16125071D01*
X13876786Y-16096500D01*
X13848214Y-16082214D01*
X13805357Y-16082214D01*
X13776786Y-16067929D01*
X13762500Y-16039357D01*
X13762500Y-16025071D01*
X13776786Y-15996500D01*
X13805357Y-15982214D01*
X13848214Y-15982214D01*
X13876786Y-15996500D01*
X13991071Y-16296500D02*
X14005357Y-16282214D01*
X14033928Y-16239357D01*
X14048214Y-16210786D01*
X14062500Y-16167929D01*
X14076786Y-16096500D01*
X14076786Y-16039357D01*
X14062500Y-15967929D01*
X14048214Y-15925071D01*
X14033928Y-15896500D01*
X14005357Y-15853643D01*
X13991071Y-15839357D01*
X6447500Y-16342500D02*
X6647500Y-16542500D01*
X6647500Y-16342500D02*
X6447500Y-16542500D01*
X6647500Y-16442500D02*
G75*
G03*
X6647500Y-16442500I-100000J0D01*
G01*
X6919643Y-16306786D02*
X6933928Y-16292500D01*
X6962500Y-16278214D01*
X7033928Y-16278214D01*
X7062500Y-16292500D01*
X7076786Y-16306786D01*
X7091071Y-16335357D01*
X7091071Y-16363929D01*
X7076786Y-16406786D01*
X6905357Y-16578214D01*
X7091071Y-16578214D01*
X7219643Y-16549643D02*
X7233928Y-16563929D01*
X7219643Y-16578214D01*
X7205357Y-16563929D01*
X7219643Y-16549643D01*
X7219643Y-16578214D01*
X7419643Y-16278214D02*
X7448214Y-16278214D01*
X7476786Y-16292500D01*
X7491071Y-16306786D01*
X7505357Y-16335357D01*
X7519643Y-16392500D01*
X7519643Y-16463929D01*
X7505357Y-16521071D01*
X7491071Y-16549643D01*
X7476786Y-16563929D01*
X7448214Y-16578214D01*
X7419643Y-16578214D01*
X7391071Y-16563929D01*
X7376786Y-16549643D01*
X7362500Y-16521071D01*
X7348214Y-16463929D01*
X7348214Y-16392500D01*
X7362500Y-16335357D01*
X7376786Y-16306786D01*
X7391071Y-16292500D01*
X7419643Y-16278214D01*
X7705357Y-16278214D02*
X7733928Y-16278214D01*
X7762500Y-16292500D01*
X7776786Y-16306786D01*
X7791071Y-16335357D01*
X7805357Y-16392500D01*
X7805357Y-16463929D01*
X7791071Y-16521071D01*
X7776786Y-16549643D01*
X7762500Y-16563929D01*
X7733928Y-16578214D01*
X7705357Y-16578214D01*
X7676786Y-16563929D01*
X7662500Y-16549643D01*
X7648214Y-16521071D01*
X7633928Y-16463929D01*
X7633928Y-16392500D01*
X7648214Y-16335357D01*
X7662500Y-16306786D01*
X7676786Y-16292500D01*
X7705357Y-16278214D01*
X7991071Y-16278214D02*
X8019643Y-16278214D01*
X8048214Y-16292500D01*
X8062500Y-16306786D01*
X8076786Y-16335357D01*
X8091071Y-16392500D01*
X8091071Y-16463929D01*
X8076786Y-16521071D01*
X8062500Y-16549643D01*
X8048214Y-16563929D01*
X8019643Y-16578214D01*
X7991071Y-16578214D01*
X7962500Y-16563929D01*
X7948214Y-16549643D01*
X7933928Y-16521071D01*
X7919643Y-16463929D01*
X7919643Y-16392500D01*
X7933928Y-16335357D01*
X7948214Y-16306786D01*
X7962500Y-16292500D01*
X7991071Y-16278214D01*
X8219643Y-16578214D02*
X8219643Y-16378214D01*
X8219643Y-16406786D02*
X8233928Y-16392500D01*
X8262500Y-16378214D01*
X8305357Y-16378214D01*
X8333928Y-16392500D01*
X8348214Y-16421071D01*
X8348214Y-16578214D01*
X8348214Y-16421071D02*
X8362500Y-16392500D01*
X8391071Y-16378214D01*
X8433929Y-16378214D01*
X8462500Y-16392500D01*
X8476786Y-16421071D01*
X8476786Y-16578214D01*
X8619643Y-16578214D02*
X8619643Y-16378214D01*
X8619643Y-16406786D02*
X8633929Y-16392500D01*
X8662500Y-16378214D01*
X8705357Y-16378214D01*
X8733929Y-16392500D01*
X8748214Y-16421071D01*
X8748214Y-16578214D01*
X8748214Y-16421071D02*
X8762500Y-16392500D01*
X8791071Y-16378214D01*
X8833929Y-16378214D01*
X8862500Y-16392500D01*
X8876786Y-16421071D01*
X8876786Y-16578214D01*
X9462500Y-16263929D02*
X9205357Y-16649643D01*
X9848214Y-16278214D02*
X9876786Y-16278214D01*
X9905357Y-16292500D01*
X9919643Y-16306786D01*
X9933929Y-16335357D01*
X9948214Y-16392500D01*
X9948214Y-16463929D01*
X9933929Y-16521071D01*
X9919643Y-16549643D01*
X9905357Y-16563929D01*
X9876786Y-16578214D01*
X9848214Y-16578214D01*
X9819643Y-16563929D01*
X9805357Y-16549643D01*
X9791071Y-16521071D01*
X9776786Y-16463929D01*
X9776786Y-16392500D01*
X9791071Y-16335357D01*
X9805357Y-16306786D01*
X9819643Y-16292500D01*
X9848214Y-16278214D01*
X10076786Y-16549643D02*
X10091071Y-16563929D01*
X10076786Y-16578214D01*
X10062500Y-16563929D01*
X10076786Y-16549643D01*
X10076786Y-16578214D01*
X10276786Y-16278214D02*
X10305357Y-16278214D01*
X10333929Y-16292500D01*
X10348214Y-16306786D01*
X10362500Y-16335357D01*
X10376786Y-16392500D01*
X10376786Y-16463929D01*
X10362500Y-16521071D01*
X10348214Y-16549643D01*
X10333929Y-16563929D01*
X10305357Y-16578214D01*
X10276786Y-16578214D01*
X10248214Y-16563929D01*
X10233929Y-16549643D01*
X10219643Y-16521071D01*
X10205357Y-16463929D01*
X10205357Y-16392500D01*
X10219643Y-16335357D01*
X10233929Y-16306786D01*
X10248214Y-16292500D01*
X10276786Y-16278214D01*
X10476786Y-16278214D02*
X10676786Y-16278214D01*
X10548214Y-16578214D01*
X10833929Y-16406786D02*
X10805357Y-16392500D01*
X10791071Y-16378214D01*
X10776786Y-16349643D01*
X10776786Y-16335357D01*
X10791071Y-16306786D01*
X10805357Y-16292500D01*
X10833929Y-16278214D01*
X10891071Y-16278214D01*
X10919643Y-16292500D01*
X10933929Y-16306786D01*
X10948214Y-16335357D01*
X10948214Y-16349643D01*
X10933929Y-16378214D01*
X10919643Y-16392500D01*
X10891071Y-16406786D01*
X10833929Y-16406786D01*
X10805357Y-16421071D01*
X10791071Y-16435357D01*
X10776786Y-16463929D01*
X10776786Y-16521071D01*
X10791071Y-16549643D01*
X10805357Y-16563929D01*
X10833929Y-16578214D01*
X10891071Y-16578214D01*
X10919643Y-16563929D01*
X10933929Y-16549643D01*
X10948214Y-16521071D01*
X10948214Y-16463929D01*
X10933929Y-16435357D01*
X10919643Y-16421071D01*
X10891071Y-16406786D01*
X11048214Y-16278214D02*
X11248214Y-16278214D01*
X11119643Y-16578214D01*
X11348214Y-16278214D02*
X11348214Y-16335357D01*
X11462500Y-16278214D02*
X11462500Y-16335357D01*
X11905357Y-16692500D02*
X11891071Y-16678214D01*
X11862500Y-16635357D01*
X11848214Y-16606786D01*
X11833928Y-16563929D01*
X11819643Y-16492500D01*
X11819643Y-16435357D01*
X11833928Y-16363929D01*
X11848214Y-16321071D01*
X11862500Y-16292500D01*
X11891071Y-16249643D01*
X11905357Y-16235357D01*
X12148214Y-16378214D02*
X12148214Y-16578214D01*
X12076786Y-16263929D02*
X12005357Y-16478214D01*
X12191071Y-16478214D01*
X12533928Y-16578214D02*
X12533928Y-16278214D01*
X12662500Y-16578214D02*
X12662500Y-16421071D01*
X12648214Y-16392500D01*
X12619643Y-16378214D01*
X12576786Y-16378214D01*
X12548214Y-16392500D01*
X12533928Y-16406786D01*
X12848214Y-16578214D02*
X12819643Y-16563929D01*
X12805357Y-16549643D01*
X12791071Y-16521071D01*
X12791071Y-16435357D01*
X12805357Y-16406786D01*
X12819643Y-16392500D01*
X12848214Y-16378214D01*
X12891071Y-16378214D01*
X12919643Y-16392500D01*
X12933928Y-16406786D01*
X12948214Y-16435357D01*
X12948214Y-16521071D01*
X12933928Y-16549643D01*
X12919643Y-16563929D01*
X12891071Y-16578214D01*
X12848214Y-16578214D01*
X13119643Y-16578214D02*
X13091071Y-16563929D01*
X13076786Y-16535357D01*
X13076786Y-16278214D01*
X13348214Y-16563929D02*
X13319643Y-16578214D01*
X13262500Y-16578214D01*
X13233928Y-16563929D01*
X13219643Y-16535357D01*
X13219643Y-16421071D01*
X13233928Y-16392500D01*
X13262500Y-16378214D01*
X13319643Y-16378214D01*
X13348214Y-16392500D01*
X13362500Y-16421071D01*
X13362500Y-16449643D01*
X13219643Y-16478214D01*
X13476786Y-16563929D02*
X13505357Y-16578214D01*
X13562500Y-16578214D01*
X13591071Y-16563929D01*
X13605357Y-16535357D01*
X13605357Y-16521071D01*
X13591071Y-16492500D01*
X13562500Y-16478214D01*
X13519643Y-16478214D01*
X13491071Y-16463929D01*
X13476786Y-16435357D01*
X13476786Y-16421071D01*
X13491071Y-16392500D01*
X13519643Y-16378214D01*
X13562500Y-16378214D01*
X13591071Y-16392500D01*
X13705357Y-16692500D02*
X13719643Y-16678214D01*
X13748214Y-16635357D01*
X13762500Y-16606786D01*
X13776786Y-16563929D01*
X13791071Y-16492500D01*
X13791071Y-16435357D01*
X13776786Y-16363929D01*
X13762500Y-16321071D01*
X13748214Y-16292500D01*
X13719643Y-16249643D01*
X13705357Y-16235357D01*
X6327500Y-16678500D02*
X6647500Y-16998500D01*
X6647500Y-16678500D02*
X6327500Y-16998500D01*
X6487500Y-16678500D02*
X6487500Y-16998500D01*
X6327500Y-16838500D02*
X6647500Y-16838500D01*
X6905357Y-16674214D02*
X7091071Y-16674214D01*
X6991071Y-16788500D01*
X7033928Y-16788500D01*
X7062500Y-16802786D01*
X7076786Y-16817072D01*
X7091071Y-16845643D01*
X7091071Y-16917072D01*
X7076786Y-16945643D01*
X7062500Y-16959929D01*
X7033928Y-16974214D01*
X6948214Y-16974214D01*
X6919643Y-16959929D01*
X6905357Y-16945643D01*
X7219643Y-16945643D02*
X7233928Y-16959929D01*
X7219643Y-16974214D01*
X7205357Y-16959929D01*
X7219643Y-16945643D01*
X7219643Y-16974214D01*
X7348214Y-16702786D02*
X7362500Y-16688500D01*
X7391071Y-16674214D01*
X7462500Y-16674214D01*
X7491071Y-16688500D01*
X7505357Y-16702786D01*
X7519643Y-16731357D01*
X7519643Y-16759929D01*
X7505357Y-16802786D01*
X7333928Y-16974214D01*
X7519643Y-16974214D01*
X7705357Y-16674214D02*
X7733928Y-16674214D01*
X7762500Y-16688500D01*
X7776786Y-16702786D01*
X7791071Y-16731357D01*
X7805357Y-16788500D01*
X7805357Y-16859929D01*
X7791071Y-16917072D01*
X7776786Y-16945643D01*
X7762500Y-16959929D01*
X7733928Y-16974214D01*
X7705357Y-16974214D01*
X7676786Y-16959929D01*
X7662500Y-16945643D01*
X7648214Y-16917072D01*
X7633928Y-16859929D01*
X7633928Y-16788500D01*
X7648214Y-16731357D01*
X7662500Y-16702786D01*
X7676786Y-16688500D01*
X7705357Y-16674214D01*
X7991071Y-16674214D02*
X8019643Y-16674214D01*
X8048214Y-16688500D01*
X8062500Y-16702786D01*
X8076786Y-16731357D01*
X8091071Y-16788500D01*
X8091071Y-16859929D01*
X8076786Y-16917072D01*
X8062500Y-16945643D01*
X8048214Y-16959929D01*
X8019643Y-16974214D01*
X7991071Y-16974214D01*
X7962500Y-16959929D01*
X7948214Y-16945643D01*
X7933928Y-16917072D01*
X7919643Y-16859929D01*
X7919643Y-16788500D01*
X7933928Y-16731357D01*
X7948214Y-16702786D01*
X7962500Y-16688500D01*
X7991071Y-16674214D01*
X8219643Y-16974214D02*
X8219643Y-16774214D01*
X8219643Y-16802786D02*
X8233928Y-16788500D01*
X8262500Y-16774214D01*
X8305357Y-16774214D01*
X8333928Y-16788500D01*
X8348214Y-16817072D01*
X8348214Y-16974214D01*
X8348214Y-16817072D02*
X8362500Y-16788500D01*
X8391071Y-16774214D01*
X8433929Y-16774214D01*
X8462500Y-16788500D01*
X8476786Y-16817072D01*
X8476786Y-16974214D01*
X8619643Y-16974214D02*
X8619643Y-16774214D01*
X8619643Y-16802786D02*
X8633929Y-16788500D01*
X8662500Y-16774214D01*
X8705357Y-16774214D01*
X8733929Y-16788500D01*
X8748214Y-16817072D01*
X8748214Y-16974214D01*
X8748214Y-16817072D02*
X8762500Y-16788500D01*
X8791071Y-16774214D01*
X8833929Y-16774214D01*
X8862500Y-16788500D01*
X8876786Y-16817072D01*
X8876786Y-16974214D01*
X9462500Y-16659929D02*
X9205357Y-17045643D01*
X9848214Y-16674214D02*
X9876786Y-16674214D01*
X9905357Y-16688500D01*
X9919643Y-16702786D01*
X9933929Y-16731357D01*
X9948214Y-16788500D01*
X9948214Y-16859929D01*
X9933929Y-16917072D01*
X9919643Y-16945643D01*
X9905357Y-16959929D01*
X9876786Y-16974214D01*
X9848214Y-16974214D01*
X9819643Y-16959929D01*
X9805357Y-16945643D01*
X9791071Y-16917072D01*
X9776786Y-16859929D01*
X9776786Y-16788500D01*
X9791071Y-16731357D01*
X9805357Y-16702786D01*
X9819643Y-16688500D01*
X9848214Y-16674214D01*
X10076786Y-16945643D02*
X10091071Y-16959929D01*
X10076786Y-16974214D01*
X10062500Y-16959929D01*
X10076786Y-16945643D01*
X10076786Y-16974214D01*
X10376786Y-16974214D02*
X10205357Y-16974214D01*
X10291071Y-16974214D02*
X10291071Y-16674214D01*
X10262500Y-16717071D01*
X10233929Y-16745643D01*
X10205357Y-16759929D01*
X10491071Y-16702786D02*
X10505357Y-16688500D01*
X10533929Y-16674214D01*
X10605357Y-16674214D01*
X10633929Y-16688500D01*
X10648214Y-16702786D01*
X10662500Y-16731357D01*
X10662500Y-16759929D01*
X10648214Y-16802786D01*
X10476786Y-16974214D01*
X10662500Y-16974214D01*
X10919643Y-16674214D02*
X10862500Y-16674214D01*
X10833929Y-16688500D01*
X10819643Y-16702786D01*
X10791071Y-16745643D01*
X10776786Y-16802786D01*
X10776786Y-16917072D01*
X10791071Y-16945643D01*
X10805357Y-16959929D01*
X10833929Y-16974214D01*
X10891071Y-16974214D01*
X10919643Y-16959929D01*
X10933929Y-16945643D01*
X10948214Y-16917072D01*
X10948214Y-16845643D01*
X10933929Y-16817072D01*
X10919643Y-16802786D01*
X10891071Y-16788500D01*
X10833929Y-16788500D01*
X10805357Y-16802786D01*
X10791071Y-16817072D01*
X10776786Y-16845643D01*
X11133929Y-16674214D02*
X11162500Y-16674214D01*
X11191071Y-16688500D01*
X11205357Y-16702786D01*
X11219643Y-16731357D01*
X11233928Y-16788500D01*
X11233928Y-16859929D01*
X11219643Y-16917072D01*
X11205357Y-16945643D01*
X11191071Y-16959929D01*
X11162500Y-16974214D01*
X11133929Y-16974214D01*
X11105357Y-16959929D01*
X11091071Y-16945643D01*
X11076786Y-16917072D01*
X11062500Y-16859929D01*
X11062500Y-16788500D01*
X11076786Y-16731357D01*
X11091071Y-16702786D01*
X11105357Y-16688500D01*
X11133929Y-16674214D01*
X11348214Y-16674214D02*
X11348214Y-16731357D01*
X11462500Y-16674214D02*
X11462500Y-16731357D01*
X11905357Y-17088500D02*
X11891071Y-17074214D01*
X11862500Y-17031357D01*
X11848214Y-17002786D01*
X11833928Y-16959929D01*
X11819643Y-16888500D01*
X11819643Y-16831357D01*
X11833928Y-16759929D01*
X11848214Y-16717071D01*
X11862500Y-16688500D01*
X11891071Y-16645643D01*
X11905357Y-16631357D01*
X12005357Y-16702786D02*
X12019643Y-16688500D01*
X12048214Y-16674214D01*
X12119643Y-16674214D01*
X12148214Y-16688500D01*
X12162500Y-16702786D01*
X12176786Y-16731357D01*
X12176786Y-16759929D01*
X12162500Y-16802786D01*
X11991071Y-16974214D01*
X12176786Y-16974214D01*
X12533928Y-16974214D02*
X12533928Y-16674214D01*
X12662500Y-16974214D02*
X12662500Y-16817072D01*
X12648214Y-16788500D01*
X12619643Y-16774214D01*
X12576786Y-16774214D01*
X12548214Y-16788500D01*
X12533928Y-16802786D01*
X12848214Y-16974214D02*
X12819643Y-16959929D01*
X12805357Y-16945643D01*
X12791071Y-16917072D01*
X12791071Y-16831357D01*
X12805357Y-16802786D01*
X12819643Y-16788500D01*
X12848214Y-16774214D01*
X12891071Y-16774214D01*
X12919643Y-16788500D01*
X12933928Y-16802786D01*
X12948214Y-16831357D01*
X12948214Y-16917072D01*
X12933928Y-16945643D01*
X12919643Y-16959929D01*
X12891071Y-16974214D01*
X12848214Y-16974214D01*
X13119643Y-16974214D02*
X13091071Y-16959929D01*
X13076786Y-16931357D01*
X13076786Y-16674214D01*
X13348214Y-16959929D02*
X13319643Y-16974214D01*
X13262500Y-16974214D01*
X13233928Y-16959929D01*
X13219643Y-16931357D01*
X13219643Y-16817072D01*
X13233928Y-16788500D01*
X13262500Y-16774214D01*
X13319643Y-16774214D01*
X13348214Y-16788500D01*
X13362500Y-16817072D01*
X13362500Y-16845643D01*
X13219643Y-16874214D01*
X13476786Y-16959929D02*
X13505357Y-16974214D01*
X13562500Y-16974214D01*
X13591071Y-16959929D01*
X13605357Y-16931357D01*
X13605357Y-16917072D01*
X13591071Y-16888500D01*
X13562500Y-16874214D01*
X13519643Y-16874214D01*
X13491071Y-16859929D01*
X13476786Y-16831357D01*
X13476786Y-16817072D01*
X13491071Y-16788500D01*
X13519643Y-16774214D01*
X13562500Y-16774214D01*
X13591071Y-16788500D01*
X13705357Y-17088500D02*
X13719643Y-17074214D01*
X13748214Y-17031357D01*
X13762500Y-17002786D01*
X13776786Y-16959929D01*
X13791071Y-16888500D01*
X13791071Y-16831357D01*
X13776786Y-16759929D01*
X13762500Y-16717071D01*
X13748214Y-16688500D01*
X13719643Y-16645643D01*
X13705357Y-16631357D01*
M02*
