M48
; DRILL file {KiCad (5.1.10)-1} date 07/05/22 13:37:31
; FORMAT={-:-/ absolute / metric / decimal}
; #@! TF.CreationDate,2022-07-05T13:37:31+02:00
; #@! TF.GenerationSoftware,Kicad,Pcbnew,(5.1.10)-1
; #@! TF.FileFunction,Plated,1,2,PTH
FMAT,2
METRIC
T1C0.400
T2C0.762
T3C0.800
T4C0.900
T5C1.000
T6C2.000
T7C3.200
%
G90
G05
T1
X100.33Y-81.28
X111.125Y-81.28
X111.76Y-132.08
X119.38Y-81.685
X121.915Y-81.685
X121.92Y-78.105
X126.365Y-78.105
X127.635Y-81.915
X133.985Y-82.55
X137.795Y-132.08
T2
X120.015Y-132.08
X128.905Y-132.08
T3
X142.24Y-73.66
X142.24Y-81.28
X144.78Y-73.66
X144.78Y-81.28
X147.32Y-73.66
X147.32Y-81.28
X149.86Y-73.66
X149.86Y-81.28
T4
X122.555Y-132.08
X126.365Y-132.08
T5
X87.63Y-81.28
X88.9Y-124.16
X90.17Y-81.28
X90.285Y-127.0
X91.67Y-124.16
X92.71Y-73.66
X92.71Y-81.28
X93.055Y-127.0
X94.44Y-124.16
X95.25Y-81.28
X95.825Y-127.0
X97.21Y-124.16
X98.595Y-127.0
X99.98Y-124.16
X114.07Y-85.74
X114.07Y-111.14
X116.61Y-85.74
X116.61Y-111.14
X119.15Y-85.74
X119.15Y-111.14
X121.69Y-85.74
X121.69Y-111.14
X124.23Y-85.74
X124.23Y-111.14
X126.77Y-85.74
X126.77Y-111.14
X129.31Y-85.74
X129.31Y-111.14
X131.85Y-85.74
X131.85Y-111.14
X134.39Y-85.74
X134.39Y-111.14
X136.93Y-85.74
X136.93Y-111.14
T6
X144.145Y-116.84
X144.145Y-132.34
X154.305Y-116.84
X154.305Y-132.34
T7
X81.94Y-125.58
X106.94Y-125.58
T0
M30
