G04 #@! TF.GenerationSoftware,KiCad,Pcbnew,(5.1.10)-1*
G04 #@! TF.CreationDate,2022-07-05T13:36:51+02:00*
G04 #@! TF.ProjectId,Lin-bus card,4c696e2d-6275-4732-9063-6172642e6b69,V0.3*
G04 #@! TF.SameCoordinates,Original*
G04 #@! TF.FileFunction,Soldermask,Bot*
G04 #@! TF.FilePolarity,Negative*
%FSLAX46Y46*%
G04 Gerber Fmt 4.6, Leading zero omitted, Abs format (unit mm)*
G04 Created by KiCad (PCBNEW (5.1.10)-1) date 2022-07-05 13:36:51*
%MOMM*%
%LPD*%
G01*
G04 APERTURE LIST*
%ADD10C,3.200000*%
%ADD11R,1.700000X1.700000*%
%ADD12O,1.700000X1.700000*%
%ADD13C,4.000000*%
%ADD14R,1.600000X1.600000*%
%ADD15C,1.600000*%
%ADD16R,2.000000X2.000000*%
%ADD17C,2.000000*%
%ADD18O,1.600000X1.600000*%
%ADD19C,1.524000*%
%ADD20R,1.524000X1.524000*%
G04 APERTURE END LIST*
D10*
X70000000Y-120000000D03*
X168000000Y-120000000D03*
X156000000Y-75000000D03*
X82000000Y-75000000D03*
D11*
X136930000Y-111140000D03*
D12*
X134390000Y-111140000D03*
X131850000Y-111140000D03*
X129310000Y-111140000D03*
X126770000Y-111140000D03*
X124230000Y-111140000D03*
X121690000Y-111140000D03*
X119150000Y-111140000D03*
X116610000Y-111140000D03*
X114070000Y-111140000D03*
X114070000Y-85740000D03*
X116610000Y-85740000D03*
X119150000Y-85740000D03*
X121690000Y-85740000D03*
X124230000Y-85740000D03*
X126770000Y-85740000D03*
X129310000Y-85740000D03*
X131850000Y-85740000D03*
X134390000Y-85740000D03*
D11*
X136930000Y-85740000D03*
D13*
X144145000Y-132340000D03*
X144145000Y-116840000D03*
X154305000Y-116840000D03*
X154305000Y-132340000D03*
D14*
X88900000Y-124160000D03*
D15*
X91670000Y-124160000D03*
X94440000Y-124160000D03*
X97210000Y-124160000D03*
X99980000Y-124160000D03*
X90285000Y-127000000D03*
X93055000Y-127000000D03*
X95825000Y-127000000D03*
X98595000Y-127000000D03*
D13*
X81940000Y-125580000D03*
X106940000Y-125580000D03*
D16*
X92710000Y-73660000D03*
D17*
X95250000Y-81280000D03*
X92710000Y-81280000D03*
X90170000Y-81280000D03*
X87630000Y-81280000D03*
D14*
X142240000Y-81280000D03*
D18*
X149860000Y-73660000D03*
X144780000Y-81280000D03*
X147320000Y-73660000D03*
X147320000Y-81280000D03*
X144780000Y-73660000D03*
X149860000Y-81280000D03*
X142240000Y-73660000D03*
D19*
X128905000Y-132080000D03*
D20*
X126365000Y-132080000D03*
X122555000Y-132080000D03*
D19*
X120015000Y-132080000D03*
M02*
