G04 #@! TF.GenerationSoftware,KiCad,Pcbnew,(5.1.10)-1*
G04 #@! TF.CreationDate,2022-07-05T13:36:51+02:00*
G04 #@! TF.ProjectId,Lin-bus card,4c696e2d-6275-4732-9063-6172642e6b69,V0.3*
G04 #@! TF.SameCoordinates,Original*
G04 #@! TF.FileFunction,Paste,Top*
G04 #@! TF.FilePolarity,Positive*
%FSLAX46Y46*%
G04 Gerber Fmt 4.6, Leading zero omitted, Abs format (unit mm)*
G04 Created by KiCad (PCBNEW (5.1.10)-1) date 2022-07-05 13:36:51*
%MOMM*%
%LPD*%
G01*
G04 APERTURE LIST*
%ADD10R,2.150000X5.700000*%
%ADD11R,1.100000X1.100000*%
%ADD12R,1.800000X2.500000*%
%ADD13R,0.450000X0.600000*%
%ADD14R,1.900000X1.600000*%
%ADD15R,1.100000X4.600000*%
%ADD16R,5.250000X4.550000*%
%ADD17R,0.650000X1.060000*%
G04 APERTURE END LIST*
G36*
G01*
X127885000Y-79825000D02*
X127385000Y-79825000D01*
G75*
G02*
X127160000Y-79600000I0J225000D01*
G01*
X127160000Y-79150000D01*
G75*
G02*
X127385000Y-78925000I225000J0D01*
G01*
X127885000Y-78925000D01*
G75*
G02*
X128110000Y-79150000I0J-225000D01*
G01*
X128110000Y-79600000D01*
G75*
G02*
X127885000Y-79825000I-225000J0D01*
G01*
G37*
G36*
G01*
X127885000Y-81375000D02*
X127385000Y-81375000D01*
G75*
G02*
X127160000Y-81150000I0J225000D01*
G01*
X127160000Y-80700000D01*
G75*
G02*
X127385000Y-80475000I225000J0D01*
G01*
X127885000Y-80475000D01*
G75*
G02*
X128110000Y-80700000I0J-225000D01*
G01*
X128110000Y-81150000D01*
G75*
G02*
X127885000Y-81375000I-225000J0D01*
G01*
G37*
G36*
G01*
X125480000Y-78925000D02*
X125980000Y-78925000D01*
G75*
G02*
X126205000Y-79150000I0J-225000D01*
G01*
X126205000Y-79600000D01*
G75*
G02*
X125980000Y-79825000I-225000J0D01*
G01*
X125480000Y-79825000D01*
G75*
G02*
X125255000Y-79600000I0J225000D01*
G01*
X125255000Y-79150000D01*
G75*
G02*
X125480000Y-78925000I225000J0D01*
G01*
G37*
G36*
G01*
X125480000Y-80475000D02*
X125980000Y-80475000D01*
G75*
G02*
X126205000Y-80700000I0J-225000D01*
G01*
X126205000Y-81150000D01*
G75*
G02*
X125980000Y-81375000I-225000J0D01*
G01*
X125480000Y-81375000D01*
G75*
G02*
X125255000Y-81150000I0J225000D01*
G01*
X125255000Y-80700000D01*
G75*
G02*
X125480000Y-80475000I225000J0D01*
G01*
G37*
G36*
G01*
X135270001Y-81220000D02*
X133969999Y-81220000D01*
G75*
G02*
X133720000Y-80970001I0J249999D01*
G01*
X133720000Y-80319999D01*
G75*
G02*
X133969999Y-80070000I249999J0D01*
G01*
X135270001Y-80070000D01*
G75*
G02*
X135520000Y-80319999I0J-249999D01*
G01*
X135520000Y-80970001D01*
G75*
G02*
X135270001Y-81220000I-249999J0D01*
G01*
G37*
G36*
G01*
X135270001Y-78270000D02*
X133969999Y-78270000D01*
G75*
G02*
X133720000Y-78020001I0J249999D01*
G01*
X133720000Y-77369999D01*
G75*
G02*
X133969999Y-77120000I249999J0D01*
G01*
X135270001Y-77120000D01*
G75*
G02*
X135520000Y-77369999I0J-249999D01*
G01*
X135520000Y-78020001D01*
G75*
G02*
X135270001Y-78270000I-249999J0D01*
G01*
G37*
D10*
X130810000Y-127040000D03*
X130810000Y-116840000D03*
G36*
G01*
X97635000Y-116925000D02*
X97635000Y-118025000D01*
G75*
G02*
X97385000Y-118275000I-250000J0D01*
G01*
X94385000Y-118275000D01*
G75*
G02*
X94135000Y-118025000I0J250000D01*
G01*
X94135000Y-116925000D01*
G75*
G02*
X94385000Y-116675000I250000J0D01*
G01*
X97385000Y-116675000D01*
G75*
G02*
X97635000Y-116925000I0J-250000D01*
G01*
G37*
G36*
G01*
X92235000Y-116925000D02*
X92235000Y-118025000D01*
G75*
G02*
X91985000Y-118275000I-250000J0D01*
G01*
X88985000Y-118275000D01*
G75*
G02*
X88735000Y-118025000I0J250000D01*
G01*
X88735000Y-116925000D01*
G75*
G02*
X88985000Y-116675000I250000J0D01*
G01*
X91985000Y-116675000D01*
G75*
G02*
X92235000Y-116925000I0J-250000D01*
G01*
G37*
D11*
X137160000Y-80270000D03*
X137160000Y-77470000D03*
D12*
X108585000Y-76835000D03*
X108585000Y-80835000D03*
X104775000Y-80835000D03*
X104775000Y-76835000D03*
D13*
X85090000Y-119575000D03*
X85090000Y-117475000D03*
D12*
X108585000Y-116110000D03*
X108585000Y-120110000D03*
D13*
X82550000Y-117475000D03*
X82550000Y-119575000D03*
D14*
X104430000Y-117475000D03*
X100330000Y-117475000D03*
G36*
G01*
X122195000Y-79775000D02*
X121645000Y-79775000D01*
G75*
G02*
X121445000Y-79575000I0J200000D01*
G01*
X121445000Y-79175000D01*
G75*
G02*
X121645000Y-78975000I200000J0D01*
G01*
X122195000Y-78975000D01*
G75*
G02*
X122395000Y-79175000I0J-200000D01*
G01*
X122395000Y-79575000D01*
G75*
G02*
X122195000Y-79775000I-200000J0D01*
G01*
G37*
G36*
G01*
X122195000Y-81425000D02*
X121645000Y-81425000D01*
G75*
G02*
X121445000Y-81225000I0J200000D01*
G01*
X121445000Y-80825000D01*
G75*
G02*
X121645000Y-80625000I200000J0D01*
G01*
X122195000Y-80625000D01*
G75*
G02*
X122395000Y-80825000I0J-200000D01*
G01*
X122395000Y-81225000D01*
G75*
G02*
X122195000Y-81425000I-200000J0D01*
G01*
G37*
G36*
G01*
X119740000Y-78975000D02*
X120290000Y-78975000D01*
G75*
G02*
X120490000Y-79175000I0J-200000D01*
G01*
X120490000Y-79575000D01*
G75*
G02*
X120290000Y-79775000I-200000J0D01*
G01*
X119740000Y-79775000D01*
G75*
G02*
X119540000Y-79575000I0J200000D01*
G01*
X119540000Y-79175000D01*
G75*
G02*
X119740000Y-78975000I200000J0D01*
G01*
G37*
G36*
G01*
X119740000Y-80625000D02*
X120290000Y-80625000D01*
G75*
G02*
X120490000Y-80825000I0J-200000D01*
G01*
X120490000Y-81225000D01*
G75*
G02*
X120290000Y-81425000I-200000J0D01*
G01*
X119740000Y-81425000D01*
G75*
G02*
X119540000Y-81225000I0J200000D01*
G01*
X119540000Y-80825000D01*
G75*
G02*
X119740000Y-80625000I200000J0D01*
G01*
G37*
G36*
G01*
X124100000Y-81425000D02*
X123550000Y-81425000D01*
G75*
G02*
X123350000Y-81225000I0J200000D01*
G01*
X123350000Y-80825000D01*
G75*
G02*
X123550000Y-80625000I200000J0D01*
G01*
X124100000Y-80625000D01*
G75*
G02*
X124300000Y-80825000I0J-200000D01*
G01*
X124300000Y-81225000D01*
G75*
G02*
X124100000Y-81425000I-200000J0D01*
G01*
G37*
G36*
G01*
X124100000Y-79775000D02*
X123550000Y-79775000D01*
G75*
G02*
X123350000Y-79575000I0J200000D01*
G01*
X123350000Y-79175000D01*
G75*
G02*
X123550000Y-78975000I200000J0D01*
G01*
X124100000Y-78975000D01*
G75*
G02*
X124300000Y-79175000I0J-200000D01*
G01*
X124300000Y-79575000D01*
G75*
G02*
X124100000Y-79775000I-200000J0D01*
G01*
G37*
G36*
G01*
X135655000Y-131805000D02*
X135655000Y-132355000D01*
G75*
G02*
X135455000Y-132555000I-200000J0D01*
G01*
X135055000Y-132555000D01*
G75*
G02*
X134855000Y-132355000I0J200000D01*
G01*
X134855000Y-131805000D01*
G75*
G02*
X135055000Y-131605000I200000J0D01*
G01*
X135455000Y-131605000D01*
G75*
G02*
X135655000Y-131805000I0J-200000D01*
G01*
G37*
G36*
G01*
X134005000Y-131805000D02*
X134005000Y-132355000D01*
G75*
G02*
X133805000Y-132555000I-200000J0D01*
G01*
X133405000Y-132555000D01*
G75*
G02*
X133205000Y-132355000I0J200000D01*
G01*
X133205000Y-131805000D01*
G75*
G02*
X133405000Y-131605000I200000J0D01*
G01*
X133805000Y-131605000D01*
G75*
G02*
X134005000Y-131805000I0J-200000D01*
G01*
G37*
G36*
G01*
X115170000Y-132355000D02*
X115170000Y-131805000D01*
G75*
G02*
X115370000Y-131605000I200000J0D01*
G01*
X115770000Y-131605000D01*
G75*
G02*
X115970000Y-131805000I0J-200000D01*
G01*
X115970000Y-132355000D01*
G75*
G02*
X115770000Y-132555000I-200000J0D01*
G01*
X115370000Y-132555000D01*
G75*
G02*
X115170000Y-132355000I0J200000D01*
G01*
G37*
G36*
G01*
X113520000Y-132355000D02*
X113520000Y-131805000D01*
G75*
G02*
X113720000Y-131605000I200000J0D01*
G01*
X114120000Y-131605000D01*
G75*
G02*
X114320000Y-131805000I0J-200000D01*
G01*
X114320000Y-132355000D01*
G75*
G02*
X114120000Y-132555000I-200000J0D01*
G01*
X113720000Y-132555000D01*
G75*
G02*
X113520000Y-132355000I0J200000D01*
G01*
G37*
D15*
X120240000Y-116145000D03*
X118540000Y-116145000D03*
X116840000Y-116145000D03*
X115140000Y-116145000D03*
X113440000Y-116145000D03*
D16*
X114065000Y-127720000D03*
X119615000Y-122870000D03*
X119615000Y-127720000D03*
X114065000Y-122870000D03*
D17*
X99700000Y-80010000D03*
X100650000Y-80010000D03*
X101600000Y-80010000D03*
X101600000Y-77810000D03*
X99700000Y-77810000D03*
M02*
